<?xml version="1.0" encoding="UTF-8" standalone="no"?>
<svg
   xmlns:dc="http://purl.org/dc/elements/1.1/"
   xmlns:cc="http://creativecommons.org/ns#"
   xmlns:rdf="http://www.w3.org/1999/02/22-rdf-syntax-ns#"
   xmlns:svg="http://www.w3.org/2000/svg"
   xmlns="http://www.w3.org/2000/svg"
   xmlns:sodipodi="http://sodipodi.sourceforge.net/DTD/sodipodi-0.dtd"
   xmlns:inkscape="http://www.inkscape.org/namespaces/inkscape"
   version="1.1"
   x="0px"
   y="0px"
   viewBox="0 0 100.001 100.001"
   enable-background="new 0 0 100 100"
   xml:space="preserve"
   id="svg2"
   inkscape:version="0.48.4 r9939"
   width="100%"
   height="100%"
   sodipodi:docname="washingMachineGlass.svg"
   inkscape:export-filename="/home/lrd900/code/presentations/iswc2015/imgs/washingMachineGlass.png"
   inkscape:export-xdpi="180"
   inkscape:export-ydpi="180"><metadata
     id="metadata16"><rdf:RDF><cc:Work
         rdf:about=""><dc:format>image/svg+xml</dc:format><dc:type
           rdf:resource="http://purl.org/dc/dcmitype/StillImage" /><dc:title></dc:title></cc:Work></rdf:RDF></metadata><defs
     id="defs14"><clipPath
       clipPathUnits="userSpaceOnUse"
       id="clipPath84"><path
         inkscape:connector-curvature="0"
         d="m 2250,1210 500,0 0,500 -500,0 0,-500 z"
         id="path86" /></clipPath></defs><sodipodi:namedview
     pagecolor="#ffffff"
     bordercolor="#666666"
     borderopacity="1"
     objecttolerance="10"
     gridtolerance="10"
     guidetolerance="10"
     inkscape:pageopacity="0"
     inkscape:pageshadow="2"
     inkscape:window-width="1855"
     inkscape:window-height="1056"
     id="namedview12"
     showgrid="false"
     fit-margin-top="0"
     fit-margin-left="0"
     fit-margin-right="0"
     fit-margin-bottom="0"
     inkscape:zoom="5.3400704"
     inkscape:cx="66.31985"
     inkscape:cy="35.648916"
     inkscape:window-x="65"
     inkscape:window-y="24"
     inkscape:window-maximized="1"
     inkscape:current-layer="svg2" /><g
     id="g2993"
     style="fill:#848484;fill-opacity:0.52054793"
     inkscape:export-xdpi="180"
     inkscape:export-ydpi="180"
     inkscape:export-filename="/home/lrd900/code/presentations/iswc2015/imgs/washingMachineGlass.png"><g
       id="g4"
       style="fill:#848484;fill-opacity:0.52054793"><path
         id="path6"
         d="M 81.89,72.603 C 87.553,65.023 90.91,55.624 90.91,45.455 90.909,20.391 70.519,0 45.455,0 20.391,0 0,20.391 0,45.455 0,70.519 20.391,90.91 45.455,90.91 c 10.169,0 19.568,-3.356 27.148,-9.02 l 16.188,16.188 c 1.282,1.281 2.964,1.923 4.644,1.923 1.68,0 3.36,-0.642 4.643,-1.923 2.564,-2.564 2.564,-6.722 0,-9.286 L 81.89,72.603 z m -36.435,5.174 c -17.823,0 -32.323,-14.5 -32.323,-32.323 0,-17.823 14.5,-32.324 32.323,-32.324 17.823,0 32.323,14.5 32.323,32.324 -0.001,17.823 -14.501,32.323 -32.323,32.323 z"
         style="fill:#848484;fill-opacity:0.52054793"
         inkscape:connector-curvature="0" /></g></g><g
     transform="matrix(0.65486672,0,0,0.65486672,-199.68337,-303.41622)"
     id="g3008"><path
       clip-path="none"
       id="path22"
       style="fill:#3d90c6;fill-opacity:1;fill-rule:nonzero;stroke:none"
       d="m 375,482.36218 c -27.615,0 -50,22.38625 -50,50 0,27.615 22.385,50 50,50 27.615,0 50,-22.385 50,-50 0,-27.61375 -22.385,-50 -50,-50"
       inkscape:connector-curvature="0" /><g
       id="g80"
       transform="matrix(0.125,0,0,-0.125,62.142858,714.86218)"><g
         clip-path="url(#clipPath84)"
         id="g82"><path
           id="path88"
           style="fill:#ffffff;fill-opacity:1;fill-rule:nonzero;stroke:none"
           d="m 2498.81,1477.42 c 37,0 67.01,-30 67.01,-67 0,-37.01 -30.01,-67.02 -67.01,-67.02 -36.99,0 -67.01,30.01 -67.01,67.02 0,37 30.02,67 67.01,67 z m 0,-160.36 c 51.56,0 93.37,41.8 93.37,93.36 0,51.55 -41.81,93.36 -93.37,93.36 -51.55,0 -93.37,-41.81 -93.37,-93.36 0,-51.56 41.82,-93.36 93.37,-93.36"
           inkscape:connector-curvature="0" /><path
           id="path90"
           style="fill:#ffffff;fill-opacity:1;fill-rule:nonzero;stroke:none"
           d="m 2681.92,1690 -363.83,0 c -10.48,0 -18.99,-8.49 -18.99,-18.99 l 0,-29.99 401.8,0 0,29.99 c 0,10.5 -8.5,18.99 -18.98,18.99"
           inkscape:connector-curvature="0" /><path
           id="path92"
           style="fill:#ffffff;fill-opacity:1;fill-rule:nonzero;stroke:none"
           d="m 2318.48,1602.46 c 0,3.24 2.61,5.87 5.88,5.87 l 59.42,0 c 3.26,0 5.88,-2.63 5.88,-5.87 l 0,-33.38 c 0,-3.24 -2.62,-5.88 -5.88,-5.88 l -59.42,0 c -3.27,0 -5.88,2.64 -5.88,5.88 l 0,33.38 z m 180.33,-72.21 c 60.25,0 109.98,-44.53 118.42,-102.42 l 17.03,0 0,-34.81 -17.03,0 c -8.44,-57.9 -58.17,-102.43 -118.42,-102.43 -66.17,0 -119.83,53.68 -119.83,119.83 0,66.17 53.66,119.83 119.83,119.83 z m 83.88,77.99 c 8.2,0 14.83,-6.66 14.83,-14.85 0,-8.18 -6.63,-14.83 -14.83,-14.83 -8.2,0 -14.84,6.65 -14.84,14.83 0,8.19 6.64,14.85 14.84,14.85 z m 39.84,0 c 8.21,0 14.84,-6.66 14.84,-14.85 0,-8.18 -6.63,-14.83 -14.84,-14.83 -8.2,0 -14.83,6.65 -14.83,14.83 0,8.19 6.63,14.85 14.83,14.85 z m 39.87,0 c 8.19,0 14.83,-6.66 14.83,-14.85 0,-8.18 -6.64,-14.83 -14.83,-14.83 -8.22,0 -14.86,6.65 -14.86,14.83 0,8.19 6.64,14.85 14.86,14.85 z m -363.3,-359.26 c 0,-10.5 8.51,-18.98 18.99,-18.98 l 363.83,0 c 10.48,0 18.98,8.48 18.98,18.98 l 0,377.38 -401.8,0 0,-377.38"
           inkscape:connector-curvature="0" /></g></g></g></svg>