<?xml version="1.0" encoding="iso-8859-1"?>
<!-- Generator: Adobe Illustrator 19.0.0, SVG Export Plug-In . SVG Version: 6.00 Build 0)  -->
<svg version="1.1" id="Layer_1" xmlns="http://www.w3.org/2000/svg" xmlns:xlink="http://www.w3.org/1999/xlink" x="0px" y="0px"
	 viewBox="0 0 511.999 511.999" style="enable-background:new 0 0 511.999 511.999;" xml:space="preserve">
<path style="fill:#BA2B11;" d="M506.837,276.004c-19.287-30.953-52.575-49.432-89.045-49.432H123.817l-46.843-66.481
	c-3.032-4.303-7.966-6.862-13.23-6.862H31.892c-8.938,0-16.185,7.246-16.185,16.185v55.017c0,14.357,3.232,28.811,9.344,41.801
	c0.617,1.311,1.407,2.533,2.35,3.635l9.961,11.635c25.415,29.685,62.403,46.711,101.481,46.711h339.011
	c12.397,0,23.838-6.734,29.855-17.573C513.727,299.797,513.393,286.527,506.837,276.004z"/>
<path style="fill:#E64122;" d="M258.474,226.572H123.817l-46.843-66.481c-3.032-4.303-7.966-6.862-13.23-6.862H31.892
	c-8.938,0-16.185,7.246-16.185,16.185v55.017c0,14.357,3.232,28.811,9.344,41.801c0.617,1.311,1.407,2.533,2.35,3.635l9.961,11.635
	c25.415,29.685,62.403,46.711,101.481,46.711h119.63V226.572z"/>
<path style="fill:#F9AA1A;" d="M337.645,279.925H235.397c-21.737,0-39.422,17.685-39.422,39.423
	c0,21.737,17.685,39.422,39.422,39.422h102.249c21.738,0,39.423-17.685,39.423-39.422
	C377.068,297.609,359.383,279.925,337.645,279.925z"/>
<path style="fill:#FFBE24;" d="M258.474,279.925h-23.078c-21.737,0-39.422,17.685-39.422,39.423
	c0,21.737,17.685,39.422,39.422,39.422h23.078V279.925z"/>
<path style="fill:#2E373A;" d="M235.397,279.925c-21.737,0-39.422,17.685-39.422,39.423c0,21.737,17.685,39.422,39.422,39.422
	V279.925z"/>
<path style="fill:#F9AA1A;" d="M47.706,256.904H16.185C7.246,256.904,0,249.658,0,240.719c0-8.938,7.246-16.185,16.185-16.185
	h31.521c8.938,0,16.185,7.246,16.185,16.185C63.89,249.658,56.644,256.904,47.706,256.904z"/>
<path style="fill:#FFBE24;" d="M31.945,256.904H16.185C7.246,256.904,0,249.658,0,240.719c0-8.938,7.246-16.185,16.185-16.185
	h15.761V256.904z"/>
<path style="fill:#BDDEFF;" d="M441.899,261.393c0,8.938,7.246,16.185,16.185,16.185h34.527c4.689,0,8.9-2.007,11.856-5.193
	c-7.353-10.807-16.47-19.96-26.849-27.176h-19.534C449.146,245.209,441.899,252.455,441.899,261.393z"/>
<path style="fill:#D7EBFF;" d="M441.899,261.393c0,8.938,7.246,16.185,16.185,16.185h9.171v-32.369h-9.171
	C449.146,245.209,441.899,252.455,441.899,261.393z"/>
<g>
</g>
<g>
</g>
<g>
</g>
<g>
</g>
<g>
</g>
<g>
</g>
<g>
</g>
<g>
</g>
<g>
</g>
<g>
</g>
<g>
</g>
<g>
</g>
<g>
</g>
<g>
</g>
<g>
</g>
</svg>
