<?xml version="1.0" encoding="iso-8859-1"?>
<!-- Generator: Adobe Illustrator 19.0.0, SVG Export Plug-In . SVG Version: 6.00 Build 0)  -->
<svg version="1.1" id="Layer_1" xmlns="http://www.w3.org/2000/svg" xmlns:xlink="http://www.w3.org/1999/xlink" x="0px" y="0px"
	 viewBox="0 0 512 512" style="enable-background:new 0 0 512 512;" xml:space="preserve">
<path style="fill:#F9AA1A;" d="M439.868,216.586h-42.769l-35.291-77.501c-2.839-6.235-9.381-9.916-16.192-9.09l-149.29,18.067
	c-58.788,7.114-112.086,38.894-146.299,87.211l-25.299,31.831c-2.21,2.781-3.414,6.228-3.414,9.779v56.316
	c0,8.68,7.037,15.717,15.717,15.717h459.251c8.68,0,15.717-7.037,15.717-15.717v-44.482
	C512,248.943,479.641,216.586,439.868,216.586z"/>
<path style="fill:#FFBE24;" d="M266.657,139.55l-70.331,8.511c-58.788,7.114-112.086,38.894-146.299,87.211l-25.299,31.831
	c-2.21,2.781-3.414,6.228-3.414,9.779v56.316c0,8.68,7.037,15.717,15.717,15.717h229.626L266.657,139.55z"/>
<path style="fill:#995D3D;" d="M28.316,318.881H15.717C7.037,318.881,0,311.844,0,303.164s7.037-15.717,15.717-15.717h12.599
	c8.68,0,15.717,7.037,15.717,15.717S36.998,318.881,28.316,318.881z"/>
<path style="fill:#7A4126;" d="M307.023,294.162h-20.431c-8.68,0-15.717-7.037-15.717-15.717s7.037-15.717,15.717-15.717h20.431
	c8.68,0,15.717,7.037,15.717,15.717S315.703,294.162,307.023,294.162z"/>
<path style="fill:#995D3D;" d="M296.808,294.162h-10.216c-8.68,0-15.717-7.037-15.717-15.717s7.037-15.717,15.717-15.717h10.216
	V294.162z"/>
<path style="fill:#BDDEFF;" d="M361.808,139.085c-2.839-6.235-9.381-9.916-16.192-9.09l-149.29,18.067
	c-50.641,6.128-97.195,30.572-130.999,68.109h331.582L361.808,139.085z"/>
<path style="fill:#D7EBFF;" d="M266.657,139.55l-70.331,8.511c-50.641,6.128-97.195,30.572-130.999,68.109h201.329V139.55z"/>
<path style="fill:#212A2D;" d="M196.326,148.06c-50.641,6.128-97.195,30.572-130.999,68.109h145.209v-69.83L196.326,148.06z"/>
<path style="fill:#2E373A;" d="M125.904,169.618c-22.746,11.643-43.322,27.392-60.577,46.553h60.58L125.904,169.618z"/>
<path style="fill:#212A2D;" d="M410.94,382.12c-28.587,0-51.844-23.257-51.844-51.844s23.257-51.844,51.844-51.844
	s51.844,23.257,51.844,51.844S439.526,382.12,410.94,382.12z"/>
<path style="fill:#2E373A;" d="M410.94,382.12c-28.587,0-51.844-23.257-51.844-51.844s23.257-51.844,51.844-51.844V382.12z"/>
<circle style="fill:#A2B3BF;" cx="410.945" cy="330.273" r="20.891"/>
<path style="fill:#C9D2D9;" d="M410.94,351.168c-11.539,0-20.891-9.354-20.891-20.891c0-11.539,9.354-20.891,20.891-20.891V351.168z
	"/>
<path style="fill:#212A2D;" d="M125.907,382.12c-28.587,0-51.844-23.257-51.844-51.844s23.257-51.844,51.844-51.844
	s51.844,23.257,51.844,51.844S154.494,382.12,125.907,382.12z"/>
<path style="fill:#2E373A;" d="M125.907,382.12c-28.587,0-51.844-23.257-51.844-51.844s23.257-51.844,51.844-51.844
	C125.907,278.432,125.907,382.12,125.907,382.12z"/>
<circle style="fill:#A2B3BF;" cx="125.906" cy="330.273" r="20.891"/>
<path style="fill:#C9D2D9;" d="M125.907,351.168c-11.539,0-20.891-9.354-20.891-20.891c0-11.539,9.354-20.891,20.891-20.891
	C125.907,309.385,125.907,351.168,125.907,351.168z"/>
<g>
</g>
<g>
</g>
<g>
</g>
<g>
</g>
<g>
</g>
<g>
</g>
<g>
</g>
<g>
</g>
<g>
</g>
<g>
</g>
<g>
</g>
<g>
</g>
<g>
</g>
<g>
</g>
<g>
</g>
</svg>
