<?xml version="1.0" encoding="iso-8859-1"?>
<!-- Generator: Adobe Illustrator 19.0.0, SVG Export Plug-In . SVG Version: 6.00 Build 0)  -->
<svg version="1.1" id="Layer_1" xmlns="http://www.w3.org/2000/svg" xmlns:xlink="http://www.w3.org/1999/xlink" x="0px" y="0px"
	 viewBox="0 0 512 512" style="enable-background:new 0 0 512 512;" xml:space="preserve">
<path style="fill:#FFBE24;" d="M495.497,343.969c-9.114,0-16.503-7.389-16.503-16.503v-24.032c0-9.114,7.389-16.503,16.503-16.503
	S512,294.32,512,303.434v24.032C512,336.581,504.612,343.969,495.497,343.969z"/>
<path style="fill:#128CB3;" d="M167.614,291.457c-6.429,0-12.538-3.779-15.204-10.07L81.729,114.525
	c-3.555-8.392,0.366-18.078,8.759-21.634c8.391-3.555,18.079,0.366,21.634,8.759l70.682,166.862
	c3.555,8.392-0.366,18.078-8.759,21.634C171.943,291.035,169.76,291.457,167.614,291.457z"/>
<polygon style="fill:#BDDEFF;" points="365.205,160.48 302.229,160.48 302.229,264.875 430.138,264.875 "/>
<rect x="302.231" y="160.478" style="fill:#D7EBFF;" width="40.231" height="104.4"/>
<path style="fill:#2E373A;" d="M302.229,281.379c-9.114,0-16.503-7.389-16.503-16.503v-94.61c0-9.114,7.389-16.503,16.503-16.503
	s16.503,7.389,16.503,16.503v94.61C318.732,273.99,311.343,281.379,302.229,281.379z"/>
<path style="fill:#128CB3;" d="M297.297,272.773L108.103,80.256c-3.103-3.158-7.344-4.936-11.771-4.936H64.58
	c-9.114,0-16.503,7.389-16.503,16.503v94.945l33.007-13.268v-65.174h8.33l184.343,187.58c3.231,3.287,7.499,4.936,11.772,4.936
	c4.174,0,8.353-1.576,11.567-4.732C303.594,289.722,303.685,279.273,297.297,272.773z"/>
<path style="fill:#34B2D9;" d="M175.052,148.38l-66.948-68.123c-3.103-3.158-7.344-4.936-11.771-4.936H64.58
	c-9.114,0-16.503,7.389-16.503,16.503v94.945l33.007-13.268v-65.174h8.33l85.641,87.144L175.052,148.38z"/>
<path style="fill:#E64122;" d="M302.229,272.69H54.025C24.236,272.69,0,296.926,0,326.716v39.023
	c0,9.114,7.389,16.503,16.503,16.503h285.725c9.114,0,16.503-7.389,16.503-16.503v-76.545
	C318.732,280.079,311.343,272.69,302.229,272.69z"/>
<path style="fill:#BA2B11;" d="M456.914,248.372h-17.606l-60.089-96.608c-3.012-4.842-8.311-7.787-14.014-7.787h-77.759
	c-9.114,0-16.503,7.389-16.503,16.503s7.389,16.503,16.503,16.503h68.589l44.403,71.389h-100.36
	c-16.091,0-29.135,13.044-29.135,29.135v104.736h208.051c9.114,0,16.503-7.389,16.503-16.503v-78.784
	C495.497,265.646,478.223,248.372,456.914,248.372z"/>
<path style="fill:#212A2D;" d="M107.513,436.679c-30.016,0-54.437-24.421-54.437-54.437c0-30.016,24.421-54.437,54.437-54.437
	s54.437,24.421,54.437,54.437C161.949,412.259,137.529,436.679,107.513,436.679z"/>
<path style="fill:#2E373A;" d="M107.513,436.679c-30.016,0-54.437-24.421-54.437-54.437c0-30.016,24.421-54.437,54.437-54.437
	V436.679z"/>
<circle style="fill:#A2B3BF;" cx="107.514" cy="382.238" r="21.936"/>
<path style="fill:#C9D2D9;" d="M107.513,404.179c-12.116,0-21.936-9.822-21.936-21.936c0-12.116,9.822-21.936,21.936-21.936
	C107.513,360.306,107.513,404.179,107.513,404.179z"/>
<path style="fill:#212A2D;" d="M396.896,436.679c-30.016,0-54.437-24.421-54.437-54.437c0-30.016,24.421-54.437,54.437-54.437
	c30.016,0,54.437,24.421,54.437,54.437C451.333,412.259,426.912,436.679,396.896,436.679z"/>
<path style="fill:#2E373A;" d="M396.896,436.679c-30.016,0-54.437-24.421-54.437-54.437c0-30.016,24.421-54.437,54.437-54.437
	V436.679z"/>
<circle style="fill:#A2B3BF;" cx="396.894" cy="382.238" r="21.936"/>
<path style="fill:#C9D2D9;" d="M396.896,404.179c-12.116,0-21.936-9.822-21.936-21.936c0-12.116,9.822-21.936,21.936-21.936V404.179
	z"/>
<path style="fill:#A2B3BF;" d="M81.083,173.501v-7.598H48.076v20.865c0,9.114,7.389,16.503,16.503,16.503
	c0.019,0,0.036-0.002,0.054-0.003c0.019,0,0.036,0.003,0.054,0.003c5.653,0,10.251,4.599,10.251,10.252s-4.599,10.251-10.251,10.251
	s-10.252-4.599-10.252-10.251c0-9.114-7.389-16.503-16.503-16.503s-16.503,7.389-16.503,16.503
	c0,23.853,19.406,43.257,43.258,43.257s43.257-19.406,43.257-43.257C107.946,195.471,96.827,179.975,81.083,173.501z"/>
<g>
	<path style="fill:#C9D2D9;" d="M48.076,165.903v20.865c0,9.114,7.389,16.503,16.503,16.503c0.019,0,0.036-0.002,0.054-0.003
		c0.019,0,0.036,0.003,0.054,0.003v-37.368H48.076z"/>
	<path style="fill:#C9D2D9;" d="M54.437,213.523c0-9.114-7.389-16.503-16.503-16.503s-16.503,7.389-16.503,16.503
		c0,23.853,19.406,43.257,43.258,43.257v-33.007C59.036,223.775,54.437,219.176,54.437,213.523z"/>
</g>
<g>
</g>
<g>
</g>
<g>
</g>
<g>
</g>
<g>
</g>
<g>
</g>
<g>
</g>
<g>
</g>
<g>
</g>
<g>
</g>
<g>
</g>
<g>
</g>
<g>
</g>
<g>
</g>
<g>
</g>
</svg>
