<?xml version="1.0" encoding="iso-8859-1"?>
<!-- Generator: Adobe Illustrator 19.0.0, SVG Export Plug-In . SVG Version: 6.00 Build 0)  -->
<svg version="1.1" id="Layer_1" xmlns="http://www.w3.org/2000/svg" xmlns:xlink="http://www.w3.org/1999/xlink" x="0px" y="0px"
	 viewBox="0 0 512.001 512.001" style="enable-background:new 0 0 512.001 512.001;" xml:space="preserve">
<path style="fill:#E64122;" d="M34.29,310.836c-9.462,0-17.133-7.671-17.133-17.133v-58.424c0-9.462,7.671-17.133,17.133-17.133
	s17.133,7.671,17.133,17.133v58.424C51.424,303.165,43.754,310.836,34.29,310.836z"/>
<path style="fill:#212A2D;" d="M299.566,286.977h-54.71c-9.462,0-17.133-7.671-17.133-17.133s7.671-17.133,17.133-17.133h43.509
	L332.858,151.1c2.73-6.234,8.889-10.261,15.694-10.261h65.802c4.873,0,9.515,2.074,12.764,5.704l31.63,35.328
	c6.312,7.05,5.715,17.881-1.335,24.193c-7.046,6.311-17.88,5.715-24.193-1.335l-26.525-29.623h-46.944l-44.493,101.611
	C312.531,282.95,306.372,286.977,299.566,286.977z"/>
<path style="fill:#2E373A;" d="M299.566,286.977h-54.71c-9.462,0-17.133-7.671-17.133-17.133s7.671-17.133,17.133-17.133h43.509
	L332.858,151.1c1.365-3.117,3.587-5.683,6.319-7.468l0.206,77.996l-24.121,55.089C312.531,282.95,306.372,286.977,299.566,286.977z"
	/>
<path style="fill:#DE8D0D;" d="M255.672,325.81L231.015,95.751h-189.2v231.886c0,9.462,7.671,17.133,17.133,17.133h179.688
	c4.862,0,9.495-2.066,12.744-5.683C254.628,335.471,256.191,330.645,255.672,325.81z"/>
<path style="fill:#F9AA1A;" d="M136.464,95.751H41.815v231.886c0,9.462,7.671,17.133,17.133,17.133h77.515V95.751z"/>
<polygon style="fill:#BDDEFF;" points="231.015,95.751 77.643,95.751 77.643,235.278 245.969,235.278 "/>
<path style="fill:#212A2D;" d="M357.3,431.558H66.354C29.766,431.558,0,401.792,0,365.204s29.766-66.354,66.354-66.354H357.3
	c36.587,0,66.354,29.766,66.354,66.354S393.887,431.558,357.3,431.558z"/>
<path style="fill:#2E373A;" d="M211.826,431.558H66.354C29.766,431.558,0,401.792,0,365.204s29.766-66.354,66.354-66.354h145.472
	V431.558z"/>
<path style="fill:#DE8D0D;" d="M358.895,397.291H64.756c-17.721,0-32.087-14.366-32.087-32.087l0,0
	c0-17.721,14.366-32.087,32.087-32.087h294.14c17.721,0,32.087,14.366,32.087,32.087l0,0
	C390.982,382.926,376.617,397.291,358.895,397.291z"/>
<path style="fill:#F9AA1A;" d="M211.826,397.291H64.756c-17.721,0-32.087-14.366-32.087-32.087l0,0
	c0-17.721,14.366-32.087,32.087-32.087h147.07V397.291z"/>
<path style="fill:#DE8D0D;" d="M494.867,184.862h-76.696c-9.462,0-17.133,7.671-17.133,17.133v49.485
	c0,7.022,4.286,13.333,10.812,15.925c25.661,10.186,46.016,29.669,57.319,54.857l10.067,22.441
	c2.805,6.252,8.99,10.121,15.625,10.121c1.189,0,2.393-0.125,3.593-0.38c7.902-1.692,13.547-8.674,13.547-16.754V201.995
	C512,192.533,504.329,184.862,494.867,184.862z"/>
<path style="fill:#F9AA1A;" d="M456.518,184.862h-38.349c-9.462,0-17.133,7.671-17.133,17.133v49.485
	c0,7.022,4.286,13.333,10.812,15.925c17.895,7.103,33.211,18.729,44.674,33.658L456.518,184.862z"/>
<circle style="fill:#212A2D;" cx="70.28" cy="365.201" r="16.409"/>
<path style="fill:#2E373A;" d="M70.282,381.613c-9.062,0-16.409-7.347-16.409-16.409s7.347-16.409,16.409-16.409V381.613z"/>
<rect x="77.643" y="95.752" style="fill:#D7EBFF;" width="58.824" height="139.533"/>
<path style="fill:#BA2B11;" d="M238.637,114.71H34.29c-9.462,0-17.133-7.671-17.133-17.133s7.671-17.133,17.133-17.133h204.346
	c9.462,0,17.133,7.671,17.133,17.133S248.099,114.71,238.637,114.71z"/>
<path style="fill:#E64122;" d="M136.464,114.71H34.29c-9.462,0-17.133-7.671-17.133-17.133s7.671-17.133,17.133-17.133h102.173
	C136.464,80.443,136.464,114.71,136.464,114.71z"/>
<circle style="fill:#212A2D;" cx="355.503" cy="365.201" r="16.409"/>
<path style="fill:#2E373A;" d="M355.504,381.613c-9.062,0-16.409-7.347-16.409-16.409s7.347-16.409,16.409-16.409V381.613z"/>
<g>
</g>
<g>
</g>
<g>
</g>
<g>
</g>
<g>
</g>
<g>
</g>
<g>
</g>
<g>
</g>
<g>
</g>
<g>
</g>
<g>
</g>
<g>
</g>
<g>
</g>
<g>
</g>
<g>
</g>
</svg>
