<?xml version="1.0" encoding="iso-8859-1"?>
<!-- Generator: Adobe Illustrator 19.0.0, SVG Export Plug-In . SVG Version: 6.00 Build 0)  -->
<svg version="1.1" id="Layer_1" xmlns="http://www.w3.org/2000/svg" xmlns:xlink="http://www.w3.org/1999/xlink" x="0px" y="0px"
	 viewBox="0 0 512 512" style="enable-background:new 0 0 512 512;" xml:space="preserve">
<path style="fill:#E64122;" d="M271.888,123.409H170.325c-8.649,0-15.662,7.012-15.662,15.662v66.94
	c0,8.649,7.012,15.662,15.662,15.662h101.563c8.649,0,15.662-7.012,15.662-15.662v-66.94
	C287.55,130.422,280.538,123.409,271.888,123.409z"/>
<path style="fill:#F9AA1A;" d="M375.298,123.409H271.888v82.602c0,8.649,6.185,15.662,13.816,15.662h89.594
	c7.63,0,13.816-7.012,13.816-15.662v-66.94C389.114,130.422,382.928,123.409,375.298,123.409z"/>
<path style="fill:#BA2B11;" d="M427.003,180.117h-96.502v98.264h96.502c7.121,0,12.893-7.012,12.893-15.662v-66.94
	C439.896,187.129,434.124,180.117,427.003,180.117z"/>
<path style="fill:#FFBE24;" d="M330.501,123.409h-58.612v82.602c0,8.649,6.185,15.662,13.816,15.662h44.797L330.501,123.409z"/>
<path style="fill:#7A4126;" d="M334.379,180.117H213.719v98.264h120.659c8.903,0,16.12-7.012,16.12-15.662v-66.94
	C350.499,187.129,343.282,180.117,334.379,180.117z"/>
<path style="fill:#212A2D;" d="M58.044,266.134c-8.649,0-15.662-7.012-15.662-15.662v-35.525c0-8.649,7.012-15.662,15.662-15.662
	s15.662,7.012,15.662,15.662v35.525C73.706,259.122,66.694,266.134,58.044,266.134z"/>
<path style="fill:#2E373A;" d="M58.044,266.134c-8.649,0-15.662-7.012-15.662-15.662v-35.525c0-8.649,7.012-15.662,15.662-15.662
	V266.134z"/>
<rect x="213.72" y="180.121" style="fill:#995D3D;" width="58.169" height="98.262"/>
<path style="fill:#F9AA1A;" d="M221.106,180.117H119.543c-8.649,0-15.662,7.012-15.662,15.662v66.941
	c0,8.649,7.012,15.662,15.662,15.662h101.563c8.649,0,15.662-7.012,15.662-15.662v-66.94
	C236.768,187.129,229.757,180.117,221.106,180.117z"/>
<path style="fill:#FFBE24;" d="M154.663,180.117h-35.121c-8.649,0-15.662,7.012-15.662,15.662v66.941
	c0,8.649,7.012,15.662,15.662,15.662h35.121V180.117z"/>
<path style="fill:#128CB3;" d="M510.483,255.994c-2.596-5.459-8.1-8.937-14.145-8.937H28.897c-11.202,0-21.172,6.274-26.018,16.374
	c-4.847,10.1-3.503,21.803,3.506,30.541l16.195,20.192v58.764c0,8.649,7.012,15.662,15.662,15.662h385.437
	c8.493,0,15.438-6.769,15.657-15.259l0.418-16.276l68.732-84.451C512.3,267.916,513.077,261.452,510.483,255.994z"/>
<path style="fill:#34B2D9;" d="M256,247.057H28.897c-11.202,0-21.172,6.274-26.018,16.374c-4.847,10.1-3.503,21.803,3.506,30.541
	l16.195,20.192v58.764c0,8.649,7.012,15.662,15.662,15.662H256L256,247.057z"/>
<path style="fill:#212A2D;" d="M22.58,372.929c0,8.649,7.012,15.662,15.662,15.662h385.437c8.493,0,15.438-6.769,15.657-15.259
	l0.401-15.623H22.58V372.929z"/>
<path style="fill:#2E373A;" d="M22.58,372.929c0,8.649,7.012,15.662,15.662,15.662H256v-30.882H22.58V372.929z"/>
<g>
</g>
<g>
</g>
<g>
</g>
<g>
</g>
<g>
</g>
<g>
</g>
<g>
</g>
<g>
</g>
<g>
</g>
<g>
</g>
<g>
</g>
<g>
</g>
<g>
</g>
<g>
</g>
<g>
</g>
</svg>
