<?xml version="1.0" encoding="iso-8859-1"?>
<!-- Generator: Adobe Illustrator 19.0.0, SVG Export Plug-In . SVG Version: 6.00 Build 0)  -->
<svg version="1.1" id="Layer_1" xmlns="http://www.w3.org/2000/svg" xmlns:xlink="http://www.w3.org/1999/xlink" x="0px" y="0px"
	 viewBox="0 0 512.001 512.001" style="enable-background:new 0 0 512.001 512.001;" xml:space="preserve">
<path style="fill:#F9AA1A;" d="M330.994,193.883c-9.076,0-16.433-7.358-16.433-16.433c0-17.407-14.162-31.568-31.568-31.568h-26.993
	c-9.076,0-16.433-7.358-16.433-16.433s7.358-16.433,16.433-16.433h26.993c35.53,0,64.435,28.906,64.435,64.435
	C347.427,186.526,340.07,193.883,330.994,193.883z"/>
<path style="fill:#FFBE24;" d="M282.993,145.882h-26.993c-9.076,0-16.433-7.358-16.433-16.433s7.358-16.433,16.433-16.433h26.993
	V145.882z"/>
<path style="fill:#2E373A;" d="M235.152,179.357c-2.965,0-5.965-0.801-8.667-2.484c-7.706-4.795-10.065-14.929-5.27-22.635
	l20.832-33.474c4.795-7.705,14.931-10.066,22.635-5.27c7.706,4.795,10.065,14.929,5.27,22.635l-20.832,33.474
	C246.006,176.608,240.641,179.357,235.152,179.357z"/>
<path style="fill:#A2B3BF;" d="M271.661,241.575H92.154c-9.076,0-16.433-7.358-16.433-16.433s7.358-16.433,16.433-16.433h179.508
	c9.076,0,16.433,7.358,16.433,16.433S280.737,241.575,271.661,241.575z"/>
<path style="fill:#C9D2D9;" d="M181.908,241.575H92.154c-9.076,0-16.433-7.358-16.433-16.433s7.358-16.433,16.433-16.433h89.754
	V241.575z"/>
<path style="fill:#212A2D;" d="M486.405,324.906c-4.266-8.012-14.219-11.046-22.229-6.781l-5.801,3.088
	c-7.657,4.078-15.455,7.878-23.365,11.417H64.389l-2.096-5.685c-3.14-8.515-12.588-12.872-21.104-9.735
	c-8.515,3.14-12.873,12.588-9.734,21.104l18.406,49.926c2.382,6.459,8.535,10.75,15.419,10.75h213.194
	c67.88,0,135.431-16.864,195.347-48.766l5.801-3.088C487.634,342.869,490.671,332.917,486.405,324.906z"/>
<path style="fill:#2E373A;" d="M228.468,332.63H64.389l-2.096-5.685c-3.14-8.515-12.588-12.872-21.104-9.735
	c-8.515,3.14-12.873,12.588-9.734,21.104l18.406,49.926c2.382,6.459,8.535,10.75,15.419,10.75h163.187V332.63z"/>
<path style="fill:#128CB3;" d="M505.5,238.183l-57.996-44.007c-28.183-21.384-63.187-33.16-98.562-33.16h-46.65
	c-9.076,0-16.433,7.358-16.433,16.433c0,31.646-25.745,57.391-57.391,57.391H46.123c-6.709,0-12.743,4.078-15.247,10.301
	L1.187,318.967c-2.037,5.064-1.426,10.809,1.63,15.331c3.055,4.523,8.157,7.234,13.617,7.234h479.134
	c9.076,0,16.433-7.358,16.433-16.433v-73.825C511.999,246.134,509.594,241.29,505.5,238.183z"/>
<path style="fill:#34B2D9;" d="M228.468,234.841H46.123c-6.709,0-12.743,4.078-15.247,10.301L1.187,318.967
	c-2.037,5.064-1.426,10.809,1.63,15.331c3.055,4.523,8.157,7.234,13.617,7.234h211.083L228.468,234.841z"/>
<g>
</g>
<g>
</g>
<g>
</g>
<g>
</g>
<g>
</g>
<g>
</g>
<g>
</g>
<g>
</g>
<g>
</g>
<g>
</g>
<g>
</g>
<g>
</g>
<g>
</g>
<g>
</g>
<g>
</g>
</svg>
