<?xml version="1.0" encoding="iso-8859-1"?>
<!-- Generator: Adobe Illustrator 19.0.0, SVG Export Plug-In . SVG Version: 6.00 Build 0)  -->
<svg version="1.1" id="Layer_1" xmlns="http://www.w3.org/2000/svg" xmlns:xlink="http://www.w3.org/1999/xlink" x="0px" y="0px"
	 viewBox="0 0 512 512" style="enable-background:new 0 0 512 512;" xml:space="preserve">
<path style="fill:#212A2D;" d="M420.59,408.104c-50.405,0-91.412-41.007-91.412-91.412s41.007-91.412,91.412-91.412
	S512,266.289,512,316.693S470.993,408.104,420.59,408.104z"/>
<path style="fill:#2E373A;" d="M420.59,408.104c-50.405,0-91.412-41.007-91.412-91.412s41.007-91.412,91.412-91.412L420.59,408.104
	L420.59,408.104z"/>
<circle style="fill:#BDDEFF;" cx="420.586" cy="316.695" r="53.838"/>
<path style="fill:#D7EBFF;" d="M420.588,370.531c-29.734,0-53.838-24.104-53.838-53.838c0-29.734,24.104-53.838,53.838-53.838
	V370.531z"/>
<path style="fill:#212A2D;" d="M91.412,408.104C41.007,408.104,0,367.097,0,316.693s41.007-91.412,91.412-91.412
	s91.41,41.007,91.41,91.412S141.816,408.104,91.412,408.104z"/>
<path style="fill:#2E373A;" d="M91.412,408.104C41.007,408.104,0,367.097,0,316.693s41.007-91.412,91.412-91.412V408.104z"/>
<path style="fill:#FFBE24;" d="M402.198,197.74c-8.034,0-15.412-5.308-17.687-13.425l-7.21-25.735
	c-2.737-9.773,2.966-19.914,12.738-22.653c9.779-2.737,19.916,2.966,22.654,12.738l7.21,25.735
	c2.737,9.773-2.966,19.914-12.738,22.653C405.507,197.519,403.839,197.74,402.198,197.74z"/>
<path style="fill:#A2B3BF;" d="M290.295,204.887c-7.965,0-15.301-5.218-17.637-13.25c-2.834-9.746,2.769-19.944,12.515-22.778
	l19.602-5.701c9.736-2.834,19.941,2.768,22.778,12.513c2.834,9.746-2.769,19.944-12.515,22.778l-19.602,5.701
	C293.723,204.65,291.994,204.887,290.295,204.887z"/>
<path style="fill:#C9D2D9;" d="M290.295,204.887c-7.965,0-15.301-5.218-17.637-13.25c-2.834-9.746,2.769-19.944,12.515-22.778
	l14.932-4.343v38.277l-4.669,1.357C293.723,204.65,291.994,204.887,290.295,204.887z"/>
<circle style="fill:#BDDEFF;" cx="91.407" cy="316.695" r="53.838"/>
<path style="fill:#D7EBFF;" d="M91.412,370.531c-29.734,0-53.838-24.104-53.838-53.838c0-29.734,24.104-53.838,53.838-53.838
	V370.531z"/>
<path style="fill:#A2B3BF;" d="M91.414,335.075c-7.473,0-14.497-4.591-17.239-12.01c-3.519-9.519,1.346-20.09,10.866-23.608
	l70.407-26.025c9.517-3.52,20.088,1.346,23.608,10.866c3.52,9.519-1.346,20.09-10.866,23.609l-70.407,26.025
	C95.684,334.706,93.53,335.075,91.414,335.075z"/>
<path style="fill:#C9D2D9;" d="M91.414,335.075c-7.473,0-14.497-4.591-17.239-12.01c-3.519-9.519,1.346-20.09,10.866-23.608
	l35.772-13.223v39.184l-23.031,8.513C95.684,334.706,93.53,335.075,91.414,335.075z"/>
<path style="fill:#BA2B11;" d="M347.554,174.327c-10.149,0-18.377,8.228-18.377,18.377v0.802l-165.086,7.209l-11.907-11.907
	c-7.174-7.176-18.811-7.177-25.989,0c-7.177,7.176-7.177,18.812,0,25.989l46.284,46.285l-24.706,29.271
	c-4.553,5.394-5.614,12.919-2.73,19.362c0.432,0.965,4.41,9.691,10.909,18.667c11.048,15.264,23.385,23.003,36.667,23.003h102.35
	c18.955,0,36.776-7.381,50.176-20.784c13.403-13.402,20.784-31.222,20.784-50.176v-87.72
	C365.931,182.554,357.704,174.327,347.554,174.327z"/>
<path style="fill:#E64122;" d="M256,204.887l-91.909-4.173l-11.907-11.907c-7.174-7.176-18.811-7.177-25.989,0
	c-7.177,7.176-7.177,18.812,0,25.989l46.284,46.285l-24.706,29.271c-4.553,5.394-5.614,12.919-2.73,19.362
	c0.432,0.965,4.41,9.691,10.909,18.667c11.048,15.264,23.385,23.003,36.667,23.003h63.378L256,204.887z"/>
<path style="fill:#212A2D;" d="M234.103,233.822c-1.342,0-2.683-0.147-4.001-0.441l-142.69-31.831
	c-9.906-2.21-16.145-12.031-13.936-21.937c2.21-9.905,12.033-16.148,21.937-13.935l138.426,30.879l132.894-33.568
	c9.837-2.487,19.832,3.476,22.318,13.316s-3.476,19.832-13.316,22.318l-137.131,34.639
	C237.128,233.634,235.615,233.822,234.103,233.822z"/>
<path style="fill:#2E373A;" d="M234.103,233.822c-1.342,0-2.683-0.147-4.001-0.441l-142.69-31.831
	c-9.906-2.21-16.145-12.031-13.936-21.937c2.21-9.905,12.033-16.148,21.937-13.935l138.426,30.879l22.16-5.598L256,228.867
	l-17.396,4.395C237.128,233.634,235.615,233.822,234.103,233.822z"/>
<path style="fill:#BA2B11;" d="M420.579,335.075c-8.034,0-15.412-5.308-17.687-13.425l-49.016-174.962l-35.243-6.325
	c-9.99-1.792-16.635-11.345-14.841-21.334c1.791-9.991,11.356-16.632,21.333-14.841l46.585,8.361
	c6.934,1.245,12.548,6.346,14.449,13.131l52.124,186.056c2.737,9.773-2.966,19.914-12.738,22.653
	C423.888,334.853,422.219,335.075,420.579,335.075z"/>
<path style="fill:#E64122;" d="M389.615,274.258l-35.739-127.57l-35.243-6.325c-9.99-1.792-16.635-11.345-14.841-21.334
	c1.791-9.991,11.356-16.632,21.333-14.841l46.585,8.361c6.934,1.245,12.548,6.346,14.449,13.131l3.455,12.331L389.615,274.258z"/>
<g>
</g>
<g>
</g>
<g>
</g>
<g>
</g>
<g>
</g>
<g>
</g>
<g>
</g>
<g>
</g>
<g>
</g>
<g>
</g>
<g>
</g>
<g>
</g>
<g>
</g>
<g>
</g>
<g>
</g>
</svg>
