<?xml version="1.0" encoding="iso-8859-1"?>
<!-- Generator: Adobe Illustrator 19.0.0, SVG Export Plug-In . SVG Version: 6.00 Build 0)  -->
<svg version="1.1" id="Layer_1" xmlns="http://www.w3.org/2000/svg" xmlns:xlink="http://www.w3.org/1999/xlink" x="0px" y="0px"
	 viewBox="0 0 512 512" style="enable-background:new 0 0 512 512;" xml:space="preserve">
<path style="fill:#212A2D;" d="M187.837,213.708c-3.882,0-7.79-1.254-11.077-3.841l-48.933-38.522
	c-4.594-3.617-7.136-9.246-6.81-15.084c0.325-5.837,3.477-11.15,8.444-14.233l48.933-30.377c8.411-5.222,19.464-2.637,24.686,5.776
	c5.222,8.412,2.637,19.464-5.776,24.686l-27.198,16.884l28.832,22.698c7.779,6.125,9.121,17.397,2.997,25.175
	C198.398,211.362,193.143,213.708,187.837,213.708z"/>
<path style="fill:#2E373A;" d="M163.38,199.333l-35.553-27.989c-4.594-3.617-7.136-9.246-6.81-15.084
	c0.325-5.837,3.477-11.15,8.444-14.233l33.922-21.059L163.38,199.333z"/>
<path style="fill:#A2B3BF;" d="M502.488,277.007l-6.228-8.215l-20.19-26.629l-11.766-15.519
	c-20.688-27.288-53.483-43.578-87.726-43.578H17.927C8.027,183.066,0,191.092,0,200.993v133.21c0,9.901,8.027,17.927,17.927,17.927
	H465.17c25.821,0,46.83-21.007,46.83-46.83C512,295.147,508.621,285.1,502.488,277.007z"/>
<path style="fill:#C9D2D9;" d="M241.977,183.066H17.927C8.027,183.066,0,191.092,0,200.993v133.21
	c0,9.901,8.027,17.927,17.927,17.927h224.05V183.066z"/>
<path style="fill:#BDDEFF;" d="M212.547,278.018h-20.689c-9.901,0-17.927-8.027-17.927-17.927c0-9.901,8.027-17.927,17.927-17.927
	h20.689c9.901,0,17.927,8.027,17.927,17.927C230.474,269.992,222.447,278.018,212.547,278.018z"/>
<path style="fill:#D7EBFF;" d="M202.201,278.018h-10.345c-9.901,0-17.927-8.027-17.927-17.927c0-9.901,8.027-17.927,17.927-17.927
	h10.345V278.018z"/>
<path style="fill:#BDDEFF;" d="M133.818,278.018h-20.689c-9.901,0-17.927-8.027-17.927-17.927c0-9.901,8.027-17.927,17.927-17.927
	h20.689c9.901,0,17.927,8.027,17.927,17.927C151.745,269.992,143.719,278.018,133.818,278.018z"/>
<path style="fill:#D7EBFF;" d="M123.473,278.018h-10.345c-9.901,0-17.927-8.027-17.927-17.927c0-9.901,8.027-17.927,17.927-17.927
	h10.345V278.018z"/>
<path style="fill:#7A4126;" d="M467.543,403.048H17.927C8.027,403.048,0,395.022,0,385.121s8.027-17.927,17.927-17.927h449.615
	c9.901,0,17.927,8.027,17.927,17.927S477.443,403.048,467.543,403.048z"/>
<path style="fill:#995D3D;" d="M241.977,403.048H17.927C8.027,403.048,0,395.022,0,385.121s8.027-17.927,17.927-17.927h224.05
	V403.048z"/>
<path style="fill:#BDDEFF;" d="M408.87,260.091c0,9.901,8.027,17.927,17.927,17.927h53.793c6.741,0,12.607-3.725,15.668-9.225
	l-20.19-26.629h-49.272C416.897,242.164,408.87,250.189,408.87,260.091z"/>
<path style="fill:#D7EBFF;" d="M408.87,260.091c0,9.901,8.027,17.927,17.927,17.927h25.766v-35.855h-25.766
	C416.897,242.164,408.87,250.189,408.87,260.091z"/>
<path style="fill:#BDDEFF;" d="M292.545,278.018h-20.689c-9.901,0-17.927-8.027-17.927-17.927c0-9.901,8.027-17.927,17.927-17.927
	h20.689c9.901,0,17.927,8.027,17.927,17.927C310.473,269.992,302.446,278.018,292.545,278.018z"/>
<path style="fill:#D7EBFF;" d="M282.2,278.018h-10.345c-9.901,0-17.927-8.027-17.927-17.927c0-9.901,8.027-17.927,17.927-17.927
	H282.2V278.018z"/>
<path style="fill:#BDDEFF;" d="M370.017,278.018h-20.689c-9.901,0-17.927-8.027-17.927-17.927c0-9.901,8.027-17.927,17.927-17.927
	h20.689c9.901,0,17.927,8.027,17.927,17.927C387.944,269.992,379.917,278.018,370.017,278.018z"/>
<path style="fill:#D7EBFF;" d="M359.671,278.018h-10.345c-9.901,0-17.927-8.027-17.927-17.927c0-9.901,8.027-17.927,17.927-17.927
	h10.345V278.018z"/>
<g>
</g>
<g>
</g>
<g>
</g>
<g>
</g>
<g>
</g>
<g>
</g>
<g>
</g>
<g>
</g>
<g>
</g>
<g>
</g>
<g>
</g>
<g>
</g>
<g>
</g>
<g>
</g>
<g>
</g>
</svg>
