<?xml version="1.0" encoding="iso-8859-1"?>
<!-- Generator: Adobe Illustrator 19.0.0, SVG Export Plug-In . SVG Version: 6.00 Build 0)  -->
<svg version="1.1" id="Layer_1" xmlns="http://www.w3.org/2000/svg" xmlns:xlink="http://www.w3.org/1999/xlink" x="0px" y="0px"
	 viewBox="0 0 512 512" style="enable-background:new 0 0 512 512;" xml:space="preserve">
<path style="fill:#212A2D;" d="M439.311,480.423c-40.08,0-72.689-32.608-72.689-72.689s32.608-72.689,72.689-72.689
	S512,367.652,512,407.734S479.392,480.423,439.311,480.423z"/>
<path style="fill:#2E373A;" d="M439.311,480.423c-40.08,0-72.689-32.608-72.689-72.689s32.608-72.689,72.689-72.689V480.423z"/>
<circle style="fill:#A2B3BF;" cx="439.31" cy="407.732" r="29.292"/>
<path style="fill:#C9D2D9;" d="M439.311,437.026c-16.178,0-29.292-13.114-29.292-29.292c0-16.178,13.114-29.292,29.292-29.292
	V437.026z"/>
<path style="fill:#212A2D;" d="M72.689,480.423C32.608,480.423,0,447.814,0,407.734s32.608-72.689,72.689-72.689
	s72.689,32.608,72.689,72.689S112.769,480.423,72.689,480.423z"/>
<path style="fill:#2E373A;" d="M72.689,480.423C32.608,480.423,0,447.814,0,407.734s32.608-72.689,72.689-72.689V480.423z"/>
<circle style="fill:#A2B3BF;" cx="72.684" cy="407.732" r="29.292"/>
<path style="fill:#C9D2D9;" d="M72.689,437.026c-16.178,0-29.292-13.114-29.292-29.292c0-16.178,13.114-29.292,29.292-29.292
	C72.689,378.441,72.689,437.026,72.689,437.026z"/>
<path style="fill:#F9AA1A;" d="M188.081,420.391c-9.492,0-17.377-7.493-17.773-17.066c-1.078-26.065-12.242-50.15-31.435-67.82
	c-19.195-17.669-44.115-26.802-70.184-25.727c-9.845,0.393-18.115-7.227-18.521-17.05c-0.406-9.822,7.227-18.115,17.049-18.521
	c35.558-1.463,69.578,10.997,95.766,35.106c26.189,24.11,41.424,56.975,42.894,92.541c0.406,9.822-7.227,18.115-17.049,18.521
	C188.579,420.386,188.329,420.391,188.081,420.391z"/>
<path style="fill:#FFBE24;" d="M128.022,326.833c-17.317-11.944-37.937-17.938-59.332-17.055
	c-9.845,0.393-18.115-7.227-18.521-17.05c-0.406-9.822,7.227-18.115,17.049-18.521c21.269-0.875,41.987,3.231,60.808,11.831
	L128.022,326.833z"/>
<path style="fill:#BA2B11;" d="M456.716,403.834L376.259,45.482c-2.153-9.591-11.669-15.621-21.268-13.469
	c-9.592,2.154-15.621,11.676-13.469,21.268l46.895,208.867l-95.336,127.784H78.416c-9.83,0-17.8,7.97-17.8,17.8s7.97,17.8,17.8,17.8
	h223.595c5.618,0,10.907-2.652,14.266-7.156l82.415-110.467l23.287,103.722c1.858,8.279,9.206,13.904,17.352,13.904
	c1.291,0,2.602-0.142,3.916-0.437C452.84,422.948,458.87,413.426,456.716,403.834z"/>
<path style="fill:#E64122;" d="M242.999,425.534H78.416c-9.83,0-17.8-7.97-17.8-17.8c0-9.83,7.97-17.8,17.8-17.8h164.582
	L242.999,425.534z"/>
<path style="fill:#2E373A;" d="M308.035,101.044c-5.758,0-11.405-2.788-14.835-7.939c-5.447-8.183-3.228-19.234,4.956-24.681
	l50.872-33.86c8.183-5.448,19.234-3.229,24.682,4.956c5.447,8.183,3.228,19.234-4.956,24.681l-50.872,33.86
	C314.851,100.078,311.425,101.044,308.035,101.044z"/>
<g>
</g>
<g>
</g>
<g>
</g>
<g>
</g>
<g>
</g>
<g>
</g>
<g>
</g>
<g>
</g>
<g>
</g>
<g>
</g>
<g>
</g>
<g>
</g>
<g>
</g>
<g>
</g>
<g>
</g>
</svg>
