<?xml version="1.0" encoding="iso-8859-1"?>
<!-- Generator: Adobe Illustrator 19.0.0, SVG Export Plug-In . SVG Version: 6.00 Build 0)  -->
<svg version="1.1" id="Layer_1" xmlns="http://www.w3.org/2000/svg" xmlns:xlink="http://www.w3.org/1999/xlink" x="0px" y="0px"
	 viewBox="0 0 512.001 512.001" style="enable-background:new 0 0 512.001 512.001;" xml:space="preserve">
<path style="fill:#F9AA1A;" d="M322.011,337.228c-2.718,0-5.476-0.623-8.064-1.939c-8.776-4.462-12.273-15.192-7.811-23.968
	c20.006-39.348,30.579-83.481,30.579-127.625V17.825C336.715,7.981,344.696,0,354.54,0c9.844,0,17.825,7.981,17.825,17.825v165.871
	c0,49.733-11.913,99.452-34.451,143.781C334.769,333.665,328.506,337.228,322.011,337.228z"/>
<path style="fill:#212A2D;" d="M379.468,35.65h-37.706c-9.844,0-17.825-7.981-17.825-17.825S331.918,0,341.762,0h37.706
	c9.844,0,17.825,7.981,17.825,17.825S389.313,35.65,379.468,35.65z"/>
<path style="fill:#2E373A;" d="M360.615,35.65h-18.853c-9.844,0-17.825-7.981-17.825-17.825S331.918,0,341.762,0h18.853V35.65z"/>
<path style="fill:#FFBE24;" d="M170.029,441.668h-37.496c-9.844,0-17.825-7.981-17.825-17.825c0-9.844,7.981-17.825,17.825-17.825
	h37.496c9.844,0,17.825,7.981,17.825,17.825C187.854,433.688,179.873,441.668,170.029,441.668z"/>
<path style="fill:#212A2D;" d="M266.486,283.436c-63.015,0-114.282,51.267-114.282,114.282s51.267,114.283,114.282,114.283
	s114.283-51.268,114.283-114.283S329.501,283.436,266.486,283.436z"/>
<path style="fill:#2E373A;" d="M266.486,283.436c-63.015,0-114.282,51.267-114.282,114.282s51.267,114.283,114.282,114.283V283.436z
	"/>
<path style="fill:#A2B3BF;" d="M266.486,350.565c-26.001,0-47.153,21.152-47.153,47.153s21.152,47.154,47.153,47.154
	s47.153-21.154,47.153-47.154S292.487,350.565,266.486,350.565z"/>
<path style="fill:#C9D2D9;" d="M266.486,350.565c-26.001,0-47.153,21.152-47.153,47.153s21.152,47.154,47.153,47.154V350.565z"/>
<path style="fill:#212A2D;" d="M266.486,372.104c-14.123,0-25.613,11.49-25.613,25.613c0,14.123,11.49,25.613,25.613,25.613
	s25.613-11.49,25.613-25.613C292.098,383.594,280.609,372.104,266.486,372.104z"/>
<path style="fill:#2E373A;" d="M266.486,372.104c-14.123,0-25.613,11.49-25.613,25.613c0,14.123,11.49,25.613,25.613,25.613V372.104
	z"/>
<g>
</g>
<g>
</g>
<g>
</g>
<g>
</g>
<g>
</g>
<g>
</g>
<g>
</g>
<g>
</g>
<g>
</g>
<g>
</g>
<g>
</g>
<g>
</g>
<g>
</g>
<g>
</g>
<g>
</g>
</svg>
