<?xml version="1.0" encoding="iso-8859-1"?>
<!-- Generator: Adobe Illustrator 19.0.0, SVG Export Plug-In . SVG Version: 6.00 Build 0)  -->
<svg version="1.1" id="Layer_1" xmlns="http://www.w3.org/2000/svg" xmlns:xlink="http://www.w3.org/1999/xlink" x="0px" y="0px"
	 viewBox="0 0 512 512" style="enable-background:new 0 0 512 512;" xml:space="preserve">
<path style="fill:#2E373A;" d="M149.3,445.824c-7.144,0-14.098-1.613-20.401-4.657c-6.303,3.046-13.256,4.657-20.401,4.657
	c-25.883,0-46.941-21.057-46.941-46.94s21.057-46.94,46.941-46.94c7.144,0,14.098,1.613,20.401,4.657
	c6.303-3.046,13.256-4.657,20.401-4.657c25.883,0,46.94,21.057,46.94,46.94S175.183,445.824,149.3,445.824z"/>
<path style="fill:#A2B3BF;" d="M128.901,404.184c4.094,0,8.188,1.486,11.411,4.459c2.457,2.266,5.65,3.513,8.989,3.513
	c7.318,0,13.272-5.955,13.272-13.272c0-7.317-5.954-13.272-13.272-13.272c-3.34,0-6.532,1.247-8.989,3.513
	c-6.446,5.945-16.375,5.944-22.821,0.001c-2.458-2.266-5.651-3.514-8.989-3.514c-7.318,0-13.273,5.955-13.273,13.272
	c0,7.317,5.954,13.272,13.273,13.272c3.34,0,6.532-1.248,8.989-3.514C120.713,405.67,124.807,404.184,128.901,404.184z"/>
<path style="fill:#C9D2D9;" d="M128.901,404.184v-10.603c-4.094,0-8.188-1.486-11.411-4.457c-2.458-2.266-5.651-3.514-8.989-3.514
	c-7.318,0-13.273,5.955-13.273,13.272c0,7.317,5.954,13.272,13.273,13.272c3.34,0,6.532-1.248,8.989-3.514
	C120.713,405.67,124.807,404.184,128.901,404.184z"/>
<path style="fill:#2E373A;" d="M403.5,445.824c-7.144,0-14.098-1.613-20.401-4.657c-6.303,3.046-13.256,4.657-20.401,4.657
	c-25.883,0-46.941-21.057-46.941-46.94s21.057-46.94,46.941-46.94c7.144,0,14.098,1.613,20.401,4.657
	c6.303-3.046,13.256-4.657,20.401-4.657c25.883,0,46.94,21.057,46.94,46.94S429.383,445.824,403.5,445.824z"/>
<path style="fill:#A2B3BF;" d="M383.1,404.184c4.094,0,8.188,1.486,11.411,4.459c2.457,2.266,5.65,3.513,8.989,3.513
	c7.318,0,13.272-5.955,13.272-13.272c0-7.317-5.954-13.272-13.272-13.272c-3.34,0-6.532,1.247-8.989,3.513
	c-6.446,5.945-16.375,5.944-22.821,0.001c-2.458-2.266-5.651-3.514-8.989-3.514c-7.318,0-13.273,5.955-13.273,13.272
	c0,7.317,5.954,13.272,13.273,13.272c3.34,0,6.532-1.248,8.989-3.514C374.912,405.67,379.006,404.184,383.1,404.184z"/>
<path style="fill:#C9D2D9;" d="M383.1,404.184v-10.603c-4.094,0-8.188-1.486-11.411-4.457c-2.458-2.266-5.651-3.514-8.989-3.514
	c-7.318,0-13.273,5.955-13.273,13.272c0,7.317,5.954,13.272,13.273,13.272c3.34,0,6.532-1.248,8.989-3.514
	C374.912,405.67,379.006,404.184,383.1,404.184z"/>
<path style="fill:#A2B3BF;" d="M277.197,205.339c-3.325,0-6.683-0.982-9.617-3.03c-7.625-5.32-9.493-15.813-4.174-23.438
	l22.449-32.178L162.042,85.77c-8.342-4.105-11.777-14.195-7.672-22.537c4.105-8.343,14.197-11.775,22.537-7.672l141.406,69.581
	c4.405,2.168,7.645,6.15,8.869,10.904c1.226,4.754,0.314,9.806-2.496,13.832l-33.668,48.258
	C287.745,202.826,282.513,205.339,277.197,205.339z"/>
<path style="fill:#F9AA1A;" d="M448.236,179.457H63.764c-29.934,0-54.288,24.353-54.288,54.288v144.749
	c0,9.297,7.537,16.834,16.834,16.834h459.378c9.297,0,16.834-7.537,16.834-16.834V233.745
	C502.522,203.81,478.17,179.457,448.236,179.457z"/>
<path style="fill:#FFBE24;" d="M255.999,179.457H63.764c-29.934,0-54.288,24.353-54.288,54.288v144.749
	c0,9.297,7.537,16.834,16.834,16.834h229.689V179.457z"/>
<path style="fill:#BDDEFF;" d="M125.335,272.955H83.695c-9.297,0-16.834-7.537-16.834-16.834s7.537-16.834,16.834-16.834h41.641
	c9.297,0,16.834,7.537,16.834,16.834S134.632,272.955,125.335,272.955z"/>
<path style="fill:#D7EBFF;" d="M104.515,272.955h-20.82c-9.297,0-16.834-7.537-16.834-16.834s7.537-16.834,16.834-16.834h20.82
	V272.955z"/>
<path style="fill:#BDDEFF;" d="M226.325,272.955h-41.641c-9.297,0-16.834-7.537-16.834-16.834s7.537-16.834,16.834-16.834h41.641
	c9.297,0,16.834,7.537,16.834,16.834S235.622,272.955,226.325,272.955z"/>
<path style="fill:#D7EBFF;" d="M205.505,272.955h-20.82c-9.297,0-16.834-7.537-16.834-16.834s7.537-16.834,16.834-16.834h20.82
	V272.955z"/>
<path style="fill:#BDDEFF;" d="M327.315,272.955h-41.641c-9.297,0-16.834-7.537-16.834-16.834s7.537-16.834,16.834-16.834h41.641
	c9.297,0,16.834,7.537,16.834,16.834S336.612,272.955,327.315,272.955z"/>
<path style="fill:#D7EBFF;" d="M306.495,272.955h-20.82c-9.297,0-16.834-7.537-16.834-16.834s7.537-16.834,16.834-16.834h20.82
	V272.955z"/>
<path style="fill:#BDDEFF;" d="M428.305,272.955h-41.641c-9.297,0-16.834-7.537-16.834-16.834s7.537-16.834,16.834-16.834h41.641
	c9.297,0,16.834,7.537,16.834,16.834S437.602,272.955,428.305,272.955z"/>
<path style="fill:#D7EBFF;" d="M407.485,272.955h-20.82c-9.297,0-16.834-7.537-16.834-16.834s7.537-16.834,16.834-16.834h20.82
	V272.955z"/>
<path style="fill:#BA2B11;" d="M9.476,325.702v52.792c0,9.297,7.537,16.834,16.834,16.834h459.378
	c9.297,0,16.834-7.537,16.834-16.834v-52.792H9.476z"/>
<path style="fill:#E64122;" d="M9.476,325.702v52.792c0,9.297,7.537,16.834,16.834,16.834h229.689v-69.626H9.476z"/>
<path style="fill:#7A4126;" d="M495.166,458.172H16.834C7.537,458.172,0,450.635,0,441.338s7.537-16.834,16.834-16.834h478.332
	c9.297,0,16.834,7.537,16.834,16.834S504.463,458.172,495.166,458.172z"/>
<path style="fill:#995D3D;" d="M255.999,458.172H16.834C7.537,458.172,0,450.635,0,441.338s7.537-16.834,16.834-16.834h239.165
	V458.172z"/>
<path style="fill:#C9D2D9;" d="M256.002,132.004l-93.96-46.234c-8.342-4.105-11.777-14.195-7.672-22.537
	c4.105-8.343,14.197-11.775,22.537-7.672l79.094,38.919V132.004z"/>
<g>
</g>
<g>
</g>
<g>
</g>
<g>
</g>
<g>
</g>
<g>
</g>
<g>
</g>
<g>
</g>
<g>
</g>
<g>
</g>
<g>
</g>
<g>
</g>
<g>
</g>
<g>
</g>
<g>
</g>
</svg>
