<?xml version="1.0" encoding="iso-8859-1"?>
<!-- Generator: Adobe Illustrator 19.0.0, SVG Export Plug-In . SVG Version: 6.00 Build 0)  -->
<svg version="1.1" id="Layer_1" xmlns="http://www.w3.org/2000/svg" xmlns:xlink="http://www.w3.org/1999/xlink" x="0px" y="0px"
	 viewBox="0 0 512.001 512.001" style="enable-background:new 0 0 512.001 512.001;" xml:space="preserve">
<path style="fill:#A2B3BF;" d="M422.855,255.608c-8.991,0-16.28-7.289-16.28-16.281V214.26c0-25.722,17.524-47.643,42.615-53.31
	c8.769-1.981,17.485,3.524,19.467,12.295c1.98,8.771-3.524,17.486-12.295,19.467c-10.142,2.29-17.225,11.15-17.225,21.548v25.068
	C439.136,248.319,431.846,255.608,422.855,255.608z"/>
<path style="fill:#C9D2D9;" d="M422.855,255.608c-8.991,0-16.28-7.289-16.28-16.281V214.26c0-15.189,6.111-29.052,16.28-39.027
	V255.608z"/>
<path style="fill:#F9AA1A;" d="M499.236,244.167L331.045,206.97l-30.37-141.547c-1.885-8.791-10.537-14.388-19.334-12.503
	c-7.646,1.64-12.87,8.402-12.863,15.918H112.952l0,0c0-8.991-7.289-16.281-16.281-16.281s-16.281,7.289-16.281,16.281v296.835
	c0,8.991,7.289,16.281,16.281,16.281H495.72c8.991,0,16.281-7.289,16.281-16.281V260.062
	C512.001,252.426,506.692,245.815,499.236,244.167z"/>
<path style="fill:#2E373A;" d="M14.971,361.342c-8.962-0.724-15.641-8.575-14.917-17.538l3.009-37.256
	c0.724-8.962,8.575-15.641,17.538-14.917c8.962,0.724,15.641,8.575,14.917,17.538l-3.009,37.256
	C31.785,355.386,23.934,362.066,14.971,361.342z"/>
<path style="fill:#212A2D;" d="M422.31,301.537c-44.336,0-80.406,36.07-80.406,80.407s36.07,80.407,80.406,80.407
	c44.337,0,80.407-36.07,80.407-80.407S466.647,301.537,422.31,301.537z"/>
<path style="fill:#2E373A;" d="M422.31,301.537c-44.336,0-80.406,36.07-80.406,80.407s36.07,80.407,80.406,80.407V301.537z"/>
<circle style="fill:#A2B3BF;" cx="422.306" cy="381.941" r="21.025"/>
<path style="fill:#C9D2D9;" d="M422.31,402.969c-11.611,0-21.025-9.413-21.025-21.025c0-11.611,9.413-21.025,21.025-21.025V402.969z
	"/>
<path style="fill:#FFBE24;" d="M287.808,52.843c-2.077-0.397-4.268-0.393-6.467,0.078c-7.646,1.64-12.87,8.402-12.863,15.918
	H112.952l0,0c0-8.991-7.289-16.28-16.281-16.28s-16.281,7.289-16.281,16.28v296.835c0,8.991,7.289,16.281,16.281,16.281h190.587
	L287.808,52.843z"/>
<path style="fill:#BDDEFF;" d="M331.045,206.97l-30.37-141.547c-1.885-8.791-10.537-14.388-19.334-12.503
	c-7.646,1.64-12.87,8.402-12.863,15.918H112.952l0,0c0-8.991-7.289-16.281-16.281-16.281s-16.281,7.289-16.281,16.281v138.154
	h250.751L331.045,206.97z"/>
<path style="fill:#D7EBFF;" d="M205.766,68.838h-92.815l0,0c0-8.991-7.289-16.281-16.28-16.281S80.39,59.847,80.39,68.838v138.154
	h125.375L205.766,68.838z"/>
<path style="fill:#2E373A;" d="M80.391,68.838v296.835c0,8.991,7.289,16.281,16.281,16.281h44.793V68.838H80.391z"/>
<path style="fill:#212A2D;" d="M141.412,204.672c-69.792,0-126.571,56.78-126.571,126.572S71.62,457.817,141.412,457.817
	s126.572-56.78,126.572-126.572S211.204,204.672,141.412,204.672z"/>
<path style="fill:#A2B3BF;" d="M141.412,287.892c-26.405,0-47.887,21.482-47.887,47.887c0,26.406,21.483,47.887,47.887,47.887
	s47.887-21.482,47.887-47.887C189.299,309.373,167.817,287.892,141.412,287.892z"/>
<path style="fill:#2E373A;" d="M141.412,204.672c-69.792,0-126.571,56.78-126.571,126.572S71.62,457.817,141.412,457.817V204.672z"
	/>
<path style="fill:#C9D2D9;" d="M141.412,287.892c-26.405,0-47.887,21.482-47.887,47.887c0,26.406,21.483,47.887,47.887,47.887
	V287.892z"/>
<path style="fill:#BA2B11;" d="M302.824,72.927H81.691c-8.991,0-16.281-7.289-16.281-16.28s7.289-16.28,16.281-16.28h221.134
	c8.991,0,16.28,7.289,16.28,16.28S311.816,72.927,302.824,72.927z"/>
<path style="fill:#E64122;" d="M205.766,72.927H81.691c-8.991,0-16.281-7.289-16.281-16.28s7.289-16.28,16.281-16.28h124.076V72.927
	z"/>
<g>
	<path style="fill:#212A2D;" d="M202.597,454.334c-4.153-0.335-8.178-2.255-11.09-5.68c-5.826-6.849-4.996-17.124,1.853-22.949
		l28.471-24.217c6.849-5.826,17.124-4.996,22.949,1.853c5.826,6.849,4.996,17.124-1.853,22.949l-28.471,24.217
		C211.032,453.42,206.751,454.669,202.597,454.334z"/>
	<path style="fill:#212A2D;" d="M149.148,471.58l-37.255-3.009c-8.962-0.724-15.641-8.576-14.917-17.538
		c0.724-8.962,8.575-15.641,17.538-14.917l37.255,3.009c8.962,0.724,15.641,8.576,14.917,17.538
		C165.963,465.626,158.11,472.304,149.148,471.58z"/>
</g>
<g>
	<path style="fill:#2E373A;" d="M141.412,470.955l-29.519-2.383c-8.962-0.724-15.641-8.575-14.917-17.538
		c0.724-8.962,8.575-15.641,17.538-14.917l26.899,2.172L141.412,470.955z"/>
	<path style="fill:#2E373A;" d="M61.902,442.972c-4.153-0.335-8.178-2.255-11.09-5.68l-24.217-28.471
		c-5.826-6.849-4.996-17.124,1.853-22.949c6.849-5.826,17.124-4.996,22.949,1.853l24.217,28.471
		c5.826,6.849,4.996,17.124-1.853,22.949C70.337,442.058,66.056,443.308,61.902,442.972z"/>
</g>
<path style="fill:#BA2B11;" d="M268.809,373.648c-0.99,0-1.994-0.09-3.003-0.279c-8.839-1.649-14.669-10.15-13.02-18.99
	c2.646-14.182,2.542-28.618-0.306-42.906c-5.919-29.686-23.042-55.29-48.218-72.095c-25.175-16.806-55.386-22.802-85.075-16.884
	c-22.499,4.486-42.83,15.488-58.799,31.819c-6.283,6.43-16.591,6.545-23.023,0.258c-6.429-6.286-6.544-16.594-0.257-23.023
	c20.573-21.041,46.754-35.214,75.713-40.988c38.216-7.619,77.109,0.101,109.519,21.734c32.409,21.635,54.454,54.595,62.072,92.811
	c3.663,18.375,3.792,36.961,0.384,55.241C283.335,368.18,276.497,373.648,268.809,373.648z"/>
<path style="fill:#E64122;" d="M141.464,220.272c-7.401,0.008-14.855,0.742-22.277,2.222c-22.499,4.486-42.83,15.488-58.799,31.819
	c-6.283,6.43-16.591,6.545-23.023,0.258c-6.429-6.286-6.544-16.594-0.257-23.023c20.573-21.041,46.754-35.214,75.713-40.988
	c9.525-1.899,19.094-2.845,28.592-2.86L141.464,220.272z"/>
<path style="fill:#995D3D;" d="M252.791,150.695c-7.303-5.246-17.477-3.58-22.722,3.722c-5.247,7.302-3.581,17.474,3.722,22.721
	l41.549,29.854h55.803L252.791,150.695z"/>
<path style="fill:#2E373A;" d="M227.486,198.194c-3.216,0-6.463-0.95-9.301-2.929c-7.374-5.145-9.182-15.293-4.039-22.667
	l27.21-39.008c5.145-7.374,15.294-9.183,22.668-4.039c7.374,5.145,9.182,15.293,4.039,22.667l-27.21,39.008
	C237.687,195.764,232.627,198.194,227.486,198.194z"/>
<g>
</g>
<g>
</g>
<g>
</g>
<g>
</g>
<g>
</g>
<g>
</g>
<g>
</g>
<g>
</g>
<g>
</g>
<g>
</g>
<g>
</g>
<g>
</g>
<g>
</g>
<g>
</g>
<g>
</g>
</svg>
