<?xml version="1.0" encoding="iso-8859-1"?>
<!-- Generator: Adobe Illustrator 19.0.0, SVG Export Plug-In . SVG Version: 6.00 Build 0)  -->
<svg version="1.1" id="Layer_1" xmlns="http://www.w3.org/2000/svg" xmlns:xlink="http://www.w3.org/1999/xlink" x="0px" y="0px"
	 viewBox="0 0 512 512" style="enable-background:new 0 0 512 512;" xml:space="preserve">
<path style="fill:#212A2D;" d="M277.197,202.134c-3.325,0-6.683-0.982-9.617-3.03c-7.625-5.32-9.493-15.813-4.174-23.438
	l22.449-32.178L162.042,82.565c-8.342-4.105-11.777-14.195-7.672-22.537c4.105-8.343,14.197-11.775,22.537-7.672l141.406,69.581
	c4.405,2.168,7.645,6.15,8.869,10.904c1.226,4.754,0.314,9.806-2.496,13.832l-33.668,48.258
	C287.745,199.621,282.513,202.134,277.197,202.134z"/>
<path style="fill:#2E373A;" d="M256.002,128.799l-93.96-46.234c-8.342-4.105-11.777-14.195-7.672-22.537
	c4.105-8.343,14.197-11.775,22.537-7.672l79.094,38.919V128.799z"/>
<path style="fill:#212A2D;" d="M89.156,435.723c-24.461,0-44.361-19.901-44.361-44.362c0-24.461,19.901-44.361,44.361-44.361
	s44.361,19.901,44.361,44.361C133.517,415.821,113.617,435.723,89.156,435.723z"/>
<path style="fill:#2E373A;" d="M89.156,435.723c-24.461,0-44.361-19.901-44.361-44.362c0-24.461,19.901-44.361,44.361-44.361
	V435.723z"/>
<circle style="fill:#F9AA1A;" cx="89.153" cy="391.359" r="17.211"/>
<path style="fill:#FFBE24;" d="M89.156,408.571c-9.506,0-17.211-7.706-17.211-17.211c0-9.506,7.706-17.211,17.211-17.211V408.571z"
	/>
<path style="fill:#212A2D;" d="M191.175,435.723c-24.461,0-44.361-19.901-44.361-44.362c0-24.461,19.901-44.361,44.361-44.361
	s44.361,19.901,44.361,44.361C235.536,415.821,215.635,435.723,191.175,435.723z"/>
<path style="fill:#2E373A;" d="M191.175,435.723c-24.461,0-44.361-19.901-44.361-44.362c0-24.461,19.901-44.361,44.361-44.361
	V435.723z"/>
<circle style="fill:#F9AA1A;" cx="191.179" cy="391.359" r="17.211"/>
<path style="fill:#FFBE24;" d="M191.175,408.571c-9.506,0-17.211-7.706-17.211-17.211c0-9.506,7.706-17.211,17.211-17.211V408.571z"
	/>
<path style="fill:#212A2D;" d="M320.344,435.723c-24.461,0-44.361-19.901-44.361-44.362c0-24.461,19.901-44.361,44.361-44.361
	c24.461,0,44.361,19.901,44.361,44.361C364.705,415.821,344.805,435.723,320.344,435.723z"/>
<path style="fill:#2E373A;" d="M320.344,435.723c-24.461,0-44.361-19.901-44.361-44.362c0-24.461,19.901-44.361,44.361-44.361
	V435.723z"/>
<circle style="fill:#F9AA1A;" cx="320.342" cy="391.359" r="17.211"/>
<path style="fill:#FFBE24;" d="M320.344,408.571c-9.506,0-17.211-7.706-17.211-17.211c0-9.506,7.706-17.211,17.211-17.211V408.571z"
	/>
<path style="fill:#212A2D;" d="M422.363,435.723c-24.461,0-44.361-19.901-44.361-44.362c0-24.461,19.901-44.361,44.361-44.361
	s44.361,19.901,44.361,44.361C466.724,415.821,446.823,435.723,422.363,435.723z"/>
<path style="fill:#2E373A;" d="M422.363,435.723c-24.461,0-44.361-19.901-44.361-44.362c0-24.461,19.901-44.361,44.361-44.361
	V435.723z"/>
<circle style="fill:#F9AA1A;" cx="422.367" cy="391.359" r="17.211"/>
<path style="fill:#FFBE24;" d="M422.363,408.571c-9.506,0-17.211-7.706-17.211-17.211c0-9.506,7.706-17.211,17.211-17.211V408.571z"
	/>
<path style="fill:#BA2B11;" d="M448.235,172.324h-98.119H161.885h-98.12c-29.934,0-54.288,24.353-54.288,54.288v144.747
	c0,9.297,7.537,16.834,16.834,16.834h459.378c9.297,0,16.834-7.537,16.834-16.834V226.612
	C502.522,196.677,478.169,172.324,448.235,172.324z"/>
<path style="fill:#E64122;" d="M255.999,172.324h-94.116h-98.12c-29.934,0-54.288,24.353-54.288,54.288v144.747
	c0,9.297,7.537,16.834,16.834,16.834h229.689V172.324H255.999z"/>
<path style="fill:#BDDEFF;" d="M448.235,172.324H63.764c-29.934,0-54.288,24.353-54.288,54.288v43.421h493.046v-43.421
	C502.522,196.677,478.169,172.324,448.235,172.324z"/>
<path style="fill:#D7EBFF;" d="M255.999,172.324H63.764c-29.934,0-54.288,24.353-54.288,54.288v43.421h246.525L255.999,172.324z"/>
<path style="fill:#A2B3BF;" d="M303.289,194.852H208.71c-18.925,0-34.266,15.341-34.266,34.266v136.546h163.11V229.118
	C337.555,210.194,322.214,194.852,303.289,194.852z"/>
<path style="fill:#C9D2D9;" d="M256.002,194.852H208.71c-18.925,0-34.266,15.341-34.266,34.266v136.546h81.554L256.002,194.852z"/>
<path style="fill:#212A2D;" d="M271.662,298.977h-31.325c-9.297,0-16.834-7.537-16.834-16.834s7.537-16.834,16.834-16.834h31.325
	c9.297,0,16.834,7.537,16.834,16.834C288.496,291.441,280.96,298.977,271.662,298.977z"/>
<path style="fill:#2E373A;" d="M256.002,298.977h-15.665c-9.297,0-16.834-7.537-16.834-16.834s7.537-16.834,16.834-16.834h15.665
	L256.002,298.977L256.002,298.977z"/>
<path style="fill:#7A4126;" d="M495.166,461.378H16.834C7.537,461.378,0,453.84,0,444.544s7.537-16.834,16.834-16.834h478.332
	c9.297,0,16.834,7.537,16.834,16.834S504.463,461.378,495.166,461.378z"/>
<path style="fill:#995D3D;" d="M255.999,461.378H16.834C7.537,461.378,0,453.84,0,444.544s7.537-16.834,16.834-16.834h239.165
	V461.378z"/>
<g>
</g>
<g>
</g>
<g>
</g>
<g>
</g>
<g>
</g>
<g>
</g>
<g>
</g>
<g>
</g>
<g>
</g>
<g>
</g>
<g>
</g>
<g>
</g>
<g>
</g>
<g>
</g>
<g>
</g>
</svg>
