<?xml version="1.0" encoding="UTF-8" standalone="no"?>
<svg
   xmlns:dc="http://purl.org/dc/elements/1.1/"
   xmlns:cc="http://creativecommons.org/ns#"
   xmlns:rdf="http://www.w3.org/1999/02/22-rdf-syntax-ns#"
   xmlns:svg="http://www.w3.org/2000/svg"
   xmlns="http://www.w3.org/2000/svg"
   viewBox="0 0 1800 900"
   height="900"
   width="1800"
   xml:space="preserve"
   version="1.1"
   id="svg2"><metadata
     id="metadata8"><rdf:RDF><cc:Work
         rdf:about=""><dc:format>image/svg+xml</dc:format><dc:type
           rdf:resource="http://purl.org/dc/dcmitype/StillImage" /></cc:Work></rdf:RDF></metadata><defs
     id="defs6"><clipPath
       id="clipPath18"
       clipPathUnits="userSpaceOnUse"><path
         id="path20"
         d="m 59.04,73.44 1350.72,0 0,587.52 -1350.72,0 0,-587.52 z" /></clipPath></defs><g
     transform="matrix(1.25,0,0,-1.25,0,900)"
     id="g10"><g
       id="g12" /><g
       id="g14"><g
         clip-path="url(#clipPath18)"
         id="g16"><path
           id="path22"
           style="fill:none;stroke:#000000;stroke-width:0.75;stroke-linecap:round;stroke-linejoin:round;stroke-miterlimit:10;stroke-dasharray:none;stroke-opacity:1"
           d="m 109.07,639.2 0,-14.05 39.42,0 0,-0.88 23.06,0 0,-0.01 16.37,0 0,0 46.12,0 0,0 11.42,0 0,-1.91 4.94,0 0,-0.75 8.77,0 0,-5.36 3.93,0 0,-0.05 3.67,0 0,-0.77 6.7,0 0,-0.12 5.99,0 0,-0.32 2.78,0 0,-0.15 2.64,0 0,-0.79 4.95,0 0,-0.36 2.32,0 0,-4.62 2.23,0 0,-5 2.15,0 0,-21.76 2.07,0 0,-0.67 1.99,0 0,-0.04 1.93,0 0,-1.34 1.87,0 0,-0.18 1.8,0 0,-0.61 1.75,0 0,-2.11 1.7,0 0,-8.3 1.65,0 0,0 1.6,0 0,-0.49 1.56,0 0,-3.58 1.52,0 0,0 4.32,0 0,-5.59 1.37,0 0,-0.97 1.34,0 0,-6.58 1.31,0 0,-3.09 3.75,0 0,0 5.75,0 0,0 7.18,0 0,-3.09 0.96,0 0,-24.33 0.94,0 0,0 0.92,0 0,-0.79 0.91,0 0,0 0.9,0 0,-2.45 1.75,0 0,-0.02 8.02,0 0,0 0.75,0 0,0 0.73,0 0,-1.18 0.73,0 0,-0.46 1.42,0 0,-0.63 0.7,0 0,-2.35 0.68,0 0,-0.34 0.69,0 0,-0.5 0.67,0 0,-2.56 0.66,0 0,-5.03 0.66,0 0,-9.37 1.93,0 0,-2.52 0.63,0 0,0 1.24,0 0,-0.01 0.6,0 0,-1.75 0.61,0 0,-3.59 0.59,0 0,-0.95 0.59,0 0,-0.44 0.58,0 0,-2.61 0.58,0 0,-3.05 0.57,0 0,-1.01 0.57,0 0,-5.37 1.11,0 0,-0.97 1.64,0 0,-0.01 1.58,0 0,-0.01 0.52,0 0,0 0.52,0 0,-1.86 0.51,0 0,-0.15 0.5,0 0,-0.41 0.51,0 0,-0.03 0.49,0 0,-0.91 6.98,0 0,-0.41 0.43,0 0,-0.25 0.43,0 0,-0.15 0.43,0 0,-0.2 3.73,0 0,-0.05 0.4,0 0,-0.55 0.39,0 0,-0.13 0.4,0 0,-0.34 0.39,0 0,-0.1 0.39,0 0,-0.14 0.38,0 0,-0.34 0.38,0 0,-0.27 0.39,0 0,-0.26 0.37,0 0,-1.15 0.38,0 0,-0.2 0.37,0 0,-0.26 0.37,0 0,-0.41 0.37,0 0,-2.07 0.37,0 0,-0.09 0.36,0 0,-0.42 0.36,0 0,-0.58 0.36,0 0,-0.98 0.36,0 0,-0.74 0.35,0 0,-0.06 0.35,0 0,-0.61 0.35,0 0,-0.05 0.35,0 0,-0.27 0.69,0 0,-0.99 0.34,0 0,-0.02 0.34,0 0,-0.34 0.34,0 0,-0.6 0.33,0 0,-1.48 0.34,0 0,-0.81 0.33,0 0,-0.13 0.33,0 0,-0.06 0.33,0 0,-0.03 0.32,0 0,-0.65 0.33,0 0,-0.51 0.32,0 0,-0.19 0.32,0 0,-0.1 0.32,0 0,-0.06 0.32,0 0,-0.33 0.31,0 0,-0.82 0.31,0 0,-0.12 0.32,0 0,-0.04 0.31,0 0,0 1.52,0 0,-0.62 0.3,0 0,-0.4 0.3,0 0,-0.34 0.3,0 0,-0.06 0.29,0 0,-0.79 0.3,0 0,-0.31 0.29,0 0,-0.16 0.29,0 0,-0.14 0.29,0 0,-0.2 0.29,0 0,-0.1 0.28,0 0,-0.15 0.29,0 0,-0.17 0.28,0 0,-0.02 0.28,0 0,-0.04 0.29,0 0,-0.08 0.27,0 0,-0.41 0.28,0 0,-0.56 0.28,0 0,-0.03 0.27,0 0,-0.37 0.28,0 0,-0.01 0.27,0 0,-0.05 0.27,0 0,-0.5 0.27,0 0,-0.11 0.27,0 0,-0.19 0.27,0 0,-0.23 0.27,0 0,-0.11 0.26,0 0,-0.04 0.27,0 0,-0.15 0.26,0 0,-0.09 0.26,0 0,-0.03 3.05,0 0,-0.01 0.98,0 0,-0.01 1.2,0 0,-0.01 0.24,0 0,-0.03 0.23,0 0,-0.01 0.24,0 0,-0.02 0.23,0 0,-0.03 0.47,0 0,0 0.23,0 0,-0.03 0.23,0 0,-0.02 0.23,0 0,-0.01 0.46,0 0,-0.02 129.96,0 0,-0.01 171.52,0 0,-0.12 0,0 0,-0.68 0,0 0,-0.08 0,0 0,-0.22 0,0 0,-0.12 0.01,0 0,-0.2 0,0 0,-0.44 0,0 0,-0.18 0,0 0,-0.1 0,0 0,-0.24 0,0 0,-0.16 0,0 0,-0.15 0,0 0,-0.36 0,0 0,-0.2 0.01,0 0,-0.08 0,0 0,-0.28 0,0 0,-0.04 0,0 0,-0.05 0,0 0,-0.07 0,0 0,-0.15 0,0 0,-0.06 0,0 0,-0.17 0.01,0 0,-0.09 0,0 0,-0.34 0,0 0,-0.12 0,0 0,-0.06 0,0 0,-0.04 0,0 0,-0.15 0,0 0,-0.11 0,0 0,-0.02 0,0 0,-0.04 0.01,0 0,-0.13 0,0 0,-0.03 0,0 0,-0.06 0,0 0,-0.11 0,0 0,-0.03 0,0 0,-0.03 0,0 0,-0.02 0,0 0,-0.12 0,0 0,-0.09 0.01,0 0,-0.04 0,0 0,-0.01 0,0 0,-0.01 0,0 0,-0.01 0,0 0,-0.15 0,0 0,-0.04 0,0 0,-0.02 0,0 0,-0.08 0,0 0,-0.09 0.01,0 0,-0.29 0,0 0,-0.02 0,0 0,-0.03 0,0 0,-0.18 0,0 0,-0.05 0,0 0,-0.25 0,0 0,-0.18 0,0 0,-0.01 0.01,0 0,-0.1 0,0 0,-0.01 0,0 0,-0.09 0,0 0,-0.09 0,0 0,-0.03 0,0 0,-0.11 0,0 0,-0.06 0,0 0,-0.08 0.01,0 0,-0.02 0,0 0,0 0,0 0,-0.06 0,0 0,-0.1 0,0 0,-0.03 0,0 0,-0.02 0,0 0,-0.02 0.01,0 0,-0.03 0,0 0,-0.02 0,0 0,-0.04 0,0 0,-0.02 0,0 0,-0.07 0,0 0,-0.02 0,0 0,-0.05 0.01,0 0,-0.06 0,0 0,-0.03 0,0 0,-0.02 0,0 0,-0.09 0,0 0,-0.07 0,0 0,-0.02 0.01,0 0,-0.01 0,0 0,-0.01 0,0 0,-0.03 0,0 0,-0.01 0,0 0,-0.02 0,0 0,-0.02 0,0 0,-0.03 0.01,0 0,-0.03 0,0 0,-0.01 0,0 0,-0.02 0,0 0,-0.01 0,0 0,-0.01 0,0 0,-0.02 0.01,0 0,-0.01 0,0 0,-0.02 0,0 0,-0.02 0,0 0,-0.01 0,0 0,-0.02 0,0 0,-0.02 0,0 0,-0.01 0.01,0 0,-0.02 0,0 0,-0.01 0,0 0,-0.02 0,0 0,-0.02 0.01,0 0,-0.01 0,0 0,-0.01 0,0 0,-0.01 0,0 0,-0.01 0.01,0 0,-0.01 0,0 0,-0.01 0,0 0,-0.02 0,0 0,-0.01 0,0 0,-0.01 0,0 0,-0.02 0,0 0,-0.01 0,0 0,-0.01 0.01,0 0,-0.02 0,0 0,-0.01 0,0 0,-0.01 0,0 0,-0.01 0.01,0 0,-0.02 0,0 0,-0.01 0.01,0 0,-0.01 0,0 0,-0.01 0,0 0,-0.01 0,0 0,-0.01 0,0 0,-0.01 0,0 0,-0.01 0,0 0,-0.02 0.01,0 0,-0.01 0,0 0,-0.01 0,0 0,-0.01 0.01,0 0,-0.03 0,0 0,-0.01 0,0 0,-0.01 0,0 0,-0.01 0,0 0,-0.01 0.01,0 0,0 0,0 0,-0.03 0,0 0,-0.01 0.01,0 0,-0.02 0,0 0,-0.01 0,0 0,-0.01 0,0 0,-0.01 0.01,0 0,-0.01 0,0 0,-0.01 0,0 0,-0.01 0.01,0 0,-0.01 0.01,0 0,-0.01 0,0 0,-0.01 0.01,0 0,-0.01 0,0 0,-0.01 0,0 0,-0.01 0.01,0 0,0 0,0 0,-0.01 0,0 0,-0.01 0,0 0,-0.01 0.01,0 0,-0.01 0,0 0,-0.01 0,0 0,-0.01 0,0 0,-0.01 0,0 0,-0.01 0.01,0 0,-0.01 0,0 0,-0.01 0,0 0,-0.01 0,0 0,-0.03 0.01,0 0,-0.01 0,0 0,-0.01 0,0 0,-0.01 0,0 0,-0.01 0.01,0 0,-0.01 0,0 0,-0.01 0.01,0 0,-0.01 0,0 0,0 0,0 0,-0.01 0,0 0,-0.01 0.01,0 0,-0.01 0,0 0,-0.01 0,0 0,-0.01 0.01,0 0,-0.01 0,0 0,-0.01 0,0 0,-0.01 0.01,0 0,-0.01 0,0 0,-0.01 0.01,0 0,-0.01 0,0 0,-0.01 0,0 0,-0.01 0,0 0,-0.01 0.01,0 0,-0.01 0,0 0,-0.02 0,0 0,-0.01 0,0 0,-0.01 0.01,0 0,-0.01 0,0 0,-0.01 0,0 0,-0.01 0,0 0,-0.02 0.01,0 0,-0.01 0,0 0,-0.01 0.01,0 0,-0.01 0,0 0,-0.01 0.01,0 0,-0.01 0,0 0,-0.01 0.01,0 0,-0.01 0,0 0,-0.01 0,0 0,-0.02 0.01,0 0,-0.01 0,0 0,-0.01 0,0 0,-0.01 0.01,0 0,-0.01 0,0 0,-0.01 0.01,0 0,-0.01 0,0 0,-0.01 0.01,0 0,-0.01 0,0 0,-0.01 0.01,0 0,-0.01 0,0 0,-0.01 0.01,0 0,-0.01 0,0 0,-0.01 0.01,0 0,-0.01 0,0 0,-0.01 0.01,0 0,-0.01 0.01,0 0,-0.01 0,0 0,-0.01 0,0 0,0 0,0 0,-0.01 0.01,0 0,-0.01 0,0 0,-0.01 0,0 0,-0.01 0.01,0 0,-0.01 0,0 0,-0.01 0,0 0,-0.01 0.01,0 0,-0.01 0,0 0,-0.01 0,0 0,-0.01 0,0 0,-0.01 0.01,0 0,-0.02 0,0 0,-0.01 0,0 0,-0.01 0,0 0,-0.01 0.01,0 0,-0.01 0,0 0,-0.02 0,0 0,-0.01 0.01,0 0,-0.01 0,0 0,-0.01 0.01,0 0,-0.01 0,0 0,-0.01 0.01,0 0,-0.01 0,0 0,-0.01 0,0 0,-0.01 0.01,0 0,-0.01 0,0 0,-0.01 0,0 0,-0.01 0.01,0 0,-0.01 0,0 0,-0.01 0.01,0 0,-0.01 0,0 0,-0.01 0,0 0,-0.01 0.01,0 0,-0.01 0,0 0,-0.01 0.01,0 0,0 0,0 0,-0.01 0,0 0,-0.01 0,0 0,-0.01 0.01,0 0,-0.01 0,0 0,-0.01 0,0 0,-0.01 0,0 0,-0.01 0,0 0,-0.01 0.01,0 0,-0.01 0,0 0,-0.01 0.01,0 0,-0.02 0,0 0,-0.01 0.01,0 0,-0.01 0,0 0,-0.01 0,0 0,-0.01 0.01,0 0,-0.01 0,0 0,-0.01 0,0 0,-0.01 0.01,0 0,-0.02 0,0 0,-0.01 0,0 0,-0.01 0.01,0 0,-0.01 0,0 0,-0.01 0.01,0 0,-0.01 0,0 0,-0.01 0,0 0,-0.01 0.01,0 0,-0.01 0,0 0,-0.02 0,0 0,-0.01 0.01,0 0,-0.01 0,0 0,-0.01 0,0 0,-0.01 0.01,0 0,-0.01 0,0 0,-0.01 0,0 0,-0.01 0,0 0,-0.01 0,0 0,-0.02 0.01,0 0,-0.01 0,0 0,-0.02 0,0 0,-0.01 0.01,0 0,-0.02 0,0 0,-0.01 0,0 0,-0.01 0,0 0,-0.01 0.01,0 0,-0.01 0,0 0,-0.01 0,0 0,-0.01 0,0 0,-0.01 0.01,0 0,-0.01 0,0 0,-0.01 0,0 0,-0.01 0,0 0,-0.01 0.01,0 0,-0.02 0,0 0,-0.02 0.01,0 0,-0.02 0,0 0,-0.01 0,0 0,-0.01 0,0 0,-0.01 0.01,0 0,-0.01 0,0 0,-0.01 0,0 0,-0.01 0.01,0 0,-0.01 0,0 0,-0.01 0,0 0,-0.01 0,0 0,-0.01 0.01,0 0,0 0,0 0,-0.01 0,0 0,-0.01 0.01,0 0,-0.01 0,0 0,-0.01 0,0 0,-0.01 0.01,0 0,-0.02 0,0 0,-0.01 0,0 0,-0.01 0,0 0,-0.01 0,0 0,-0.01 0,0 0,-0.01 0.01,0 0,-0.01 0,0 0,-0.01 0,0 0,-0.01 0.01,0 0,-0.01 0,0 0,-0.01 0,0 0,-0.01 0,0 0,-0.01 0,0 0,-0.01 0.01,0 0,-0.01 0,0 0,-0.01 0,0 0,-0.01 0,0 0,-0.01 0,0 0,-0.01 0.01,0 0,-0.01 0,0 0,-0.01 0,0 0,-0.01 0,0 0,-0.01 0,0 0,-0.01 0.01,0 0,-0.01 0,0 0,-0.01 0,0 0,-0.01 0.01,0 0,-0.03 0,0 0,-0.01 0,0 0,-0.01 0,0 0,-0.01 0.01,0 0,-0.01 0,0 0,-0.01 0,0 0,-0.01 0,0 0,-0.01 0,0 0,-0.01 0,0 0,-0.01 0.01,0 0,-0.01 0,0 0,-0.01 0,0 0,-0.01 0,0 0,-0.02 0,0 0,-0.01 0.01,0 0,-0.02 0,0 0,-0.01 0,0 0,-0.01 0,0 0,-0.01 0,0 0,-0.01 0,0 0,-0.01 0.01,0 0,-0.01 0,0 0,-0.01 0,0 0,-0.01 0,0 0,-0.01 0,0 0,-0.01 0,0 0,-0.01 0.01,0 0,-0.01 0,0 0,-0.01 0,0 0,-0.01 0,0 0,-0.05 0,0 0,-0.01 0,0 0,-0.01 0,0 0,-0.01 0.01,0 0,-0.02 0,0 0,-0.01 0,0 0,-0.07 0,0 0,-0.01 0,0 0,-0.03 0.01,0 0,-0.01 0,0 0,-0.04 0,0 0,-0.01 0,0 0,-0.01 0,0 0,-0.01 0.01,0 0,-0.03 0,0 0,-0.03 0,0 0,-0.01 0,0 0,-0.01 0,0 0,-0.01 0,0 0,-0.01 0,0 0,-0.05 0.01,0 0,-0.02 0,0 0,-0.03 0,0 0,-0.02 0,0 0,-0.03 0,0 0,-0.08 0,0 0,-0.03 0,0 0,-0.02 0.01,0 0,-0.01 0,0 0,-0.01 0,0 0,-0.05 0,0 0,-0.01 0,0 0,-0.09 0,0 0,-0.01 0,0 0,-0.01 0,0 0,-0.02 0.01,0 0,-0.06 0,0 0,-0.03 0,0 0,-0.05 0,0 0,-0.02 0,0 0,-0.1 0,0 0,-0.01 0,0 0,-0.06 0.01,0 0,-0.05 0,0 0,-0.05 0,0 0,-0.02 0,0 0,-0.11 0,0 0,-0.19 0,0 0,-0.02 0,0 0,-0.04 0.01,0 0,-0.26 0,0 0,-0.08 0,0 0,-0.09 0,0 0,-0.02 0,0 0,-0.3 0,0 0,-0.15 0,0 0,-0.12 0,0 0,-0.01 0,0 0,-0.06 0.01,0 0,-0.02 0,0 0,-0.02 0,0 0,-0.05 0,0 0,-0.01 0,0 0,-0.01 0,0 0,-0.12 0,0 0,-0.01 0,0 0,-0.04 0,0 0,-0.04 0.01,0 0,-0.11 0,0 0,-0.1 0,0 0,-0.17 0,0 0,-0.03 0,0 0,-0.04 0,0 0,-0.01 0,0 0,-0.01 0.01,0 0,-0.01 0,0 0,-0.07 0,0 0,-0.02 0,0 0,-0.02 0,0 0,-0.02 0,0 0,-0.02 0,0 0,-0.01 0.01,0 0,-0.04 0,0 0,-0.01 0,0 0,-0.05 0,0 0,-0.04 0,0 0,-0.11 0.01,0 0,-0.11 0,0 0,-0.05 0,0 0,-0.01 0,0 0,-0.04 0,0 0,-0.04 0,0 0,-0.04 0,0 0,-0.05 0,0 0,-0.01 0,0 0,-0.04 0.01,0 0,-0.06 0,0 0,-0.08 0,0 0,-0.01 0,0 0,-0.03 0,0 0,-0.03 0,0 0,-0.01 0,0 0,-0.03 0,0 0,-0.01 0.01,0 0,-0.03 0,0 0,-0.02 0,0 0,-0.03 0,0 0,-0.03 0,0 0,-0.05 0,0 0,-0.01 0,0 0,-0.01 0,0 0,-0.01 0,0 0,-0.01 0.01,0 0,-0.01 0,0 0,-0.01 0,0 0,-0.03 0,0 0,-0.1 0,0 0,-0.02 0.01,0 0,-0.01 0,0 0,-0.03 0,0 0,-0.02 0,0 0,-0.01 0,0 0,-0.01 0.01,0 0,-0.03 0,0 0,-0.01 0,0 0,-0.01 0,0 0,-0.01 0,0 0,-0.06 0.01,0 0,-0.01 0,0 0,-0.01 0,0 0,-0.01 0,0 0,-0.03 0,0 0,-0.01 0,0 0,-0.08 0,0 0,-0.01 0,0 0,-0.03 0,0 0,-0.03 0.01,0 0,-0.02 0,0 0,-0.02 0,0 0,-0.03 0,0 0,-0.02 0,0 0,-0.01 0,0 0,-0.01 0.01,0 0,-0.01 0,0 0,-0.02 0,0 0,-0.07 0,0 0,-0.04 0,0 0,-0.04 0,0 0,-0.01 0,0 0,-0.01 0.01,0 0,-0.01 0,0 0,-0.01 0,0 0,-0.04 0,0 0,-0.01 0,0 0,-0.01 0,0 0,-0.03 0,0 0,-0.02 0,0 0,-0.02 0.01,0 0,-0.01 0,0 0,-0.02 0,0 0,-0.01 0,0 0,-0.02 0,0 0,-0.02 0.01,0 0,-0.02 0,0 0,-0.01 0,0 0,-0.01 0,0 0,-0.01 0,0 0,-0.05 0,0 0,-0.05 0.01,0 0,-0.01 0,0 0,-0.06 0,0 0,-0.02 0,0 0,-0.01 0,0 0,-0.04 0.01,0 0,-0.02 0,0 0,-0.01 0,0 0,-0.03 0,0 0,-0.01 0,0 0,-0.01 0,0 0,-0.02 0,0 0,-0.04 0,0 0,-0.01 0.01,0 0,-0.01 0,0 0,-0.03 0,0 0,-0.02 0,0 0,-0.05 0,0 0,-0.02 0,0 0,-0.01 0.01,0 0,-0.03 0,0 0,-0.01 0,0 0,-0.01 0,0 0,-0.05 0,0 0,-0.01 0,0 0,-0.04 0.01,0 0,-0.01 0,0 0,-0.01 0,0 0,-0.01 0,0 0,-0.01 0,0 0,-0.05 0.01,0 0,-0.04 0,0 0,-0.01 0,0 0,-0.01 0,0 0,-0.04 0,0 0,-0.02 0.01,0 0,-0.01 0,0 0,-0.02 0,0 0,-0.01 0,0 0,-0.03 0.01,0 0,-0.02 0,0 0,-0.01 0,0 0,-0.02 0,0 0,-0.03 0,0 0,-0.01 0.01,0 0,-0.01 0,0 0,-0.01 0,0 0,-0.01 0,0 0,-0.02 0,0 0,-0.01 0,0 0,-0.01 0,0 0,-0.02 0,0 0,-0.03 0,0 0,-0.02 0.01,0 0,-0.02 0,0 0,-0.02 0,0 0,-0.01 0.01,0 0,-0.01 0,0 0,-0.02 0,0 0,-0.01 0,0 0,-0.02 0.01,0 0,-0.01 0,0 0,-0.02 0,0 0,-0.01 0,0 0,-0.01 0,0 0,-0.02 0.01,0 0,-0.02 0,0 0,-0.02 0,0 0,-0.01 0,0 0,-0.02 0,0 0,-0.02 0,0 0,-0.01 0.01,0 0,-0.01 0,0 0,-0.02 0,0 0,-0.05 0,0 0,-0.01 0,0 0,-0.01 0,0 0,-0.01 0.01,0 0,-0.03 0,0 0,-0.01 0,0 0,-0.03 0,0 0,-0.02 0,0 0,-0.01 0.01,0 0,-0.01 0,0 0,-0.01 0,0 0,-0.03 0,0 0,-0.02 0,0 0,-0.02 0,0 0,-0.01 0.01,0 0,-0.01 0,0 0,-0.01 0,0 0,-0.01 0,0 0,-0.02 0.01,0 0,-0.01 0,0 0,-0.02 0,0 0,-0.03 0,0 0,-0.01 0,0 0,-0.01 0,0 0,-0.01 0,0 0,-0.02 0.01,0 0,-0.01 0,0 0,-0.01 0,0 0,-0.01 0,0 0,-0.03 0,0 0,-0.01 0,0 0,-0.01 0.01,0 0,-0.03 0,0 0,-0.01 0,0 0,-0.01 0,0 0,-0.02 0,0 0,-0.08 0,0 0,-0.03 0.01,0 0,-0.01 0,0 0,-0.01 0,0 0,-0.03 0,0 0,-0.01 0.01,0 0,-0.01 0,0 0,-0.05 0,0 0,-0.01 0,0 0,-0.02 0,0 0,-0.01 0.01,0 0,-0.01 0,0 0,-0.01 0,0 0,-0.02 0,0 0,-0.02 0.01,0 0,-0.04 0,0 0,-0.01 0,0 0,-0.01 0,0 0,-0.04 0,0 0,-0.03 0,0 0,-0.02 0,0 0,-0.03 0.01,0 0,-0.02 0,0 0,-0.03 0,0 0,-0.02 0,0 0,-0.03 0,0 0,-0.01 0,0 0,-0.01 0.01,0 0,-0.03 0,0 0,-0.01 0,0 0,-0.01 0,0 0,-0.01 0.01,0 0,-0.05 0,0 0,-0.02 0,0 0,-0.02 0,0 0,-0.01 0,0 0,-0.02 0.01,0 0,-0.01 0,0 0,-0.02 0,0 0,-0.03 0,0 0,-0.02 0.01,0 0,-0.02 0,0 0,-0.01 0,0 0,-0.03 0,0 0,-0.01 0,0 0,-0.01 0,0 0,-0.01 0.01,0 0,-0.02 0,0 0,-0.01 0,0 0,-0.02 0,0 0,-0.02 0,0 0,-0.01 0,0 0,-0.01 0,0 0,-0.01 0.01,0 0,-0.03 0,0 0,-0.01 0,0 0,-0.02 0,0 0,-0.02 0.01,0 0,-0.03 0,0 0,-0.01 0,0 0,-0.01 0,0 0,-0.01 0,0 0,-0.02 0,0 0,-0.01 0,0 0,-0.01 0.01,0 0,-0.02 0,0 0,-0.01 0,0 0,-0.01 0,0 0,-0.01 0,0 0,-0.02 0.01,0 0,-0.01 0,0 0,-0.01 0,0 0,-0.01 0,0 0,-0.02 0,0 0,-0.01 0.01,0 0,-0.01 0,0 0,-0.02 0,0 0,-0.01 0,0 0,-0.01 0.01,0 0,-0.01 0,0 0,-0.03 0,0 0,-0.01 0,0 0,-0.02 0,0 0,-0.01 0.01,0 0,-0.02 0,0 0,-0.02 0,0 0,-0.04 0,0 0,-0.01 0.01,0 0,-0.01 0,0 0,-0.01 0,0 0,-0.02 0,0 0,-0.01 0,0 0,-0.01 0,0 0,-0.02 0.01,0 0,-0.01 0,0 0,-0.01 0,0 0,-0.01 0,0 0,-0.02 0,0 0,-0.01 0.01,0 0,-0.01 0,0 0,-0.02 0,0 0,-0.01 0,0 0,-0.05 0,0 0,-0.01 0,0 0,-0.04 0.01,0 0,-0.02 0,0 0,-0.01 0,0 0,-0.02 0,0 0,-0.02 0,0 0,-0.02 0.01,0 0,-0.02 0,0 0,-0.01 0,0 0,-0.04 0,0 0,-0.02 0,0 0,-0.02 0,0 0,-0.01 0.01,0 0,-0.01 0,0 0,-0.03 0,0 0,-0.03 0,0 0,-0.01 0,0 0,-0.01 0,0 0,-0.01 0.01,0 0,-0.02 0,0 0,-0.01 0,0 0,-0.01 0,0 0,-0.02 0,0 0,-0.05 0,0 0,-0.01 0.01,0 0,-0.01 0,0 0,-0.02 0,0 0,-0.02 0,0 0,-0.03 0,0 0,-0.01 0,0 0,-0.03 0.01,0 0,-0.03 0,0 0,-0.01 0,0 0,-0.01 0,0 0,-0.02 0,0 0,-0.02 0.01,0 0,-0.01 0,0 0,-0.02 0,0 0,-0.01 0,0 0,-0.04 0,0 0,-0.03 0.01,0 0,-0.01 0,0 0,-0.01 0,0 0,-0.03 0.01,0 0,-0.03 0,0 0,-0.01 0,0 0,-0.01 0,0 0,-0.02 0,0 0,-0.01 0,0 0,-0.04 0,0 0,-0.01 0.01,0 0,-0.03 0,0 0,-0.01 0,0 0,-0.04 0,0 0,-0.01 0,0 0,-0.02 0.01,0 0,-0.01 0,0 0,-0.03 0,0 0,-0.01 0,0 0,-0.04 0,0 0,-0.01 0,0 0,-0.04 0.01,0 0,-0.02 0,0 0,-0.02 0,0 0,-0.02 0,0 0,-0.01 0.01,0 0,-0.01 0,0 0,-0.02 0,0 0,-0.01 0,0 0,-0.01 0,0 0,-0.06 0,0 0,-0.04 0,0 0,-0.01 0.01,0 0,-0.04 0,0 0,-0.02 0,0 0,-0.02 0,0 0,-0.04 0,0 0,-0.02 0.01,0 0,-0.01 0,0 0,-0.01 0,0 0,-0.03 0,0 0,-0.04 0,0 0,-0.04 0.01,0 0,-0.03 0,0 0,-0.04 0,0 0,-0.01 0,0 0,-0.03 0,0 0,-0.01 0.01,0 0,-0.02 0,0 0,-0.02 0,0 0,-0.02 0,0 0,-0.01 0,0 0,-0.01 0,0 0,-0.02 0.01,0 0,-0.04 0,0 0,-0.04 0,0 0,-0.01 0,0 0,-0.02 0,0 0,-0.01 0,0 0,-0.01 0.01,0 0,-0.02 0,0 0,-0.04 0.01,0 0,-0.01 0,0 0,-0.01 0,0 0,-0.03 0,0 0,-0.02 0,0 0,-0.01 0,0 0,-0.03 0,0 0,-0.01 0,0 0,-0.01 0.01,0 0,-0.02 0,0 0,-0.01 0,0 0,-0.02 0,0 0,-0.01 0.01,0 0,-0.01 0,0 0,-0.03 0,0 0,-0.03 0,0 0,-0.01 0,0 0,-0.01 0.01,0 0,-0.03 0,0 0,-0.02 0,0 0,-0.01 0.01,0 0,-0.05 0,0 0,-0.03 0,0 0,-0.02 0,0 0,-0.01 0,0 0,-0.01 0,0 0,-0.02 0.01,0 0,-0.01 0,0 0,-0.01 0,0 0,-0.02 0.01,0 0,-0.03 0,0 0,-0.01 0,0 0,-0.01 0,0 0,-0.02 0.01,0 0,-0.03 0,0 0,-0.02 0,0 0,-0.02 0,0 0,-0.02 0,0 0,-0.02 0.01,0 0,-0.04 0,0 0,-0.01 0,0 0,-0.02 0,0 0,-0.01 0,0 0,-0.02 0.01,0 0,-0.01 0,0 0,-0.03 0,0 0,-0.03 0,0 0,-0.02 0,0 0,-0.03 0,0 0,-0.02 0.01,0 0,-0.01 0,0 0,-0.03 0,0 0,-0.02 0,0 0,-0.02 0,0 0,-0.04 0,0 0,-0.01 0.01,0 0,-0.03 0,0 0,-0.02 0,0 0,-0.01 0,0 0,-0.01 0,0 0,-0.03 0,0 0,-0.02 0,0 0,-0.04 0.01,0 0,-0.01 0,0 0,-0.05 0,0 0,-0.01 0.01,0 0,-0.01 0,0 0,-0.03 0,0 0,-0.02 0,0 0,-0.01 0,0 0,-0.01 0,0 0,-0.02 0.01,0 0,-0.01 0,0 0,-0.03 0,0 0,-0.03 0,0 0,-0.03 0,0 0,-0.02 0,0 0,-0.02 0.01,0 0,-0.03 0,0 0,-0.01 0,0 0,-0.02 0,0 0,-0.02 0.01,0 0,-0.03 0,0 0,-0.02 0,0 0,-0.01 0,0 0,-0.02 0,0 0,-0.01 0.01,0 0,-0.01 0,0 0,-0.02 0,0 0,-0.01 0,0 0,-0.02 0.01,0 0,-0.02 0,0 0,-0.03 0,0 0,-0.06 0,0 0,-0.01 0,0 0,-0.03 0.01,0 0,-0.02 0,0 0,-0.01 0,0 0,-0.02 0,0 0,-0.01 0,0 0,-0.01 0,0 0,-0.02 0,0 0,-0.01 0.01,0 0,-0.02 0,0 0,-0.01 0,0 0,-0.02 0,0 0,-0.01 0,0 0,-0.01 0.01,0 0,-0.02 0,0 0,-0.01 0,0 0,-0.02 0,0 0,-0.03 0.01,0 0,-0.01 0,0 0,-0.02 0,0 0,-0.01 0,0 0,-0.01 0.01,0 0,-0.02 0,0 0,-0.01 0,0 0,-0.02 0,0 0,-0.01 0,0 0,-0.02 0.01,0 0,-0.03 0,0 0,-0.02 0,0 0,-0.03 0,0 0,-0.03 0,0 0,-0.02 0.01,0 0,-0.01 0,0 0,-0.02 0,0 0,-0.01 0,0 0,-0.01 0.01,0 0,-0.05 0,0 0,-0.01 0,0 0,-0.03 0,0 0,-0.02 0,0 0,-0.01 0.01,0 0,-0.01 0,0 0,-0.03 0,0 0,-0.02 0.01,0 0,-0.01 0,0 0,-0.02 0,0 0,-0.01 0,0 0,-0.02 0,0 0,-0.01 0,0 0,-0.02 0.01,0 0,-0.01 0,0 0,-0.01 0,0 0,-0.02 0,0 0,-0.01 0,0 0,-0.06 0,0 0,-0.02 0.01,0 0,-0.01 0,0 0,-0.02 0,0 0,-0.01 0.01,0 0,-0.02 0,0 0,-0.03 0,0 0,-0.01 0,0 0,-0.01 0.01,0 0,-0.02 0,0 0,-0.01 0,0 0,-0.02 0.01,0 0,-0.01 0,0 0,-0.02 0,0 0,-0.01 0.01,0 0,-0.02 0,0 0,-0.01 0,0 0,-0.02 0.01,0 0,-0.01 0,0 0,-0.02 0,0 0,-0.01 0,0 0,-0.02 0,0 0,-0.01 0,0 0,-0.02 0,0 0,-0.01 0.01,0 0,-0.01 0,0 0,-0.02 0,0 0,-0.01 0.01,0 0,-0.03 0,0 0,-0.02 0,0 0,-0.01 0.01,0 0,-0.02 0,0 0,-0.01 0,0 0,-0.02 0.01,0 0,-0.01 0,0 0,-0.02 0,0 0,-0.03 0,0 0,-0.01 0,0 0,-0.02 0.01,0 0,-0.01 0,0 0,-0.02 0,0 0,-0.01 0.01,0 0,-0.02 0,0 0,-0.03 0,0 0,-0.01 0,0 0,-0.02 0.01,0 0,-0.01 0,0 0,-0.02 0,0 0,-0.01 0,0 0,-0.02 0.01,0 0,-0.01 0,0 0,-0.01 0,0 0,-0.02 0,0 0,-0.01 0,0 0,-0.02 0,0 0,-0.01 0.01,0 0,-0.02 0,0 0,-0.01 0,0 0,-0.02 0,0 0,-0.01 0.01,0 0,-0.02 0,0 0,-0.01 0.01,0 0,-0.03 0,0 0,-0.02 0,0 0,-0.01 0,0 0,-0.02 0.01,0 0,-0.01 0,0 0,-0.02 0,0 0,-0.01 0.01,0 0,-0.02 0,0 0,-0.01 0,0 0,-0.02 0,0 0,-0.01 0,0 0,-0.02 0,0 0,-0.01 0,0 0,-0.02 0.01,0 0,-0.01 0,0 0,-0.03 0.01,0 0,-0.02 0,0 0,-0.01 0,0 0,-0.04 0.01,0 0,-0.01 0,0 0,-0.02 0,0 0,-0.01 0,0 0,-0.02 0,0 0,-0.01 0.01,0 0,-0.02 0,0 0,-0.03 0.01,0 0,-0.01 0,0 0,-0.02 0,0 0,-0.01 0,0 0,-0.02 0.01,0 0,-0.01 0,0 0,-0.02 0,0 0,-0.03 0,0 0,-0.01 0.01,0 0,-0.02 0,0 0,-0.01 0,0 0,-0.02 0.01,0 0,-0.01 0,0 0,-0.02 0,0 0,-0.01 0.01,0 0,-0.02 0,0 0,-0.01 0.01,0 0,-0.02 0,0 0,-0.01 0,0 0,-0.02 0,0 0,-0.02 0.01,0 0,-0.01 0,0 0,-0.02 0,0 0,-0.03 0.01,0 0,-0.01 0,0 0,-0.02 0,0 0,-0.01 0,0 0,-0.02 0.01,0 0,-0.01 0,0 0,-0.02 0.01,0 0,-0.01 0,0 0,-0.03 0,0 0,-0.02 0.01,0 0,-0.01 0,0 0,-0.02 0,0 0,-0.02 0,0 0,-0.01 0.01,0 0,-0.02 0,0 0,-0.01 0.01,0 0,-0.03 0,0 0,-0.02 0,0 0,-0.01 0,0 0,-0.02 0,0 0,-0.01 0.01,0 0,-0.02 0,0 0,-0.01 0.01,0 0,-0.02 0,0 0,-0.03 0,0 0,-0.02 0,0 0,-0.01 0.01,0 0,-0.02 0,0 0,-0.03 0,0 0,-0.01 0,0 0,-0.02 0.01,0 0,-0.01 0,0 0,-0.02 0.01,0 0,-0.02 0,0 0,-0.01 0,0 0,-0.02 0.01,0 0,-0.01 0,0 0,-0.02 0,0 0,-0.01 0,0 0,-0.02 0.01,0 0,-0.01 0,0 0,-0.02 0.01,0 0,-0.02 0,0 0,-0.01 0,0 0,-0.02 0,0 0,-0.01 0.01,0 0,-0.02 0,0 0,-0.01 0,0 0,-0.02 0.01,0 0,-0.01 0,0 0,-0.02 0.01,0 0,-0.02 0.01,0 0,-0.01 0,0 0,-0.02 0.01,0 0,-0.01 0,0 0,-0.02 0,0 0,-0.01 0.01,0 0,-0.02 0,0 0,-0.01 0.01,0 0,-0.02 0,0 0,-0.02 0.01,0 0,-0.01 0.01,0 0,-0.02 0,0 0,-0.01 0.01,0 0,-0.02 0,0 0,-0.01 0.02,0 0,-0.02 0.01,0 0,-0.02 0,0 0,-0.01 0.01,0 0,-0.02 0,0 0,-0.01 0.01,0 0,-0.02 0,0 0,-0.01 0.01,0 0,-0.02 0.01,0 0,-0.02 0.01,0 0,-0.01 0.01,0 0,-0.02 0.01,0 0,-0.01 0,0 0,-0.02 0.01,0 0,-0.01 0.01,0 0,-0.02 0.01,0 0,-0.02 0.01,0 0,-0.01 0.01,0 0,-0.02 0.01,0 0,-0.01 0.01,0 0,-0.02 0.01,0 0,-0.02 0,0 0,-0.01 0.01,0 0,-0.02 0.01,0 0,-0.01 0.01,0 0,-0.02 0.01,0 0,-0.01 0.01,0 0,-0.02 0.01,0 0,-0.02 0.02,0 0,-0.01 0.01,0 0,-0.02 0.01,0 0,-0.01 0.01,0 0,-0.02 0.01,0 0,-0.02 0.01,0 0,-0.01 0.01,0 0,-0.02 0.01,0 0,-0.01 0.02,0 0,-0.02 0,0 0,-0.01 0.01,0 0,-0.02 0.01,0 0,-0.02 0.01,0 0,-0.01 0,0 0,-0.02 0.01,0 0,-0.01 0.01,0 0,-0.02 0,0 0,-0.02 0.01,0 0,-0.01 0.01,0 0,-0.02 0,0 0,-0.01 0.01,0 0,-0.02 0.01,0 0,-0.02 0.01,0 0,-0.01 0.01,0 0,-0.02 0.01,0 0,-0.01 0.01,0 0,-0.02 0,0 0,-0.02 0.01,0 0,-0.01 0.01,0 0,-0.02 0.01,0 0,-0.01 0,0 0,-0.02 0.01,0 0,-0.02 0,0 0,-0.01 0.01,0 0,-0.02 0.01,0 0,-0.01 0.01,0 0,-0.02 0,0 0,-0.02 0.01,0 0,-0.01 0,0 0,-0.02 0.01,0 0,-0.02 0.01,0 0,-0.01 0,0 0,-0.02 0.01,0 0,-0.01 0,0 0,-0.02 0,0 0,-0.02 0.01,0 0,-0.01 0.01,0 0,-0.02 0,0 0,-0.01 0.01,0 0,-0.02 0,0 0,-0.02 0,0 0,-0.01 0.01,0 0,-0.02 0.01,0 0,-0.02 0,0 0,-0.01 0,0 0,-0.02 0.01,0 0,-0.03 0,0 0,-0.02 0,0 0,-0.01 0.01,0 0,-0.02 0,0 0,-0.02 0.01,0 0,-0.01 0,0 0,-0.02 0,0 0,-0.01 0.01,0 0,-0.02 0,0 0,-0.02 0.01,0 0,-0.01 0,0 0,-0.02 0,0 0,-0.02 0.01,0 0,-0.01 0,0 0,-0.02 0,0 0,-0.01 0.01,0 0,-0.02 0,0 0,-0.02 0.01,0 0,-0.01 0,0 0,-0.02 0,0 0,-0.02 0,0 0,-0.01 0.01,0 0,-0.02 0,0 0,-0.01 0,0 0,-0.02 0.01,0 0,-0.02 0,0 0,-0.01 0,0 0,-0.02 0.01,0 0,-0.02 0,0 0,-0.01 0.01,0 0,-0.02 0.01,0 0,-0.02 0,0 0,-0.01 0.01,0 0,-0.02 0,0 0,-0.02 0,0 0,-0.01 0,0 0,-0.02 0.01,0 0,-0.01 0,0 0,-0.02 0,0 0,-0.02 0,0 0,-0.01 0.01,0 0,-0.02 0,0 0,-0.02 0.01,0 0,-0.01 0,0 0,-0.02 0,0 0,-0.02 0,0 0,-0.01 0.01,0 0,-0.02 0,0 0,-0.02 0,0 0,-0.01 0.01,0 0,-0.02 0.01,0 0,-0.02 0,0 0,-0.01 0.01,0 0,-0.02 0,0 0,-0.02 0.01,0 0,-0.01 0,0 0,-0.02 0,0 0,-0.02 0.01,0 0,-0.01 0,0 0,-0.02 0.01,0 0,-0.02 0.01,0 0,-0.01 0,0 0,-0.02 0.01,0 0,-0.02 0,0 0,-0.01 0.01,0 0,-0.02 0,0 0,-0.01 0.01,0 0,-0.02 0,0 0,-0.02 0.01,0 0,-0.01 0.01,0 0,-0.02 0.01,0 0,-0.02 0,0 0,-0.02 0.01,0 0,-0.01 0,0 0,-0.02 0.01,0 0,-0.02 0.01,0 0,-0.01 0,0 0,-0.02 0,0 0,-0.02 0.01,0 0,-0.01 0,0 0,-0.02 0.01,0 0,-0.02 0.01,0 0,-0.01 0,0 0,-0.02 0,0 0,-0.02 0.01,0 0,-0.01 0.01,0 0,-0.02 0.01,0 0,-0.02 0.01,0 0,-0.01 0,0 0,-0.02 0.02,0 0,-0.02 0,0 0,-0.01 0.01,0 0,-0.02 0.01,0 0,-0.02 0.01,0 0,-0.01 0.01,0 0,-0.02 0,0 0,-0.02 0,0 0,-0.01 0.01,0 0,-0.02 0.01,0 0,-0.02 0.01,0 0,-0.02 0.01,0 0,-0.01 0.01,0 0,-0.02 0.01,0 0,-0.02 0,0 0,-0.01 0,0 0,-0.02 0.01,0 0,-0.02 0,0 0,-0.01 0.01,0 0,-0.02 0,0 0,-0.02 0.01,0 0,-0.01 0.01,0 0,-0.02 0.01,0 0,-0.02 0.01,0 0,-0.02 0,0 0,-0.01 0.01,0 0,-0.02 0,0 0,-0.02 0.01,0 0,-0.01 0.01,0 0,-0.02 0,0 0,-0.02 0.01,0 0,-0.01 0,0 0,-0.02 0.01,0 0,-0.02 0,0 0,-0.02 0.01,0 0,-0.01 0.01,0 0,-0.02 0,0 0,-0.02 0.01,0 0,-0.03 0,0 0,-0.02 0.01,0 0,-0.02 0.01,0 0,-0.01 0,0 0,-0.02 0.01,0 0,-0.02 0,0 0,-0.01 0.01,0 0,-0.02 0,0 0,-0.02 0.01,0 0,-0.02 0.01,0 0,-0.01 0,0 0,-0.02 0,0 0,-0.02 0.01,0 0,-0.01 0,0 0,-0.02 0.01,0 0,-0.02 0,0 0,-0.02 0.01,0 0,-0.01 0,0 0,-0.02 0.01,0 0,-0.02 0.01,0 0,-0.01 0,0 0,-0.02 0,0 0,-0.02 0.01,0 0,-0.02 0.01,0 0,-0.01 0.01,0 0,-0.02 0,0 0,-0.02 0.01,0 0,-0.02 0,0 0,-0.01 0,0 0,-0.02 0.01,0 0,-0.02 0.01,0 0,-0.01 0,0 0,-0.02 0.01,0 0,-0.02 0,0 0,-0.02 0.01,0 0,-0.01 0,0 0,-0.02 0,0 0,-0.02 0.01,0 0,-0.02 0,0 0,-0.01 0.01,0 0,-0.02 0,0 0,-0.02 0.01,0 0,-0.02 0.01,0 0,-0.01 0.01,0 0,-0.02 0,0 0,-0.02 0,0 0,-0.01 0.01,0 0,-0.04 0,0 0,-0.02 0.01,0 0,-0.01 0,0 0,-0.02 0.01,0 0,-0.02 0,0 0,-0.02 0,0 0,-0.01 0.01,0 0,-0.02 0.01,0 0,-0.02 0.01,0 0,-0.02 0,0 0,-0.01 0.01,0 0,-0.02 0,0 0,-0.02 0.01,0 0,-0.02 0,0 0,-0.01 0.01,0 0,-0.02 0,0 0,-0.02 0.01,0 0,-0.02 0,0 0,-0.01 0,0 0,-0.02 0.01,0 0,-0.02 0,0 0,-0.02 0.01,0 0,-0.02 0,0 0,-0.01 0.01,0 0,-0.02 0,0 0,-0.02 0.01,0 0,-0.02 0,0 0,-0.01 0,0 0,-0.02 0.01,0 0,-0.02 0,0 0,-0.02 0.01,0 0,-0.01 0,0 0,-0.02 0.01,0 0,-0.02 0,0 0,-0.02 0,0 0,-0.01 0.01,0 0,-0.04 0,0 0,-0.02 0,0 0,-0.02 0.01,0 0,-0.01 0,0 0,-0.02 0.01,0 0,-0.02 0.01,0 0,-0.02 0,0 0,-0.01 0.01,0 0,-0.02 0,0 0,-0.02 0,0 0,-0.02 0.01,0 0,-0.02 0,0 0,-0.01 0.01,0 0,-0.02 0,0 0,-0.02 0,0 0,-0.02 0,0 0,-0.01 0.01,0 0,-0.02 0,0 0,-0.02 0.01,0 0,-0.02 0.01,0 0,-0.02 0,0 0,-0.01 0.01,0 0,-0.02 0,0 0,-0.02 0,0 0,-0.02 0.01,0 0,-0.02 0.01,0 0,-0.01 0,0 0,-0.02 0.01,0 0,-0.02 0,0 0,-0.02 0.01,0 0,-0.02 0,0 0,-0.01 0,0 0,-0.02 0.01,0 0,-0.02 0,0 0,-0.02 0.01,0 0,-0.02 0,0 0,-0.01 0.01,0 0,-0.02 0,0 0,-0.02 0.01,0 0,-0.02 0,0 0,-0.02 0.01,0 0,-0.01 0,0 0,-0.02 0.01,0 0,-0.02 0,0 0,-0.02 0.01,0 0,-0.02 0,0 0,-0.01 0.01,0 0,-0.02 0,0 0,-0.02 0.02,0 0,-0.02 0.01,0 0,-0.02 0,0 0,-0.01 0.01,0 0,-0.02 0.01,0 0,-0.02 0.01,0 0,-0.02 0,0 0,-0.02 0.01,0 0,-0.02 0,0 0,-0.01 0.01,0 0,-0.02 0,0 0,-0.02 0.01,0 0,-0.02 0.01,0 0,-0.02 0.01,0 0,-0.01 0,0 0,-0.02 0.01,0 0,-0.02 0,0 0,-0.02 0,0 0,-0.02 0.02,0 0,-0.02 0,0 0,-0.01 0,0 0,-0.02 0.01,0 0,-0.02 0.01,0 0,-0.02 0.01,0 0,-0.02 0.01,0 0,-0.02 0,0 0,-0.01 0.01,0 0,-0.02 0.01,0 0,-0.02 0.01,0 0,-0.02 0,0 0,-0.02 0.01,0 0,-0.02 0.01,0 0,-0.01 0.01,0 0,-0.02 0.01,0 0,-0.02 0.02,0 0,-0.02 0,0 0,-0.02 0.01,0 0,-0.02 0,0 0,-0.01 0.02,0 0,-0.02 0.01,0 0,-0.02 0.01,0 0,-0.02 0.01,0 0,-0.02 0.01,0 0,-0.02 0,0 0,-0.01 0.01,0 0,-0.02 0,0 0,-0.02 0.02,0 0,-0.02 0,0 0,-0.02 0.01,0 0,-0.02 0.01,0 0,-0.02 0.01,0 0,-0.01 0,0 0,-0.02 0.01,0 0,-0.02 0.01,0 0,-0.02 0,0 0,-0.02 0.01,0 0,-0.02 0.01,0 0,-0.02 0.01,0 0,-0.01 0.01,0 0,-0.02 0.01,0 0,-0.02 0.01,0 0,-0.02 0.01,0 0,-0.02 0,0 0,-0.02 0.01,0 0,-0.02 0.01,0 0,-0.01 0,0 0,-0.02 0.01,0 0,-0.02 0.01,0 0,-0.02 0.01,0 0,-0.02 0.01,0 0,-0.02 0.01,0 0,-0.02 0.01,0 0,-0.01 0,0 0,-0.02 0.01,0 0,-0.02 0.01,0 0,-0.02 0.01,0 0,-0.02 0,0 0,-0.02 0.01,0 0,-0.02 0,0 0,-0.02 0.01,0 0,-0.01 0.01,0 0,-0.02 0,0 0,-0.02 0.01,0 0,-0.02 0.01,0 0,-0.02 0,0 0,-0.02 0.01,0 0,-0.02 0,0 0,-0.02 0.01,0 0,-0.02 0,0 0,-0.01 0.01,0 0,-0.02 0,0 0,-0.02 0.01,0 0,-0.02 0.01,0 0,-0.02 0,0 0,-0.02 0.01,0 0,-0.02 0.01,0 0,-0.02 0,0 0,-0.01 0.01,0 0,-0.02 0.01,0 0,-0.02 0.01,0 0,-0.02 0,0 0,-0.02 0.01,0 0,-0.02 0.01,0 0,-0.02 0.01,0 0,-0.02 0.01,0 0,-0.02 0.01,0 0,-0.02 0.01,0 0,-0.01 0,0 0,-0.02 0.01,0 0,-0.02 0.01,0 0,-0.02 0.01,0 0,-0.02 0,0 0,-0.02 0.01,0 0,-0.02 0.01,0 0,-0.02 0.01,0 0,-0.02 0.01,0 0,-0.02 0.01,0 0,-0.02 0.01,0 0,-0.01 0,0 0,-0.02 0,0 0,-0.02 0.01,0 0,-0.02 0.01,0 0,-0.02 0.01,0 0,-0.02 0.01,0 0,-0.02 0,0 0,-0.02 0.01,0 0,-0.02 0.02,0 0,-0.02 0.01,0 0,-0.02 0.01,0 0,-0.01 0,0 0,-0.02 0.02,0 0,-0.02 0.01,0 0,-0.02 0.01,0 0,-0.02 0.01,0 0,-0.02 0.01,0 0,-0.02 0.01,0 0,-0.02 0.01,0 0,-0.02 0.02,0 0,-0.02 0,0 0,-0.02 0.01,0 0,-0.02 0,0 0,-0.02 0.01,0 0,-0.02 0.01,0 0,-0.01 0.01,0 0,-0.02 0.01,0 0,-0.02 0.01,0 0,-0.02 0.01,0 0,-0.02 0,0 0,-0.02 0.01,0 0,-0.02 0.01,0 0,-0.02 0.01,0 0,-0.02 0.01,0 0,-0.02 0.01,0 0,-0.02 0.02,0 0,-0.02 0.01,0 0,-0.02 0.01,0 0,-0.02 0.01,0 0,-0.02 0.01,0 0,-0.02 0.01,0 0,-0.02 0.02,0 0,-0.01 0.01,0 0,-0.02 0.01,0 0,-0.02 0.01,0 0,-0.02 0.01,0 0,-0.02 0.01,0 0,-0.02 0,0 0,-0.02 0.01,0 0,-0.02 0.02,0 0,-0.02 0.01,0 0,-0.02 0,0 0,-0.02 0.01,0 0,-0.02 0.01,0 0,-0.02 0.01,0 0,-0.02 0.01,0 0,-0.02 0.01,0 0,-0.02 0.01,0 0,-0.02 0.01,0 0,-0.02 0.01,0 0,-0.02 0.01,0 0,-0.02 0.01,0 0,-0.02 0.01,0 0,-0.02 0.01,0 0,-0.02 0.02,0 0,-0.02 0.01,0 0,-0.02 0.02,0 0,-0.01 0.01,0 0,-0.02 0,0 0,-0.02 0.02,0 0,-0.02 0.01,0 0,-0.02 0.02,0 0,-0.02 0.01,0 0,-0.02 0.02,0 0,-0.02 0.01,0 0,-0.02 0.02,0 0,-0.02 0,0 0,-0.02 0.02,0 0,-0.02 0.01,0 0,-0.02 0.01,0 0,-0.02 0.02,0 0,-0.02 0.01,0 0,-0.02 0.01,0 0,-0.02 0.01,0 0,-0.02 0.02,0 0,-0.02 0,0 0,-0.02 0.02,0 0,-0.02 0.02,0 0,-0.02 0.01,0 0,-0.02 0.02,0 0,-0.02 0.01,0 0,-0.02 0.03,0 0,-0.02 0.01,0 0,-0.02 0.02,0 0,-0.02 0.01,0 0,-0.02 0.01,0 0,-0.02 0.02,0 0,-0.02 0.02,0 0,-0.02 0.01,0 0,-0.02 0.02,0 0,-0.02 0.01,0 0,-0.02 0.01,0 0,-0.02 0.02,0 0,-0.02 0.03,0 0,-0.02 0.02,0 0,-0.02 0.02,0 0,-0.02 0.02,0 0,-0.02 0.01,0 0,-0.02 0.03,0 0,-0.02 0.02,0 0,-0.02 0.02,0 0,-0.02 0.02,0 0,-0.02 0.01,0 0,-0.02 0.02,0 0,-0.02 0.03,0 0,-0.02 0.01,0 0,-0.02 0.03,0 0,-0.02 0.02,0 0,-0.02 0.02,0 0,-0.02 0.02,0 0,-0.02 0.03,0 0,-0.02 0.02,0 0,-0.02 0.02,0 0,-0.02 0.02,0 0,-0.02 0.03,0 0,-0.03 0.02,0 0,-0.02 0.02,0 0,-0.02 0.02,0 0,-0.02 0.01,0 0,-0.02 0.02,0 0,-0.02 0.03,0 0,-0.02 0.02,0 0,-0.02 0.03,0 0,-0.02 0.01,0 0,-0.02 0.03,0 0,-0.02 0.01,0 0,-0.02 0.03,0 0,-0.02 0.02,0 0,-0.02 0.02,0 0,-0.02 0.02,0 0,-0.02 0.01,0 0,-0.02 0.02,0 0,-0.02 0.03,0 0,-0.02 0.02,0 0,-0.02 0.03,0 0,-0.02 0.01,0 0,-0.02 0.02,0 0,-0.02 0.01,0 0,-0.02 0.03,0 0,-0.03 0.02,0 0,-0.02 0.02,0 0,-0.02 0.02,0 0,-0.02 0.03,0 0,-0.02 0.02,0 0,-0.02 0.01,0 0,-0.02 0.03,0 0,-0.02 0.02,0 0,-0.02 0.02,0 0,-0.02 0.02,0 0,-0.02 0.02,0 0,-0.02 0.01,0 0,-0.02 0.02,0 0,-0.02 0.03,0 0,-0.02 0.02,0 0,-0.02 0.02,0 0,-0.03 0.01,0 0,-0.02 0.02,0 0,-0.02 0.03,0 0,-0.02 0.02,0 0,-0.02 0.02,0 0,-0.02 0.02,0 0,-0.02 0.03,0 0,-0.02 0.03,0 0,-0.02 0.02,0 0,-0.02 0.01,0 0,-0.02 0.02,0 0,-0.02 0.01,0 0,-0.02 0.02,0 0,-0.03 0.03,0 0,-0.02 0.02,0 0,-0.02 0.01,0 0,-0.02 0.03,0 0,-0.02 0.02,0 0,-0.02 0.02,0 0,-0.02 0.02,0 0,-0.02 0.02,0 0,-0.02 0.01,0 0,-0.02 0.02,0 0,-0.02 0.02,0 0,-0.03 0.02,0 0,-0.02 0.01,0 0,-0.02 0.03,0 0,-0.02 0.01,0 0,-0.02 0.02,0 0,-0.02 0.01,0 0,-0.02 0.02,0 0,-0.02 0.01,0 0,-0.02 0.01,0 0,-0.02 0.03,0 0,-0.03 0.02,0 0,-0.02 0.01,0 0,-0.02 0.01,0 0,-0.02 0.02,0 0,-0.02 0.01,0 0,-0.02 0.01,0 0,-0.02 0.01,0 0,-0.02 0.02,0 0,-0.02 0.01,0 0,-0.03 0.02,0 0,-0.02 0.01,0 0,-0.02 0.01,0 0,-0.02 0.02,0 0,-0.02 0.02,0 0,-0.02 0.01,0 0,-0.02 0.01,0 0,-0.02 0.01,0 0,-0.03 0.02,0 0,-0.02 0.01,0 0,-0.02 0.02,0 0,-0.02 0.01,0 0,-0.02 0.02,0 0,-0.02 0.01,0 0,-0.02 0.02,0 0,-0.02 0.01,0 0,-0.03 0.03,0 0,-0.02 0.01,0 0,-0.02 0.01,0 0,-0.02 0.01,0 0,-0.02 0.02,0 0,-0.02 0.02,0 0,-0.02 0.01,0 0,-0.03 0.02,0 0,-0.02 0.02,0 0,-0.02 0.02,0 0,-0.02 0.02,0 0,-0.02 0.01,0 0,-0.02 0.01,0 0,-0.02 0.02,0 0,-0.03 0.02,0 0,-0.02 0.01,0 0,-0.02 0.02,0 0,-0.02 0.01,0 0,-0.02 0.02,0 0,-0.02 0.02,0 0,-0.03 0.02,0 0,-0.02 0.01,0 0,-0.02 0.02,0 0,-0.02 0.02,0 0,-0.02 0.01,0 0,-0.02 0.02,0 0,-0.02 0.01,0 0,-0.03 0.02,0 0,-0.02 0.02,0 0,-0.02 0.01,0 0,-0.02 0.02,0 0,-0.02 0.01,0 0,-0.02 0.01,0 0,-0.03 0.02,0 0,-0.02 0.01,0 0,-0.02 0.03,0 0,-0.02 0.01,0 0,-0.02 0.02,0 0,-0.03 0.02,0 0,-0.02 0.02,0 0,-0.02 0.01,0 0,-0.02 0.02,0 0,-0.02 0.03,0 0,-0.02 0.01,0 0,-0.03 0.01,0 0,-0.02 0.03,0 0,-0.02 0.02,0 0,-0.02 0.02,0 0,-0.02 0.02,0 0,-0.03 0.02,0 0,-0.02 0.02,0 0,-0.02 0.02,0 0,-0.02 0.02,0 0,-0.02 0.02,0 0,-0.03 0.02,0 0,-0.02 0.02,0 0,-0.02 0.02,0 0,-0.02 0.03,0 0,-0.02 0.02,0 0,-0.03 0.01,0 0,-0.02 0.02,0 0,-0.02 0.02,0 0,-0.02 0.02,0 0,-0.02 0.01,0 0,-0.03 0.03,0 0,-0.02 0.02,0 0,-0.02 0.02,0 0,-0.02 0.02,0 0,-0.02 0.02,0 0,-0.03 0.03,0 0,-0.02 0.02,0 0,-0.02 0.03,0 0,-0.02 0.03,0 0,-0.02 0.02,0 0,-0.03 0.02,0 0,-0.02 0.02,0 0,-0.02 0.01,0 0,-0.02 0.02,0 0,-0.03 0.01,0 0,-0.02 0.01,0 0,-0.02 0.03,0 0,-0.02 0.01,0 0,-0.03 0.03,0 0,-0.02 0.01,0 0,-0.02 0.02,0 0,-0.02 0.01,0 0,-0.02 0.01,0 0,-0.03 0.02,0 0,-0.02 0.01,0 0,-0.02 0.01,0 0,-0.02 0.02,0 0,-0.03 0.01,0 0,-0.02 0.02,0 0,-0.02 0.02,0 0,-0.02 0.01,0 0,-0.03 0.01,0 0,-0.02 0.02,0 0,-0.02 0.02,0 0,-0.02 0.01,0 0,-0.03 0.03,0 0,-0.02 0.02,0 0,-0.02 0.01,0 0,-0.02 0.02,0 0,-0.03 0.01,0 0,-0.02 0.03,0 0,-0.02 0.02,0 0,-0.02 0.01,0 0,-0.03 0.02,0 0,-0.02 0.02,0 0,-0.02 0.02,0 0,-0.02 0.01,0 0,-0.03 0.02,0 0,-0.02 0.02,0 0,-0.02 0.02,0 0,-0.03 0.01,0 0,-0.02 0.01,0 0,-0.02 0.02,0 0,-0.02 0.02,0 0,-0.03 0.02,0 0,-0.02 0.02,0 0,-0.02 0.02,0 0,-0.02 0.01,0 0,-0.03 0.02,0 0,-0.02 0.01,0 0,-0.02 0.02,0 0,-0.03 0.02,0 0,-0.02 0.02,0 0,-0.02 0.01,0 0,-0.02 0.01,0 0,-0.03 0.02,0 0,-0.02 0.02,0 0,-0.02 0.01,0 0,-0.03 0.02,0 0,-0.02 0.02,0 0,-0.02 0.02,0 0,-0.03 0.01,0 0,-0.02 0.01,0 0,-0.02 0.02,0 0,-0.02 0.01,0 0,-0.03 0.01,0 0,-0.02 0.02,0 0,-0.02 0.01,0 0,-0.03 0.02,0 0,-0.02 0.02,0 0,-0.02 0.02,0 0,-0.03 0.02,0 0,-0.02 0.02,0 0,-0.02 0.02,0 0,-0.03 0.01,0 0,-0.02 0.02,0 0,-0.02 0.01,0 0,-0.02 0.03,0 0,-0.03 0.02,0 0,-0.02 0.01,0 0,-0.02 0.02,0 0,-0.03 0.02,0 0,-0.02 0.02,0 0,-0.02 0.02,0 0,-0.03 0.02,0 0,-0.02 0.02,0 0,-0.02 0.02,0 0,-0.03 0.02,0 0,-0.02 0.03,0 0,-0.02 0.02,0 0,-0.03 0.02,0 0,-0.02 0.03,0 0,-0.02 0.02,0 0,-0.03 0.02,0 0,-0.02 0.02,0 0,-0.02 0.03,0 0,-0.03 0.02,0 0,-0.02 0.02,0 0,-0.02 0.02,0 0,-0.03 0.02,0 0,-0.02 0.02,0 0,-0.02 0.02,0 0,-0.03 0.02,0 0,-0.02 0.02,0 0,-0.03 0.02,0 0,-0.02 0.02,0 0,-0.02 0.02,0 0,-0.03 0.03,0 0,-0.02 0.02,0 0,-0.02 0.02,0 0,-0.03 0.03,0 0,-0.02 0.02,0 0,-0.02 0.02,0 0,-0.03 0.02,0 0,-0.02 0.03,0 0,-0.03 0.02,0 0,-0.02 0.02,0 0,-0.02 0.02,0 0,-0.03 0.01,0 0,-0.02 0.01,0 0,-0.02 0.02,0 0,-0.03 0.03,0 0,-0.02 0.02,0 0,-0.03 0.03,0 0,-0.02 0.01,0 0,-0.02 0.02,0 0,-0.03 0.01,0 0,-0.02 0.03,0 0,-0.02 0.01,0 0,-0.03 0.01,0 0,-0.02 0.02,0 0,-0.03 0.02,0 0,-0.02 0.02,0 0,-0.02 0.02,0 0,-0.03 0.02,0 0,-0.02 0.02,0 0,-0.03 0.02,0 0,-0.02 0.02,0 0,-0.02 0.02,0 0,-0.03 0.02,0 0,-0.02 0.01,0 0,-0.03 0.02,0 0,-0.02 0.02,0 0,-0.02 0.03,0 0,-0.03 0.02,0 0,-0.02 0.01,0 0,-0.03 0.04,0 0,-0.02 0.02,0 0,-0.03 0.02,0 0,-0.02 0.02,0 0,-0.02 0.02,0 0,-0.03 0.01,0 0,-0.02 0.03,0 0,-0.03 0.02,0 0,-0.02 0.03,0 0,-0.02 0.01,0 0,-0.03 0.02,0 0,-0.02 0.02,0 0,-0.03 0.02,0 0,-0.02 0.02,0 0,-0.03 0.02,0 0,-0.02 0.02,0 0,-0.02 0.02,0 0,-0.03 0.02,0 0,-0.02 0.02,0 0,-0.03 0.01,0 0,-0.02 0.03,0 0,-0.03 0.02,0 0,-0.02 0.02,0 0,-0.03 0.01,0 0,-0.02 0.02,0 0,-0.02 0.02,0 0,-0.03 0.02,0 0,-0.02 0.03,0 0,-0.03 0.02,0 0,-0.02 0.02,0 0,-0.03 0.02,0 0,-0.02 0.02,0 0,-0.03 0.02,0 0,-0.02 0.01,0 0,-0.03 0.02,0 0,-0.02 0.02,0 0,-0.03 0.02,0 0,-0.02 0.02,0 0,-0.02 0.01,0 0,-0.03 0.02,0 0,-0.02 0.01,0 0,-0.03 0.02,0 0,-0.02 0.02,0 0,-0.03 0.02,0 0,-0.02 0.02,0 0,-0.03 0.02,0 0,-0.02 0.01,0 0,-0.03 0.02,0 0,-0.02 0.02,0 0,-0.03 0.02,0 0,-0.02 0.02,0 0,-0.03 0.01,0 0,-0.02 0.02,0 0,-0.03 0.02,0 0,-0.02 0,0 0,-0.03 0.02,0 0,-0.02 0.02,0 0,-0.03 0.02,0 0,-0.02 0.01,0 0,-0.03 0.03,0 0,-0.02 0.02,0 0,-0.03 0.02,0 0,-0.02 0.01,0 0,-0.03 0.02,0 0,-0.02 0.02,0 0,-0.03 0.02,0 0,-0.02 0.02,0 0,-0.03 0.01,0 0,-0.02 0.01,0 0,-0.03 0.02,0 0,-0.02 0.02,0 0,-0.03 0.01,0 0,-0.02 0.02,0 0,-0.03 0.01,0 0,-0.02 0.01,0 0,-0.03 0.02,0 0,-0.02 0.01,0 0,-0.03 0.02,0 0,-0.02 0.02,0 0,-0.03 0.02,0 0,-0.02 0.01,0 0,-0.03 0.02,0 0,-0.03 0.02,0 0,-0.02 0.01,0 0,-0.03 0.02,0 0,-0.02 0.02,0 0,-0.03 0.02,0 0,-0.02 0.01,0 0,-0.03 0.02,0 0,-0.02 0.02,0 0,-0.03 0.02,0 0,-0.02 0.01,0 0,-0.03 0.03,0 0,-0.03 0.02,0 0,-0.02 0.01,0 0,-0.03 0.01,0 0,-0.02 0.01,0 0,-0.03 0.02,0 0,-0.02 0.02,0 0,-0.03 0.02,0 0,-0.02 0.01,0 0,-0.03 0.02,0 0,-0.03 0.01,0 0,-0.02 0.02,0 0,-0.03 0.01,0 0,-0.02 0.02,0 0,-0.03 0.02,0 0,-0.02 0.02,0 0,-0.03 0.02,0 0,-0.03 0.01,0 0,-0.02 0.02,0 0,-0.03 0.01,0 0,-0.02 0.02,0 0,-0.03 0.02,0 0,-0.03 0.01,0 0,-0.02 0,0 0,-0.03 0.02,0 0,-0.02 0.02,0 0,-0.03 0.02,0 0,-0.03 0.01,0 0,-0.02 0.01,0 0,-0.03 0.03,0 0,-0.02 0.01,0 0,-0.03 0.01,0 0,-0.03 0.02,0 0,-0.02 0.02,0 0,-0.03 0.01,0 0,-0.02 0.02,0 0,-0.03 0.01,0 0,-0.03 0.02,0 0,-0.02 0.02,0 0,-0.03 0.02,0 0,-0.02 0.02,0 0,-0.03 0.02,0 0,-0.03 0.01,0 0,-0.02 0.03,0 0,-0.03 0.02,0 0,-0.03 0.01,0 0,-0.02 0.02,0 0,-0.03 0.01,0 0,-0.02 0.02,0 0,-0.03 0.02,0 0,-0.03 0.02,0 0,-0.02 0.02,0 0,-0.03 0.02,0 0,-0.03 0.01,0 0,-0.02 0.01,0 0,-0.03 0.02,0 0,-0.03 0.02,0 0,-0.02 0.01,0 0,-0.03 0.02,0 0,-0.02 0.03,0 0,-0.03 0.02,0 0,-0.03 0.03,0 0,-0.02 0.02,0 0,-0.03 0.02,0 0,-0.03 0.02,0 0,-0.02 0.02,0 0,-0.03 0.02,0 0,-0.03 0.01,0 0,-0.02 0.01,0 0,-0.03 0.03,0 0,-0.03 0.01,0 0,-0.02 0.03,0 0,-0.03 0.03,0 0,-0.03 0.02,0 0,-0.02 0.01,0 0,-0.03 0.03,0 0,-0.03 0.02,0 0,-0.02 0.02,0 0,-0.03 0.02,0 0,-0.03 0.02,0 0,-0.03 0.01,0 0,-0.02 0.01,0 0,-0.03 0.02,0 0,-0.03 0.03,0 0,-0.02 0.01,0 0,-0.03 0.02,0 0,-0.03 0.02,0 0,-0.02 0.01,0 0,-0.03 0.02,0 0,-0.03 0.02,0 0,-0.03 0.01,0 0,-0.02 0.02,0 0,-0.03 0.01,0 0,-0.03 0.02,0 0,-0.02 0.02,0 0,-0.03 0.02,0 0,-0.03 0.02,0 0,-0.02 0.02,0 0,-0.03 0.02,0 0,-0.03 0.03,0 0,-0.03 0.02,0 0,-0.02 0.02,0 0,-0.03 0.02,0 0,-0.03 0.02,0 0,-0.03 0.02,0 0,-0.02 0.02,0 0,-0.03 0.03,0 0,-0.03 0.02,0 0,-0.03 0.02,0 0,-0.02 0.02,0 0,-0.03 0.02,0 0,-0.03 0.02,0 0,-0.02 0.02,0 0,-0.03 0.02,0 0,-0.03 0.02,0 0,-0.03 0.01,0 0,-0.02 0.03,0 0,-0.03 0.02,0 0,-0.03 0.03,0 0,-0.03 0.02,0 0,-0.02 0.02,0 0,-0.03 0.02,0 0,-0.03 0.03,0 0,-0.03 0.02,0 0,-0.03 0.03,0 0,-0.02 0.02,0 0,-0.03 0.03,0 0,-0.03 0.02,0 0,-0.03 0.03,0 0,-0.02 0.03,0 0,-0.03 0.02,0 0,-0.03 0.02,0 0,-0.03 0.01,0 0,-0.03 0.03,0 0,-0.02 0.03,0 0,-0.03 0.04,0 0,-0.03 0.02,0 0,-0.03 0.02,0 0,-0.02 0.02,0 0,-0.03 0.02,0 0,-0.03 0.02,0 0,-0.03 0.02,0 0,-0.03 0.03,0 0,-0.02 0.03,0 0,-0.03 0.03,0 0,-0.03 0.03,0 0,-0.03 0.02,0 0,-0.03 0.02,0 0,-0.03 0.02,0 0,-0.02 0.02,0 0,-0.03 0.02,0 0,-0.03 0.03,0 0,-0.03 0.02,0 0,-0.03 0.04,0 0,-0.02 0.03,0 0,-0.03 0.03,0 0,-0.03 0.02,0 0,-0.03 0.02,0 0,-0.03 0.03,0 0,-0.03 0.02,0 0,-0.02 0.02,0 0,-0.03 0.03,0 0,-0.03 0.03,0 0,-0.03 0.02,0 0,-0.03 0.02,0 0,-0.03 0.03,0 0,-0.03 0.02,0 0,-0.02 0.03,0 0,-0.03 0.02,0 0,-0.03 0.03,0 0,-0.03 0.02,0 0,-0.03 0.03,0 0,-0.03 0.03,0 0,-0.03 0.02,0 0,-0.02 0.02,0 0,-0.03 0.02,0 0,-0.03 0.02,0 0,-0.03 0.02,0 0,-0.03 0.03,0 0,-0.03 0.04,0 0,-0.03 0.03,0 0,-0.02 0.02,0 0,-0.03 0.02,0 0,-0.03 0.03,0 0,-0.03 0.03,0 0,-0.03 0.02,0 0,-0.03 0.02,0 0,-0.03 0.03,0 0,-0.03 0.03,0 0,-0.03 0.03,0 0,-0.02 0.02,0 0,-0.03 0.03,0 0,-0.03 0.02,0 0,-0.03 0.03,0 0,-0.03 0.02,0 0,-0.03 0.03,0 0,-0.03 0.02,0 0,-0.03 0.03,0 0,-0.03 0.03,0 0,-0.03 0.02,0 0,-0.03 0.03,0 0,-0.02 0.03,0 0,-0.03 0.03,0 0,-0.03 0.03,0 0,-0.03 0.03,0 0,-0.03 0.03,0 0,-0.03 0.03,0 0,-0.03 0.02,0 0,-0.03 0.03,0 0,-0.03 0.03,0 0,-0.03 0.03,0 0,-0.03 0.02,0 0,-0.03 0.04,0 0,-0.03 0.02,0 0,-0.03 0.03,0 0,-0.03 0.03,0 0,-0.03 0.02,0 0,-0.03 0.03,0 0,-0.02 0.03,0 0,-0.03 0.02,0 0,-0.03 0.03,0 0,-0.03 0.02,0 0,-0.03 0.03,0 0,-0.03 0.03,0 0,-0.03 0.02,0 0,-0.03 0.02,0 0,-0.03 0.03,0 0,-0.03 0.03,0 0,-0.03 0.03,0 0,-0.03 0.03,0 0,-0.03 0.03,0 0,-0.03 0.02,0 0,-0.03 0.04,0 0,-0.03 0.03,0 0,-0.03 0.03,0 0,-0.03 0.03,0 0,-0.03 0.03,0 0,-0.03 0.04,0 0,-0.03 0.02,0 0,-0.03 0.03,0 0,-0.03 0.03,0 0,-0.03 0.03,0 0,-0.03 0.03,0 0,-0.03 0.03,0 0,-0.03 0.02,0 0,-0.03 0.03,0 0,-0.03 0.03,0 0,-0.03 0.02,0 0,-0.03 0.02,0 0,-0.03 0.02,0 0,-0.03 0.03,0 0,-0.03 0.02,0 0,-0.03 0.03,0 0,-0.03 0.03,0 0,-0.03 0.05,0 0,-0.03 0.02,0 0,-0.03 0.03,0 0,-0.03 0.04,0 0,-0.04 0.03,0 0,-0.03 0.03,0 0,-0.03 0.04,0 0,-0.03 0.03,0 0,-0.03 0.03,0 0,-0.03 0.02,0 0,-0.03 0.03,0 0,-0.03 0.03,0 0,-0.03 0.03,0 0,-0.03 0.03,0 0,-0.03 0.03,0 0,-0.03 0.04,0 0,-0.03 0.03,0 0,-0.03 0.03,0 0,-0.03 0.03,0 0,-0.03 0.03,0 0,-0.04 0.04,0 0,-0.03 0.02,0 0,-0.03 0.04,0 0,-0.03 0.03,0 0,-0.03 0.02,0 0,-0.03 0.04,0 0,-0.03 0.03,0 0,-0.03 0.03,0 0,-0.03 0.04,0 0,-0.03 0.03,0 0,-0.03 0.04,0 0,-0.04 0.04,0 0,-0.03 0.04,0 0,-0.03 0.03,0 0,-0.03 0.04,0 0,-0.03 0.04,0 0,-0.03 0.02,0 0,-0.03 0.04,0 0,-0.03 0.04,0 0,-0.04 0.04,0 0,-0.03 0.03,0 0,-0.03 0.04,0 0,-0.03 0.04,0 0,-0.03 0.03,0 0,-0.03 0.03,0 0,-0.03 0.03,0 0,-0.03 0.04,0 0,-0.04 0.03,0 0,-0.03 0.03,0 0,-0.03 0.04,0 0,-0.03 0.04,0 0,-0.03 0.02,0 0,-0.03 0.03,0 0,-0.04 0.04,0 0,-0.03 0.03,0 0,-0.03 0.04,0 0,-0.03 0.04,0 0,-0.03 0.03,0 0,-0.03 0.03,0 0,-0.04 0.04,0 0,-0.03 0.03,0 0,-0.03 0.03,0 0,-0.03 0.04,0 0,-0.03 0.02,0 0,-0.03 0.03,0 0,-0.04 0.03,0 0,-0.03 0.04,0 0,-0.03 0.03,0 0,-0.03 0.04,0 0,-0.03 0.03,0 0,-0.04 0.03,0 0,-0.03 0.04,0 0,-0.03 0.04,0 0,-0.03 0.03,0 0,-0.04 0.03,0 0,-0.03 0.04,0 0,-0.03 0.02,0 0,-0.03 0.03,0 0,-0.03 0.04,0 0,-0.04 0.03,0 0,-0.03 0.03,0 0,-0.03 0.03,0 0,-0.03 0.04,0 0,-0.04 0.03,0 0,-0.03 0.03,0 0,-0.03 0.04,0 0,-0.03 0.05,0 0,-0.04 0.03,0 0,-0.03 0.04,0 0,-0.03 0.03,0 0,-0.03 0.04,0 0,-0.04 0.04,0 0,-0.03 0.04,0 0,-0.03 0.03,0 0,-0.03 0.03,0 0,-0.04 0.04,0 0,-0.03 0.03,0 0,-0.03 0.04,0 0,-0.03 0.04,0 0,-0.04 0.04,0 0,-0.03 0.02,0 0,-0.03 0.03,0 0,-0.04 0.03,0 0,-0.03 0.03,0 0,-0.03 0.04,0 0,-0.03 0.03,0 0,-0.04 0.03,0 0,-0.03 0.04,0 0,-0.03 0.03,0 0,-0.04 0.03,0 0,-0.03 0.04,0 0,-0.03 0.03,0 0,-0.04 0.03,0 0,-0.03 0.02,0 0,-0.03 0.05,0 0,-0.03 0.04,0 0,-0.04 0.04,0 0,-0.03 0.03,0 0,-0.03 0.03,0 0,-0.04 0.04,0 0,-0.03 0.03,0 0,-0.03 0.04,0 0,-0.04 0.04,0 0,-0.03 0.03,0 0,-0.03 0.03,0 0,-0.04 0.03,0 0,-0.03 0.03,0 0,-0.04 0.03,0 0,-0.03 0.04,0 0,-0.03 0.04,0 0,-0.04 0.03,0 0,-0.03 0.04,0 0,-0.03 0.04,0 0,-0.04 0.04,0 0,-0.03 0.04,0 0,-0.03 0.04,0 0,-0.04 0.04,0 0,-0.03 0.04,0 0,-0.04 0.04,0 0,-0.03 0.03,0 0,-0.03 0.04,0 0,-0.04 0.03,0 0,-0.03 0.05,0 0,-0.04 0.02,0 0,-0.03 0.05,0 0,-0.03 0.04,0 0,-0.04 0.04,0 0,-0.03 0.03,0 0,-0.04 0.04,0 0,-0.03 0.04,0 0,-0.03 0.04,0 0,-0.04 0.04,0 0,-0.03 0.04,0 0,-0.04 0.05,0 0,-0.03 0.04,0 0,-0.04 0.03,0 0,-0.03 0.04,0 0,-0.03 0.04,0 0,-0.04 0.04,0 0,-0.03 0.04,0 0,-0.04 0.04,0 0,-0.03 0.04,0 0,-0.04 0.03,0 0,-0.03 0.02,0 0,-0.04 0.04,0 0,-0.03 0.04,0 0,-0.04 0.03,0 0,-0.03 0.04,0 0,-0.03 0.05,0 0,-0.04 0.05,0 0,-0.03 0.02,0 0,-0.04 0.04,0 0,-0.03 0.04,0 0,-0.04 0.04,0 0,-0.03 0.04,0 0,-0.04 0.04,0 0,-0.03 0.04,0 0,-0.04 0.03,0 0,-0.03 0.04,0 0,-0.04 0.05,0 0,-0.03 0.05,0 0,-0.04 0.03,0 0,-0.03 0.04,0 0,-0.04 0.04,0 0,-0.03 0.04,0 0,-0.04 0.04,0 0,-0.03 0.03,0 0,-0.04 0.05,0 0,-0.03 0.05,0 0,-0.04 0.04,0 0,-0.04 0.03,0 0,-0.03 0.04,0 0,-0.04 0.04,0 0,-0.03 0.05,0 0,-0.04 0.04,0 0,-0.03 0.04,0 0,-0.04 0.04,0 0,-0.03 0.05,0 0,-0.04 0.04,0 0,-0.04 0.04,0 0,-0.03 0.04,0 0,-0.04 0.04,0 0,-0.03 0.05,0 0,-0.04 0.04,0 0,-0.03 0.04,0 0,-0.04 0.05,0 0,-0.04 0.05,0 0,-0.03 0.03,0 0,-0.04 0.06,0 0,-0.03 0.05,0 0,-0.04 0.04,0 0,-0.04 0.04,0 0,-0.03 0.04,0 0,-0.04 0.04,0 0,-0.03 0.05,0 0,-0.04 0.04,0 0,-0.04 0.04,0 0,-0.03 0.05,0 0,-0.04 0.05,0 0,-0.04 0.04,0 0,-0.03 0.05,0 0,-0.04 0.04,0 0,-0.03 0.06,0 0,-0.04 0.04,0 0,-0.04 0.05,0 0,-0.03 0.04,0 0,-0.04 0.04,0 0,-0.04 0.04,0 0,-0.03 0.05,0 0,-0.04 0.04,0 0,-0.04 0.06,0 0,-0.03 0.04,0 0,-0.04 0.05,0 0,-0.04 0.05,0 0,-0.03 0.04,0 0,-0.04 0.05,0 0,-0.04 0.05,0 0,-0.03 0.05,0 0,-0.04 0.04,0 0,-0.04 0.04,0 0,-0.03 0.06,0 0,-0.04 0.04,0 0,-0.04 0.04,0 0,-0.04 0.05,0 0,-0.03 0.06,0 0,-0.04 0.04,0 0,-0.04 0.05,0 0,-0.03 0.05,0 0,-0.04 0.05,0 0,-0.04 0.04,0 0,-0.04 0.04,0 0,-0.03 0.04,0 0,-0.04 0.04,0 0,-0.04 0.04,0 0,-0.04 0.04,0 0,-0.03 0.04,0 0,-0.04 0.04,0 0,-0.04 0.04,0 0,-0.04 0.04,0 0,-0.03 0.05,0 0,-0.04 0.05,0 0,-0.04 0.05,0 0,-0.04 0.05,0 0,-0.03 0.05,0 0,-0.04 0.03,0 0,-0.04 0.05,0 0,-0.04 0.05,0 0,-0.04 0.05,0 0,-0.03 0.05,0 0,-0.04 0.06,0 0,-0.04 0.04,0 0,-0.04 0.05,0 0,-0.04 0.05,0 0,-0.03 0.05,0 0,-0.04 0.04,0 0,-0.04 0.04,0 0,-0.04 0.05,0 0,-0.04 0.05,0 0,-0.04 0.05,0 0,-0.03 0.04,0 0,-0.04 0.05,0 0,-0.04 0.05,0 0,-0.04 0.05,0 0,-0.04 0.05,0 0,-0.04 0.05,0 0,-0.03 0.04,0 0,-0.04 0.05,0 0,-0.04 0.05,0 0,-0.04 0.05,0 0,-0.04 0.06,0 0,-0.04 0.05,0 0,-0.04 0.06,0 0,-0.04 0.04,0 0,-0.03 0.05,0 0,-0.04 0.06,0 0,-0.04 0.05,0 0,-0.04 0.05,0 0,-0.04 0.06,0 0,-0.04 0.04,0 0,-0.04 0.06,0 0,-0.04 0.05,0 0,-0.04 0.06,0 0,-0.04 0.05,0 0,-0.03 0.05,0 0,-0.04 0.05,0 0,-0.04 0.04,0 0,-0.04 0.06,0 0,-0.04 0.06,0 0,-0.04 0.05,0 0,-0.04 0.05,0 0,-0.04 0.07,0 0,-0.04 0.05,0 0,-0.04 0.05,0 0,-0.04 0.06,0 0,-0.04 0.05,0 0,-0.04 0.07,0 0,-0.04 0.05,0 0,-0.04 0.06,0 0,-0.04 0.07,0 0,-0.04 0.04,0 0,-0.04 0.06,0 0,-0.04 0.05,0 0,-0.04 0.07,0 0,-0.04 0.07,0 0,-0.04 0.06,0 0,-0.04 0.05,0 0,-0.04 0.05,0 0,-0.04 0.06,0 0,-0.04 0.05,0 0,-0.04 0.07,0 0,-0.04 0.06,0 0,-0.04 0.05,0 0,-0.04 0.05,0 0,-0.04 0.05,0 0,-0.04 0.06,0 0,-0.04 0.06,0 0,-0.04 0.06,0 0,-0.04 0.06,0 0,-0.04 0.07,0 0,-0.04 0.06,0 0,-0.04 0.06,0 0,-0.04 0.05,0 0,-0.04 0.05,0 0,-0.05 0.06,0 0,-0.04 0.05,0 0,-0.04 0.06,0 0,-0.04 0.05,0 0,-0.04 0.07,0 0,-0.04 0.07,0 0,-0.04 0.06,0 0,-0.04 0.07,0 0,-0.04 0.06,0 0,-0.04 0.07,0 0,-0.05 0.06,0 0,-0.04 0.06,0 0,-0.04 0.06,0 0,-0.04 0.07,0 0,-0.04 0.05,0 0,-0.04 0.06,0 0,-0.04 0.07,0 0,-0.05 0.06,0 0,-0.04 0.07,0 0,-0.04 0.07,0 0,-0.04 0.08,0 0,-0.04 0.06,0 0,-0.04 0.05,0 0,-0.05 0.07,0 0,-0.04 0.06,0 0,-0.04 0.06,0 0,-0.04 0.07,0 0,-0.04 0.06,0 0,-0.04 0.07,0 0,-0.05 0.07,0 0,-0.04 0.07,0 0,-0.04 0.08,0 0,-0.04 0.06,0 0,-0.04 0.06,0 0,-0.05 0.07,0 0,-0.04 0.07,0 0,-0.04 0.06,0 0,-0.04 0.07,0 0,-0.05 0.06,0 0,-0.04 0.07,0 0,-0.04 0.07,0 0,-0.04 0.06,0 0,-0.05 0.06,0 0,-0.04 0.07,0 0,-0.04 0.05,0 0,-0.04 0.07,0 0,-0.05 0.06,0 0,-0.04 0.07,0 0,-0.04 0.06,0 0,-0.05 0.06,0 0,-0.04 0.08,0 0,-0.04 0.07,0 0,-0.05 0.06,0 0,-0.04 0.07,0 0,-0.04 0.06,0 0,-0.04 0.07,0 0,-0.05 0.07,0 0,-0.04 0.07,0 0,-0.04 0.07,0 0,-0.05 0.07,0 0,-0.04 0.07,0 0,-0.04 0.06,0 0,-0.05 0.06,0 0,-0.04 0.07,0 0,-0.05 0.08,0 0,-0.04 0.07,0 0,-0.04 0.07,0 0,-0.05 0.07,0 0,-0.04 0.07,0 0,-0.04 0.08,0 0,-0.05 0.06,0 0,-0.04 0.07,0 0,-0.05 0.08,0 0,-0.04 0.09,0 0,-0.04 0.08,0 0,-0.05 0.08,0 0,-0.04 0.08,0 0,-0.05 0.08,0 0,-0.04 0.07,0 0,-0.04 0.07,0 0,-0.05 0.08,0 0,-0.04 0.09,0 0,-0.05 0.07,0 0,-0.04 0.07,0 0,-0.05 0.08,0 0,-0.04 0.08,0 0,-0.05 0.07,0 0,-0.04 0.08,0 0,-0.05 0.09,0 0,-0.04 0.07,0 0,-0.05 0.08,0 0,-0.04 0.08,0 0,-0.05 0.08,0 0,-0.04 0.09,0 0,-0.05 0.07,0 0,-0.04 0.09,0 0,-0.05 0.09,0 0,-0.04 0.09,0 0,-0.05 0.08,0 0,-0.04 0.08,0 0,-0.05 0.09,0 0,-0.04 0.08,0 0,-0.05 0.09,0 0,-0.04 0.08,0 0,-0.05 0.09,0 0,-0.04 0.08,0 0,-0.05 0.09,0 0,-0.05 0.07,0 0,-0.04 0.09,0 0,-0.05 0.09,0 0,-0.04 0.09,0 0,-0.05 0.09,0 0,-0.04 0.09,0 0,-0.05 0.1,0 0,-0.05 0.09,0 0,-0.04 0.12,0 0,-0.05 0.09,0 0,-0.04 0.1,0 0,-0.05 0.1,0 0,-0.05 0.1,0 0,-0.04 0.09,0 0,-0.05 0.1,0 0,-0.05 0.09,0 0,-0.04 0.11,0 0,-0.05 0.1,0 0,-0.05 0.09,0 0,-0.04 0.11,0 0,-0.05 0.1,0 0,-0.05 0.1,0 0,-0.04 0.1,0 0,-0.05 0.1,0 0,-0.05 0.09,0 0,-0.04 0.1,0 0,-0.05 0.11,0 0,-0.05 0.1,0 0,-0.05 0.1,0 0,-0.04 0.11,0 0,-0.05 0.11,0 0,-0.05 0.11,0 0,-0.05 0.12,0 0,-0.04 0.11,0 0,-0.05 0.13,0 0,-0.05 0.1,0 0,-0.05 0.11,0 0,-0.04 0.1,0 0,-0.05 0.12,0 0,-0.05 0.13,0 0,-0.05 0.1,0 0,-0.04 0.11,0 0,-0.05 0.11,0 0,-0.05 0.12,0 0,-0.05 0.12,0 0,-0.05 0.11,0 0,-0.04 0.12,0 0,-0.05 0.12,0 0,-0.05 0.12,0 0,-0.05 0.12,0 0,-0.05 0.13,0 0,-0.05 0.13,0 0,-0.04 0.12,0 0,-0.05 0.11,0 0,-0.05 0.13,0 0,-0.05 0.13,0 0,-0.05 0.12,0 0,-0.05 0.13,0 0,-0.05 0.13,0 0,-0.05 0.13,0 0,-0.05 0.13,0 0,-0.04 0.16,0 0,-0.05 0.14,0 0,-0.05 0.13,0 0,-0.05 0.14,0 0,-0.05 0.15,0 0,-0.05 0.14,0 0,-0.05 0.14,0 0,-0.05 0.15,0 0,-0.05 0.15,0 0,-0.05 0.15,0 0,-0.05 0.15,0 0,-0.05 0.13,0 0,-0.05 0.15,0 0,-0.05 0.14,0 0,-0.05 0.15,0 0,-0.05 0.15,0 0,-0.05 0.14,0 0,-0.05 0.15,0 0,-0.05 0.15,0 0,-0.05 0.15,0 0,-0.05 0.16,0 0,-0.05 0.16,0 0,-0.05 0.16,0 0,-0.05 0.15,0 0,-0.05 0.16,0 0,-0.05 0.16,0 0,-0.05 0.16,0 0,-0.05 0.16,0 0,-0.05 0.14,0 0,-0.05 0.16,0 0,-0.05 0.17,0 0,-0.06 0.14,0 0,-0.05 0.17,0 0,-0.05 0.15,0 0,-0.05 0.16,0 0,-0.05 0.17,0 0,-0.05 0.18,0 0,-0.05 0.17,0 0,-0.05 0.17,0 0,-0.06 0.16,0 0,-0.05 0.16,0 0,-0.05 0.17,0 0,-0.05 0.17,0 0,-0.05 0.17,0 0,-0.05 0.15,0 0,-0.06 0.17,0 0,-0.05 0.15,0 0,-0.05 0.17,0 0,-0.05 0.15,0 0,-0.05 0.18,0 0,-0.06 0.15,0 0,-0.05 0.15,0 0,-0.05 0.17,0 0,-0.05 0.16,0 0,-0.06 0.17,0 0,-0.05 0.18,0 0,-0.05 0.16,0 0,-0.05 0.16,0 0,-0.06 0.16,0 0,-0.05 0.16,0 0,-0.05 0.19,0 0,-0.05 0.17,0 0,-0.06 0.17,0 0,-0.05 0.16,0 0,-0.05 0.15,0 0,-0.06 0.17,0 0,-0.05 0.16,0 0,-0.05 0.17,0 0,-0.06 0.17,0 0,-0.05 0.17,0 0,-0.05 0.18,0 0,-0.06 0.17,0 0,-0.05 0.17,0 0,-0.06 0.16,0 0,-0.05 0.17,0 0,-0.05 0.16,0 0,-0.06 0.16,0 0,-0.05 0.18,0 0,-0.06 0.19,0 0,-0.05 0.17,0 0,-0.05 0.18,0 0,-0.06 0.19,0 0,-0.05 0.19,0 0,-0.06 0.18,0 0,-0.05 0.17,0 0,-0.06 0.18,0 0,-0.05 0.17,0 0,-0.06 0.17,0 0,-0.05 0.21,0 0,-0.06 0.18,0 0,-0.05 0.19,0 0,-0.06 0.18,0 0,-0.05 0.2,0 0,-0.06 0.17,0 0,-0.05 0.2,0 0,-0.06 0.18,0 0,-0.05 0.18,0 0,-0.06 0.18,0 0,-0.05 0.17,0 0,-0.06 0.17,0 0,-0.06 0.15,0 0,-0.05 0.16,0 0,-0.06 0.17,0 0,-0.05 0.18,0 0,-0.06 0.17,0 0,-0.06 0.17,0 0,-0.05 0.16,0 0,-0.06 0.17,0 0,-0.05 0.16,0 0,-0.06 0.17,0 0,-0.06 0.16,0 0,-0.05 0.18,0 0,-0.06 0.18,0 0,-0.06 0.18,0 0,-0.05 0.16,0 0,-0.06 0.19,0 0,-0.06 0.18,0 0,-0.06 0.19,0 0,-0.05 0.19,0 0,-0.06 0.19,0 0,-0.06 0.19,0 0,-0.05 0.17,0 0,-0.06 0.17,0 0,-0.06 0.18,0 0,-0.06 0.18,0 0,-0.06 0.19,0 0,-0.05 0.17,0 0,-0.06 0.18,0 0,-0.06 0.16,0 0,-0.06 0.19,0 0,-0.06 0.17,0 0,-0.05 0.17,0 0,-0.06 0.16,0 0,-0.06 0.16,0 0,-0.06 0.16,0 0,-0.06 0.17,0 0,-0.06 0.16,0 0,-0.05 0.18,0 0,-0.06 0.17,0 0,-0.06 0.16,0 0,-0.06 0.16,0 0,-0.06 0.17,0 0,-0.06 0.17,0 0,-0.06 0.16,0 0,-0.06 0.16,0 0,-0.06 0.16,0 0,-0.06 0.18,0 0,-0.06 0.18,0 0,-0.06 0.17,0 0,-0.06 0.16,0 0,-0.06 0.17,0 0,-0.06 0.16,0 0,-0.06 0.15,0 0,-0.06 0.17,0 0,-0.06 0.17,0 0,-0.06 0.16,0 0,-0.06 0.15,0 0,-0.06 0.15,0 0,-0.06 0.16,0 0,-0.06 0.16,0 0,-0.06 0.15,0 0,-0.06 0.16,0 0,-0.06 0.15,0 0,-0.06 0.15,0 0,-0.06 0.16,0 0,-0.07 0.15,0 0,-0.06 0.16,0 0,-0.06 0.15,0 0,-0.06 0.16,0 0,-0.06 0.14,0 0,-0.06 0.15,0 0,-0.07 0.15,0 0,-0.06 0.16,0 0,-0.06 0.16,0 0,-0.06 0.15,0 0,-0.06 0.14,0 0,-0.07 0.15,0 0,-0.06 0.14,0 0,-0.06 0.15,0 0,-0.06 0.15,0 0,-0.07 0.15,0 0,-0.06 0.14,0 0,-0.06 0.14,0 0,-0.06 0.15,0 0,-0.07 0.15,0 0,-0.06 0.16,0 0,-0.06 0.15,0 0,-0.07 0.16,0 0,-0.06 0.16,0 0,-0.06 0.15,0 0,-0.07 0.15,0 0,-0.06 0.16,0 0,-0.06 0.13,0 0,-0.07 0.15,0 0,-0.06 0.14,0 0,-0.07 0.14,0 0,-0.06 0.15,0 0,-0.07 0.13,0 0,-0.06 0.14,0 0,-0.06 0.13,0 0,-0.07 0.16,0 0,-0.06 0.16,0 0,-0.07 0.15,0 0,-0.06 0.15,0 0,-0.07 0.15,0 0,-0.06 0.14,0 0,-0.07 0.15,0 0,-0.06 0.14,0 0,-0.07 0.14,0 0,-0.07 0.14,0 0,-0.06 0.14,0 0,-0.07 0.14,0 0,-0.06 0.13,0 0,-0.07 0.15,0 0,-0.07 0.14,0 0,-0.06 0.13,0 0,-0.07 0.13,0 0,-0.06 0.14,0 0,-0.07 0.16,0 0,-0.07 0.13,0 0,-0.06 0.15,0 0,-0.07 0.15,0 0,-0.07 0.14,0 0,-0.07 0.15,0 0,-0.06 0.14,0 0,-0.07 0.14,0 0,-0.07 0.15,0 0,-0.06 0.15,0 0,-0.07 0.14,0 0,-0.07 0.14,0 0,-0.07 0.16,0 0,-0.07 0.14,0 0,-0.06 0.14,0 0,-0.07 0.14,0 0,-0.07 0.14,0 0,-0.07 0.15,0 0,-0.07 0.16,0 0,-0.07 0.15,0 0,-0.07 0.16,0 0,-0.06 0.14,0 0,-0.07 0.15,0 0,-0.07 0.15,0 0,-0.07 0.13,0 0,-0.07 0.14,0 0,-0.07 0.14,0 0,-0.07 0.14,0 0,-0.07 0.16,0 0,-0.07 0.15,0 0,-0.07 0.15,0 0,-0.07 0.14,0 0,-0.07 0.15,0 0,-0.07 0.14,0 0,-0.07 0.14,0 0,-0.07 0.15,0 0,-0.07 0.15,0 0,-0.07 0.15,0 0,-0.07 0.15,0 0,-0.07 0.15,0 0,-0.08 0.16,0 0,-0.07 0.15,0 0,-0.07 0.16,0 0,-0.07 0.14,0 0,-0.07 0.15,0 0,-0.07 0.15,0 0,-0.08 0.15,0 0,-0.07 0.14,0 0,-0.07 0.15,0 0,-0.07 0.15,0 0,-0.07 0.14,0 0,-0.08 0.15,0 0,-0.07 0.16,0 0,-0.07 0.15,0 0,-0.08 0.15,0 0,-0.07 0.16,0 0,-0.07 0.15,0 0,-0.08 0.16,0 0,-0.07 0.14,0 0,-0.07 0.14,0 0,-0.08 0.14,0 0,-0.07 0.16,0 0,-0.07 0.13,0 0,-0.08 0.15,0 0,-0.07 0.15,0 0,-0.08 0.14,0 0,-0.07 0.15,0 0,-0.08 0.14,0 0,-0.07 0.15,0 0,-0.08 0.15,0 0,-0.07 0.14,0 0,-0.08 0.15,0 0,-0.07 0.14,0 0,-0.08 0.14,0 0,-0.07 0.15,0 0,-0.08 0.14,0 0,-0.08 0.14,0 0,-0.07 0.15,0 0,-0.08 0.14,0 0,-0.07 0.14,0 0,-0.08 0.15,0 0,-0.08 0.15,0 0,-0.07 0.15,0 0,-0.08 0.14,0 0,-0.08 0.14,0 0,-0.08 0.15,0 0,-0.07 0.14,0 0,-0.08 0.16,0 0,-0.08 0.15,0 0,-0.08 0.14,0 0,-0.08 0.15,0 0,-0.07 0.14,0 0,-0.08 0.15,0 0,-0.08 0.14,0 0,-0.08 0.14,0 0,-0.08 0.14,0 0,-0.08 0.14,0 0,-0.08 0.14,0 0,-0.07 0.15,0 0,-0.08 0.14,0 0,-0.08 0.14,0 0,-0.08 0.14,0 0,-0.08 0.14,0 0,-0.08 0.15,0 0,-0.08 0.16,0 0,-0.08 0.15,0 0,-0.08 0.14,0 0,-0.08 0.14,0 0,-0.09 0.15,0 0,-0.08 0.15,0 0,-0.08 0.15,0 0,-0.08 0.16,0 0,-0.08 0.14,0 0,-0.08 0.15,0 0,-0.08 0.15,0 0,-0.09 0.15,0 0,-0.08 0.15,0 0,-0.08 0.15,0 0,-0.08 0.15,0 0,-0.09 0.15,0 0,-0.08 0.15,0 0,-0.08 0.15,0 0,-0.08 0.14,0 0,-0.09 0.16,0 0,-0.08 0.16,0 0,-0.08 0.16,0 0,-0.09 0.15,0 0,-0.08 0.16,0 0,-0.09 0.16,0 0,-0.08 0.16,0 0,-0.09 0.16,0 0,-0.08 0.15,0 0,-0.09 0.16,0 0,-0.08 0.16,0 0,-0.09 0.16,0 0,-0.08 0.16,0 0,-0.09 0.17,0 0,-0.08 0.16,0 0,-0.09 0.17,0 0,-0.08 0.15,0 0,-0.09 0.16,0 0,-0.09 0.17,0 0,-0.08 0.15,0 0,-0.09 0.16,0 0,-0.09 0.15,0 0,-0.08 0.16,0 0,-0.09 0.16,0 0,-0.09 0.16,0 0,-0.09 0.17,0 0,-0.09 0.16,0 0,-0.08 0.16,0 0,-0.09 0.15,0 0,-0.09 0.16,0 0,-0.09 0.16,0 0,-0.09 0.16,0 0,-0.09 0.16,0 0,-0.09 0.15,0 0,-0.09 0.16,0 0,-0.09 0.16,0 0,-0.09 0.16,0 0,-0.09 0.16,0 0,-0.09 0.15,0 0,-0.09 0.17,0 0,-0.09 0.16,0 0,-0.09 0.17,0 0,-0.09 0.16,0 0,-0.09 0.17,0 0,-0.09 0.16,0 0,-0.09 0.17,0 0,-0.1 0.16,0 0,-0.09 0.16,0 0,-0.09 0.16,0 0,-0.09 0.17,0 0,-0.1 0.17,0 0,-0.09 0.16,0 0,-0.09 0.17,0 0,-0.1 0.16,0 0,-0.09 0.16,0 0,-0.09 0.17,0 0,-0.1 0.17,0 0,-0.09 0.16,0 0,-0.1 0.18,0 0,-0.09 0.17,0 0,-0.1 0.18,0 0,-0.09 0.17,0 0,-0.1 0.18,0 0,-0.09 0.17,0 0,-0.1 0.18,0 0,-0.09 0.18,0 0,-0.1 0.19,0 0,-0.1 0.18,0 0,-0.09 0.18,0 0,-0.1 0.18,0 0,-0.1 0.18,0 0,-0.1 0.18,0 0,-0.09 0.19,0 0,-0.1 0.18,0 0,-0.1 0.19,0 0,-0.1 0.19,0 0,-0.1 0.2,0 0,-0.1 0.2,0 0,-0.09 0.19,0 0,-0.1 0.21,0 0,-0.1 0.19,0 0,-0.1 0.2,0 0,-0.1 0.2,0 0,-0.1 0.19,0 0,-0.1 0.2,0 0,-0.11 0.21,0 0,-0.1 0.2,0 0,-0.1 0.22,0 0,-0.1 0.2,0 0,-0.1 0.21,0 0,-0.1 0.22,0 0,-0.11 0.21,0 0,-0.1 0.22,0 0,-0.1 0.22,0 0,-0.1 0.21,0 0,-0.11 0.22,0 0,-0.1 0.23,0 0,-0.11 0.21,0 0,-0.1 0.22,0 0,-0.1 0.23,0 0,-0.11 0.23,0 0,-0.1 0.24,0 0,-0.11 0.24,0 0,-0.1 0.25,0 0,-0.11 0.25,0 0,-0.11 0.27,0 0,-0.1 0.27,0 0,-0.11 0.29,0 0,-0.11 0.3,0 0,-0.1 0.29,0 0,-0.11 0.31,0 0,-0.11 0.32,0 0,-0.11 0.3,0 0,-0.11 0.32,0 0,-0.1 0.31,0 0,-0.11 0.31,0 0,-0.11 0.29,0 0,-0.11 0.32,0 0,-0.11 0.31,0 0,-0.11 0.31,0 0,-0.11 0.32,0 0,-0.11 0.32,0 0,-0.11 0.33,0 0,-0.12 0.35,0 0,-0.11 0.35,0 0,-0.11 0.35,0 0,-0.11 0.38,0 0,-0.11 0.39,0 0,-0.12 0.39,0 0,-0.11 0.38,0 0,-0.11 0.41,0 0,-0.12 0.42,0 0,-0.11 0.43,0 0,-0.12 0.46,0 0,-0.11 0.45,0 0,-0.12 0.48,0 0,-0.11 0.52,0 0,-0.12 0.53,0 0,-0.11 0.54,0 0,-0.12 0.59,0 0,-0.12 0.61,0 0,-0.11 0.67,0 0,-0.12 0.66,0 0,-0.12 0.7,0 0,-0.12 0.71,0 0,-0.12 0.68,0 0,-0.11 0.68,0 0,-0.12 0.66,0 0,-0.12 0.63,0 0,-0.12 0.57,0 0,-0.12 0.53,0 0,-0.12 0.5,0 0,-0.12 0.48,0 0,-0.13 0.49,0 0,-0.12 0.47,0 0,-0.12 0.44,0 0,-0.12 0.42,0 0,-0.12 0.43,0 0,-0.13 0.44,0 0,-0.12 0.45,0 0,-0.13 0.44,0 0,-0.12 0.49,0 0,-0.12 0.45,0 0,-0.13 0.51,0 0,-0.12 0.5,0 0,-0.13 0.49,0 0,-0.13 0.5,0 0,-0.12 0.5,0 0,-0.13 0.54,0 0,-0.13 0.52,0 0,-0.13 0.54,0 0,-0.12 0.52,0 0,-0.13 0.5,0 0,-0.13 0.53,0 0,-0.13 0.51,0 0,-0.13 0.52,0 0,-0.13 0.55,0 0,-0.13 0.47,0 0,-0.13 0.52,0 0,-0.13 0.53,0 0,-0.14 0.53,0 0,-0.13 0.52,0 0,-0.13 0.53,0 0,-0.13 0.56,0 0,-0.14 0.62,0 0,-0.13 0.59,0 0,-0.14 0.6,0 0,-0.13 0.63,0 0,-0.14 0.66,0 0,-0.13 0.67,0 0,-0.14 0.71,0 0,-0.14 0.68,0 0,-0.13 0.69,0 0,-0.14 0.67,0 0,-0.14 0.7,0 0,-0.14 0.63,0 0,-0.14 0.71,0 0,-0.14 0.6,0 0,-0.14 0.55,0 0,-0.14 0.52,0 0,-0.14 0.49,0 0,-0.14 0.46,0 0,-0.14 0.46,0 0,-0.14 0.42,0 0,-0.15 0.44,0 0,-0.14 0.4,0 0,-0.14 0.37,0 0,-0.15 0.4,0 0,-0.14 0.37,0 0,-0.15 0.37,0 0,-0.15 0.37,0 0,-0.14 0.36,0 0,-0.15 0.37,0 0,-0.15 0.36,0 0,-0.15 0.36,0 0,-0.14 0.35,0 0,-0.15 0.35,0 0,-0.15 0.36,0 0,-0.15 0.36,0 0,-0.15 0.37,0 0,-0.16 0.36,0 0,-0.15 0.38,0 0,-0.15 0.36,0 0,-0.15 0.37,0 0,-0.16 0.36,0 0,-0.15 0.36,0 0,-0.16 0.37,0 0,-0.15 0.39,0 0,-0.16 0.38,0 0,-0.16 0.4,0 0,-0.15 0.39,0 0,-0.16 0.39,0 0,-0.16 0.4,0 0,-0.16 0.42,0 0,-0.16 0.42,0 0,-0.16 0.45,0 0,-0.16 0.44,0 0,-0.16 0.45,0 0,-0.17 0.44,0 0,-0.16 0.45,0 0,-0.16 0.44,0 0,-0.17 0.46,0 0,-0.16 0.45,0 0,-0.17 0.49,0 0,-0.16 0.48,0 0,-0.17 0.5,0 0,-0.17 0.48,0 0,-0.17 0.49,0 0,-0.17 0.48,0 0,-0.17 0.49,0 0,-0.17 0.49,0 0,-0.17 0.49,0 0,-0.17 0.49,0 0,-0.17 0.49,0 0,-0.18 0.5,0 0,-0.17 0.51,0 0,-0.18 0.51,0 0,-0.17 0.52,0 0,-0.18 0.53,0 0,-0.18 0.54,0 0,-0.17 0.56,0 0,-0.18 0.53,0 0,-0.18 0.53,0 0,-0.18 0.52,0 0,-0.18 0.54,0 0,-0.19 0.54,0 0,-0.18 0.54,0 0,-0.18 0.53,0 0,-0.19 0.54,0 0,-0.18 0.52,0 0,-0.19 0.56,0 0,-0.19 0.54,0 0,-0.18 0.56,0 0,-0.19 0.55,0 0,-0.19 0.56,0 0,-0.19 0.55,0 0,-0.19 0.56,0 0,-0.2 0.57,0 0,-0.19 0.57,0 0,-0.19 0.57,0 0,-0.2 0.57,0 0,-0.2 0.56,0 0,-0.19 0.58,0 0,-0.2 0.58,0 0,-0.2 1.42,0 0,-0.2 1.08,0 0,-0.2 0.57,0 0,-0.2 0.56,0 0,-0.21 0.57,0 0,-0.2 0.57,0 0,-0.2 0.57,0 0,-0.21 0.58,0 0,-0.21 0.58,0 0,-0.21 0.57,0 0,-0.21 0.58,0 0,-0.21 0.57,0 0,-0.21 0.58,0 0,-0.21 0.58,0 0,-0.21 0.58,0 0,-0.22 0.6,0 0,-0.21 0.58,0 0,-0.22 0.6,0 0,-0.22 0.6,0 0,-0.22 0.6,0 0,-0.22 0.6,0 0,-0.22 0.61,0 0,-0.22 0.6,0 0,-0.23 0.62,0 0,-0.22 0.61,0 0,-0.23 0.62,0 0,-0.23 0.61,0 0,-0.23 0.61,0 0,-0.23 0.61,0 0,-0.23 0.61,0 0,-0.23 0.61,0 0,-0.24 0.61,0 0,-0.23 0.62,0 0,-0.24 0.66,0 0,-0.24 0.62,0 0,-0.24 0.72,0 0,-0.24 0.63,0 0,-0.24 0.68,0 0,-0.25 0.63,0 0,-0.24 0.68,0 0,-0.25 0.64,0 0,-0.25 0.7,0 0,-0.25 0.65,0 0,-0.25 0.68,0 0,-0.26 0.66,0 0,-0.25 0.68,0 0,-0.26 0.66,0 0,-0.26 0.69,0 0,-0.26 0.65,0 0,-0.26 0.67,0 0,-0.26 0.66,0 0,-0.27 0.69,0 0,-0.26 0.67,0 0,-0.27 0.7,0 0,-0.27 0.68,0 0,-0.27 0.71,0 0,-0.28 0.68,0 0,-0.27 0.73,0 0,-0.28 0.69,0 0,-0.28 0.74,0 0,-0.28 0.72,0 0,-0.29 0.76,0 0,-0.28 0.73,0 0,-0.29 0.77,0 0,-0.29 0.75,0 0,-0.29 0.79,0 0,-0.3 0.77,0 0,-0.29 0.79,0 0,-0.3 0.8,0 0,-0.3 0.84,0 0,-0.3 0.83,0 0,-0.31 0.84,0 0,-0.3 0.83,0 0,-0.31 0.86,0 0,-0.32 0.85,0 0,-0.31 0.87,0 0,-0.32 0.88,0 0,-0.32 0.91,0 0,-0.32 0.92,0 0,-0.32 0.9,0 0,-0.33 0.9,0 0,-0.33 0.98,0 0,-0.33 0.97,0 0,-0.34 0.94,0 0,-0.33 1.06,0 0,-0.34 1.15,0 0,-0.35 1.21,0 0,-0.34 1.28,0 0,-0.35 1.27,0 0,-0.35 1.32,0 0,-0.36 1.27,0 0,-0.36 1.33,0 0,-0.36 1.45,0 0,-0.37 1.36,0 0,-0.36 1.35,0 0,-0.38 1.47,0 0,-0.37 1.44,0 0,-0.38 1.45,0 0,-0.38 1.53,0 0,-0.39 1.48,0 0,-0.39 1.32,0 0,-0.39 1.29,0 0,-0.4 1.27,0 0,-0.4 1.11,0 0,-0.4 1.11,0 0,-0.41 1.06,0 0,-0.41 1.02,0 0,-0.42 1.06,0 0,-0.42 0.99,0 0,-0.43 0.95,0 0,-0.43 0.9,0 0,-0.44 0.92,0 0,-0.44 0.88,0 0,-0.44 0.88,0 0,-0.45 0.87,0 0,-0.45 0.85,0 0,-0.46 0.82,0 0,-0.47 0.82,0 0,-0.47 0.81,0 0,-0.48 0.81,0 0,-0.48 0.81,0 0,-0.48 0.8,0 0,-0.5 0.82,0 0,-0.5 0.84,0 0,-0.5 0.83,0 0,-0.51 0.83,0 0,-0.52 0.84,0 0,-0.53 0.85,0 0,-0.53 0.85,0 0,-0.54 0.86,0 0,-0.54 0.86,0 0,-0.56 0.85,0 0,-0.56 0.83,0 0,-0.57 0.82,0 0,-0.58 0.84,0 0,-0.58 0.83,0 0,-0.6 0.82,0 0,-0.6 0.82,0 0,-0.61 0.8,0 0,-0.62 0.8,0 0,-0.63 0.8,0 0,-0.64 0.82,0 0,-0.65 0.81,0 0,-0.67 0.84,0 0,-0.67 0.85,0 0,-0.68 0.86,0 0,-0.7 0.87,0 0,-0.71 0.89,0 0,-0.72 0.89,0 0,-0.73 0.89,0 0,-0.75 0.93,0 0,-0.76 0.98,0 0,-0.77 0.96,0 0,-0.79 0.99,0 0,-0.81 0.98,0 0,-0.82 1.01,0 0,-0.84 1.07,0 0,-0.86 1.06,0 0,-0.87 1.18,0 0,-0.9 1.15,0 0,-0.91 1.3,0 0,-0.94 1.33,0 0,-0.95 1.46,0 0,-0.98 1.4,0 0,-1.01 1.68,0 0,-1.03 2.04,0 0,-1.06 2.22,0 0,-1.08 2.48,0 0,-1.12 2.4,0 0,-1.14 1.64,0 0,-1.18 1.5,0 0,-1.22 1.39,0 0,-1.25 1.51,0 0,-1.29 1.81,0 0,-1.34 1.98,0 0,-1.37 1.75,0 0,-1.43 1.35,0 0,-1.48 1.13,0 0,-1.54 1.13,0 0,-1.59 1.02,0 0,-1.67 1.28,0 0,-1.73 1.12,0 0,-1.81 1.8,0 0,-1.89 1.68,0 0,-1.98 8.27,0 0,-2.09 1.7,0 0,-2.2 6.99,0 0,-2.33 1.27,0 0,-2.47 0.96,0 0,-2.62 0.93,0 0,-2.81 1.32,0 0,-3.01 1.49,0 0,-3.26 3,0 0,-3.54 2.43,0 0,-3.88 3.46,0 0,-4.29 3.35,0 0,-4.79 8.62,0 0,-5.44 4.81,0 0,-6.27 9.15,0 0,-7.42 12.67,0 0,-9.08 28.9,0 0,-11.7 13.13,0 0,-16.5 37.49,0 0,-28.21 104.75,0" /></g></g><g
       id="g24"><path
         id="path26"
         style="fill:none;stroke:#000000;stroke-width:0.75;stroke-linecap:round;stroke-linejoin:round;stroke-miterlimit:10;stroke-dasharray:none;stroke-opacity:1"
         d="m 59.04,73.44 1350.72,0 0,587.52 -1350.72,0 0,-587.52" /></g><g
       id="g28"><text
         id="text30"
         style="font-variant:normal;font-weight:bold;font-size:14px;font-family:Helvetica;-inkscape-font-specification:Helvetica-Bold;writing-mode:lr-tb;fill:#000000;fill-opacity:1;fill-rule:nonzero;stroke:none"
         transform="matrix(1,0,0,-1,609.53,685.45)"><tspan
           id="tspan32"
           y="0"
           x="0 8.5539999 17.108 24.892 28.784 37.338001 45.122002 52.905998 61.459999 66.905998 72.351997 80.136002 88.690002 96.473999 104.258 108.15 116.704 121.366 125.258 129.14999 139.258 143.14999 150.93401 154.826 158.718 167.272 171.164 179.718 188.272 196.056 204.61 217.056 224.84 233.394 238.056 245.84">The occurrence of IRIs in documents.</tspan></text>
<text
         id="text34"
         style="font-variant:normal;font-weight:normal;font-size:12px;font-family:Helvetica;-inkscape-font-specification:Helvetica;writing-mode:lr-tb;fill:#000000;fill-opacity:1;fill-rule:nonzero;stroke:none"
         transform="matrix(1,0,0,-1,683.7,18.72)"><tspan
           id="tspan36"
           y="0"
           x="0 6.6719999 10.008 16.68 23.351999 30.024 33.360001 40.032001 46.703999 53.375999 56.712002 63.383999 70.056 76.727997 80.064003 83.400002 92.064003 95.400002">3,543,226,266 IRIs</tspan></text>
<text
         id="text38"
         style="font-variant:normal;font-weight:normal;font-size:12px;font-family:Helvetica;-inkscape-font-specification:Helvetica;writing-mode:lr-tb;fill:#000000;fill-opacity:1;fill-rule:nonzero;stroke:none"
         transform="matrix(0,1,1,0,12.96,226.53)"><tspan
           id="tspan40"
           y="0"
           x="0 7.3319998 14.004 20.676001 24.011999 30.563999 37.236 47.231998 53.903999 60.576 64.571999 67.907997 74.580002 77.916 81.251999 87.924004 94.596001 100.596 107.268 117.264 123.936 130.608 133.944 139.944 143.28 145.944 152.616 155.952 164.616 171.28799 173.952 179.952 186.62399 189.96001 196.632 203.304 209.304 215.976 219.312 222.64799 231.312 234.64799 237.98399 244.65601 251.328 258 264.672 271.34399 275.34">The number of documents in which each IRI appears</tspan></text>
</g><g
       id="g42"><path
         id="path44"
         style="fill:none;stroke:#000000;stroke-width:0.75;stroke-linecap:round;stroke-linejoin:round;stroke-miterlimit:10;stroke-dasharray:none;stroke-opacity:1"
         d="m 109.07,73.44 1047.74,0" /><path
         id="path46"
         style="fill:none;stroke:#000000;stroke-width:0.75;stroke-linecap:round;stroke-linejoin:round;stroke-miterlimit:10;stroke-dasharray:none;stroke-opacity:1"
         d="m 109.07,73.44 0,-7.2" /><path
         id="path48"
         style="fill:none;stroke:#000000;stroke-width:0.75;stroke-linecap:round;stroke-linejoin:round;stroke-miterlimit:10;stroke-dasharray:none;stroke-opacity:1"
         d="m 371,73.44 0,-7.2" /><path
         id="path50"
         style="fill:none;stroke:#000000;stroke-width:0.75;stroke-linecap:round;stroke-linejoin:round;stroke-miterlimit:10;stroke-dasharray:none;stroke-opacity:1"
         d="m 632.94,73.44 0,-7.2" /><path
         id="path52"
         style="fill:none;stroke:#000000;stroke-width:0.75;stroke-linecap:round;stroke-linejoin:round;stroke-miterlimit:10;stroke-dasharray:none;stroke-opacity:1"
         d="m 894.88,73.44 0,-7.2" /><path
         id="path54"
         style="fill:none;stroke:#000000;stroke-width:0.75;stroke-linecap:round;stroke-linejoin:round;stroke-miterlimit:10;stroke-dasharray:none;stroke-opacity:1"
         d="m 1156.81,73.44 0,-7.2" /><text
         id="text56"
         style="font-variant:normal;font-weight:normal;font-size:12px;font-family:Helvetica;-inkscape-font-specification:Helvetica;writing-mode:lr-tb;fill:#000000;fill-opacity:1;fill-rule:nonzero;stroke:none"
         transform="matrix(1,0,0,-1,105.73,47.52)"><tspan
           id="tspan58"
           y="0"
           x="0">1</tspan></text>
<text
         id="text60"
         style="font-variant:normal;font-weight:normal;font-size:12px;font-family:Helvetica;-inkscape-font-specification:Helvetica;writing-mode:lr-tb;fill:#000000;fill-opacity:1;fill-rule:nonzero;stroke:none"
         transform="matrix(1,0,0,-1,360.99,47.52)"><tspan
           id="tspan62"
           y="0"
           x="0 6.6719999 13.344">100</tspan></text>
<text
         id="text64"
         style="font-variant:normal;font-weight:normal;font-size:12px;font-family:Helvetica;-inkscape-font-specification:Helvetica;writing-mode:lr-tb;fill:#000000;fill-opacity:1;fill-rule:nonzero;stroke:none"
         transform="matrix(1,0,0,-1,614.59,47.52)"><tspan
           id="tspan66"
           y="0"
           x="0 6.6719999 13.344 16.68 23.351999 30.024">10,000</tspan></text>
<text
         id="text68"
         style="font-variant:normal;font-weight:normal;font-size:12px;font-family:Helvetica;-inkscape-font-specification:Helvetica;writing-mode:lr-tb;fill:#000000;fill-opacity:1;fill-rule:nonzero;stroke:none"
         transform="matrix(1,0,0,-1,868.19,47.52)"><tspan
           id="tspan70"
           y="0"
           x="0 6.6719999 10.008 16.68 23.351999 30.024 33.360001 40.032001 46.703999">1,000,000</tspan></text>
<text
         id="text72"
         style="font-variant:normal;font-weight:normal;font-size:12px;font-family:Helvetica;-inkscape-font-specification:Helvetica;writing-mode:lr-tb;fill:#000000;fill-opacity:1;fill-rule:nonzero;stroke:none"
         transform="matrix(1,0,0,-1,1123.45,47.52)"><tspan
           id="tspan74"
           y="0"
           x="0 6.6719999 13.344 20.016001 23.351999 30.024 36.695999 43.368 46.703999 53.375999 60.048">100,000,000</tspan></text>
<path
         id="path76"
         style="fill:none;stroke:#000000;stroke-width:0.75;stroke-linecap:round;stroke-linejoin:round;stroke-miterlimit:10;stroke-dasharray:none;stroke-opacity:1"
         d="m 59.04,95.2 0,562.19" /><path
         id="path78"
         style="fill:none;stroke:#000000;stroke-width:0.75;stroke-linecap:round;stroke-linejoin:round;stroke-miterlimit:10;stroke-dasharray:none;stroke-opacity:1"
         d="m 59.04,95.2 -7.2,0" /><path
         id="path80"
         style="fill:none;stroke:#000000;stroke-width:0.75;stroke-linecap:round;stroke-linejoin:round;stroke-miterlimit:10;stroke-dasharray:none;stroke-opacity:1"
         d="m 59.04,282.6 -7.2,0" /><path
         id="path82"
         style="fill:none;stroke:#000000;stroke-width:0.75;stroke-linecap:round;stroke-linejoin:round;stroke-miterlimit:10;stroke-dasharray:none;stroke-opacity:1"
         d="m 59.04,470 -7.2,0" /><path
         id="path84"
         style="fill:none;stroke:#000000;stroke-width:0.75;stroke-linecap:round;stroke-linejoin:round;stroke-miterlimit:10;stroke-dasharray:none;stroke-opacity:1"
         d="m 59.04,657.39 -7.2,0" /><text
         id="text86"
         style="font-variant:normal;font-weight:normal;font-size:12px;font-family:Helvetica;-inkscape-font-specification:Helvetica;writing-mode:lr-tb;fill:#000000;fill-opacity:1;fill-rule:nonzero;stroke:none"
         transform="matrix(0,1,1,0,41.76,91.86)"><tspan
           id="tspan88"
           y="0"
           x="0">1</tspan></text>
<text
         id="text90"
         style="font-variant:normal;font-weight:normal;font-size:12px;font-family:Helvetica;-inkscape-font-specification:Helvetica;writing-mode:lr-tb;fill:#000000;fill-opacity:1;fill-rule:nonzero;stroke:none"
         transform="matrix(0,1,1,0,41.76,272.59)"><tspan
           id="tspan92"
           y="0"
           x="0 6.6719999 13.344">100</tspan></text>
<text
         id="text94"
         style="font-variant:normal;font-weight:normal;font-size:12px;font-family:Helvetica;-inkscape-font-specification:Helvetica;writing-mode:lr-tb;fill:#000000;fill-opacity:1;fill-rule:nonzero;stroke:none"
         transform="matrix(0,1,1,0,41.76,451.65)"><tspan
           id="tspan96"
           y="0"
           x="0 6.6719999 13.344 16.68 23.351999 30.024">10,000</tspan></text>
<text
         id="text98"
         style="font-variant:normal;font-weight:normal;font-size:12px;font-family:Helvetica;-inkscape-font-specification:Helvetica;writing-mode:lr-tb;fill:#000000;fill-opacity:1;fill-rule:nonzero;stroke:none"
         transform="matrix(0,1,1,0,41.76,630.71)"><tspan
           id="tspan100"
           y="0"
           x="0 6.6719999 10.008 16.68 23.351999 30.024 33.360001 40.032001 46.703999">1,000,000</tspan></text>
</g></g></svg>