<?xml version="1.0" encoding="iso-8859-1"?>
<!-- Generator: Adobe Illustrator 19.0.0, SVG Export Plug-In . SVG Version: 6.00 Build 0)  -->
<svg version="1.1" id="Layer_1" xmlns="http://www.w3.org/2000/svg" xmlns:xlink="http://www.w3.org/1999/xlink" x="0px" y="0px"
	 viewBox="0 0 512 512" style="enable-background:new 0 0 512 512;" xml:space="preserve">
<path style="fill:#FFBE24;" d="M500.747,230.159c-6.214,0-11.253-5.038-11.253-11.253v-16.45c0-9.657-7.857-17.514-17.514-17.514
	c-6.214,0-11.253-5.038-11.253-11.253s5.038-11.253,11.253-11.253c22.067,0,40.02,17.952,40.02,40.02v16.45
	C512,225.122,506.962,230.159,500.747,230.159z"/>
<path style="fill:#212A2D;" d="M295.14,172.708h-54.031c-8.845,0-16.017-7.171-16.017-16.017c0-8.845,7.171-16.017,16.017-16.017
	h54.031c8.845,0,16.017,7.171,16.017,16.017C311.156,165.537,303.986,172.708,295.14,172.708z"/>
<path style="fill:#2E373A;" d="M268.124,172.708h-27.016c-8.845,0-16.017-7.171-16.017-16.017c0-8.845,7.171-16.017,16.017-16.017
	h27.016V172.708z"/>
<path style="fill:#128CB3;" d="M463.219,156.691H16.017C7.171,156.691,0,163.862,0,172.708v141.097
	c0,8.845,7.171,16.017,16.017,16.017h447.202c8.845,0,16.017-7.171,16.017-16.017V172.708
	C479.235,163.862,472.064,156.691,463.219,156.691z"/>
<path style="fill:#BDDEFF;" d="M463.219,156.691h-68.586v173.13h68.586c8.845,0,16.017-7.171,16.017-16.017V172.708
	C479.235,163.862,472.064,156.691,463.219,156.691z"/>
<rect x="394.627" y="156.696" style="fill:#D7EBFF;" width="42.302" height="173.129"/>
<path style="fill:#7A4126;" d="M420.918,259.865v-33.216c0-8.845,7.171-16.017,16.017-16.017s16.017,7.171,16.017,16.017v33.216
	c0,8.845-7.171,16.017-16.017,16.017S420.918,268.71,420.918,259.865z"/>
<path style="fill:#34B2D9;" d="M239.618,156.691H14.992C6.712,156.691,0,163.862,0,172.708v141.097
	c0,8.845,6.712,16.017,14.992,16.017h224.626V156.691z"/>
<path style="fill:#995D3D;" d="M420.918,259.865v-33.216c0-8.845,7.171-16.017,16.017-16.017v65.249
	C428.089,275.881,420.918,268.71,420.918,259.865z"/>
<path style="fill:#F9AA1A;" d="M0,245.884v67.92c0,8.845,7.171,16.017,16.017,16.017h447.202c8.845,0,16.017-7.171,16.017-16.017
	v-67.92L0,245.884L0,245.884z"/>
<path style="fill:#FFBE24;" d="M0,245.884v67.92c0,8.845,7.171,16.017,16.017,16.017h223.601v-83.937L0,245.884L0,245.884z"/>
<path style="fill:#212A2D;" d="M382.726,371.325c-26.314,0-47.722-21.408-47.722-47.722c0-26.314,21.408-47.722,47.722-47.722
	c26.314,0,47.722,21.408,47.722,47.722C430.447,349.918,409.039,371.325,382.726,371.325z"/>
<path style="fill:#2E373A;" d="M382.726,371.325c-26.314,0-47.722-21.408-47.722-47.722c0-26.314,21.408-47.722,47.722-47.722
	V371.325z"/>
<circle style="fill:#A2B3BF;" cx="382.722" cy="323.599" r="15.689"/>
<path style="fill:#C9D2D9;" d="M382.725,339.292c-8.665,0-15.689-7.024-15.689-15.689c0-8.665,7.024-15.689,15.689-15.689V339.292z"
	/>
<path style="fill:#212A2D;" d="M83.208,371.325c-26.314,0-47.722-21.408-47.722-47.722c0-26.314,21.408-47.722,47.722-47.722
	s47.722,21.408,47.722,47.722C130.93,349.918,109.522,371.325,83.208,371.325z"/>
<path style="fill:#2E373A;" d="M83.208,371.325c-26.314,0-47.722-21.408-47.722-47.722c0-26.314,21.408-47.722,47.722-47.722
	V371.325z"/>
<circle style="fill:#A2B3BF;" cx="83.208" cy="323.599" r="15.689"/>
<path style="fill:#C9D2D9;" d="M83.208,339.292c-8.665,0-15.689-7.024-15.689-15.689c0-8.665,7.024-15.689,15.689-15.689V339.292z"
	/>
<g>
</g>
<g>
</g>
<g>
</g>
<g>
</g>
<g>
</g>
<g>
</g>
<g>
</g>
<g>
</g>
<g>
</g>
<g>
</g>
<g>
</g>
<g>
</g>
<g>
</g>
<g>
</g>
<g>
</g>
</svg>
