<?xml version="1.0" encoding="iso-8859-1"?>
<!-- Generator: Adobe Illustrator 19.0.0, SVG Export Plug-In . SVG Version: 6.00 Build 0)  -->
<svg version="1.1" id="Layer_1" xmlns="http://www.w3.org/2000/svg" xmlns:xlink="http://www.w3.org/1999/xlink" x="0px" y="0px"
	 viewBox="0 0 512 512" style="enable-background:new 0 0 512 512;" xml:space="preserve">
<path style="fill:#C9D2D9;" d="M65.665,405.586c-9.116,0-16.506-7.39-16.506-16.506v-33.892c0-9.116,7.39-16.506,16.506-16.506
	s16.506,7.39,16.506,16.506v33.892C82.172,398.196,74.781,405.586,65.665,405.586z"/>
<path style="fill:#A2B3BF;" d="M164.991,405.586c-9.116,0-16.506-7.39-16.506-16.506v-33.892c0-9.116,7.39-16.506,16.506-16.506
	s16.506,7.39,16.506,16.506v33.892C181.497,398.196,174.107,405.586,164.991,405.586z"/>
<path style="fill:#212A2D;" d="M193.316,412.139H32.972c-9.116,0-16.506-7.39-16.506-16.506c0-9.116,7.39-16.506,16.506-16.506
	h160.342c9.116,0,16.506,7.39,16.506,16.506C209.82,404.749,202.431,412.139,193.316,412.139z"/>
<path style="fill:#2E373A;" d="M130.273,412.139H32.972c-9.116,0-16.506-7.39-16.506-16.506c0-9.116,7.39-16.506,16.506-16.506
	h97.301C130.273,379.127,130.273,412.139,130.273,412.139z"/>
<path style="fill:#34B2D9;" d="M232.98,180.523c-9.116,0-16.506-7.39-16.506-16.506v-47.65c0-9.116,7.39-16.506,16.506-16.506
	s16.506,7.39,16.506,16.506v47.65C249.486,173.134,242.095,180.523,232.98,180.523z"/>
<path style="fill:#A2B3BF;" d="M421.921,146.81H44.037c-9.116,0-16.506-7.39-16.506-16.506s7.39-16.506,16.506-16.506h377.885
	c9.116,0,16.506,7.39,16.506,16.506S431.037,146.81,421.921,146.81z"/>
<path style="fill:#C9D2D9;" d="M232.98,146.81H44.037c-9.116,0-16.506-7.39-16.506-16.506s7.39-16.506,16.506-16.506H232.98V146.81z
	"/>
<path style="fill:#212A2D;" d="M293.516,204.673l-10.268-31.564c-2.212-6.798-8.548-11.4-15.696-11.4h-69.146
	c-7.149,0-13.484,4.602-15.696,11.4l-10.268,31.564c-2.82,8.669,1.921,17.983,10.59,20.802l94.785,0.814
	c0,0,3.413-0.262,5.109-0.814C291.595,222.656,296.336,213.342,293.516,204.673z"/>
<path style="fill:#2E373A;" d="M232.98,161.709h-34.574c-7.149,0-13.484,4.602-15.696,11.4l-10.268,31.564
	c-2.82,8.669,1.921,17.983,10.59,20.802l49.947,0.429V161.709z"/>
<path style="fill:#BA2B11;" d="M511.559,286.364l-8.338-27.007c-3.985-12.904-3.865-26.508,0.346-39.341l7.938-24.196
	c1.223-3.726,0.131-7.823-2.783-10.447c-2.915-2.626-7.104-3.281-10.682-1.675l-49.994,22.437H149.413
	c-31.965,0-62.774,9.586-89.095,27.721s-46.253,43.51-57.638,73.376C0.901,311.894,0,316.789,0,321.779
	c0,22.516,18.318,40.835,40.835,40.835h127.112c29.872,0,57.954-11.632,79.075-32.755c0.131-0.13,0.257-0.264,0.38-0.402
	l52.66-58.892h146.163l51.191,27.446c3.539,1.898,7.876,1.47,10.977-1.084C511.493,294.375,512.743,290.201,511.559,286.364z"/>
<path style="fill:#E64122;" d="M123.7,208.233c-22.651,3.736-44.206,12.41-63.382,25.623c-26.322,18.136-46.253,43.51-57.638,73.376
	C0.901,311.894,0,316.789,0,321.779c0,22.516,18.318,40.835,40.835,40.835h89.439V207.292L123.7,208.233z"/>
<path style="fill:#BDDEFF;" d="M30.197,286.894h68.641c9.116,0,16.506-7.39,16.506-16.506c0-9.116-7.39-16.506-16.506-16.506H36.64
	c-7.606,7.836-14.356,16.432-20.163,25.681C19.44,283.984,24.477,286.894,30.197,286.894z"/>
<path style="fill:#D7EBFF;" d="M30.197,286.894h35.469v-33.012H36.64c-7.606,7.836-14.356,16.432-20.163,25.681
	C19.44,283.984,24.477,286.894,30.197,286.894z"/>
<path style="fill:#F9AA1A;" d="M448.047,206.134l49.994-22.437c3.577-1.605,7.767-0.95,10.682,1.675
	c2.914,2.624,4.007,6.721,2.783,10.447l-7.938,24.196c-4.21,12.833-4.33,26.436-0.346,39.34l8.338,27.007
	c1.185,3.838-0.066,8.012-3.166,10.566c-3.101,2.554-7.438,2.982-10.977,1.084l-51.191-27.446H300.062l-0.046-64.432
	L448.047,206.134z"/>
<g>
</g>
<g>
</g>
<g>
</g>
<g>
</g>
<g>
</g>
<g>
</g>
<g>
</g>
<g>
</g>
<g>
</g>
<g>
</g>
<g>
</g>
<g>
</g>
<g>
</g>
<g>
</g>
<g>
</g>
</svg>
