<?xml version="1.0" encoding="iso-8859-1"?>
<!-- Generator: Adobe Illustrator 19.0.0, SVG Export Plug-In . SVG Version: 6.00 Build 0)  -->
<svg version="1.1" id="Layer_1" xmlns="http://www.w3.org/2000/svg" xmlns:xlink="http://www.w3.org/1999/xlink" x="0px" y="0px"
	 viewBox="0 0 512.001 512.001" style="enable-background:new 0 0 512.001 512.001;" xml:space="preserve">
<path style="fill:#2E373A;" d="M349.506,291.363h-23.402c-8.862,0-16.047,7.185-16.047,16.047s7.185,16.047,16.047,16.047h23.402
	c8.862,0,16.047-7.185,16.047-16.047S358.369,291.363,349.506,291.363z"/>
<path style="fill:#95A4AF;" d="M495.953,205.015h-58.966V171.46c0-8.862-7.185-16.047-16.047-16.047h-62.37
	c-8.862,0-16.047,7.185-16.047,16.047v168.107c0,8.862,7.185,16.047,16.047,16.047h112.347c22.654,0,41.083-18.43,41.083-41.083
	v-93.468C512,212.2,504.815,205.015,495.953,205.015z"/>
<path style="fill:#A2B3BF;" d="M427.264,156.707c-1.941-0.833-4.079-1.294-6.325-1.294h-62.37c-8.862,0-16.047,7.185-16.047,16.047
	v168.107c0,8.862,7.185,16.047,16.047,16.047h68.69L427.264,156.707z"/>
<path style="fill:#BDDEFF;" d="M495.953,205.015H379.03v49.293h132.971v-33.246C512,212.2,504.815,205.015,495.953,205.015z"/>
<rect x="379.028" y="205.011" style="fill:#D7EBFF;" width="48.228" height="49.298"/>
<path style="fill:#A2B3BF;" d="M351.081,113.405h-34.67c-8.862,0-16.047,7.185-16.047,16.047v12.282H25.095
	c-3.665,0-7.294,1.098-10.187,3.349c-5.016,3.904-7.179,10.233-5.841,16.205l20.824,93.022l0,0c-8.826,0-15.982,7.155-15.982,15.982
	v85.322H316.41c8.862,0,16.047-7.185,16.047-16.047V145.5h18.169c8.641,0,16.076-6.64,16.483-15.272
	C367.544,121.014,360.2,113.405,351.081,113.405z"/>
<path style="fill:#C9D2D9;" d="M183.564,141.735H22.417c-0.086,0-0.172,0.009-0.256,0.027c-10.014,2.162-14.96,11.191-13.096,19.526
	l20.824,93.022l0,0c-8.826,0-15.982,7.155-15.982,15.982v85.322h169.656V141.735z"/>
<path style="fill:#F9AA1A;" d="M351.081,113.405h-34.67c-8.862,0-16.047,7.185-16.047,16.047v12.282H24.726
	c-4.872,0-9.48,2.213-12.526,6.016c-3.046,3.803-4.198,8.783-3.135,13.538l20.823,93.021h302.568V145.5h18.622
	c8.862,0,16.047-7.185,16.047-16.047C367.126,120.59,359.944,113.405,351.081,113.405z"/>
<path style="fill:#212A2D;" d="M427.261,398.596c-29.187,0-52.933-23.746-52.933-52.933s23.746-52.933,52.933-52.933
	s52.933,23.746,52.933,52.933S456.448,398.596,427.261,398.596z"/>
<path style="fill:#2E373A;" d="M427.261,398.596c-29.187,0-52.933-23.746-52.933-52.933s23.746-52.933,52.933-52.933V398.596z"/>
<circle style="fill:#A2B3BF;" cx="427.256" cy="345.661" r="21.33"/>
<path style="fill:#C9D2D9;" d="M427.261,366.993c-11.781,0-21.33-9.55-21.33-21.33c0-11.781,9.55-21.33,21.33-21.33V366.993z"/>
<path style="fill:#FFBE24;" d="M183.564,141.735H24.726c-4.872,0-9.48,2.213-12.526,6.016c-3.046,3.803-4.198,8.783-3.135,13.538
	l20.823,93.021h153.675L183.564,141.735z"/>
<path style="fill:#128CB3;" d="M316.41,355.615H16.047C7.185,355.615,0,348.43,0,339.567s7.185-16.047,16.047-16.047h284.316
	V129.454c0-8.862,7.185-16.047,16.047-16.047h34.67c8.862,0,16.047,7.185,16.047,16.047s-7.185,16.047-16.047,16.047h-18.622
	v194.066C332.458,348.43,325.273,355.615,316.41,355.615z"/>
<path style="fill:#34B2D9;" d="M183.565,355.615H16.047C7.185,355.615,0,348.43,0,339.567s7.185-16.047,16.047-16.047h167.516
	L183.565,355.615z"/>
<path style="fill:#212A2D;" d="M121.131,398.596c-29.187,0-52.933-23.746-52.933-52.933s23.746-52.933,52.933-52.933
	s52.933,23.746,52.933,52.933S150.318,398.596,121.131,398.596z"/>
<path style="fill:#2E373A;" d="M121.131,398.596c-29.187,0-52.933-23.746-52.933-52.933s23.746-52.933,52.933-52.933V398.596z"/>
<circle style="fill:#A2B3BF;" cx="121.126" cy="345.661" r="21.33"/>
<path style="fill:#C9D2D9;" d="M121.131,366.993c-11.781,0-21.33-9.55-21.33-21.33c0-11.781,9.55-21.33,21.33-21.33
	C121.131,324.333,121.131,366.993,121.131,366.993z"/>
<path style="fill:#212A2D;" d="M255.999,398.596c-29.187,0-52.933-23.746-52.933-52.933s23.746-52.933,52.933-52.933
	s52.933,23.746,52.933,52.933S285.188,398.596,255.999,398.596z"/>
<path style="fill:#2E373A;" d="M255.999,398.596c-29.187,0-52.933-23.746-52.933-52.933s23.746-52.933,52.933-52.933V398.596z"/>
<circle style="fill:#A2B3BF;" cx="255.998" cy="345.661" r="21.33"/>
<path style="fill:#C9D2D9;" d="M255.999,366.993c-11.781,0-21.33-9.55-21.33-21.33c0-11.781,9.55-21.33,21.33-21.33V366.993z"/>
<g>
</g>
<g>
</g>
<g>
</g>
<g>
</g>
<g>
</g>
<g>
</g>
<g>
</g>
<g>
</g>
<g>
</g>
<g>
</g>
<g>
</g>
<g>
</g>
<g>
</g>
<g>
</g>
<g>
</g>
</svg>
