<?xml version="1.0" encoding="iso-8859-1"?>
<!-- Generator: Adobe Illustrator 19.0.0, SVG Export Plug-In . SVG Version: 6.00 Build 0)  -->
<svg version="1.1" id="Layer_1" xmlns="http://www.w3.org/2000/svg" xmlns:xlink="http://www.w3.org/1999/xlink" x="0px" y="0px"
	 viewBox="0 0 512 512" style="enable-background:new 0 0 512 512;" xml:space="preserve">
<path style="fill:#DE8D0D;" d="M437.426,140.022C431.708,99.851,410.604,64.426,378,40.27C342.441,13.926,300.254,0,256,0
	c-44.255,0-86.443,13.926-122.001,40.271c-32.602,24.155-53.706,59.58-59.425,99.751c-5.718,40.17,4.662,80.077,29.228,112.369
	l89.269,117.346c3.043,4.001,7.781,6.349,12.808,6.349h100.242c5.027,0,9.765-2.348,12.808-6.349l89.27-117.346
	C432.763,220.099,443.144,180.192,437.426,140.022z"/>
<path style="fill:#A2B3BF;" d="M297.359,427.134c-0.907,0-1.824-0.077-2.748-0.236c-8.759-1.506-14.639-9.83-13.132-18.588
	l8.781-51.043c1.507-8.76,9.835-14.638,18.588-13.132c8.759,1.506,14.639,9.83,13.132,18.588l-8.781,51.043
	C311.851,421.603,305.049,427.134,297.359,427.134z"/>
<path style="fill:#128CB3;" d="M256,427.989c-8.888,0-16.093-7.205-16.093-16.093v-8.806c0-8.888,7.205-16.093,16.093-16.093
	s16.093,7.205,16.093,16.093v8.806C272.093,420.783,264.888,427.989,256,427.989z"/>
<path style="fill:#C9D2D9;" d="M214.64,427.134c-7.69,0-14.492-5.531-15.841-13.367l-8.78-51.043
	c-1.507-8.76,4.373-17.081,13.132-18.588c8.762-1.505,17.081,4.373,18.588,13.132l8.78,51.043
	c1.507,8.76-4.373,17.081-13.132,18.588C216.465,427.057,215.546,427.134,214.64,427.134z"/>
<path style="fill:#7A4126;" d="M297.34,405.674h-82.68c-8.888,0-16.093,7.205-16.093,16.093v74.14
	c0,8.888,7.205,16.093,16.093,16.093h82.68c8.888,0,16.093-7.205,16.093-16.093v-74.14
	C313.432,412.88,306.227,405.674,297.34,405.674z"/>
<path style="fill:#34B2D9;" d="M256,427.989c-8.888,0-16.093-7.205-16.093-16.093v-8.806c0-8.888,7.205-16.093,16.093-16.093
	V427.989z"/>
<path style="fill:#995D3D;" d="M256,405.674h-41.339c-8.888,0-16.093,7.205-16.093,16.093v74.14c0,8.888,7.205,16.093,16.093,16.093
	H256V405.674z"/>
<path style="fill:#E64122;" d="M200.683,66.334l16.64-62.695c-29.997,5.714-58.304,18.094-83.325,36.632
	c-32.602,24.155-53.706,59.58-59.425,99.751c-5.718,40.17,4.662,80.077,29.228,112.369l89.269,117.346
	c3.043,4.001,7.781,6.349,12.808,6.349h24.254l-22.572-68.915C182.037,229.246,179.648,145.59,200.683,66.334z"/>
<path style="fill:#BA2B11;" d="M437.426,140.022C431.708,99.851,410.604,64.426,378,40.27
	c-25.082-18.583-53.466-30.977-83.543-36.673l16.678,62.421c21.229,79.453,18.902,163.363-6.697,241.518l-22.453,68.551h24.134
	c5.027,0,9.765-2.348,12.808-6.349l89.269-117.346C432.763,220.099,443.144,180.192,437.426,140.022z"/>
<path style="fill:#F9AA1A;" d="M256,0c0,0-26.044,1.233-38.677,3.639l-16.64,62.695c-21.036,79.256-18.646,162.912,6.877,240.839
	l22.572,68.915h25.867L256,0z"/>
<g>
</g>
<g>
</g>
<g>
</g>
<g>
</g>
<g>
</g>
<g>
</g>
<g>
</g>
<g>
</g>
<g>
</g>
<g>
</g>
<g>
</g>
<g>
</g>
<g>
</g>
<g>
</g>
<g>
</g>
</svg>
