<?xml version="1.0" encoding="iso-8859-1"?>
<!-- Generator: Adobe Illustrator 19.0.0, SVG Export Plug-In . SVG Version: 6.00 Build 0)  -->
<svg version="1.1" id="Layer_1" xmlns="http://www.w3.org/2000/svg" xmlns:xlink="http://www.w3.org/1999/xlink" x="0px" y="0px"
	 viewBox="0 0 512 512" style="enable-background:new 0 0 512 512;" xml:space="preserve">
<path style="fill:#128CB3;" d="M300.535,184.659l-10.905-34.834c-8.434-26.943-33.068-45.046-61.301-45.046h-94.666
	c-9.384,0-16.991,7.608-16.991,16.991v67.965c0,9.384,7.608,16.991,16.991,16.991h150.655c5.407,0,10.491-2.572,13.693-6.93
	C301.213,195.439,302.149,189.819,300.535,184.659z"/>
<path style="fill:#34B2D9;" d="M252.932,109.623c-7.62-3.14-15.941-4.844-24.602-4.844h-94.666c-9.384,0-16.991,7.608-16.991,16.991
	v67.965c0,9.384,7.608,16.991,16.991,16.991h119.265L252.932,109.623z"/>
<path style="fill:#212A2D;" d="M444.398,237.898l-92.375-61.584c-20.178-13.451-43.662-20.562-67.913-20.562H116.673v96.283
	c0,9.384,7.608,16.991,16.991,16.991h300.808c6.917,0,13.4-3.926,16.116-10.288C453.845,251.111,451.149,242.398,444.398,237.898z"
	/>
<path style="fill:#2E373A;" d="M252.931,155.752H116.673v96.283c0,9.384,7.608,16.991,16.991,16.991h119.265L252.931,155.752z"/>
<path style="fill:#BA2B11;" d="M495.009,235.044H73.629c-6.895,0-13.107,4.167-15.722,10.548L1.269,383.787
	c-2.148,5.24-1.543,11.207,1.613,15.909c3.155,4.703,8.446,7.525,14.109,7.525h339.823c85.57,0,155.186-69.616,155.186-155.186
	C512,242.652,504.393,235.044,495.009,235.044z"/>
<path style="fill:#E64122;" d="M252.929,235.044H73.629c-6.895,0-13.107,4.167-15.722,10.548L1.269,383.787
	c-2.148,5.24-1.543,11.207,1.613,15.909c3.155,4.703,8.446,7.525,14.109,7.525h235.938V235.044z"/>
<path style="fill:#A2B3BF;" d="M274.572,338.124h-42.029c-9.384,0-16.991-7.608-16.991-16.991c0-9.384,7.608-16.991,16.991-16.991
	h42.029c9.384,0,16.991,7.607,16.991,16.991C291.563,330.517,283.955,338.124,274.572,338.124z"/>
<path style="fill:#C9D2D9;" d="M253.557,338.124h-21.015c-9.384,0-16.991-7.608-16.991-16.991c0-9.384,7.608-16.991,16.991-16.991
	h21.015V338.124z"/>
<path style="fill:#A2B3BF;" d="M382.69,338.124H340.66c-9.384,0-16.991-7.608-16.991-16.991c0-9.384,7.608-16.991,16.991-16.991
	h42.029c9.384,0,16.991,7.607,16.991,16.991C399.681,330.517,392.073,338.124,382.69,338.124z"/>
<path style="fill:#C9D2D9;" d="M361.675,338.124H340.66c-9.384,0-16.991-7.608-16.991-16.991c0-9.384,7.608-16.991,16.991-16.991
	h21.015V338.124z"/>
<path style="fill:#A2B3BF;" d="M165.203,338.124h-42.029c-9.384,0-16.991-7.608-16.991-16.991c0-9.384,7.608-16.991,16.991-16.991
	h42.029c9.384,0,16.991,7.607,16.991,16.991C182.194,330.517,174.587,338.124,165.203,338.124z"/>
<path style="fill:#C9D2D9;" d="M144.188,338.124h-21.015c-9.384,0-16.991-7.608-16.991-16.991c0-9.384,7.608-16.991,16.991-16.991
	h21.015V338.124z"/>
<g>
</g>
<g>
</g>
<g>
</g>
<g>
</g>
<g>
</g>
<g>
</g>
<g>
</g>
<g>
</g>
<g>
</g>
<g>
</g>
<g>
</g>
<g>
</g>
<g>
</g>
<g>
</g>
<g>
</g>
</svg>
