<?xml version="1.0" encoding="iso-8859-1"?>
<!-- Generator: Adobe Illustrator 19.0.0, SVG Export Plug-In . SVG Version: 6.00 Build 0)  -->
<svg version="1.1" id="Layer_1" xmlns="http://www.w3.org/2000/svg" xmlns:xlink="http://www.w3.org/1999/xlink" x="0px" y="0px"
	 viewBox="0 0 512.001 512.001" style="enable-background:new 0 0 512.001 512.001;" xml:space="preserve">
<path style="fill:#212A2D;" d="M100.42,440.423c-47.96,0-86.979-39.018-86.979-86.979s39.018-86.979,86.979-86.979
	s86.979,39.018,86.979,86.979S148.38,440.423,100.42,440.423z"/>
<path style="fill:#2E373A;" d="M100.42,440.423c-47.96,0-86.979-39.018-86.979-86.979s39.018-86.979,86.979-86.979V440.423z"/>
<path style="fill:#F9AA1A;" d="M100.42,294.781c-32.347,0-58.663,26.316-58.663,58.663s26.316,58.663,58.663,58.663
	s58.663-26.316,58.663-58.663S132.768,294.781,100.42,294.781z"/>
<path style="fill:#FFBE24;" d="M100.42,294.781c-32.347,0-58.663,26.316-58.663,58.663s26.316,58.663,58.663,58.663V294.781z"/>
<path style="fill:#212A2D;" d="M416.288,440.423c-47.96,0-86.979-39.018-86.979-86.979s39.018-86.979,86.979-86.979
	s86.979,39.018,86.979,86.979S464.248,440.423,416.288,440.423z"/>
<path style="fill:#2E373A;" d="M416.288,440.423c-47.96,0-86.979-39.018-86.979-86.979s39.018-86.979,86.979-86.979V440.423z"/>
<path style="fill:#F9AA1A;" d="M416.288,294.781c-32.347,0-58.663,26.316-58.663,58.663s26.316,58.663,58.663,58.663
	s58.663-26.316,58.663-58.663S448.635,294.781,416.288,294.781z"/>
<path style="fill:#FFBE24;" d="M416.288,294.781c-32.347,0-58.663,26.316-58.663,58.663s26.316,58.663,58.663,58.663V294.781z"/>
<path style="fill:#BA2B11;" d="M461.655,234.011l-71.57-51.012l0.115-63.901l6.133-21.848v-2.272
	c0-12.066-9.782-21.848-21.848-21.848l0,0c-27.637,0-49.285,23.772-46.704,51.289l-0.836,91.738l-11.932,33.975
	c-15.999,38.329-53.464,63.288-94.998,63.289l0,0v45.764h132.148l119.26-75.593l0,0C481.827,267.087,477.54,245.333,461.655,234.011
	z"/>
<path style="fill:#E64122;" d="M99.156,214.431h141.496l0,0c-27.793,37.149-31.39,87.088-9.208,127.837l9.208,16.915H18.285
	C8.186,359.182,0,350.996,0,340.897l0,0v-27.309C0,258.825,44.394,214.431,99.156,214.431z"/>
<path style="fill:#7A4126;" d="M231.112,219.75H121.98c-9.75,0-17.655-7.905-17.655-17.655c0-9.75,7.905-17.655,17.655-17.655
	h109.132c9.75,0,17.655,7.905,17.655,17.655C248.767,211.846,240.862,219.75,231.112,219.75z"/>
<path style="fill:#995D3D;" d="M176.546,219.75H121.98c-9.75,0-17.655-7.905-17.655-17.655c0-9.75,7.905-17.655,17.655-17.655
	h54.566V219.75z"/>
<path style="fill:#2E373A;" d="M289.257,143.49c-7.601,0-14.62-4.947-16.908-12.602c-2.793-9.342,2.515-19.18,11.856-21.973
	l50.629-15.139c9.344-2.795,19.181,2.515,21.974,11.857c2.793,9.342-2.515,19.18-11.856,21.973l-50.629,15.139
	C292.635,143.25,290.932,143.49,289.257,143.49z"/>
<path style="fill:#F9AA1A;" d="M404.517,143.485c-9.751,0-17.655-7.905-17.655-17.655V89.233c0-9.75,7.905-17.655,17.655-17.655
	c9.75,0,17.655,7.905,17.655,17.655v36.596C422.173,135.58,414.268,143.485,404.517,143.485z"/>
<path style="fill:#FFBE24;" d="M404.517,143.485c-9.751,0-17.655-7.905-17.655-17.655V89.233c0-9.75,7.905-17.655,17.655-17.655
	V143.485z"/>
<path style="fill:#7A4126;" d="M416.288,257.561c-52.777,0-95.712,42.937-95.712,95.712c0,6.501,5.271,11.77,11.77,11.77h167.885
	c6.5,0,11.77-5.27,11.77-11.77C512,300.498,469.064,257.561,416.288,257.561z"/>
<path style="fill:#995D3D;" d="M416.288,257.561c-52.777,0-95.712,42.937-95.712,95.712c0,6.501,5.271,11.77,11.77,11.77h83.942
	V257.561z"/>
<g>
</g>
<g>
</g>
<g>
</g>
<g>
</g>
<g>
</g>
<g>
</g>
<g>
</g>
<g>
</g>
<g>
</g>
<g>
</g>
<g>
</g>
<g>
</g>
<g>
</g>
<g>
</g>
<g>
</g>
</svg>
