<?xml version="1.0" encoding="iso-8859-1"?>
<!-- Generator: Adobe Illustrator 19.0.0, SVG Export Plug-In . SVG Version: 6.00 Build 0)  -->
<svg version="1.1" id="Layer_1" xmlns="http://www.w3.org/2000/svg" xmlns:xlink="http://www.w3.org/1999/xlink" x="0px" y="0px"
	 viewBox="0 0 512 512" style="enable-background:new 0 0 512 512;" xml:space="preserve">
<path style="fill:#7A4126;" d="M273.649,218.091c-8.948,0-16.203-7.254-16.203-16.203v-66.511h-26.284
	c-8.948,0-16.203-7.254-16.203-16.203s7.254-16.203,16.203-16.203h42.486c8.948,0,16.203,7.254,16.203,16.203v82.714
	C289.851,210.837,282.597,218.091,273.649,218.091z"/>
<path style="fill:#995D3D;" d="M273.649,218.091c-8.948,0-16.203-7.254-16.203-16.203v-66.511h-26.284
	c-8.948,0-16.203-7.254-16.203-16.203s7.254-16.203,16.203-16.203h42.486L273.649,218.091L273.649,218.091z"/>
<path style="fill:#128CB3;" d="M327.294,188.473h-92.129c-6.234,0-11.914,3.576-14.609,9.198l-33.171,69.174
	c-3.869,8.069-0.466,17.746,7.604,21.615c2.26,1.083,4.645,1.598,6.994,1.598c6.039,0,116.363-0.004,125.311-0.004
	s16.203-7.254,16.203-16.203v-69.174C343.497,195.728,336.242,188.473,327.294,188.473z"/>
<path style="fill:#34B2D9;" d="M273.649,188.473h-38.483c-6.234,0-11.914,3.576-14.609,9.198l-33.171,69.174
	c-3.869,8.069-0.466,17.746,7.604,21.615c2.26,1.083,4.645,1.598,6.994,1.598c6.039,0,71.666-0.004,71.666-0.004v-101.58H273.649z"
	/>
<path style="fill:#A2B3BF;" d="M377.522,258.884H82.633C37.068,258.884,0,295.952,0,341.517s37.068,82.633,82.633,82.633h294.889
	c45.565,0,82.633-37.068,82.633-82.633S423.087,258.884,377.522,258.884z"/>
<path style="fill:#C9D2D9;" d="M273.649,258.884H82.633C37.068,258.884,0,295.952,0,341.517s37.068,82.633,82.633,82.633h191.016
	V258.884z"/>
<path style="fill:#A2B3BF;" d="M225.4,150.5c-8.948,0-16.203-7.254-16.203-16.203v-30.245c0-8.948,7.254-16.203,16.203-16.203
	c8.948,0,16.203,7.254,16.203,16.203v30.245C241.602,143.245,234.348,150.5,225.4,150.5z"/>
<path style="fill:#C9D2D9;" d="M225.4,150.5c-8.948,0-16.203-7.254-16.203-16.203v-30.245c0-8.948,7.254-16.203,16.203-16.203V150.5
	z"/>
<path style="fill:#2E373A;" d="M495.797,357.719h-34.563c-8.948,0-16.203-7.254-16.203-16.203c0-8.948,7.254-16.203,16.203-16.203
	h34.563c8.948,0,16.203,7.254,16.203,16.203C512,350.465,504.746,357.719,495.797,357.719z"/>
<path style="fill:#BDDEFF;" d="M495.797,395.718c-8.948,0-16.203-7.254-16.203-16.203V303.52c0-8.948,7.254-16.203,16.203-16.203
	c8.948,0,16.203,7.254,16.203,16.203v75.995C512,388.463,504.746,395.718,495.797,395.718z"/>
<path style="fill:#D7EBFF;" d="M495.797,395.718c-8.948,0-16.203-7.254-16.203-16.203V303.52c0-8.948,7.254-16.203,16.203-16.203
	V395.718z"/>
<path style="fill:#128CB3;" d="M443.953,424.15c-8.948,0-16.203-7.254-16.203-16.203V275.087c0-8.948,7.254-16.203,16.203-16.203
	s16.203,7.254,16.203,16.203v132.861C460.155,416.895,452.901,424.15,443.953,424.15z"/>
<path style="fill:#34B2D9;" d="M443.953,424.15c-8.948,0-16.203-7.254-16.203-16.203V275.087c0-8.948,7.254-16.203,16.203-16.203
	V424.15z"/>
<path style="fill:#212A2D;" d="M273.708,358.159H233.63c-8.948,0-16.203-7.254-16.203-16.203c0-8.948,7.254-16.203,16.203-16.203
	h40.079c8.948,0,16.203,7.254,16.203,16.203C289.911,350.905,282.657,358.159,273.708,358.159z"/>
<path style="fill:#2E373A;" d="M253.669,358.159H233.63c-8.948,0-16.203-7.254-16.203-16.203c0-8.948,7.254-16.203,16.203-16.203
	h20.039V358.159z"/>
<path style="fill:#212A2D;" d="M376.808,358.159H336.73c-8.948,0-16.203-7.254-16.203-16.203c0-8.948,7.254-16.203,16.203-16.203
	h40.079c8.948,0,16.203,7.254,16.203,16.203C393.011,350.905,385.757,358.159,376.808,358.159z"/>
<path style="fill:#2E373A;" d="M356.769,358.159H336.73c-8.948,0-16.203-7.254-16.203-16.203c0-8.948,7.254-16.203,16.203-16.203
	h20.039V358.159z"/>
<path style="fill:#212A2D;" d="M169.416,358.159h-40.079c-8.948,0-16.203-7.254-16.203-16.203c0-8.948,7.254-16.203,16.203-16.203
	h40.079c8.948,0,16.203,7.254,16.203,16.203C185.618,350.905,178.365,358.159,169.416,358.159z"/>
<path style="fill:#2E373A;" d="M149.377,358.159h-20.039c-8.948,0-16.203-7.254-16.203-16.203c0-8.948,7.254-16.203,16.203-16.203
	h20.039V358.159z"/>
<g>
</g>
<g>
</g>
<g>
</g>
<g>
</g>
<g>
</g>
<g>
</g>
<g>
</g>
<g>
</g>
<g>
</g>
<g>
</g>
<g>
</g>
<g>
</g>
<g>
</g>
<g>
</g>
<g>
</g>
</svg>
