<?xml version="1.0" encoding="iso-8859-1"?>
<!-- Generator: Adobe Illustrator 19.0.0, SVG Export Plug-In . SVG Version: 6.00 Build 0)  -->
<svg version="1.1" id="Layer_1" xmlns="http://www.w3.org/2000/svg" xmlns:xlink="http://www.w3.org/1999/xlink" x="0px" y="0px"
	 viewBox="0 0 512 512" style="enable-background:new 0 0 512 512;" xml:space="preserve">
<path style="fill:#BA2B11;" d="M457.097,210.794H337.131l-41.864-62.606c-14.787-22.114-39.497-35.316-66.1-35.316H110.009
	C49.349,112.872,0,162.221,0,222.879v103.095c0,9.531,7.727,17.259,17.259,17.259h477.483c9.531,0,17.259-7.727,17.259-17.259
	v-60.278C512,235.423,487.37,210.794,457.097,210.794z"/>
<path style="fill:#E64122;" d="M250.248,115.703c-6.78-1.859-13.861-2.832-21.081-2.832H110.009C49.349,112.872,0,162.221,0,222.879
	v103.095c0,9.531,7.727,17.259,17.259,17.259h232.988L250.248,115.703z"/>
<path style="fill:#212A2D;" d="M272.045,293.34h-22.436c-9.531,0-17.259-7.727-17.259-17.259c0-9.531,7.727-17.259,17.259-17.259
	h22.436c9.531,0,17.259,7.727,17.259,17.259C289.303,285.612,281.576,293.34,272.045,293.34z"/>
<path style="fill:#2E373A;" d="M260.827,293.34h-11.218c-9.531,0-17.259-7.727-17.259-17.259c0-9.531,7.727-17.259,17.259-17.259
	h11.218V293.34z"/>
<path style="fill:#212A2D;" d="M424.983,399.128c-31.39,0-56.928-25.538-56.928-56.928s25.538-56.928,56.928-56.928
	s56.928,25.538,56.928,56.928S456.373,399.128,424.983,399.128z"/>
<path style="fill:#2E373A;" d="M424.983,399.128c-31.39,0-56.928-25.538-56.928-56.928s25.538-56.928,56.928-56.928V399.128z"/>
<circle style="fill:#A2B3BF;" cx="424.989" cy="342.205" r="22.94"/>
<path style="fill:#C9D2D9;" d="M424.983,365.14c-12.67,0-22.94-10.271-22.94-22.94c0-12.67,10.271-22.94,22.94-22.94V365.14z"/>
<path style="fill:#212A2D;" d="M107.623,399.128c-31.39,0-56.928-25.538-56.928-56.928s25.538-56.928,56.928-56.928
	s56.928,25.538,56.928,56.928S139.013,399.128,107.623,399.128z"/>
<path style="fill:#2E373A;" d="M107.623,399.128c-31.39,0-56.928-25.538-56.928-56.928s25.538-56.928,56.928-56.928V399.128z"/>
<circle style="fill:#A2B3BF;" cx="107.625" cy="342.205" r="22.94"/>
<path style="fill:#C9D2D9;" d="M107.623,365.14c-12.67,0-22.94-10.271-22.94-22.94c0-12.67,10.271-22.94,22.94-22.94
	C107.623,319.26,107.623,365.14,107.623,365.14z"/>
<path style="fill:#BDDEFF;" d="M0.667,210.794c6.037-54.993,52.767-97.922,109.342-97.922h119.158
	c26.603,0,51.313,13.203,66.1,35.316l41.864,62.606H0.667z"/>
<path style="fill:#D7EBFF;" d="M0.667,210.794c6.037-54.993,52.767-97.922,109.342-97.922h119.158c7.22,0,14.301,0.972,21.081,2.832
	l-0.002,95.091H0.667z"/>
<path style="fill:#128CB3;" d="M0.667,210.794c6.037-54.993,52.767-97.922,109.342-97.922h104.57v97.922H0.667z"/>
<path style="fill:#34B2D9;" d="M0.667,210.794c5.953-54.219,51.458-96.711,106.957-97.897v97.897H0.667z"/>
<g>
</g>
<g>
</g>
<g>
</g>
<g>
</g>
<g>
</g>
<g>
</g>
<g>
</g>
<g>
</g>
<g>
</g>
<g>
</g>
<g>
</g>
<g>
</g>
<g>
</g>
<g>
</g>
<g>
</g>
</svg>
