<?xml version="1.0" encoding="iso-8859-1"?>
<!-- Generator: Adobe Illustrator 19.0.0, SVG Export Plug-In . SVG Version: 6.00 Build 0)  -->
<svg version="1.1" id="Layer_1" xmlns="http://www.w3.org/2000/svg" xmlns:xlink="http://www.w3.org/1999/xlink" x="0px" y="0px"
	 viewBox="0 0 512 512" style="enable-background:new 0 0 512 512;" xml:space="preserve">
<path style="fill:#2E373A;" d="M16.75,269.753c-9.251,0-16.75-7.5-16.75-16.75V212.43c0-9.251,7.5-16.75,16.75-16.75
	s16.75,7.5,16.75,16.75v40.573C33.501,262.255,26.001,269.753,16.75,269.753z"/>
<path style="fill:#F9AA1A;" d="M479.305,212.426l-26.239-26.824l-30.532-50.771c-8.863-14.738-25.051-23.893-42.248-23.893H67.467
	c-27.628,0-50.106,22.477-50.106,50.106v168.018c0,9.251,7.5,16.75,16.75,16.75s441.507,0,450.003,0c9.251,0,16.75-7.5,16.75-16.75
	V265.3C500.864,245.417,493.208,226.64,479.305,212.426z"/>
<path style="fill:#FFBE24;" d="M259.113,110.937H67.467c-27.628,0-50.106,22.477-50.106,50.106V329.06
	c0,9.251,7.5,16.75,16.75,16.75s225.002,0,225.002,0V110.937z"/>
<path style="fill:#995D3D;" d="M88.559,345.812H34.111c-9.251,0-16.75-7.5-16.75-16.75c0-9.251,0-16.75,0-16.75h71.198
	c9.251,0,16.75,7.5,16.75,16.75C105.309,338.312,97.809,345.812,88.559,345.812z"/>
<path style="fill:#7A4126;" d="M364.638,345.812h-207.12c-9.251,0-16.75-7.5-16.75-16.75c0-9.251,7.5-16.75,16.75-16.75h207.122
	c9.251,0,16.75,7.5,16.75,16.75C381.389,338.312,373.888,345.812,364.638,345.812z"/>
<path style="fill:#995D3D;" d="M259.113,345.812H157.516c-9.251,0-16.75-7.5-16.75-16.75c0-9.251,7.5-16.75,16.75-16.75h101.597
	V345.812z"/>
<path style="fill:#7A4126;" d="M495.25,345.812h-53.61c-9.251,0-16.75-7.5-16.75-16.75c0-9.251,7.5-16.75,16.75-16.75h53.61
	c9.251,0,16.75,7.5,16.75,16.75C512,338.312,504.5,345.812,495.25,345.812z"/>
<path style="fill:#BA2B11;" d="M479.305,212.426l-26.239-26.824l-30.532-50.771c-8.863-14.738-25.051-23.893-42.248-23.893H67.467
	c-27.628,0-50.106,22.477-50.106,50.106v56.017H483.46C482.139,215.472,480.764,213.919,479.305,212.426z"/>
<path style="fill:#BDDEFF;" d="M479.305,212.426l-26.239-26.824l-30.532-50.771c-8.863-14.738-25.051-23.893-42.248-23.893h-47.327
	v106.123H483.46C482.139,215.472,480.764,213.919,479.305,212.426z"/>
<path style="fill:#D7EBFF;" d="M408.215,119.655c-8.115-5.572-17.849-8.718-27.929-8.718h-47.327V217.06h75.25L408.215,119.655z"/>
<path style="fill:#E64122;" d="M259.113,110.937H67.467c-27.628,0-50.106,22.477-50.106,50.106v56.017h241.752V110.937z"/>
<path style="fill:#212A2D;" d="M122.104,400.64c-30.465,0-55.251-24.786-55.251-55.251c0-30.465,24.786-55.251,55.251-55.251
	s55.251,24.786,55.251,55.251C177.355,375.854,152.569,400.64,122.104,400.64z"/>
<path style="fill:#2E373A;" d="M122.104,400.64c-30.465,0-55.251-24.786-55.251-55.251c0-30.465,24.786-55.251,55.251-55.251V400.64
	z"/>
<circle style="fill:#A2B3BF;" cx="122.098" cy="345.391" r="22.264"/>
<path style="fill:#C9D2D9;" d="M122.103,367.653c-12.297,0-22.264-9.969-22.264-22.264c0-12.297,9.969-22.264,22.264-22.264
	C122.103,323.124,122.103,367.653,122.103,367.653z"/>
<path style="fill:#212A2D;" d="M408.215,401.063c-30.465,0-55.251-24.786-55.251-55.251c0-30.465,24.786-55.251,55.251-55.251
	c30.465,0,55.251,24.786,55.251,55.251C463.467,376.277,438.681,401.063,408.215,401.063z"/>
<path style="fill:#2E373A;" d="M408.215,401.063c-30.465,0-55.251-24.786-55.251-55.251c0-30.465,24.786-55.251,55.251-55.251
	V401.063z"/>
<circle style="fill:#A2B3BF;" cx="408.215" cy="345.815" r="22.264"/>
<path style="fill:#C9D2D9;" d="M408.215,368.076c-12.297,0-22.264-9.969-22.264-22.264c0-12.297,9.969-22.264,22.264-22.264V368.076
	z"/>
<g>
</g>
<g>
</g>
<g>
</g>
<g>
</g>
<g>
</g>
<g>
</g>
<g>
</g>
<g>
</g>
<g>
</g>
<g>
</g>
<g>
</g>
<g>
</g>
<g>
</g>
<g>
</g>
<g>
</g>
</svg>
