<?xml version="1.0" encoding="iso-8859-1"?>
<!-- Generator: Adobe Illustrator 19.0.0, SVG Export Plug-In . SVG Version: 6.00 Build 0)  -->
<svg version="1.1" id="Layer_1" xmlns="http://www.w3.org/2000/svg" xmlns:xlink="http://www.w3.org/1999/xlink" x="0px" y="0px"
	 viewBox="0 0 512 512" style="enable-background:new 0 0 512 512;" xml:space="preserve">
<path style="fill:#2E373A;" d="M151.451,392.387c-7,0-13.814-1.58-19.99-4.564c-6.176,2.984-12.989,4.564-19.99,4.564
	c-25.361,0-45.996-20.633-45.996-45.994c0-25.361,20.633-45.994,45.996-45.994c7,0,13.814,1.58,19.99,4.564
	c6.176-2.984,12.989-4.564,19.99-4.564c25.361,0,45.994,20.633,45.994,45.994C197.445,371.754,176.812,392.387,151.451,392.387z"/>
<path style="fill:#A2B3BF;" d="M131.461,351.587c4.012,0,8.023,1.456,11.181,4.369c2.407,2.22,5.536,3.442,8.808,3.442
	c7.171,0,13.005-5.835,13.005-13.005s-5.834-13.005-13.005-13.005c-3.273,0-6.4,1.222-8.808,3.442
	c-6.316,5.825-16.045,5.824-22.362,0.001c-2.408-2.22-5.537-3.443-8.808-3.443c-7.171,0-13.006,5.835-13.006,13.005
	s5.834,13.005,13.006,13.005c3.273,0,6.4-1.223,8.808-3.443C123.438,353.043,127.451,351.587,131.461,351.587z"/>
<path style="fill:#C9D2D9;" d="M131.461,351.587v-10.39c-4.012,0-8.023-1.456-11.181-4.367c-2.408-2.22-5.537-3.443-8.808-3.443
	c-7.171,0-13.006,5.835-13.006,13.005c0,7.17,5.834,13.005,13.006,13.005c3.273,0,6.4-1.223,8.808-3.443
	C123.438,353.043,127.451,351.587,131.461,351.587z"/>
<path style="fill:#2E373A;" d="M400.528,392.387c-7,0-13.814-1.58-19.99-4.564c-6.176,2.984-12.989,4.564-19.99,4.564
	c-25.361,0-45.996-20.633-45.996-45.994c0-25.361,20.633-45.994,45.996-45.994c7,0,13.814,1.58,19.99,4.564
	c6.176-2.984,12.989-4.564,19.99-4.564c25.361,0,45.994,20.633,45.994,45.994C446.523,371.754,425.89,392.387,400.528,392.387z"/>
<path style="fill:#A2B3BF;" d="M380.539,351.587c4.012,0,8.023,1.456,11.181,4.369c2.407,2.22,5.536,3.442,8.808,3.442
	c7.171,0,13.005-5.835,13.005-13.005s-5.834-13.005-13.005-13.005c-3.273,0-6.4,1.222-8.808,3.442
	c-6.316,5.825-16.045,5.824-22.362,0.001c-2.408-2.22-5.537-3.443-8.808-3.443c-7.171,0-13.006,5.835-13.006,13.005
	s5.834,13.005,13.006,13.005c3.273,0,6.4-1.223,8.808-3.443C372.516,353.043,376.527,351.587,380.539,351.587z"/>
<path style="fill:#C9D2D9;" d="M380.539,351.587v-10.39c-4.012,0-8.023-1.456-11.181-4.367c-2.408-2.22-5.537-3.443-8.808-3.443
	c-7.171,0-13.006,5.835-13.006,13.005c0,7.17,5.834,13.005,13.006,13.005c3.273,0,6.4-1.223,8.808-3.443
	C372.516,353.043,376.527,351.587,380.539,351.587z"/>
<path style="fill:#7A4126;" d="M490.347,404.486H21.652c-9.11,0-16.495-7.385-16.495-16.495s7.385-16.495,16.495-16.495h468.694
	c9.11,0,16.495,7.385,16.495,16.495S499.456,404.486,490.347,404.486z"/>
<path style="fill:#995D3D;" d="M256,404.486H21.652c-9.11,0-16.495-7.385-16.495-16.495s7.385-16.495,16.495-16.495h234.347v32.99
	H256z"/>
<path style="fill:#A2B3BF;" d="M279.917,140.504h-47.833c-9.11,0-16.495-7.385-16.495-16.495s7.385-16.495,16.495-16.495h47.833
	c9.11,0,16.495,7.385,16.495,16.495S289.026,140.504,279.917,140.504z"/>
<path style="fill:#C9D2D9;" d="M256,140.504h-23.917c-9.11,0-16.495-7.385-16.495-16.495s7.385-16.495,16.495-16.495H256
	L256,140.504L256,140.504z"/>
<path style="fill:#F9AA1A;" d="M497.402,143.805l-0.318-1.301c-1.806-7.384-8.422-12.578-16.023-12.578H30.939
	c-7.599,0-14.214,5.191-16.022,12.572l-0.32,1.306C-0.216,204.386-0.1,268.401,14.93,328.927
	c2.195,8.84,11.143,14.233,19.983,12.032h442.172c1.335,0.332,2.672,0.49,3.988,0.49c7.4-0.001,14.133-5.018,15.996-12.524
	C512.099,268.396,512.214,204.382,497.402,143.805z"/>
<path style="fill:#FFBE24;" d="M256,129.926H30.939c-7.599,0-14.214,5.191-16.022,12.572l-0.32,1.306
	C-0.216,204.386-0.1,268.401,14.93,328.927c2.195,8.84,11.143,14.233,19.983,12.032h221.086L256,129.926z"/>
<path style="fill:#212A2D;" d="M385.733,333.432c-9.11,0-16.495-7.385-16.495-16.495V124.009c0-9.11,7.385-16.495,16.495-16.495
	s16.495,7.385,16.495,16.495v192.928C402.227,326.046,394.842,333.432,385.733,333.432z"/>
<path style="fill:#2E373A;" d="M385.733,333.432c-9.11,0-16.495-7.385-16.495-16.495V124.009c0-9.11,7.385-16.495,16.495-16.495
	V333.432z"/>
<path style="fill:#212A2D;" d="M126.267,333.432c-9.11,0-16.495-7.385-16.495-16.495V124.009c0-9.11,7.385-16.495,16.495-16.495
	s16.495,7.385,16.495,16.495v192.928C142.762,326.046,135.377,333.432,126.267,333.432z"/>
<path style="fill:#2E373A;" d="M126.267,333.432c-9.11,0-16.495-7.385-16.495-16.495V124.009c0-9.11,7.385-16.495,16.495-16.495
	V333.432z"/>
<path style="fill:#128CB3;" d="M495.505,344.744H16.495C7.385,344.744,0,337.358,0,328.249s7.385-16.495,16.495-16.495h479.01
	c9.11,0,16.495,7.385,16.495,16.495S504.615,344.744,495.505,344.744z"/>
<path style="fill:#34B2D9;" d="M256,344.744H16.495C7.385,344.744,0,337.358,0,328.249s7.385-16.495,16.495-16.495H256V344.744z"/>
<g>
</g>
<g>
</g>
<g>
</g>
<g>
</g>
<g>
</g>
<g>
</g>
<g>
</g>
<g>
</g>
<g>
</g>
<g>
</g>
<g>
</g>
<g>
</g>
<g>
</g>
<g>
</g>
<g>
</g>
</svg>
