<?xml version="1.0" encoding="iso-8859-1"?>
<!-- Generator: Adobe Illustrator 19.0.0, SVG Export Plug-In . SVG Version: 6.00 Build 0)  -->
<svg version="1.1" id="Layer_1" xmlns="http://www.w3.org/2000/svg" xmlns:xlink="http://www.w3.org/1999/xlink" x="0px" y="0px"
	 viewBox="0 0 512 512" style="enable-background:new 0 0 512 512;" xml:space="preserve">
<path style="fill:#D7EBFF;" d="M19.668,253.776v-32.02H6.93c-2.487,0-4.831,0.583-6.93,1.595v28.831
	c2.099,1.012,4.444,1.595,6.93,1.595H19.668z"/>
<path style="fill:#2E373A;" d="M172.542,320.02h-34.499c-8.842,0-16.01-7.168-16.01-16.01s7.168-16.01,16.01-16.01h34.499
	c8.842,0,16.01,7.168,16.01,16.01S181.384,320.02,172.542,320.02z"/>
<path style="fill:#A2B3BF;" d="M128.946,116.987H95.579c-29.375,0-53.749,21.813-57.778,50.091C15.716,175.563,0,196.999,0,222.036
	v117.53c0,8.842,7.168,16.01,16.01,16.01h112.936c8.842,0,16.01-7.168,16.01-16.01V132.997
	C144.957,124.155,137.788,116.987,128.946,116.987z"/>
<path style="fill:#128CB3;" d="M495.99,114.42H181.972c-8.842,0-16.01,7.168-16.01,16.01v209.136c0,8.842,7.168,16.01,16.01,16.01
	H495.99c8.842,0,16.01-7.168,16.01-16.01V130.43C512,121.588,504.833,114.42,495.99,114.42z"/>
<path style="fill:#34B2D9;" d="M338.982,114.42H181.972c-8.842,0-16.01,7.168-16.01,16.01v209.136c0,8.842,7.168,16.01,16.01,16.01
	h157.009V114.42z"/>
<path style="fill:#212A2D;" d="M512,130.43c0-8.842-7.168-16.01-16.01-16.01H181.972c-8.842,0-16.01,7.168-16.01,16.01v48.768H512
	V130.43z"/>
<path style="fill:#2E373A;" d="M338.982,114.42H181.972c-8.842,0-16.01,7.168-16.01,16.01v48.768h173.019V114.42z"/>
<path style="fill:#C9D2D9;" d="M73.056,121.508c-18.592,7.807-32.32,24.974-35.255,45.57C15.716,175.563,0,196.999,0,222.036v117.53
	c0,8.842,7.168,16.01,16.01,16.01h56.468L73.056,121.508z"/>
<path style="fill:#BDDEFF;" d="M31.643,253.776c8.842,0,16.01-7.168,16.01-16.01s-7.168-16.01-16.01-16.01H6.93
	c-2.487,0-4.831,0.583-6.93,1.595v28.831c2.099,1.012,4.444,1.595,6.93,1.595H31.643z"/>
<path style="fill:#212A2D;" d="M144.957,132.997c0-8.842-7.168-16.01-16.01-16.01H95.579c-29.352,0-53.71,21.78-57.767,50.027
	h107.145V132.997z"/>
<path style="fill:#2E373A;" d="M73.056,121.508c-18.572,7.798-32.291,24.938-35.244,45.505h35.244V121.508z"/>
<path style="fill:#212A2D;" d="M72.478,397.58c-29.119,0-52.81-23.691-52.81-52.81c0-29.119,23.691-52.81,52.81-52.81
	s52.81,23.691,52.81,52.81C125.289,373.889,101.598,397.58,72.478,397.58z"/>
<path style="fill:#2E373A;" d="M72.478,397.58c-29.119,0-52.81-23.691-52.81-52.81c0-29.119,23.691-52.81,52.81-52.81V397.58z"/>
<circle style="fill:#A2B3BF;" cx="72.478" cy="344.764" r="21.281"/>
<path style="fill:#C9D2D9;" d="M72.478,366.051c-11.754,0-21.281-9.528-21.281-21.281c0-11.754,9.528-21.281,21.281-21.281V366.051z
	"/>
<path style="fill:#212A2D;" d="M261.985,397.58c-29.119,0-52.81-23.691-52.81-52.81c0-29.119,23.691-52.81,52.81-52.81
	c29.119,0,52.81,23.691,52.81,52.81C314.795,373.889,291.105,397.58,261.985,397.58z"/>
<path style="fill:#2E373A;" d="M261.985,397.58c-29.119,0-52.81-23.691-52.81-52.81c0-29.119,23.691-52.81,52.81-52.81V397.58z"/>
<circle style="fill:#A2B3BF;" cx="261.981" cy="344.764" r="21.281"/>
<path style="fill:#C9D2D9;" d="M261.985,366.051c-11.754,0-21.281-9.528-21.281-21.281c0-11.754,9.528-21.281,21.281-21.281V366.051
	z"/>
<path style="fill:#212A2D;" d="M414.682,397.58c-29.119,0-52.81-23.691-52.81-52.81c0-29.119,23.691-52.81,52.81-52.81
	s52.81,23.691,52.81,52.81C467.493,373.889,443.802,397.58,414.682,397.58z"/>
<path style="fill:#2E373A;" d="M414.682,397.58c-29.119,0-52.81-23.691-52.81-52.81c0-29.119,23.691-52.81,52.81-52.81V397.58z"/>
<circle style="fill:#A2B3BF;" cx="414.687" cy="344.764" r="21.281"/>
<path style="fill:#C9D2D9;" d="M414.682,366.051c-11.754,0-21.281-9.528-21.281-21.281c0-11.754,9.528-21.281,21.281-21.281V366.051
	z"/>
<g>
</g>
<g>
</g>
<g>
</g>
<g>
</g>
<g>
</g>
<g>
</g>
<g>
</g>
<g>
</g>
<g>
</g>
<g>
</g>
<g>
</g>
<g>
</g>
<g>
</g>
<g>
</g>
<g>
</g>
</svg>
