<?xml version="1.0" encoding="UTF-8" standalone="no"?>
<!DOCTYPE svg PUBLIC "-//W3C//DTD SVG 1.1//EN"
 "http://www.w3.org/Graphics/SVG/1.1/DTD/svg11.dtd">
<!-- Generated by graphviz version 2.40.1 (20161225.0304)
 -->
<!-- Title: shacl Pages: 1 -->
<svg width="452pt" height="561pt"
 viewBox="0.00 0.00 451.50 561.00" xmlns="http://www.w3.org/2000/svg" xmlns:xlink="http://www.w3.org/1999/xlink">
<g id="graph0" class="graph" transform="scale(1 1) rotate(0) translate(4 557)">
<title>shacl</title>
<polygon fill="#ffffff" stroke="transparent" points="-4,4 -4,-557 447.5,-557 447.5,4 -4,4"/>
<!-- n600612a402206f6e454667e38d074ef5 -->
<g id="node1" class="node">
<title>n600612a402206f6e454667e38d074ef5</title>
<g id="a_node1"><a xlink:href="https://iisg.amsterdam/vocab/Capital" xlink:title="&lt;TABLE&gt;">
<polygon fill="none" stroke="#000000" points="11.5,-52.5 11.5,-73.5 220.5,-73.5 220.5,-52.5 11.5,-52.5"/>
<text text-anchor="start" x="62" y="-60.3" font-family="Times,serif" font-weight="bold" font-size="14.00" fill="#000000">vocab:Capital</text>
<polygon fill="none" stroke="#000000" points="11.5,-29.5 11.5,-50.5 85.5,-50.5 85.5,-29.5 11.5,-29.5"/>
<text text-anchor="start" x="37.5" y="-36.3" font-family="Times,serif" font-size="14.00" fill="#000000">_:3</text>
<polygon fill="none" stroke="#000000" points="87.5,-29.5 87.5,-50.5 220.5,-50.5 220.5,-29.5 87.5,-29.5"/>
<text text-anchor="start" x="90.5" y="-36.3" font-family="Times,serif" font-size="14.00" fill="#000000">wgs84:wktLiteral</text>
<polygon fill="none" stroke="#000000" points="11.5,-6.5 11.5,-27.5 85.5,-27.5 85.5,-6.5 11.5,-6.5"/>
<text text-anchor="start" x="14.5" y="-13.3" font-family="Times,serif" font-size="14.00" fill="#000000">rdfs:label</text>
<polygon fill="none" stroke="#000000" points="87.5,-6.5 87.5,-27.5 220.5,-27.5 220.5,-6.5 87.5,-6.5"/>
<text text-anchor="start" x="103" y="-13.3" font-family="Times,serif" font-size="14.00" fill="#000000">rdf:langString</text>
<polygon fill="none" stroke="#000000" points="8,-4 8,-77 223,-77 223,-4 8,-4"/>
</a>
</g>
</g>
<!-- n2fc57b78a2dbe2a88b0b43d8333629a5 -->
<g id="node2" class="node">
<title>n2fc57b78a2dbe2a88b0b43d8333629a5</title>
<g id="a_node2"><a xlink:href="https://iisg.amsterdam/vocab/Country" xlink:title="&lt;TABLE&gt;">
<polygon fill="none" stroke="#000000" points="169.5,-524 169.5,-545 291.5,-545 291.5,-524 169.5,-524"/>
<text text-anchor="start" x="172.5" y="-531.8" font-family="Times,serif" font-weight="bold" font-size="14.00" fill="#000000">vocab:Country</text>
<polygon fill="none" stroke="#000000" points="166.5,-521.5 166.5,-548.5 294.5,-548.5 294.5,-521.5 166.5,-521.5"/>
</a>
</g>
</g>
<!-- nc4b1b71526297990ced7f9be84d0e6d4 -->
<g id="node3" class="node">
<title>nc4b1b71526297990ced7f9be84d0e6d4</title>
<g id="a_node3"><a xlink:href="https://iisg.amsterdam/vocab/CountrySlice" xlink:title="&lt;TABLE&gt;">
<polygon fill="none" stroke="#000000" points="90.5,-438 90.5,-459 370.5,-459 370.5,-438 90.5,-438"/>
<text text-anchor="start" x="153" y="-445.8" font-family="Times,serif" font-weight="bold" font-size="14.00" fill="#000000">vocab:CountrySlice</text>
<polygon fill="none" stroke="#000000" points="90.5,-415 90.5,-436 223.5,-436 223.5,-415 90.5,-415"/>
<text text-anchor="start" x="123" y="-421.8" font-family="Times,serif" font-size="14.00" fill="#000000">rdfs:label</text>
<polygon fill="none" stroke="#000000" points="225.5,-415 225.5,-436 370.5,-436 370.5,-415 225.5,-415"/>
<text text-anchor="start" x="247" y="-421.8" font-family="Times,serif" font-size="14.00" fill="#000000">rdf:langString</text>
<polygon fill="none" stroke="#000000" points="90.5,-392 90.5,-413 223.5,-413 223.5,-392 90.5,-392"/>
<text text-anchor="start" x="105.5" y="-398.8" font-family="Times,serif" font-size="14.00" fill="#000000">wgs84:asWKT</text>
<polygon fill="none" stroke="#000000" points="225.5,-392 225.5,-413 370.5,-413 370.5,-392 225.5,-392"/>
<text text-anchor="start" x="234.5" y="-398.8" font-family="Times,serif" font-size="14.00" fill="#000000">wgs84:wktLiteral</text>
<polygon fill="none" stroke="#000000" points="90.5,-369 90.5,-390 223.5,-390 223.5,-369 90.5,-369"/>
<text text-anchor="start" x="117.5" y="-375.8" font-family="Times,serif" font-size="14.00" fill="#000000">vocab:area</text>
<polygon fill="none" stroke="#000000" points="225.5,-369 225.5,-390 370.5,-390 370.5,-369 225.5,-369"/>
<text text-anchor="start" x="259" y="-375.8" font-family="Times,serif" font-size="14.00" fill="#000000">xsd:double</text>
<polygon fill="none" stroke="#000000" points="90.5,-346 90.5,-367 223.5,-367 223.5,-346 90.5,-346"/>
<text text-anchor="start" x="101" y="-352.8" font-family="Times,serif" font-size="14.00" fill="#000000">vocab:cowCode</text>
<polygon fill="none" stroke="#000000" points="225.5,-346 225.5,-367 370.5,-367 370.5,-346 225.5,-346"/>
<text text-anchor="start" x="261.5" y="-352.8" font-family="Times,serif" font-size="14.00" fill="#000000">xsd:string</text>
<polygon fill="none" stroke="#000000" points="90.5,-323 90.5,-344 223.5,-344 223.5,-323 90.5,-323"/>
<text text-anchor="start" x="105" y="-329.8" font-family="Times,serif" font-size="14.00" fill="#000000">vocab:cowEnd</text>
<polygon fill="none" stroke="#000000" points="225.5,-323 225.5,-344 370.5,-344 370.5,-323 225.5,-323"/>
<text text-anchor="start" x="267.5" y="-329.8" font-family="Times,serif" font-size="14.00" fill="#000000">xsd:date</text>
<polygon fill="none" stroke="#000000" points="90.5,-300 90.5,-321 223.5,-321 223.5,-300 90.5,-300"/>
<text text-anchor="start" x="101" y="-306.8" font-family="Times,serif" font-size="14.00" fill="#000000">vocab:cowStart</text>
<polygon fill="none" stroke="#000000" points="225.5,-300 225.5,-321 370.5,-321 370.5,-300 225.5,-300"/>
<text text-anchor="start" x="267.5" y="-306.8" font-family="Times,serif" font-size="14.00" fill="#000000">xsd:date</text>
<polygon fill="none" stroke="#000000" points="90.5,-277 90.5,-298 223.5,-298 223.5,-277 90.5,-277"/>
<text text-anchor="start" x="104.5" y="-283.8" font-family="Times,serif" font-size="14.00" fill="#000000">vocab:gwCode</text>
<polygon fill="none" stroke="#000000" points="225.5,-277 225.5,-298 370.5,-298 370.5,-277 225.5,-277"/>
<text text-anchor="start" x="261.5" y="-283.8" font-family="Times,serif" font-size="14.00" fill="#000000">xsd:string</text>
<polygon fill="none" stroke="#000000" points="90.5,-254 90.5,-275 223.5,-275 223.5,-254 90.5,-254"/>
<text text-anchor="start" x="108.5" y="-260.8" font-family="Times,serif" font-size="14.00" fill="#000000">vocab:gwEnd</text>
<polygon fill="none" stroke="#000000" points="225.5,-254 225.5,-275 370.5,-275 370.5,-254 225.5,-254"/>
<text text-anchor="start" x="267.5" y="-260.8" font-family="Times,serif" font-size="14.00" fill="#000000">xsd:date</text>
<polygon fill="none" stroke="#000000" points="90.5,-231 90.5,-252 223.5,-252 223.5,-231 90.5,-231"/>
<text text-anchor="start" x="104.5" y="-237.8" font-family="Times,serif" font-size="14.00" fill="#000000">vocab:gwStart</text>
<polygon fill="none" stroke="#000000" points="225.5,-231 225.5,-252 370.5,-252 370.5,-231 225.5,-231"/>
<text text-anchor="start" x="267.5" y="-237.8" font-family="Times,serif" font-size="14.00" fill="#000000">xsd:date</text>
<polygon fill="none" stroke="#000000" points="90.5,-208 90.5,-229 223.5,-229 223.5,-208 90.5,-208"/>
<text text-anchor="start" x="98" y="-214.8" font-family="Times,serif" font-size="14.00" fill="#000000">vocab:isoAlpha2</text>
<polygon fill="none" stroke="#000000" points="225.5,-208 225.5,-229 370.5,-229 370.5,-208 225.5,-208"/>
<text text-anchor="start" x="261.5" y="-214.8" font-family="Times,serif" font-size="14.00" fill="#000000">xsd:string</text>
<polygon fill="none" stroke="#000000" points="90.5,-185 90.5,-206 223.5,-206 223.5,-185 90.5,-185"/>
<text text-anchor="start" x="98" y="-191.8" font-family="Times,serif" font-size="14.00" fill="#000000">vocab:isoAlpha3</text>
<polygon fill="none" stroke="#000000" points="225.5,-185 225.5,-206 370.5,-206 370.5,-185 225.5,-185"/>
<text text-anchor="start" x="261.5" y="-191.8" font-family="Times,serif" font-size="14.00" fill="#000000">xsd:string</text>
<polygon fill="none" stroke="#000000" points="90.5,-162 90.5,-183 223.5,-183 223.5,-162 90.5,-162"/>
<text text-anchor="start" x="102" y="-168.8" font-family="Times,serif" font-size="14.00" fill="#000000">vocab:isoName</text>
<polygon fill="none" stroke="#000000" points="225.5,-162 225.5,-183 370.5,-183 370.5,-162 225.5,-162"/>
<text text-anchor="start" x="247" y="-168.8" font-family="Times,serif" font-size="14.00" fill="#000000">rdf:langString</text>
<polygon fill="none" stroke="#000000" points="90.5,-139 90.5,-160 223.5,-160 223.5,-139 90.5,-139"/>
<text text-anchor="start" x="93.5" y="-145.8" font-family="Times,serif" font-size="14.00" fill="#000000">vocab:isoNumber</text>
<polygon fill="none" stroke="#000000" points="225.5,-139 225.5,-160 370.5,-160 370.5,-139 225.5,-139"/>
<text text-anchor="start" x="228.5" y="-145.8" font-family="Times,serif" font-size="14.00" fill="#000000">xsd:positiveInteger</text>
<polygon fill="none" stroke="#000000" points="87.5,-136 87.5,-462 373.5,-462 373.5,-136 87.5,-136"/>
</a>
</g>
</g>
<!-- n2fc57b78a2dbe2a88b0b43d8333629a5&#45;&gt;nc4b1b71526297990ced7f9be84d0e6d4 -->
<g id="edge1" class="edge">
<title>n2fc57b78a2dbe2a88b0b43d8333629a5&#45;&gt;nc4b1b71526297990ced7f9be84d0e6d4</title>
<path fill="none" stroke="#000000" d="M230.5,-516.8733C230.5,-506.5496 230.5,-492.4795 230.5,-476.423"/>
<polygon fill="#000000" stroke="#000000" points="234.0001,-476.1846 230.5,-466.1846 227.0001,-476.1847 234.0001,-476.1846"/>
<text text-anchor="start" x="230.5" y="-487.8" font-family="Times,serif" font-size="14.00" fill="#000000">vocab:hasTemporalSlice</text>
</g>
<!-- nc4b1b71526297990ced7f9be84d0e6d4&#45;&gt;n600612a402206f6e454667e38d074ef5 -->
<g id="edge3" class="edge">
<title>nc4b1b71526297990ced7f9be84d0e6d4&#45;&gt;n600612a402206f6e454667e38d074ef5</title>
<path fill="none" stroke="#000000" d="M156.0447,-131.6374C149.5068,-116.9414 143.2901,-102.9673 137.7763,-90.5733"/>
<polygon fill="#000000" stroke="#000000" points="140.9658,-89.1317 133.7032,-81.4177 134.5701,-91.977 140.9658,-89.1317"/>
<text text-anchor="start" x="146.5" y="-102.8" font-family="Times,serif" font-size="14.00" fill="#000000">vocab:capital</text>
</g>
<!-- nc4dc8eed198bf9d5c08208c1220d092d -->
<g id="node4" class="node">
<title>nc4dc8eed198bf9d5c08208c1220d092d</title>
<g id="a_node4"><a xlink:href="https://iisg.amsterdam/vocab/TemporalSlice" xlink:title="&lt;TABLE&gt;">
<polygon fill="none" stroke="#000000" points="260.5,-29.5 260.5,-50.5 432.5,-50.5 432.5,-29.5 260.5,-29.5"/>
<text text-anchor="start" x="264" y="-37.3" font-family="Times,serif" font-weight="bold" font-size="14.00" fill="#000000">vocab:TemporalSlice</text>
<polygon fill="none" stroke="#000000" points="257.5,-27 257.5,-54 435.5,-54 435.5,-27 257.5,-27"/>
</a>
</g>
</g>
<!-- nc4b1b71526297990ced7f9be84d0e6d4&#45;&gt;nc4dc8eed198bf9d5c08208c1220d092d -->
<g id="edge2" class="edge">
<title>nc4b1b71526297990ced7f9be84d0e6d4&#45;&gt;nc4dc8eed198bf9d5c08208c1220d092d</title>
<path fill="none" stroke="#000000" d="M305.6027,-131.6374C316.5681,-107.2016 326.6378,-84.7618 334.0416,-68.263"/>
<polygon fill="#000000" stroke="#000000" points="337.3902,-69.3496 338.2911,-58.7931 331.0037,-66.4837 337.3902,-69.3496"/>
<text text-anchor="start" x="318.5" y="-102.8" font-family="Times,serif" font-size="14.00" fill="#000000">rdfs:subClassOf</text>
</g>
</g>
</svg>
