<?xml version="1.0" encoding="UTF-8" standalone="no"?>
<!DOCTYPE svg PUBLIC "-//W3C//DTD SVG 1.1//EN"
 "http://www.w3.org/Graphics/SVG/1.1/DTD/svg11.dtd">
<!-- Generated by graphviz version 2.40.1 (20161225.0304)
 -->
<!-- Title: class_hierarchy Pages: 1 -->
<svg width="1505pt" height="260pt"
 viewBox="0.00 0.00 1505.00 260.00" xmlns="http://www.w3.org/2000/svg" xmlns:xlink="http://www.w3.org/1999/xlink">
<g id="graph0" class="graph" transform="scale(1 1) rotate(0) translate(4 256)">
<title>class_hierarchy</title>
<polygon fill="#ffffff" stroke="transparent" points="-4,4 -4,-256 1501,-256 1501,4 -4,4"/>
<!-- n000e7b881593a5ea263bcf88d582412b -->
<g id="node1" class="node">
<title>n000e7b881593a5ea263bcf88d582412b</title>
<g id="a_node1"><a xlink:href="http://schema.org/CreativeWork" xlink:title="schema:CreativeWork">
<polygon fill="none" stroke="#000000" points="885.5,-252 709.5,-252 709.5,-216 885.5,-216 885.5,-252"/>
<text text-anchor="start" x="717.5" y="-230.3" font-family="Times,serif" font-size="14.00" fill="#000000">schema:CreativeWork</text>
</a>
</g>
</g>
<!-- nd58d29897cb3e1a73c644c23670a9aa2 -->
<g id="node2" class="node">
<title>nd58d29897cb3e1a73c644c23670a9aa2</title>
<g id="a_node2"><a xlink:href="http://purl.org/dc/dcmitype/Image" xlink:title="dctype:Image">
<polygon fill="none" stroke="#000000" points="328,-180 213,-180 213,-144 328,-144 328,-180"/>
<text text-anchor="start" x="221" y="-158.3" font-family="Times,serif" font-size="14.00" fill="#000000">dctype:Image</text>
</a>
</g>
</g>
<!-- n000e7b881593a5ea263bcf88d582412b&#45;&gt;nd58d29897cb3e1a73c644c23670a9aa2 -->
<g id="edge1" class="edge">
<title>n000e7b881593a5ea263bcf88d582412b&#45;&gt;nd58d29897cb3e1a73c644c23670a9aa2</title>
<g id="a_edge1"><a xlink:href="http://www.w3.org/2000/01/rdf-schema#subClassOf">
<path fill="none" stroke="#000000" d="M699.1374,-226.6272C605.5644,-218.6314 461.1206,-203.7309 337.5,-180 334.4246,-179.4096 331.2828,-178.7535 328.1198,-178.0511"/>
<polygon fill="none" stroke="#000000" points="698.9008,-230.1196 709.16,-227.4738 699.4901,-223.1444 698.9008,-230.1196"/>
</a>
</g>
</g>
<!-- na53fe4ce0b38c4f997487d684d47ec70 -->
<g id="node4" class="node">
<title>na53fe4ce0b38c4f997487d684d47ec70</title>
<g id="a_node4"><a xlink:href="http://purl.org/dc/dcmitype/PhysicalObject" xlink:title="dctype:PhysicalObject">
<polygon fill="none" stroke="#000000" points="524.5,-180 346.5,-180 346.5,-144 524.5,-144 524.5,-180"/>
<text text-anchor="start" x="354.5" y="-158.3" font-family="Times,serif" font-size="14.00" fill="#000000">dctype:PhysicalObject</text>
</a>
</g>
</g>
<!-- n000e7b881593a5ea263bcf88d582412b&#45;&gt;na53fe4ce0b38c4f997487d684d47ec70 -->
<g id="edge3" class="edge">
<title>n000e7b881593a5ea263bcf88d582412b&#45;&gt;na53fe4ce0b38c4f997487d684d47ec70</title>
<g id="a_edge3"><a xlink:href="http://www.w3.org/2000/01/rdf-schema#subClassOf">
<path fill="none" stroke="#000000" d="M699.3869,-214.4858C644.8888,-203.6464 577.6039,-190.2638 524.6167,-179.7249"/>
<polygon fill="none" stroke="#000000" points="698.9171,-217.9608 709.4077,-216.4789 700.2826,-211.0953 698.9171,-217.9608"/>
</a>
</g>
</g>
<!-- n4d9f5e28e99094e1aed3a120823444aa -->
<g id="node5" class="node">
<title>n4d9f5e28e99094e1aed3a120823444aa</title>
<g id="a_node5"><a xlink:href="http://purl.org/dc/dcmitype/Sound" xlink:title="dctype:Sound">
<polygon fill="none" stroke="#000000" points="658,-180 543,-180 543,-144 658,-144 658,-180"/>
<text text-anchor="start" x="551" y="-158.3" font-family="Times,serif" font-size="14.00" fill="#000000">dctype:Sound</text>
</a>
</g>
</g>
<!-- n000e7b881593a5ea263bcf88d582412b&#45;&gt;n4d9f5e28e99094e1aed3a120823444aa -->
<g id="edge4" class="edge">
<title>n000e7b881593a5ea263bcf88d582412b&#45;&gt;n4d9f5e28e99094e1aed3a120823444aa</title>
<g id="a_edge4"><a xlink:href="http://www.w3.org/2000/01/rdf-schema#subClassOf">
<path fill="none" stroke="#000000" d="M738.306,-212.3657C710.1189,-202.0638 676.7947,-189.8844 649.9775,-180.0831"/>
<polygon fill="none" stroke="#000000" points="737.449,-215.7788 748.0429,-215.9243 739.852,-209.2042 737.449,-215.7788"/>
</a>
</g>
</g>
<!-- n6651f98e466f72e06816b08247602460 -->
<g id="node7" class="node">
<title>n6651f98e466f72e06816b08247602460</title>
<g id="a_node7"><a xlink:href="http://purl.org/dc/dcmitype/Text" xlink:title="dctype:Text">
<polygon fill="none" stroke="#000000" points="777,-180 676,-180 676,-144 777,-144 777,-180"/>
<text text-anchor="start" x="684" y="-158.3" font-family="Times,serif" font-size="14.00" fill="#000000">dctype:Text</text>
</a>
</g>
</g>
<!-- n000e7b881593a5ea263bcf88d582412b&#45;&gt;n6651f98e466f72e06816b08247602460 -->
<g id="edge6" class="edge">
<title>n000e7b881593a5ea263bcf88d582412b&#45;&gt;n6651f98e466f72e06816b08247602460</title>
<g id="a_edge6"><a xlink:href="http://www.w3.org/2000/01/rdf-schema#subClassOf">
<path fill="none" stroke="#000000" d="M772.4984,-208.6463C763.3227,-199.3414 753.1189,-188.9938 744.6575,-180.4133"/>
<polygon fill="none" stroke="#000000" points="770.0701,-211.1685 779.5837,-215.8314 775.0544,-206.2535 770.0701,-211.1685"/>
</a>
</g>
</g>
<!-- n8230df1420bebd1568ee052d771f0482 -->
<g id="node8" class="node">
<title>n8230df1420bebd1568ee052d771f0482</title>
<g id="a_node8"><a xlink:href="http://schema.org/Collection" xlink:title="schema:Collection">
<polygon fill="none" stroke="#000000" points="944,-180 795,-180 795,-144 944,-144 944,-180"/>
<text text-anchor="start" x="803" y="-158.3" font-family="Times,serif" font-size="14.00" fill="#000000">schema:Collection</text>
</a>
</g>
</g>
<!-- n000e7b881593a5ea263bcf88d582412b&#45;&gt;n8230df1420bebd1568ee052d771f0482 -->
<g id="edge7" class="edge">
<title>n000e7b881593a5ea263bcf88d582412b&#45;&gt;n8230df1420bebd1568ee052d771f0482</title>
<g id="a_edge7"><a xlink:href="http://www.w3.org/2000/01/rdf-schema#subClassOf">
<path fill="none" stroke="#000000" d="M822.8537,-208.6463C832.1586,-199.3414 842.5062,-188.9938 851.0867,-180.4133"/>
<polygon fill="none" stroke="#000000" points="820.2649,-206.2854 815.6686,-215.8314 825.2146,-211.2351 820.2649,-206.2854"/>
</a>
</g>
</g>
<!-- n3d4650a7d29d7d5cbe9986a6e5332a86 -->
<g id="node9" class="node">
<title>n3d4650a7d29d7d5cbe9986a6e5332a86</title>
<g id="a_node9"><a xlink:href="http://schema.org/ComicStory" xlink:title="schema:ComicStory">
<polygon fill="none" stroke="#000000" points="1123,-180 962,-180 962,-144 1123,-144 1123,-180"/>
<text text-anchor="start" x="970" y="-158.3" font-family="Times,serif" font-size="14.00" fill="#000000">schema:ComicStory</text>
</a>
</g>
</g>
<!-- n000e7b881593a5ea263bcf88d582412b&#45;&gt;n3d4650a7d29d7d5cbe9986a6e5332a86 -->
<g id="edge8" class="edge">
<title>n000e7b881593a5ea263bcf88d582412b&#45;&gt;n3d4650a7d29d7d5cbe9986a6e5332a86</title>
<g id="a_edge8"><a xlink:href="http://www.w3.org/2000/01/rdf-schema#subClassOf">
<path fill="none" stroke="#000000" d="M868.8299,-213.0377C904.3583,-202.5967 946.8875,-190.0984 980.9671,-180.0831"/>
<polygon fill="none" stroke="#000000" points="867.615,-209.7467 859.0076,-215.9243 869.5888,-216.4627 867.615,-209.7467"/>
</a>
</g>
</g>
<!-- n1e626bc585dafec66205a1cb1af77a03 -->
<g id="node10" class="node">
<title>n1e626bc585dafec66205a1cb1af77a03</title>
<g id="a_node10"><a xlink:href="http://schema.org/CreativeWorkSeries" xlink:title="schema:CreativeWorkSeries">
<polygon fill="none" stroke="#000000" points="1362,-180 1141,-180 1141,-144 1362,-144 1362,-180"/>
<text text-anchor="start" x="1149" y="-158.3" font-family="Times,serif" font-size="14.00" fill="#000000">schema:CreativeWorkSeries</text>
</a>
</g>
</g>
<!-- n000e7b881593a5ea263bcf88d582412b&#45;&gt;n1e626bc585dafec66205a1cb1af77a03 -->
<g id="edge9" class="edge">
<title>n000e7b881593a5ea263bcf88d582412b&#45;&gt;n1e626bc585dafec66205a1cb1af77a03</title>
<g id="a_edge9"><a xlink:href="http://www.w3.org/2000/01/rdf-schema#subClassOf">
<path fill="none" stroke="#000000" d="M895.5739,-218.4464C967.7003,-207.0079 1065.806,-191.4493 1140.7539,-179.5633"/>
<polygon fill="none" stroke="#000000" points="894.9024,-215.0091 885.5741,-220.0323 895.9989,-221.9227 894.9024,-215.0091"/>
</a>
</g>
</g>
<!-- nc9cdb7614fd430d00b0931d98c3fd83b -->
<g id="node11" class="node">
<title>nc9cdb7614fd430d00b0931d98c3fd83b</title>
<g id="a_node11"><a xlink:href="http://schema.org/Game" xlink:title="schema:Game">
<polygon fill="none" stroke="#000000" points="1497,-180 1380,-180 1380,-144 1497,-144 1497,-180"/>
<text text-anchor="start" x="1388" y="-158.3" font-family="Times,serif" font-size="14.00" fill="#000000">schema:Game</text>
</a>
</g>
</g>
<!-- n000e7b881593a5ea263bcf88d582412b&#45;&gt;nc9cdb7614fd430d00b0931d98c3fd83b -->
<g id="edge10" class="edge">
<title>n000e7b881593a5ea263bcf88d582412b&#45;&gt;nc9cdb7614fd430d00b0931d98c3fd83b</title>
<g id="a_edge10"><a xlink:href="http://www.w3.org/2000/01/rdf-schema#subClassOf">
<path fill="none" stroke="#000000" d="M895.8215,-229.7991C1010.68,-223.7289 1206.0722,-209.7833 1371.5,-180 1374.2264,-179.5091 1377.0037,-178.9612 1379.8007,-178.3704"/>
<polygon fill="none" stroke="#000000" points="895.45,-226.3136 885.645,-230.3274 895.813,-233.3042 895.45,-226.3136"/>
</a>
</g>
</g>
<!-- n440fbb6bd1c314c4818626a8c44e16b8 -->
<g id="node3" class="node">
<title>n440fbb6bd1c314c4818626a8c44e16b8</title>
<g id="a_node3"><a xlink:href="http://purl.org/dc/dcmitype/MovingImage" xlink:title="dctype:MovingImage">
<polygon fill="none" stroke="#000000" points="267.5,-108 99.5,-108 99.5,-72 267.5,-72 267.5,-108"/>
<text text-anchor="start" x="107.5" y="-86.3" font-family="Times,serif" font-size="14.00" fill="#000000">dctype:MovingImage</text>
</a>
</g>
</g>
<!-- nd58d29897cb3e1a73c644c23670a9aa2&#45;&gt;n440fbb6bd1c314c4818626a8c44e16b8 -->
<g id="edge2" class="edge">
<title>nd58d29897cb3e1a73c644c23670a9aa2&#45;&gt;n440fbb6bd1c314c4818626a8c44e16b8</title>
<g id="a_edge2"><a xlink:href="http://www.w3.org/2000/01/rdf-schema#subClassOf">
<path fill="none" stroke="#000000" d="M240.8014,-137.4219C229.2106,-127.8295 216.1614,-117.0301 205.4467,-108.1628"/>
<polygon fill="none" stroke="#000000" points="238.6108,-140.152 248.5462,-143.8314 243.0738,-134.7593 238.6108,-140.152"/>
</a>
</g>
</g>
<!-- n914b0b62ec8a86e2390a93c51887d9af -->
<g id="node6" class="node">
<title>n914b0b62ec8a86e2390a93c51887d9af</title>
<g id="a_node6"><a xlink:href="http://purl.org/dc/dcmitype/StillImage" xlink:title="dctype:StillImage">
<polygon fill="none" stroke="#000000" points="429.5,-108 285.5,-108 285.5,-72 429.5,-72 429.5,-108"/>
<text text-anchor="start" x="293.5" y="-86.3" font-family="Times,serif" font-size="14.00" fill="#000000">dctype:StillImage</text>
</a>
</g>
</g>
<!-- nd58d29897cb3e1a73c644c23670a9aa2&#45;&gt;n914b0b62ec8a86e2390a93c51887d9af -->
<g id="edge5" class="edge">
<title>nd58d29897cb3e1a73c644c23670a9aa2&#45;&gt;n914b0b62ec8a86e2390a93c51887d9af</title>
<g id="a_edge5"><a xlink:href="http://www.w3.org/2000/01/rdf-schema#subClassOf">
<path fill="none" stroke="#000000" d="M300.1986,-137.4219C311.7894,-127.8295 324.8386,-117.0301 335.5533,-108.1628"/>
<polygon fill="none" stroke="#000000" points="297.9262,-134.7593 292.4538,-143.8314 302.3892,-140.152 297.9262,-134.7593"/>
</a>
</g>
</g>
<!-- n13380fad0ab74703e83e5936c33e1162 -->
<g id="node12" class="node">
<title>n13380fad0ab74703e83e5936c33e1162</title>
<g id="a_node12"><a xlink:href="http://schema.org/Photograph" xlink:title="schema:Photograph">
<polygon fill="none" stroke="#000000" points="159,-36 0,-36 0,0 159,0 159,-36"/>
<text text-anchor="start" x="8" y="-14.3" font-family="Times,serif" font-size="14.00" fill="#000000">schema:Photograph</text>
</a>
</g>
</g>
<!-- n914b0b62ec8a86e2390a93c51887d9af&#45;&gt;n13380fad0ab74703e83e5936c33e1162 -->
<g id="edge11" class="edge">
<title>n914b0b62ec8a86e2390a93c51887d9af&#45;&gt;n13380fad0ab74703e83e5936c33e1162</title>
<g id="a_edge11"><a xlink:href="http://www.w3.org/2000/01/rdf-schema#subClassOf">
<path fill="none" stroke="#000000" d="M277.8517,-69.3717C237.2808,-58.8641 188.4041,-46.2054 149.321,-36.0831"/>
<polygon fill="none" stroke="#000000" points="277.1495,-72.8052 287.7077,-71.9243 278.9046,-66.0288 277.1495,-72.8052"/>
</a>
</g>
</g>
<!-- n38c25d27708212c634929053b7aaa0a1 -->
<g id="node13" class="node">
<title>n38c25d27708212c634929053b7aaa0a1</title>
<g id="a_node13"><a xlink:href="https://iisg.amsterdam/vocab/Drawing" xlink:title="iisg:Drawing">
<polygon fill="none" stroke="#000000" points="284,-36 177,-36 177,0 284,0 284,-36"/>
<text text-anchor="start" x="185" y="-14.3" font-family="Times,serif" font-size="14.00" fill="#000000">iisg:Drawing</text>
</a>
</g>
</g>
<!-- n914b0b62ec8a86e2390a93c51887d9af&#45;&gt;n38c25d27708212c634929053b7aaa0a1 -->
<g id="edge12" class="edge">
<title>n914b0b62ec8a86e2390a93c51887d9af&#45;&gt;n38c25d27708212c634929053b7aaa0a1</title>
<g id="a_edge12"><a xlink:href="http://www.w3.org/2000/01/rdf-schema#subClassOf">
<path fill="none" stroke="#000000" d="M316.5719,-66.7967C299.0665,-56.8724 278.9301,-45.4565 262.5372,-36.1628"/>
<polygon fill="none" stroke="#000000" points="315.0271,-69.9442 325.4525,-71.8314 318.4794,-63.8547 315.0271,-69.9442"/>
</a>
</g>
</g>
<!-- nfe5bd5672edfd8aac6023477998fbdf0 -->
<g id="node15" class="node">
<title>nfe5bd5672edfd8aac6023477998fbdf0</title>
<g id="a_node15"><a xlink:href="https://iisg.amsterdam/vocab/Postcard" xlink:title="iisg:Postcard">
<polygon fill="none" stroke="#000000" points="412.5,-36 302.5,-36 302.5,0 412.5,0 412.5,-36"/>
<text text-anchor="start" x="310.5" y="-14.3" font-family="Times,serif" font-size="14.00" fill="#000000">iisg:Postcard</text>
</a>
</g>
</g>
<!-- n914b0b62ec8a86e2390a93c51887d9af&#45;&gt;nfe5bd5672edfd8aac6023477998fbdf0 -->
<g id="edge14" class="edge">
<title>n914b0b62ec8a86e2390a93c51887d9af&#45;&gt;nfe5bd5672edfd8aac6023477998fbdf0</title>
<g id="a_edge14"><a xlink:href="http://www.w3.org/2000/01/rdf-schema#subClassOf">
<path fill="none" stroke="#000000" d="M357.5,-61.5726C357.5,-53.1084 357.5,-44.0593 357.5,-36.4133"/>
<polygon fill="none" stroke="#000000" points="354.0001,-61.8313 357.5,-71.8314 361.0001,-61.8314 354.0001,-61.8313"/>
</a>
</g>
</g>
<!-- n3b72caa20f7b1d43ce3ab7757564f1e5 -->
<g id="node16" class="node">
<title>n3b72caa20f7b1d43ce3ab7757564f1e5</title>
<g id="a_node16"><a xlink:href="https://iisg.amsterdam/vocab/Poster" xlink:title="iisg:Poster">
<polygon fill="none" stroke="#000000" points="522.5,-36 430.5,-36 430.5,0 522.5,0 522.5,-36"/>
<text text-anchor="start" x="438.5" y="-14.3" font-family="Times,serif" font-size="14.00" fill="#000000">iisg:Poster</text>
</a>
</g>
</g>
<!-- n914b0b62ec8a86e2390a93c51887d9af&#45;&gt;n3b72caa20f7b1d43ce3ab7757564f1e5 -->
<g id="edge15" class="edge">
<title>n914b0b62ec8a86e2390a93c51887d9af&#45;&gt;n3b72caa20f7b1d43ce3ab7757564f1e5</title>
<g id="a_edge15"><a xlink:href="http://www.w3.org/2000/01/rdf-schema#subClassOf">
<path fill="none" stroke="#000000" d="M396.302,-66.5232C412.5985,-56.6631 431.2615,-45.3712 446.4809,-36.1628"/>
<polygon fill="none" stroke="#000000" points="394.2727,-63.6601 387.5287,-71.8314 397.8964,-69.6492 394.2727,-63.6601"/>
</a>
</g>
</g>
<!-- n99882789f5514ec56c7c73f26afc8ea4 -->
<g id="node17" class="node">
<title>n99882789f5514ec56c7c73f26afc8ea4</title>
<g id="a_node17"><a xlink:href="https://iisg.amsterdam/vocab/Print" xlink:title="iisg:Print">
<polygon fill="none" stroke="#000000" points="624,-36 541,-36 541,0 624,0 624,-36"/>
<text text-anchor="start" x="549" y="-14.3" font-family="Times,serif" font-size="14.00" fill="#000000">iisg:Print</text>
</a>
</g>
</g>
<!-- n914b0b62ec8a86e2390a93c51887d9af&#45;&gt;n99882789f5514ec56c7c73f26afc8ea4 -->
<g id="edge16" class="edge">
<title>n914b0b62ec8a86e2390a93c51887d9af&#45;&gt;n99882789f5514ec56c7c73f26afc8ea4</title>
<g id="a_edge16"><a xlink:href="http://www.w3.org/2000/01/rdf-schema#subClassOf">
<path fill="none" stroke="#000000" d="M427.3477,-68.9926C459.2039,-59.2399 497.3536,-47.3198 531.5,-36 534.5302,-34.9955 537.6552,-33.9402 540.7962,-32.8655"/>
<polygon fill="none" stroke="#000000" points="426.2164,-65.6785 417.6748,-71.9467 428.261,-72.3732 426.2164,-65.6785"/>
</a>
</g>
</g>
<!-- n10148d3a0b90a87536d106c2b9c75865 -->
<g id="node14" class="node">
<title>n10148d3a0b90a87536d106c2b9c75865</title>
<g id="a_node14"><a xlink:href="https://iisg.amsterdam/vocab/ImageCollection" xlink:title="iisg:ImageCollection">
<polygon fill="none" stroke="#000000" points="951.5,-108 787.5,-108 787.5,-72 951.5,-72 951.5,-108"/>
<text text-anchor="start" x="795.5" y="-86.3" font-family="Times,serif" font-size="14.00" fill="#000000">iisg:ImageCollection</text>
</a>
</g>
</g>
<!-- n8230df1420bebd1568ee052d771f0482&#45;&gt;n10148d3a0b90a87536d106c2b9c75865 -->
<g id="edge13" class="edge">
<title>n8230df1420bebd1568ee052d771f0482&#45;&gt;n10148d3a0b90a87536d106c2b9c75865</title>
<g id="a_edge13"><a xlink:href="http://www.w3.org/2000/01/rdf-schema#subClassOf">
<path fill="none" stroke="#000000" d="M869.5,-133.5726C869.5,-125.1084 869.5,-116.0593 869.5,-108.4133"/>
<polygon fill="none" stroke="#000000" points="866.0001,-133.8313 869.5,-143.8314 873.0001,-133.8314 866.0001,-133.8313"/>
</a>
</g>
</g>
</g>
</svg>
