<?xml version="1.0" encoding="UTF-8" standalone="no"?>
<!DOCTYPE svg PUBLIC "-//W3C//DTD SVG 1.1//EN"
 "http://www.w3.org/Graphics/SVG/1.1/DTD/svg11.dtd">
<!-- Generated by graphviz version 2.40.1 (20161225.0304)
 -->
<!-- Title: links Pages: 1 -->
<svg width="654pt" height="360pt"
 viewBox="0.00 0.00 654.29 360.00" xmlns="http://www.w3.org/2000/svg" xmlns:xlink="http://www.w3.org/1999/xlink">
<g id="graph0" class="graph" transform="scale(.2585 .2585) rotate(0) translate(4 1388.6673)">
<title>links</title>
<polygon fill="#ffffff" stroke="transparent" points="-4,4 -4,-1388.6673 2527.1333,-1388.6673 2527.1333,4 -4,4"/>
<g id="clust1" class="cluster">
<title>cluster_0</title>
<polygon fill="none" stroke="#000000" points="23.1333,-8 23.1333,-1376.6673 535.1333,-1376.6673 535.1333,-8 23.1333,-8"/>
<text text-anchor="middle" x="279.1333" y="-1355.0673" font-family="Times,serif" font-size="22.00" fill="#000000">IISG Knowlege Graph</text>
</g>
<g id="clust2" class="cluster">
<title>cluster_1</title>
<polygon fill="none" stroke="#000000" points="543.1333,-359.3696 543.1333,-684.5555 1458.1333,-684.5555 1458.1333,-359.3696 543.1333,-359.3696"/>
<text text-anchor="middle" x="1000.6333" y="-662.9555" font-family="Times,serif" font-size="22.00" fill="#000000">External Vocabularies</text>
</g>
<g id="clust3" class="cluster">
<title>cluster_2</title>
<polygon fill="none" stroke="#000000" points="1466.1333,-416.6453 1466.1333,-627.2798 1962.1333,-627.2798 1962.1333,-416.6453 1466.1333,-416.6453"/>
<text text-anchor="middle" x="1714.1333" y="-605.6798" font-family="Times,serif" font-size="22.00" fill="#000000">External datasets</text>
</g>
<g id="clust4" class="cluster">
<title>cluster_3</title>
<polygon fill="none" stroke="#000000" points="1970.1333,-318.3574 1970.1333,-725.5677 2515.1333,-725.5677 2515.1333,-318.3574 1970.1333,-318.3574"/>
<text text-anchor="middle" x="2242.6333" y="-703.9677" font-family="Times,serif" font-size="22.00" fill="#000000">nlGis</text>
</g>
<!-- archive -->
<g id="node1" class="node">
<title>archive</title>
<ellipse fill="#d3d3d3" stroke="#000000" cx="255.1333" cy="-1218.5805" rx="118.1737" ry="118.1737"/>
<text text-anchor="start" x="179.6333" y="-1224.9805" font-family="Times,serif" font-size="22.00" fill="#000000">IISG Archives</text>
<text text-anchor="start" x="222.1333" y="-1200.9805" font-family="Times,serif" font-size="22.00" fill="#000000">(EAD)</text>
</g>
<!-- collection -->
<g id="node2" class="node">
<title>collection</title>
<ellipse fill="#d3d3d3" stroke="#000000" cx="362.1333" cy="-899.0307" rx="165.426" ry="165.426"/>
<text text-anchor="start" x="260.1333" y="-905.4307" font-family="Times,serif" font-size="22.00" fill="#000000">IISG Collections &amp;</text>
<text text-anchor="start" x="253.1333" y="-881.4307" font-family="Times,serif" font-size="22.00" fill="#000000">Authorities (MARC)</text>
</g>
<!-- archive&#45;&#45;collection -->
<g id="edge1" class="edge">
<title>archive&#45;&#45;collection</title>
<path fill="none" stroke="#000000" d="M292.7071,-1106.3685C298.1567,-1090.0935 303.8489,-1073.0941 309.5276,-1056.1347"/>
</g>
<!-- vocab -->
<g id="node5" class="node">
<title>vocab</title>
<ellipse fill="#d3d3d3" stroke="#000000" cx="219.1333" cy="-153.1787" rx="137.3577" ry="137.3577"/>
<text text-anchor="start" x="130.1333" y="-147.5787" font-family="Times,serif" font-size="22.00" fill="#000000">IISG Vocabulary</text>
</g>
<!-- archive&#45;&#45;vocab -->
<g id="edge2" class="edge">
<title>archive&#45;&#45;vocab</title>
<path fill="none" stroke="#000000" d="M195.966,-1115.9459C143.7145,-1018.9615 71.4172,-867.5664 42.1333,-725.5677 5.5793,-548.3153 -30.0022,-484.3426 42.1333,-318.3574 56.3732,-285.5912 80.6702,-256.3737 106.776,-231.9607"/>
</g>
<!-- datasets -->
<g id="node3" class="node">
<title>datasets</title>
<ellipse fill="#d3d3d3" stroke="#000000" cx="408.1333" cy="-505.9626" rx="118.5882" ry="118.5882"/>
<text text-anchor="start" x="332.1333" y="-512.3626" font-family="Times,serif" font-size="22.00" fill="#000000">IISG Datasets</text>
<text text-anchor="start" x="343.1333" y="-488.3626" font-family="Times,serif" font-size="22.00" fill="#000000">(DataVerse)</text>
</g>
<!-- collection&#45;&#45;datasets -->
<g id="edge3" class="edge">
<title>collection&#45;&#45;datasets</title>
<path fill="none" stroke="#000000" d="M381.3749,-734.6119C385.7203,-697.4811 390.2496,-658.7784 394.3196,-624"/>
</g>
<!-- sor -->
<g id="node4" class="node">
<title>sor</title>
<ellipse fill="#d3d3d3" stroke="#000000" cx="151.1333" cy="-505.9626" rx="99.9045" ry="99.9045"/>
<text text-anchor="start" x="88.6333" y="-512.3626" font-family="Times,serif" font-size="22.00" fill="#000000">IISG Media</text>
<text text-anchor="start" x="117.6333" y="-488.3626" font-family="Times,serif" font-size="22.00" fill="#000000">(SOR)</text>
</g>
<!-- collection&#45;&#45;sor -->
<g id="edge7" class="edge">
<title>collection&#45;&#45;sor</title>
<path fill="none" stroke="#000000" d="M280.8167,-754.4025C275.4764,-744.6622 270.2082,-734.9833 265.1333,-725.5677 242.1025,-682.8379 217.1919,-635.0427 196.5483,-594.9794"/>
</g>
<!-- collection&#45;&#45;vocab -->
<g id="edge8" class="edge">
<title>collection&#45;&#45;vocab</title>
<path fill="none" stroke="#000000" d="M287.5928,-750.9166C284.7589,-742.4532 282.2368,-733.9691 280.1333,-725.5677 236.1236,-549.7929 286.5282,-497.6252 260.1333,-318.3574 258.5839,-307.8339 256.6594,-297.0037 254.4961,-286.1611"/>
</g>
<!-- loc -->
<g id="node8" class="node">
<title>loc</title>
<ellipse fill="none" stroke="#000000" cx="879.1333" cy="-505.9626" rx="138.6859" ry="138.6859"/>
<text text-anchor="middle" x="879.1333" y="-501.5626" font-family="Times,serif" font-size="18.00" fill="#000000">Library of Congress</text>
</g>
<!-- collection&#45;&#45;loc -->
<g id="edge6" class="edge">
<title>collection&#45;&#45;loc</title>
<path fill="none" stroke="#000000" d="M535.132,-840.8246C601.4988,-812.9092 674.9512,-774.683 732.1333,-725.5677 746.3986,-713.3149 759.8642,-699.356 772.4205,-684.5516"/>
</g>
<!-- lexvo -->
<g id="node11" class="node">
<title>lexvo</title>
<ellipse fill="none" stroke="#000000" cx="1723.1333" cy="-505.9626" rx="50.41" ry="50.41"/>
<text text-anchor="middle" x="1723.1333" y="-501.5626" font-family="Times,serif" font-size="18.00" fill="#000000">Lexvo</text>
</g>
<!-- collection&#45;&#45;lexvo -->
<g id="edge5" class="edge">
<title>collection&#45;&#45;lexvo</title>
<path fill="none" stroke="#000000" d="M535.1307,-886.5658C869.6078,-860.949 1579.5661,-798.6136 1663.1333,-725.5677 1691.5816,-700.7012 1707.1499,-663.7817 1715.4907,-627.2792"/>
</g>
<!-- gg -->
<g id="node15" class="node">
<title>gg</title>
<ellipse fill="#d3d3d3" stroke="#000000" cx="2158.1333" cy="-505.9626" rx="179.7103" ry="179.7103"/>
<text text-anchor="middle" x="2158.1333" y="-500.9626" font-family="Times,serif" font-size="20.00" fill="#000000">Gemeentegeschiedenis</text>
</g>
<!-- collection&#45;&#45;gg -->
<g id="edge4" class="edge">
<title>collection&#45;&#45;gg</title>
<path fill="none" stroke="#000000" d="M535.1315,-896.0451C896.9544,-887.2881 1720.4469,-853.4888 1966.1333,-725.5677 1967.4726,-724.8704 1968.8067,-724.1595 1970.1356,-723.4355"/>
</g>
<!-- datasets&#45;&#45;vocab -->
<g id="edge9" class="edge">
<title>datasets&#45;&#45;vocab</title>
<path fill="none" stroke="#000000" d="M351.9388,-401.0709C330.6115,-361.2619 306.1509,-315.6041 284.0813,-274.4095"/>
</g>
<!-- sor&#45;&#45;vocab -->
<g id="edge10" class="edge">
<title>sor&#45;&#45;vocab</title>
<path fill="none" stroke="#000000" d="M170.0751,-407.6926C177.2077,-370.6886 185.4483,-327.9365 193.115,-288.1616"/>
</g>
<!-- bib_schema_org -->
<g id="node6" class="node">
<title>bib_schema_org</title>
<ellipse fill="none" stroke="#000000" cx="1340.1333" cy="-505.9626" rx="109.7032" ry="109.7032"/>
<text text-anchor="middle" x="1340.1333" y="-501.5626" font-family="Times,serif" font-size="18.00" fill="#000000">bib.schema.org</text>
</g>
<!-- dcmit -->
<g id="node7" class="node">
<title>dcmit</title>
<ellipse fill="none" stroke="#000000" cx="1124.1333" cy="-505.9626" rx="88.2768" ry="88.2768"/>
<text text-anchor="middle" x="1124.1333" y="-501.5626" font-family="Times,serif" font-size="18.00" fill="#000000">Dublin Core</text>
</g>
<!-- schema_org -->
<g id="node9" class="node">
<title>schema_org</title>
<ellipse fill="none" stroke="#000000" cx="637.1333" cy="-505.9626" rx="85.6199" ry="85.6199"/>
<text text-anchor="middle" x="637.1333" y="-501.5626" font-family="Times,serif" font-size="18.00" fill="#000000">schema.org</text>
</g>
<!-- geonames -->
<g id="node10" class="node">
<title>geonames</title>
<ellipse fill="none" stroke="#000000" cx="1873.1333" cy="-505.9626" rx="81.135" ry="81.135"/>
<text text-anchor="middle" x="1873.1333" y="-501.5626" font-family="Times,serif" font-size="18.00" fill="#000000">GeoNames</text>
</g>
<!-- oclc -->
<g id="node12" class="node">
<title>oclc</title>
<ellipse fill="none" stroke="#000000" cx="1617.1333" cy="-505.9626" rx="37.4533" ry="37.4533"/>
<text text-anchor="middle" x="1617.1333" y="-501.5626" font-family="Times,serif" font-size="18.00" fill="#000000">oclc</text>
</g>
<!-- viaf -->
<g id="node13" class="node">
<title>viaf</title>
<ellipse fill="none" stroke="#000000" cx="1518.1333" cy="-505.9626" rx="43.6818" ry="43.6818"/>
<text text-anchor="middle" x="1518.1333" y="-501.5626" font-family="Times,serif" font-size="18.00" fill="#000000">VIAF</text>
</g>
<!-- cshapes -->
<g id="node14" class="node">
<title>cshapes</title>
<ellipse fill="#d3d3d3" stroke="#000000" cx="2431.1333" cy="-505.9626" rx="75.8212" ry="75.8212"/>
<text text-anchor="middle" x="2431.1333" y="-500.9626" font-family="Times,serif" font-size="20.00" fill="#000000">CShapes</text>
</g>
</g>
</svg>
