<?xml version="1.0" encoding="UTF-8"?>
<!-- Generator: Adobe Illustrator 14.0.0, SVG Export Plug-In . SVG Version: 6.00 Build 43363)  -->
<!DOCTYPE svg PUBLIC "-//W3C//DTD SVG 1.1//EN" "http://www.w3.org/Graphics/SVG/1.1/DTD/svg11.dtd">
<svg version="1.1" id="Layer_1" xmlns="http://www.w3.org/2000/svg" xmlns:xlink="http://www.w3.org/1999/xlink" x="0px" y="0px" width="400px" height="400px" viewBox="0 0 400 400" enable-background="new 0 0 400 400" xml:space="preserve">
<g>
	<path fill="#006BB6" d="M326.561,175.348c2.648,3.957,2.47,9.134,3.005,13.775c-0.179,9.833,0.685,21.54-1.071,31.536   c-0.893,4.15-3.689,8.45-8.092,10.012c-7.051,3.094-16.572,2.231-23.087-1.383c-5.475-3.794-6.159-10.16-6.873-16.2   c-0.535-11.9-1.428-24.47,1.935-35.344c2.647-6.709,9.877-8.435,16.393-8.955C315.642,168.788,322.336,169.829,326.561,175.348"/>
	<path fill="#006BB6" d="M230.494,326.127l-1.22,1.041c-18.356,3.957-38.848,4.121-57.212-0.357l1.384-1.547   C189.579,314.747,214.726,314.747,230.494,326.127 M168.418,322.17l-3.474,2.752c-14.578-3.793-28.1-10.339-40.595-19.294v-0.521   c4.172-2.588,8.338-5.34,12.845-7.229C147.079,307.681,157.313,315.104,168.418,322.17 M278.363,305.107   c-9.698,7.75-20.975,12.927-32.429,17.227l-8.151,2.588c-1.369-0.699-2.589-1.711-3.809-2.752l0.328-0.521   c11.126-6.546,21.182-14.474,30.703-23.95C269.706,299.604,274.198,302.177,278.363,305.107 M259.828,295.289   c-5.562,6.367-12.674,11.887-19.278,16.542c-3.986,2.41-7.974,4.999-12.139,7.066l-7.468-3.272l0.536-1.205   c6.247-8.449,11.812-17.062,16.661-26.196l0.505-0.356C246.113,289.592,253.224,292.018,259.828,295.289 M164.432,288.045   c5.021,9.477,11.268,18.432,17.516,27.387c-2.439,1.398-5.377,2.261-7.817,3.629c-11.439-5.682-22.373-13.611-31.559-23.087v-0.521   c6.761-3.272,13.872-5.683,21.153-7.586L164.432,288.045z M232.934,286.498l0.148,0.521c-4.819,9.298-10.918,18.253-17.493,26.702   c-2.945,0.342-5.712-0.863-8.688-1.041l-2.916-0.328c-0.356-10.175-0.535-19.145,0-29.305   C213.863,283.226,223.74,284.252,232.934,286.498 M198.757,312.174c-3.63,0.862-7.624,0.862-11.097,1.725   c-7.118-8.449-13.009-17.582-18.037-27.059l0.87-0.699c9.015-1.71,18.386-3.094,28.1-3.094L198.757,312.174z M162.341,272.545   c-1.74,0-3.645-0.357-4.857,0.164l4.336,10.159l-0.513,0.521c-7.817,2.232-15.448,4.999-22.894,8.107l-0.707-0.356   c-4.857-5.325-9.536-11.187-13.358-17.062c-0.848-2.916-4.321-1.205-6.225-1.532c4.157,7.571,9.698,14.295,15.262,21.183   c-4.693,2.767-9.371,5.876-14.229,8.107c-10.405-7.929-20.126-18.268-27.4-29.126c-2.09-0.343-3.474-0.164-5.549,0   c12.473,19.65,31.916,36.876,52.206,47.036l0.164-0.163l0.186,0.52c13.693,6.709,28.256,11.544,43.697,13.611   c53.239,7.066,104.055-15.857,133.538-61.004c-1.547-0.164-3.809-0.164-5.563,0c-7.26,10.517-16.452,20.691-26.508,28.605   l-1.727-0.164c-4.344-2.752-9.044-5.013-13.209-7.75c5.563-6.738,10.948-13.447,15.113-20.855h-5.385   c-4.344,6.367-8.866,13.076-14.578,18.773c-7.646-3.095-14.578-5.861-22.373-7.93l-0.862-0.684c1.22-3.451,3.451-6.724,4.165-10.16   h-4.671l-4.701,9.297c-10.234-2.246-21.51-3.451-31.923-4.135c-0.506-1.547,0.208-3.794-0.506-5.162h-4.515   c-0.342,2.053,0.521,3.615-0.506,5.325c-10.763,0.521-21.168,1.726-31.231,3.794L162.341,272.545z M52.381,140.182l-10.755,0.179   c-0.171,9.134-0.171,19.814,0,29.111c5.905,0.193,11.454,0,17.181,0.521v58.61l-0.186,2.395l-17.166,0.357   c-0.35,9.64-0.35,18.951,0,28.427h76.482v-28.427c-5.727-0.357-12.138,0.163-17.687-0.521l0.171-60.484l0.35-0.521l17.166-0.164   c0.187-9.833,0.35-20.335-0.163-29.305L52.381,140.182z M347.059,150.535c-22.551-14.474-56.914-15.515-80.119-2.425   c-12.674,6.545-21.005,19.487-23.593,32.741c-4.701,21.896-3.481,47.914,13.149,64.293c19.458,17.226,47.722,21.019,72.861,13.953   c1.189-0.238,4.998-1.205,7.586-2.604l0.744-0.327c7.795-3.272,15.263-8.628,20.796-15.857   c12.853-18.952,13.716-47.394,5.891-68.755C361.28,163.283,354.854,155.875,347.059,150.535 M199.977,145.017   c-19.085-8.107-45.787-8.955-63.132,3.614c-11.276,8.271-14.749,23.087-11.796,36.192c2.261,12.406,14.05,21.54,25.318,25.839   c15.449,5.52,31.581,9.477,47.171,14.831c1.577,0.685,3.652,2.231,3.325,4.136c0,1.547-1.584,2.41-2.804,3.094   c-16.296,4.478-33.983,1.041-45.772-11.365c-1.383-1.725-2.253-3.793-3.651-5.519l-23.415,0.179   c-0.334,13.953-0.521,29.975,0,43.764l26.018-0.163l0.35-8.286c2.953,1.398,5.898,3.109,8.851,4.671   c18.036,7.572,41.287,9.282,59.138,0c13.001-7.259,19.963-21.212,18.029-36.192c-1.904-14.652-15.769-27.921-29.811-31.551   l-41.979-12.228l-3.124-1.562c-1.383-1.205-2.253-2.752-1.919-4.641c3.302-5.683,10.941-3.957,16.668-3.793   c12.138,1.725,24.611,5.861,31.722,17.062c7.646,0,16.482,0.164,24.812-0.163c0.328-14.147-0.178-26.553-0.356-40.863   c-7.795-0.164-17.345-0.164-25.14,0.193c-0.357,2.067,0.327,4.983-0.536,7.065L199.977,145.017z M214.012,86.421   c6.783,8.613,13.358,17.404,17.881,26.88c-9.372,2.246-18.893,3.436-28.621,3.436c-0.357-9.119-0.179-19.293,0-28.77   C206.752,87.448,210.561,86.927,214.012,86.421 M197.73,87.805c0.521,8.955,0.164,19.294,0.164,28.77   c-4.864,0.685-9.186-0.164-14.042-0.521c-4.693-0.685-10.592-1.205-15.263-2.752c5.028-9.476,10.919-18.609,18.029-27.059   L197.73,87.805z M180.892,84.532l-0.514,1.368c-6.597,8.271-11.789,17.241-17.003,26.032l-0.684,0.164   c-7.11-1.89-14.057-4.136-20.64-7.066l0.35-1.042c9.536-9.119,19.592-16.705,30.696-22.566   C175.7,82.449,178.288,83.327,180.892,84.532 M258.936,104.183l-0.326,0.506c-6.783,2.931-13.716,5.683-21.184,7.244   c-5.355-9.148-11.246-18.267-17.851-27.059c2.439-1.383,5.385-2.425,7.974-3.793C238.824,86.764,249.743,94.871,258.936,104.183    M167.883,78.15c-10.748,6.724-21.324,14.652-31.038,24.292c-4.679-1.726-9.022-4.299-13.18-7.244v-0.328   c10.926-8.107,23.064-14.132,35.902-18.282l1.554-1.012v0.327c1.383,0.357,2.44-1.205,3.645-0.164L167.883,78.15z M277.144,94.514   l-0.327,0.685l-11.96,6.738h-0.893c-9.163-9.312-19.933-17.404-30.882-23.786l3.332-2.931   C250.963,79.013,264.678,85.559,277.144,94.514 M229.453,73.494v0.343c-15.084,11.037-39.54,12.063-55.486,1.904l-2.774-2.247   C189.579,69.181,211.245,68.838,229.453,73.494 M211.602,65.744c-4.7-0.521-10.412-0.684-15.448-0.179   c-1.904-0.163-4.157,0-6.411,0.179c-41.629,3.272-79.956,24.812-103.884,61.525c1.733-0.178,3.809,0.506,5.541-0.178   c4.166-5.846,8.852-11.543,14.05-17.062c4.507-4.314,8.68-8.434,13.537-11.543c4.515,2.931,9.535,5.34,13.864,8.092   c-5.378,6.724-10.919,13.448-14.913,20.692c1.22,0.506,3.474,0.342,5.207,0c4.328-6.381,9.021-12.763,14.563-18.445   c7.467,2.752,14.749,5.682,22.38,7.75l0.684,0.685l-4.329,10.011c1.904,0.342,3.124,0.164,5.028,0   c1.569-2.945,2.774-6.218,4.507-9.134c10.056,2.231,20.64,3.437,31.395,3.794c1.383,1.189,0.357,3.793,0.877,5.34h4.663   c0.536-1.74-0.148-3.629,0.536-5.177c10.056-0.521,20.617-1.562,30.347-3.957l0.862,0.164l4.671,8.97   c1.577,0,3.659,0.342,4.879-0.357l-4.344-9.981l0.357-0.357c7.974-2.068,15.441-5.162,23.057-8.271   c5.386,5.683,10.413,12.421,14.936,18.966c1.904,0,3.809,0.164,5.177-0.357c-2.083-3.793-4.671-7.572-7.438-10.859   c-2.262-3.273-4.701-6.188-7.646-9.297v-0.863l12.139-7.066l1.755-0.684c10.562,8.092,19.934,17.91,27.371,28.769   c2.083,0,3.838,0.699,5.564-0.164C291.9,91.598,253.581,69.017,212.107,65.744l-0.178,0.342L211.602,65.744z M7.635,23.527h386.758   v353.266H7.635V23.527z"/>
</g>
</svg>