<svg xmlns="http://www.w3.org/2000/svg" xmlns:xlink="http://www.w3.org/1999/xlink" viewBox="0 0 248 242"><defs><filter height="200%" width="200%" y="-50%" x="-50%" id="a"><feGaussianBlur stdDeviation="6"/></filter><symbol id="b"><path d="M434.076 345.126c-.966 0-6.136 7.044-11.47 15.625-14.358 23.101-38.506 54.1-43.687 56.094-2.492.958-7.43 2.001-10.968 2.312-6.51.572-14.525 7.475-32.313 27.813-7.685 8.786-12.875 12.104-26.094 16.656-10.16 3.498-19.04 8.384-23.093 12.719-6.029 6.445-6.308 7.474-3.375 12.406 1.761 2.962 8.938 8.498 15.937 12.281l12.719 6.875-3.188 11.281c-1.763 6.212-3.236 14.68-3.25 18.813-.013 4.132-2.403 12.325-5.312 18.187-5.61 11.304-13.588 41.665-14.75 56.125-.407 5.064-20.6 27.233-25.011 27.233h195.333c-.034-7.719-1.92-18.71-2.947-19.389-2.81-1.856.029-30.726 3.625-36.875 4.764-8.146 3.775-22.993-2.5-37.406-4.66-10.701-5.67-16.679-5.688-34.281-.014-13.629 1.15-23.693 3.188-27.907 1.753-3.625 4.3-13.005 5.656-20.843 2.598-15.027 11.048-32.977 18.031-38.25 6.998-5.285 10.65-19.474 7.25-28.25-4.006-10.343-8.314-13.844-12.468-10.157-2.412 2.14-4.451 2.196-7.907.219-4.082-2.336-4.609-2.013-4.125 2.594.304 2.894-.81 5.8-2.5 6.437-2.386.901-2.784-1.053-1.78-8.718.709-5.427.149-13.452-1.22-17.844-2.424-7.78-14.578-23.75-18.093-23.75z" transform="translate(-260.22 -345.126)"/></symbol></defs><path filter="url(#a)" transform="rotate(90 126.519 125.206)" d="M110.524 8c32.055 5.754 66.683 32.42 80.905 67.31 14.222 34.888 5.015 80.206-22.477 104.452-23.777 23.389-69.523 40.436-118.285 14.976C15.333 171.85 3.175 152.77 0 122.358c2.286 44.888 16.19 73.587 48.857 99.809 44.095 32.507 115.048 26.063 155.714-20.762 28.667-28.826 44.857-98.445 7.429-146.667C178 10.516 137.182 10.032 110.524 8z" fill="#bfbfbf"/><path d="M240.793 113.811c-5.754 32.056-32.42 66.683-67.31 80.905-34.888 14.222-80.206 5.016-104.452-22.476-23.389-23.778-40.436-69.524-14.976-118.286C76.943 18.621 96.023 6.462 126.436 3.288c-44.889 2.285-73.588 16.19-99.81 48.857C-5.881 96.24.563 167.192 47.388 207.859c28.826 28.667 98.445 44.857 146.667 7.429 44.222-34 44.706-74.818 46.738-101.477z"/><use x="219.849" y="290.496" transform="matrix(.57502 0 0 .58355 -70.517 -135.592)" xlink:href="#b"/></svg>