<?xml version="1.0" encoding="UTF-8" standalone="no"?>
<!DOCTYPE svg PUBLIC "-//W3C//DTD SVG 1.1//EN"
 "http://www.w3.org/Graphics/SVG/1.1/DTD/svg11.dtd">
<!-- Generated by graphviz version 2.40.1 (20161225.0304)
 -->
<!-- Title: shacl Pages: 1 -->
<svg width="679pt" height="244pt"
 viewBox="0.00 0.00 678.50 244.00" xmlns="http://www.w3.org/2000/svg" xmlns:xlink="http://www.w3.org/1999/xlink">
<g id="graph0" class="graph" transform="scale(1 1) rotate(0) translate(4 240)">
<title>shacl</title>
<polygon fill="#ffffff" stroke="transparent" points="-4,4 -4,-240 674.5,-240 674.5,4 -4,4"/>
<!-- n92e5b4291098219a63309cd748df471f -->
<g id="node1" class="node">
<title>n92e5b4291098219a63309cd748df471f</title>
<g id="a_node1"><a xlink:href="http://www.opengis.net/ont/geosparql#Feature" xlink:title="&lt;TABLE&gt;">
<polygon fill="none" stroke="#000000" points="29,-41 29,-62 131,-62 131,-41 29,-41"/>
<text text-anchor="start" x="32.5" y="-48.8" font-family="Times,serif" font-weight="bold" font-size="14.00" fill="#000000">geo:Feature</text>
<polygon fill="none" stroke="#000000" points="26,-38.5 26,-65.5 134,-65.5 134,-38.5 26,-38.5"/>
</a>
</g>
</g>
<!-- n8c5206359180a6a5e9d76ce7e51def2c -->
<g id="node2" class="node">
<title>n8c5206359180a6a5e9d76ce7e51def2c</title>
<g id="a_node2"><a xlink:href="http://www.opengis.net/ont/geosparql#Geometry" xlink:title="&lt;TABLE&gt;">
<polygon fill="none" stroke="#000000" points="264,-76 264,-97 471,-97 471,-76 264,-76"/>
<text text-anchor="start" x="311.5" y="-83.8" font-family="Times,serif" font-weight="bold" font-size="14.00" fill="#000000">geo:Geometry</text>
<polygon fill="none" stroke="#000000" points="264,-53 264,-74 357,-74 357,-53 264,-53"/>
<text text-anchor="start" x="269.5" y="-59.8" font-family="Times,serif" font-size="14.00" fill="#000000">geo:asWKT</text>
<polygon fill="none" stroke="#000000" points="359,-53 359,-74 471,-74 471,-53 359,-53"/>
<text text-anchor="start" x="362" y="-59.8" font-family="Times,serif" font-size="14.00" fill="#000000">geo:wktLiteral</text>
<polygon fill="none" stroke="#000000" points="264,-30 264,-51 357,-51 357,-30 264,-30"/>
<text text-anchor="start" x="267" y="-36.8" font-family="Times,serif" font-size="14.00" fill="#000000">vocab:begin</text>
<polygon fill="none" stroke="#000000" points="359,-30 359,-51 471,-51 471,-30 359,-30"/>
<text text-anchor="start" x="380" y="-36.8" font-family="Times,serif" font-size="14.00" fill="#000000">xsd:gYear</text>
<polygon fill="none" stroke="#000000" points="264,-7 264,-28 357,-28 357,-7 264,-7"/>
<text text-anchor="start" x="274" y="-13.8" font-family="Times,serif" font-size="14.00" fill="#000000">vocab:end</text>
<polygon fill="none" stroke="#000000" points="359,-7 359,-28 471,-28 471,-7 359,-7"/>
<text text-anchor="start" x="380" y="-13.8" font-family="Times,serif" font-size="14.00" fill="#000000">xsd:gYear</text>
<polygon fill="none" stroke="#000000" points="260.5,-4 260.5,-100 473.5,-100 473.5,-4 260.5,-4"/>
</a>
</g>
</g>
<!-- n00499173297ca522582722effea83067 -->
<g id="node3" class="node">
<title>n00499173297ca522582722effea83067</title>
<g id="a_node3"><a xlink:href="https://iisg.amsterdam/vocab/Alloy" xlink:title="&lt;TABLE&gt;">
<polygon fill="none" stroke="#000000" points="557,-64 557,-85 660,-85 660,-64 557,-64"/>
<text text-anchor="start" x="563" y="-71.8" font-family="Times,serif" font-weight="bold" font-size="14.00" fill="#000000">vocab:Alloy</text>
<polygon fill="none" stroke="#000000" points="557,-41 557,-62 660,-62 660,-41 557,-41"/>
<text text-anchor="start" x="560" y="-47.8" font-family="Times,serif" font-size="14.00" fill="#000000">vocab:copper</text>
<polygon fill="none" stroke="#000000" points="557,-18 557,-39 660,-39 660,-18 557,-18"/>
<text text-anchor="start" x="565" y="-24.8" font-family="Times,serif" font-size="14.00" fill="#000000">vocab:silver</text>
<polygon fill="none" stroke="#000000" points="553.5,-15.5 553.5,-88.5 662.5,-88.5 662.5,-15.5 553.5,-15.5"/>
</a>
</g>
</g>
<!-- n8ec4de00c5da576e9d824ec2407c29ee -->
<g id="node4" class="node">
<title>n8ec4de00c5da576e9d824ec2407c29ee</title>
<g id="a_node4"><a xlink:href="https://iisg.amsterdam/vocab/Authority" xlink:title="&lt;TABLE&gt;">
<polygon fill="none" stroke="#000000" points="11,-196.5 11,-217.5 195,-217.5 195,-196.5 11,-196.5"/>
<text text-anchor="start" x="39" y="-204.3" font-family="Times,serif" font-weight="bold" font-size="14.00" fill="#000000">vocab:Authority</text>
<polygon fill="none" stroke="#000000" points="11,-173.5 11,-194.5 85,-194.5 85,-173.5 11,-173.5"/>
<text text-anchor="start" x="14" y="-180.3" font-family="Times,serif" font-size="14.00" fill="#000000">rdfs:label</text>
<polygon fill="none" stroke="#000000" points="87,-173.5 87,-194.5 195,-194.5 195,-173.5 87,-173.5"/>
<text text-anchor="start" x="90" y="-180.3" font-family="Times,serif" font-size="14.00" fill="#000000">rdf:langString</text>
<polygon fill="none" stroke="#000000" points="8,-170.5 8,-220.5 198,-220.5 198,-170.5 8,-170.5"/>
</a>
</g>
</g>
<!-- n8ec4de00c5da576e9d824ec2407c29ee&#45;&gt;n92e5b4291098219a63309cd748df471f -->
<g id="edge2" class="edge">
<title>n8ec4de00c5da576e9d824ec2407c29ee&#45;&gt;n92e5b4291098219a63309cd748df471f</title>
<path fill="none" stroke="#000000" d="M57.7882,-166.3107C48.5704,-158.0334 40.1306,-148.1818 35,-137 25.7246,-116.7849 38.2848,-94.594 52.4687,-77.9563"/>
<polygon fill="#000000" stroke="#000000" points="55.3259,-80.0171 59.4735,-70.2678 50.1515,-75.3027 55.3259,-80.0171"/>
<text text-anchor="start" x="35" y="-125.8" font-family="Times,serif" font-size="14.00" fill="#000000">rdfs:subClassOf</text>
</g>
<!-- n8ec4de00c5da576e9d824ec2407c29ee&#45;&gt;n8c5206359180a6a5e9d76ce7e51def2c -->
<g id="edge1" class="edge">
<title>n8ec4de00c5da576e9d824ec2407c29ee&#45;&gt;n8c5206359180a6a5e9d76ce7e51def2c</title>
<path fill="none" stroke="#000000" d="M125.3504,-166.1871C137.9782,-151.2726 154.8468,-133.8425 173,-122 194.2458,-108.14 218.5901,-96.5903 242.6907,-87.1336"/>
<polygon fill="#000000" stroke="#000000" points="244.1734,-90.314 252.2676,-83.4778 241.6769,-83.7743 244.1734,-90.314"/>
<text text-anchor="start" x="173" y="-125.8" font-family="Times,serif" font-size="14.00" fill="#000000">geo:hasGeometry</text>
</g>
<!-- n372f0ec0a2c0bab14216b4f40cba5111 -->
<g id="node5" class="node">
<title>n372f0ec0a2c0bab14216b4f40cba5111</title>
<g id="a_node5"><a xlink:href="https://iisg.amsterdam/vocab/House" xlink:title="&lt;TABLE&gt;">
<polygon fill="none" stroke="#000000" points="354,-207.5 354,-228.5 565,-228.5 565,-207.5 354,-207.5"/>
<text text-anchor="start" x="408" y="-215.3" font-family="Times,serif" font-weight="bold" font-size="14.00" fill="#000000">vocab:House</text>
<polygon fill="none" stroke="#000000" points="354,-184.5 354,-205.5 455,-205.5 455,-184.5 354,-184.5"/>
<text text-anchor="start" x="370.5" y="-191.3" font-family="Times,serif" font-size="14.00" fill="#000000">rdfs:label</text>
<polygon fill="none" stroke="#000000" points="457,-184.5 457,-205.5 565,-205.5 565,-184.5 457,-184.5"/>
<text text-anchor="start" x="460" y="-191.3" font-family="Times,serif" font-size="14.00" fill="#000000">rdf:langString</text>
<polygon fill="none" stroke="#000000" points="354,-161.5 354,-182.5 455,-182.5 455,-161.5 354,-161.5"/>
<text text-anchor="start" x="357" y="-168.3" font-family="Times,serif" font-size="14.00" fill="#000000">vocab:source</text>
<polygon fill="none" stroke="#000000" points="457,-161.5 457,-182.5 565,-182.5 565,-161.5 457,-161.5"/>
<text text-anchor="start" x="474.5" y="-168.3" font-family="Times,serif" font-size="14.00" fill="#000000">xsd:string</text>
<polygon fill="none" stroke="#000000" points="350.5,-159 350.5,-232 567.5,-232 567.5,-159 350.5,-159"/>
</a>
</g>
</g>
<!-- n372f0ec0a2c0bab14216b4f40cba5111&#45;&gt;n92e5b4291098219a63309cd748df471f -->
<g id="edge4" class="edge">
<title>n372f0ec0a2c0bab14216b4f40cba5111&#45;&gt;n92e5b4291098219a63309cd748df471f</title>
<path fill="none" stroke="#000000" d="M352.3661,-154.976C340.5387,-149.3942 328.8566,-143.3725 318,-137 308.7214,-131.5538 308.4988,-127.0523 299,-122 297.2192,-121.0528 210.3145,-93.3746 146.5313,-73.1118"/>
<polygon fill="#000000" stroke="#000000" points="147.4962,-69.7461 136.9058,-70.0545 145.3771,-76.4176 147.4962,-69.7461"/>
<text text-anchor="start" x="318" y="-125.8" font-family="Times,serif" font-size="14.00" fill="#000000">rdfs:subClassOf</text>
</g>
<!-- n372f0ec0a2c0bab14216b4f40cba5111&#45;&gt;n8c5206359180a6a5e9d76ce7e51def2c -->
<g id="edge3" class="edge">
<title>n372f0ec0a2c0bab14216b4f40cba5111&#45;&gt;n8c5206359180a6a5e9d76ce7e51def2c</title>
<path fill="none" stroke="#000000" d="M450.6606,-154.7061C447.3824,-143.6266 442.9392,-131.9505 437,-122 435.0814,-118.7856 432.9826,-115.6114 430.748,-112.4939"/>
<polygon fill="#000000" stroke="#000000" points="433.4018,-110.2024 424.5467,-104.3853 427.8415,-114.4548 433.4018,-110.2024"/>
<text text-anchor="start" x="444" y="-125.8" font-family="Times,serif" font-size="14.00" fill="#000000">geo:hasGeometry</text>
</g>
<!-- n372f0ec0a2c0bab14216b4f40cba5111&#45;&gt;n00499173297ca522582722effea83067 -->
<g id="edge5" class="edge">
<title>n372f0ec0a2c0bab14216b4f40cba5111&#45;&gt;n00499173297ca522582722effea83067</title>
<path fill="none" stroke="#000000" d="M553.5461,-154.9652C560.9931,-149.5902 567.956,-143.6145 574,-137 583.056,-127.0892 589.8375,-114.4646 594.8595,-101.9961"/>
<polygon fill="#000000" stroke="#000000" points="598.171,-103.1324 598.3654,-92.5393 591.6075,-100.699 598.171,-103.1324"/>
<text text-anchor="start" x="584" y="-125.8" font-family="Times,serif" font-size="14.00" fill="#000000">vocab:alloy</text>
</g>
</g>
</svg>
