<?xml version="1.0" encoding="UTF-8" standalone="no"?>
<!DOCTYPE svg PUBLIC "-//W3C//DTD SVG 1.1//EN"
 "http://www.w3.org/Graphics/SVG/1.1/DTD/svg11.dtd">
<!-- Generated by graphviz version 2.38.0 (20140413.2041)
 -->
<!-- Title: identity Pages: 1 -->
<svg width="468pt" height="236pt"
 viewBox="0.00 0.00 467.56 236.00" xmlns="http://www.w3.org/2000/svg" xmlns:xlink="http://www.w3.org/1999/xlink">
<g id="graph0" class="graph" transform="scale(1 1) rotate(0) translate(4 232)">
<title>identity</title>
<polygon fill="white" stroke="none" points="-4,4 -4,-232 463.564,-232 463.564,4 -4,4"/>
<g id="clust1" class="cluster"><title>cluster1</title>
<polygon fill="none" stroke="black" points="8,-91 8,-220 272.949,-220 272.949,-91 8,-91"/>
<text text-anchor="start" x="130.975" y="-204.8" font-family="Times,serif" font-size="14.00">ns1</text>
</g>
<g id="clust2" class="cluster"><title>cluster2</title>
<polygon fill="none" stroke="black" points="181.782,-8 181.782,-83 451.564,-83 451.564,-8 181.782,-8"/>
<text text-anchor="start" x="307.173" y="-67.8" font-family="Times,serif" font-size="14.00">ns2</text>
</g>
<!-- c9h8o4 -->
<g id="node1" class="node"><title>c9h8o4</title>
<ellipse fill="lightblue" stroke="lightblue" cx="230.673" cy="-117" rx="34.054" ry="18"/>
<text text-anchor="start" x="210.173" y="-115.2" font-family="Times,serif" font-size="11.00">C</text>
<text text-anchor="start" x="218.173" y="-115.2" font-family="Times,serif" baseline-shift="sub" font-size="11.00">9</text>
<text text-anchor="start" x="223.173" y="-115.2" font-family="Times,serif" font-size="11.00">H</text>
<text text-anchor="start" x="232.173" y="-115.2" font-family="Times,serif" baseline-shift="sub" font-size="11.00">8</text>
<text text-anchor="start" x="237.173" y="-115.2" font-family="Times,serif" font-size="11.00">O</text>
<text text-anchor="start" x="246.173" y="-115.2" font-family="Times,serif" baseline-shift="sub" font-size="11.00">4</text>
</g>
<!-- ns1 -->
<g id="node2" class="node"><title>ns1</title>
<ellipse fill="lightblue" stroke="green" cx="56.891" cy="-117" rx="40.7822" ry="18"/>
<text text-anchor="start" x="30.891" y="-114.2" font-family="Times,serif" font-size="11.00">ns1:Aspirin</text>
</g>
<!-- ns1&#45;&gt;c9h8o4 -->
<g id="edge1" class="edge"><title>ns1&#45;&gt;c9h8o4</title>
<path fill="none" stroke="black" d="M98.1662,-117C124.518,-117 158.939,-117 185.955,-117"/>
<polygon fill="black" stroke="black" points="186.287,-120.5 196.287,-117 186.287,-113.5 186.287,-120.5"/>
<text text-anchor="start" x="123.282" y="-120.2" font-family="Times,serif" font-size="11.00">chemical</text>
</g>
<!-- ainc -->
<g id="node3" class="node"><title>ainc</title>
<ellipse fill="lightblue" stroke="lightblue" cx="230.673" cy="-171" rx="27.1205" ry="18"/>
<text text-anchor="start" x="216.173" y="-168.2" font-family="Times,serif" font-size="11.00">A Inc.</text>
</g>
<!-- ns1&#45;&gt;ainc -->
<g id="edge2" class="edge"><title>ns1&#45;&gt;ainc</title>
<path fill="none" stroke="black" d="M90.6062,-127.284C120.867,-136.797 165.646,-150.873 196.159,-160.465"/>
<polygon fill="black" stroke="black" points="195.329,-163.873 205.918,-163.533 197.428,-157.195 195.329,-163.873"/>
<text text-anchor="start" x="127.782" y="-154.2" font-family="Times,serif" font-size="11.00">sold by</text>
</g>
<!-- ns2 -->
<g id="node4" class="node"><title>ns2</title>
<ellipse fill="orange" stroke="green" cx="230.673" cy="-34" rx="40.7822" ry="18"/>
<text text-anchor="start" x="204.673" y="-31.2" font-family="Times,serif" font-size="11.00">ns2:Aspirin</text>
</g>
<!-- ns1&#45;&gt;ns2 -->
<g id="edge5" class="edge"><title>ns1&#45;&gt;ns2</title>
<path fill="none" stroke="black" d="M94.2587,-99.4282C123.5,-85.2998 164.372,-65.5512 193.549,-51.4542"/>
<polygon fill="black" stroke="black" points="92.5917,-96.3464 85.1103,-103.848 95.6371,-102.649 92.5917,-96.3464"/>
<polygon fill="black" stroke="black" points="195.1,-54.592 202.581,-47.0901 192.054,-48.2892 195.1,-54.592"/>
<text text-anchor="start" x="115.782" y="-91.2" font-family="Times,serif" font-size="11.00">owl:sameAs</text>
</g>
<!-- binc -->
<g id="node5" class="node"><title>binc</title>
<ellipse fill="orange" stroke="orange" cx="416.564" cy="-34" rx="27" ry="18"/>
<text text-anchor="start" x="402.564" y="-31.2" font-family="Times,serif" font-size="11.00">B Inc.</text>
</g>
<!-- ainc&#45;&gt;binc -->
<g id="edge6" class="edge"><title>ainc&#45;&gt;binc</title>
<path fill="none" stroke="black" d="M259.37,-153.308C263.947,-150.263 268.612,-147.084 272.949,-144 315.211,-113.948 362.569,-76.6681 390.683,-54.1375"/>
<polygon fill="black" stroke="black" points="257.227,-150.527 250.785,-158.938 261.067,-156.38 257.227,-150.527"/>
<polygon fill="black" stroke="black" points="393.162,-56.6358 398.764,-47.6431 388.777,-51.1796 393.162,-56.6358"/>
<text text-anchor="start" x="289.564" y="-133.2" font-family="Times,serif" font-size="11.00">owl:differentFrom</text>
</g>
<!-- ns2&#45;&gt;c9h8o4 -->
<g id="edge3" class="edge"><title>ns2&#45;&gt;c9h8o4</title>
<path fill="none" stroke="black" d="M230.673,-52.0098C230.673,-62.7037 230.673,-76.5006 230.673,-88.6294"/>
<polygon fill="black" stroke="black" points="227.173,-88.7387 230.673,-98.7388 234.173,-88.7388 227.173,-88.7387"/>
<text text-anchor="start" x="201.173" y="-72.7" font-family="Times,serif" font-size="11.00">chemical</text>
</g>
<!-- ns2&#45;&gt;binc -->
<g id="edge4" class="edge"><title>ns2&#45;&gt;binc</title>
<path fill="none" stroke="black" d="M271.575,-34C303.513,-34 347.943,-34 378.973,-34"/>
<polygon fill="black" stroke="black" points="379.348,-37.5001 389.348,-34 379.348,-30.5001 379.348,-37.5001"/>
<text text-anchor="start" x="314.564" y="-37.2" font-family="Times,serif" font-size="11.00">sold by</text>
</g>
</g>
</svg>
