<?xml version="1.0" encoding="UTF-8" standalone="no"?>
<!DOCTYPE svg PUBLIC "-//W3C//DTD SVG 1.1//EN"
 "http://www.w3.org/Graphics/SVG/1.1/DTD/svg11.dtd">
<!-- Generated by graphviz version 2.38.0 (20140413.2041)
 -->
<!-- Title: identity_crisis3 Pages: 1 -->
<svg width="372pt" height="183pt"
 viewBox="0.00 0.00 372.00 183.00" xmlns="http://www.w3.org/2000/svg" xmlns:xlink="http://www.w3.org/1999/xlink">
<g id="graph0" class="graph" transform="scale(1 1) rotate(0) translate(4 179)">
<title>identity_crisis3</title>
<polygon fill="white" stroke="none" points="-4,4 -4,-179 368,-179 368,4 -4,4"/>
<g id="clust1" class="cluster"><title>cluster_ns1</title>
<polygon fill="none" stroke="black" points="8,-8 8,-167 181,-167 181,-8 8,-8"/>
<text text-anchor="start" x="85" y="-151.8" font-family="Times,serif" font-size="14.00">ns1</text>
</g>
<g id="clust2" class="cluster"><title>cluster_ns2</title>
<polygon fill="none" stroke="black" points="214,-8 214,-167 356,-167 356,-8 214,-8"/>
<text text-anchor="start" x="275.5" y="-151.8" font-family="Times,serif" font-size="14.00">ns2</text>
</g>
<!-- c9h8o4 -->
<g id="node1" class="node"><title>c9h8o4</title>
<ellipse fill="lightblue" stroke="lightblue" cx="50" cy="-34" rx="34.054" ry="18"/>
<text text-anchor="start" x="29.5" y="-32.2" font-family="Times,serif" font-size="11.00">C</text>
<text text-anchor="start" x="37.5" y="-32.2" font-family="Times,serif" baseline-shift="sub" font-size="11.00">9</text>
<text text-anchor="start" x="42.5" y="-32.2" font-family="Times,serif" font-size="11.00">H</text>
<text text-anchor="start" x="51.5" y="-32.2" font-family="Times,serif" baseline-shift="sub" font-size="11.00">8</text>
<text text-anchor="start" x="56.5" y="-32.2" font-family="Times,serif" font-size="11.00">O</text>
<text text-anchor="start" x="65.5" y="-32.2" font-family="Times,serif" baseline-shift="sub" font-size="11.00">4</text>
</g>
<!-- ns1 -->
<g id="node2" class="node"><title>ns1</title>
<ellipse fill="lightblue" stroke="lightblue" cx="106" cy="-118" rx="40.7822" ry="18"/>
<text text-anchor="start" x="80" y="-115.2" font-family="Times,serif" font-size="11.00">ns1:Aspirin</text>
</g>
<!-- ns1&#45;&gt;c9h8o4 -->
<g id="edge1" class="edge"><title>ns1&#45;&gt;c9h8o4</title>
<path fill="none" stroke="black" d="M81.559,-103.291C73.5673,-97.6699 65.3729,-90.4754 60,-82 56.3066,-76.174 53.9559,-69.2081 52.4657,-62.4466"/>
<polygon fill="black" stroke="black" points="55.8525,-61.4752 50.7632,-52.1827 48.9469,-62.6207 55.8525,-61.4752"/>
<text text-anchor="start" x="60" y="-73.2" font-family="Times,serif" font-size="11.00">chemical</text>
</g>
<!-- headache -->
<g id="node3" class="node"><title>headache</title>
<ellipse fill="lightblue" stroke="lightblue" cx="138" cy="-34" rx="35.4579" ry="18"/>
<text text-anchor="middle" x="138" y="-31.2" font-family="Times,serif" font-size="11.00">headache</text>
</g>
<!-- ns1&#45;&gt;headache -->
<g id="edge2" class="edge"><title>ns1&#45;&gt;headache</title>
<path fill="none" stroke="black" d="M103.581,-99.9156C102.961,-90.7458 103.311,-79.4242 107,-70 108.676,-65.7175 111.129,-61.6162 113.932,-57.8258"/>
<polygon fill="black" stroke="black" points="116.696,-59.9769 120.464,-50.0746 111.343,-55.4662 116.696,-59.9769"/>
<text text-anchor="start" x="107" y="-73.2" font-family="Times,serif" font-size="11.00">cures</text>
</g>
<!-- ns2 -->
<g id="node4" class="node"><title>ns2</title>
<ellipse fill="orange" stroke="orange" cx="263" cy="-118" rx="40.7822" ry="18"/>
<text text-anchor="start" x="237" y="-115.2" font-family="Times,serif" font-size="11.00">ns2:Aspirin</text>
</g>
<!-- ns1&#45;&gt;ns2 -->
<g id="edge5" class="edge"><title>ns1&#45;&gt;ns2</title>
<path fill="none" stroke="black" d="M157.286,-118C174.834,-118 194.452,-118 211.979,-118"/>
<polygon fill="black" stroke="black" points="157.25,-114.5 147.25,-118 157.25,-121.5 157.25,-114.5"/>
<polygon fill="black" stroke="black" points="212.026,-121.5 222.026,-118 212.026,-114.5 212.026,-121.5"/>
<text text-anchor="start" x="156.5" y="-124.2" font-family="Times,serif" font-size="11.00">owl:sameAs</text>
</g>
<!-- ns2&#45;&gt;c9h8o4 -->
<g id="edge6" class="edge"><title>ns2&#45;&gt;c9h8o4</title>
<path fill="none" stroke="red" stroke-dasharray="1,5" d="M228.068,-108.603C205.523,-102.577 175.87,-93.4994 151,-82 141.935,-77.8083 140.843,-74.6419 132,-70 117.524,-62.4014 101.034,-55.1149 86.6562,-49.1764"/>
<polygon fill="red" stroke="red" points="87.6729,-45.8118 77.0907,-45.2933 85.0399,-52.2977 87.6729,-45.8118"/>
<text text-anchor="start" x="151" y="-73.2" font-family="Times,serif" font-size="11.00">chemical</text>
</g>
<!-- ns2&#45;&gt;headache -->
<g id="edge7" class="edge"><title>ns2&#45;&gt;headache</title>
<path fill="none" stroke="red" stroke-dasharray="1,5" d="M242.723,-102.231C229.563,-92.7819 211.954,-80.3917 196,-70 187.443,-64.426 178.017,-58.6064 169.297,-53.3491"/>
<polygon fill="red" stroke="red" points="170.911,-50.2358 160.532,-48.1079 167.318,-56.2438 170.911,-50.2358"/>
<text text-anchor="start" x="213" y="-73.2" font-family="Times,serif" font-size="11.00">cures</text>
</g>
<!-- binc -->
<g id="node5" class="node"><title>binc</title>
<ellipse fill="orange" stroke="orange" cx="249" cy="-34" rx="27" ry="18"/>
<text text-anchor="start" x="235" y="-31.2" font-family="Times,serif" font-size="11.00">B Inc.</text>
</g>
<!-- ns2&#45;&gt;binc -->
<g id="edge3" class="edge"><title>ns2&#45;&gt;binc</title>
<path fill="none" stroke="black" d="M260.099,-100.01C258.222,-89.0148 255.738,-74.4635 253.595,-61.9156"/>
<polygon fill="black" stroke="black" points="257.03,-61.237 251.897,-51.9687 250.13,-62.4151 257.03,-61.237"/>
<text text-anchor="start" x="257" y="-73.2" font-family="Times,serif" font-size="11.00">sold by</text>
</g>
<!-- bprice -->
<g id="node6" class="node"><title>bprice</title>
<ellipse fill="orange" stroke="orange" cx="321" cy="-34" rx="27" ry="18"/>
<text text-anchor="start" x="309.5" y="-31.2" font-family="Times,serif" font-size="11.00">€10,&#45;</text>
</g>
<!-- ns2&#45;&gt;bprice -->
<g id="edge4" class="edge"><title>ns2&#45;&gt;bprice</title>
<path fill="none" stroke="black" d="M277.642,-101.09C282.732,-95.2622 288.331,-88.4998 293,-82 297.987,-75.0575 302.929,-67.1875 307.24,-59.9001"/>
<polygon fill="black" stroke="black" points="310.354,-61.5056 312.32,-51.0947 304.291,-58.0076 310.354,-61.5056"/>
<text text-anchor="start" x="301" y="-73.2" font-family="Times,serif" font-size="11.00">price</text>
</g>
</g>
</svg>
