<?xml version="1.0" encoding="UTF-8" standalone="no"?>
<!DOCTYPE svg PUBLIC "-//W3C//DTD SVG 1.1//EN"
 "http://www.w3.org/Graphics/SVG/1.1/DTD/svg11.dtd">
<!-- Generated by graphviz version 2.38.0 (20140413.2041)
 -->
<!-- Title: identity_crisis4 Pages: 1 -->
<svg width="493pt" height="183pt"
 viewBox="0.00 0.00 493.00 183.00" xmlns="http://www.w3.org/2000/svg" xmlns:xlink="http://www.w3.org/1999/xlink">
<g id="graph0" class="graph" transform="scale(1 1) rotate(0) translate(4 179)">
<title>identity_crisis4</title>
<polygon fill="white" stroke="none" points="-4,4 -4,-179 489,-179 489,4 -4,4"/>
<g id="clust1" class="cluster"><title>cluster_ns1</title>
<polygon fill="none" stroke="black" points="8,-8 8,-167 326,-167 326,-8 8,-8"/>
<text text-anchor="start" x="157.5" y="-151.8" font-family="Times,serif" font-size="14.00">ns1</text>
</g>
<g id="clust2" class="cluster"><title>cluster_ns2</title>
<polygon fill="none" stroke="black" points="335,-8 335,-167 477,-167 477,-8 335,-8"/>
<text text-anchor="start" x="396.5" y="-151.8" font-family="Times,serif" font-size="14.00">ns2</text>
</g>
<!-- c9h8o4 -->
<g id="node1" class="node"><title>c9h8o4</title>
<ellipse fill="lightblue" stroke="black" cx="50" cy="-34" rx="34.054" ry="18"/>
<text text-anchor="start" x="29.5" y="-32.2" font-family="Times,serif" font-size="11.00">C</text>
<text text-anchor="start" x="37.5" y="-32.2" font-family="Times,serif" baseline-shift="sub" font-size="11.00">9</text>
<text text-anchor="start" x="42.5" y="-32.2" font-family="Times,serif" font-size="11.00">H</text>
<text text-anchor="start" x="51.5" y="-32.2" font-family="Times,serif" baseline-shift="sub" font-size="11.00">8</text>
<text text-anchor="start" x="56.5" y="-32.2" font-family="Times,serif" font-size="11.00">O</text>
<text text-anchor="start" x="65.5" y="-32.2" font-family="Times,serif" baseline-shift="sub" font-size="11.00">4</text>
</g>
<!-- ns1 -->
<g id="node2" class="node"><title>ns1</title>
<ellipse fill="lightblue" stroke="black" cx="185" cy="-118" rx="40.7822" ry="18"/>
<text text-anchor="start" x="159" y="-115.2" font-family="Times,serif" font-size="11.00">ns1:Aspirin</text>
</g>
<!-- ns1&#45;&gt;c9h8o4 -->
<g id="edge1" class="edge"><title>ns1&#45;&gt;c9h8o4</title>
<path fill="none" stroke="black" d="M154.307,-106.04C138.957,-99.9539 120.415,-91.6597 105,-82 93.6916,-74.9139 82.2959,-65.6137 72.8333,-57.1579"/>
<polygon fill="black" stroke="black" points="75.1179,-54.504 65.3838,-50.3208 70.3846,-59.6612 75.1179,-54.504"/>
<text text-anchor="start" x="105" y="-73.2" font-family="Times,serif" font-size="11.00">chemical</text>
</g>
<!-- headache -->
<g id="node3" class="node"><title>headache</title>
<ellipse fill="lightblue" stroke="black" cx="138" cy="-34" rx="35.4579" ry="18"/>
<text text-anchor="middle" x="138" y="-31.2" font-family="Times,serif" font-size="11.00">headache</text>
</g>
<!-- ns1&#45;&gt;headache -->
<g id="edge2" class="edge"><title>ns1&#45;&gt;headache</title>
<path fill="none" stroke="black" d="M169.337,-101.203C164.273,-95.4926 158.95,-88.7755 155,-82 151.359,-75.7548 148.287,-68.5967 145.8,-61.7813"/>
<polygon fill="black" stroke="black" points="149.079,-60.5514 142.576,-52.1873 142.444,-62.7813 149.079,-60.5514"/>
<text text-anchor="start" x="155" y="-73.2" font-family="Times,serif" font-size="11.00">cures</text>
</g>
<!-- ainc -->
<g id="node4" class="node"><title>ainc</title>
<ellipse fill="lightblue" stroke="red" cx="219" cy="-34" rx="27.1205" ry="18"/>
<text text-anchor="start" x="204.5" y="-31.2" font-family="Times,serif" font-size="11.00">A Inc.</text>
</g>
<!-- ns1&#45;&gt;ainc -->
<g id="edge3" class="edge"><title>ns1&#45;&gt;ainc</title>
<path fill="none" stroke="red" d="M182.465,-99.8689C181.811,-90.6854 182.165,-79.3656 186,-70 188.136,-64.7832 191.44,-59.8841 195.147,-55.4979"/>
<polygon fill="red" stroke="red" points="197.734,-57.8565 202.091,-48.1989 192.663,-53.0316 197.734,-57.8565"/>
<text text-anchor="start" x="186" y="-73.2" font-family="Times,serif" font-size="11.00">sold by</text>
</g>
<!-- aprice -->
<g id="node5" class="node"><title>aprice</title>
<ellipse fill="lightblue" stroke="red" cx="291" cy="-34" rx="27" ry="18"/>
<text text-anchor="start" x="282" y="-31.2" font-family="Times,serif" font-size="11.00">€5,&#45;</text>
</g>
<!-- ns1&#45;&gt;aprice -->
<g id="edge4" class="edge"><title>ns1&#45;&gt;aprice</title>
<path fill="none" stroke="red" d="M202.83,-101.351C213.673,-92.0077 227.909,-80.0446 241,-70 248.371,-64.3439 256.559,-58.4561 264.139,-53.159"/>
<polygon fill="red" stroke="red" points="266.437,-55.826 272.673,-47.2613 262.457,-50.0673 266.437,-55.826"/>
<text text-anchor="start" x="241" y="-73.2" font-family="Times,serif" font-size="11.00">price</text>
</g>
<!-- ns2 -->
<g id="node6" class="node"><title>ns2</title>
<ellipse fill="orange" stroke="black" cx="384" cy="-118" rx="40.7822" ry="18"/>
<text text-anchor="start" x="358" y="-115.2" font-family="Times,serif" font-size="11.00">ns2:Aspirin</text>
</g>
<!-- ns1&#45;&gt;ns2 -->
<g id="edge7" class="edge"><title>ns1&#45;&gt;ns2</title>
<path fill="none" stroke="black" d="M236.617,-118C266.196,-118 303.189,-118 332.713,-118"/>
<polygon fill="black" stroke="black" points="236.233,-114.5 226.233,-118 236.233,-121.5 236.233,-114.5"/>
<polygon fill="black" stroke="black" points="332.82,-121.5 342.82,-118 332.82,-114.5 332.82,-121.5"/>
<text text-anchor="start" x="256.5" y="-124.2" font-family="Times,serif" font-size="11.00">owl:sameAs</text>
</g>
<!-- ns2&#45;&gt;ainc -->
<g id="edge8" class="edge"><title>ns2&#45;&gt;ainc</title>
<path fill="none" stroke="red" stroke-dasharray="1,5" d="M352.897,-106.1C335.798,-99.7445 314.386,-91.1846 296,-82 278.828,-73.4218 260.449,-62.2845 245.955,-53.0047"/>
<polygon fill="red" stroke="red" points="247.773,-50.0117 237.478,-47.5062 243.963,-55.8845 247.773,-50.0117"/>
<text text-anchor="start" x="296" y="-73.2" font-family="Times,serif" font-size="11.00">sold by</text>
</g>
<!-- ns2&#45;&gt;aprice -->
<g id="edge9" class="edge"><title>ns2&#45;&gt;aprice</title>
<path fill="none" stroke="red" stroke-dasharray="1,5" d="M366.507,-101.576C351.676,-88.4993 330.289,-69.6423 314.061,-55.3331"/>
<polygon fill="red" stroke="red" points="316.375,-52.7075 306.56,-48.7192 311.746,-57.958 316.375,-52.7075"/>
<text text-anchor="start" x="344" y="-73.2" font-family="Times,serif" font-size="11.00">price</text>
</g>
<!-- binc -->
<g id="node7" class="node"><title>binc</title>
<ellipse fill="orange" stroke="black" cx="370" cy="-34" rx="27" ry="18"/>
<text text-anchor="start" x="356" y="-31.2" font-family="Times,serif" font-size="11.00">B Inc.</text>
</g>
<!-- ns2&#45;&gt;binc -->
<g id="edge5" class="edge"><title>ns2&#45;&gt;binc</title>
<path fill="none" stroke="black" d="M381.099,-100.01C379.222,-89.0148 376.738,-74.4635 374.595,-61.9156"/>
<polygon fill="black" stroke="black" points="378.03,-61.237 372.897,-51.9687 371.13,-62.4151 378.03,-61.237"/>
<text text-anchor="start" x="378" y="-73.2" font-family="Times,serif" font-size="11.00">sold by</text>
</g>
<!-- bprice -->
<g id="node8" class="node"><title>bprice</title>
<ellipse fill="orange" stroke="black" cx="442" cy="-34" rx="27" ry="18"/>
<text text-anchor="start" x="430.5" y="-31.2" font-family="Times,serif" font-size="11.00">€10,&#45;</text>
</g>
<!-- ns2&#45;&gt;bprice -->
<g id="edge6" class="edge"><title>ns2&#45;&gt;bprice</title>
<path fill="none" stroke="black" d="M398.642,-101.09C403.732,-95.2622 409.331,-88.4998 414,-82 418.987,-75.0575 423.929,-67.1875 428.24,-59.9001"/>
<polygon fill="black" stroke="black" points="431.354,-61.5056 433.32,-51.0947 425.291,-58.0076 431.354,-61.5056"/>
<text text-anchor="start" x="421" y="-73.2" font-family="Times,serif" font-size="11.00">price</text>
</g>
</g>
</svg>
