<svg version="1.1" id="Layer_1" xmlns="http://www.w3.org/2000/svg" xmlns:xlink="http://www.w3.org/1999/xlink" x="0px" y="0px" viewBox="0 0 512 512" style="enable-background:new 0 0 512 512;" xml:space="preserve">
  <path style="fill:#212A2D;" d="M406.252,418.465c-58.309,0-105.747-47.438-105.747-105.747S347.943,206.97,406.252,206.97 S512,254.408,512,312.718S464.562,418.465,406.252,418.465z"/>
  <path style="fill:#2E373A;" d="M406.252,418.465c-58.309,0-105.747-47.438-105.747-105.747S347.943,206.97,406.252,206.97V418.465z"/>
  <path class="wiel" style="fill:yellow;" d="M406.252,241.396c-39.327,0-71.322,31.995-71.322,71.322s31.995,71.322,71.322,71.322 s71.322-31.995,71.322-71.322S445.58,241.396,406.252,241.396z"/>
  <path class="wiel" style="fill:yellow;" d="M406.252,241.396c-39.327,0-71.322,31.995-71.322,71.322s31.995,71.322,71.322,71.322V241.396z"/>
  <path style="fill:#212A2D;" d="M105.748,418.465C47.438,418.465,0,371.027,0,312.718S47.438,206.97,105.748,206.97 s105.748,47.438,105.748,105.747S164.057,418.465,105.748,418.465z"/>
  <path style="fill:#2E373A;" d="M105.748,418.465C47.438,418.465,0,371.027,0,312.718S47.438,206.97,105.748,206.97V418.465z"/>
  <path class="wiel" style="fill:yellow;" d="M105.748,241.396c-39.327,0-71.322,31.995-71.322,71.322s31.995,71.322,71.322,71.322 s71.322-31.995,71.322-71.322S145.075,241.396,105.748,241.396z"/>
  <path class="wiel" style="fill:yellow;" d="M105.748,241.396c-39.327,0-71.322,31.995-71.322,71.322s31.995,71.322,71.322,71.322V241.396z"/>
  <path style="fill:#BA2B11;" d="M419.814,302.94c-23.154-33.544-81.063-132.059-71.097-184.382 c1.779-9.338-4.349-18.351-13.688-20.13c-9.338-1.775-18.351,4.349-20.13,13.687c-1.994,10.472-2.236,22.209-0.742,35.162 c-0.71,0.724-1.375,1.509-1.966,2.378l-52.145,76.704h-83.204l-28.14-65.096c-3.772-8.726-13.901-12.742-22.63-8.969 c-8.726,3.772-12.742,13.903-8.969,22.63l31.857,73.694c2.317,5.359,7.033,8.934,12.348,10.028c2.463,1.36,5.292,2.138,8.305,2.138 h67.029l-23.603,34.72H105.747c-9.506,0-17.213,7.707-17.213,17.213c0,9.506,7.707,17.213,17.213,17.213h116.403 c5.7,0,11.03-2.822,14.235-7.536l88.342-129.948c5.725,17.178,13.566,35.799,23.529,55.819 c20.459,41.115,42.305,72.897,43.225,74.23c3.34,4.839,8.714,7.436,14.181,7.436c3.371,0,6.778-0.988,9.763-3.049 C423.249,321.484,425.214,310.764,419.814,302.94z"/>
  <path style="fill:#E64122;" d="M270.673,210.727l-10.627,15.633h-83.204l-28.14-65.096c-3.772-8.726-13.901-12.742-22.63-8.969 c-8.726,3.772-12.742,13.903-8.969,22.63l31.857,73.694c2.317,5.359,7.033,8.934,12.348,10.028c2.463,1.36,5.292,2.138,8.305,2.138 h67.029l-23.603,34.72H105.747c-9.506,0-17.213,7.707-17.213,17.213c0,9.506,7.707,17.213,17.213,17.213h116.403 c5.7,0,11.03-2.822,14.235-7.536l34.288-50.435V210.727z"/>
  <path style="fill:#A2B3BF;" d="M338.496,127.96h-50.61c-9.506,0-17.213-7.707-17.213-17.213s7.707-17.213,17.213-17.213h50.61 c9.506,0,17.213,7.707,17.213,17.213S348.003,127.96,338.496,127.96z"/>
  <path style="fill:#C9D2D9;" d="M313.191,127.96h-25.305c-9.506,0-17.213-7.707-17.213-17.213s7.707-17.213,17.213-17.213h25.305 V127.96z"/>
  <path style="fill:#7A4126;" d="M159.755,183.08c-1.794,0-3.617-0.282-5.414-0.877c-19.622-6.497-40.725-7.889-61.031-4.021 c-9.337,1.777-18.351-4.349-20.13-13.687s4.349-18.351,13.687-20.13c26.048-4.962,53.123-3.179,78.295,5.158 c9.024,2.988,13.917,12.727,10.929,21.751C173.698,178.502,166.974,183.08,159.755,183.08z"/>
  <path style="fill:#995D3D;" d="M124.922,176.364c-10.542-0.768-21.182-0.169-31.613,1.818c-9.337,1.777-18.351-4.349-20.13-13.687 c-1.779-9.338,4.349-18.351,13.687-20.13c12.555-2.391,25.348-3.216,38.053-2.495L124.922,176.364z"/>
  <defs>
    <linearGradient id="b">
      <stop offset="0" stop-color="#3771c8"/>
      <stop stop-color="#3771c8" offset=".128"/>
      <stop offset="1" stop-color="#60f" stop-opacity="0"/>
    </linearGradient>
    <linearGradient id="a">
      <stop offset="0" stop-color="#fd5"/>
      <stop offset=".1" stop-color="#fd5"/>
      <stop offset=".5" stop-color="#ff543e"/>
      <stop offset="1" stop-color="#c837ab"/>
    </linearGradient>
    <radialGradient id="c" cx="158.429" cy="578.088" r="65" xlink:href="#a" gradientUnits="userSpaceOnUse" gradientTransform="matrix(0 -1.98198 1.8439 0 -1031.402 454.004)" fx="158.429" fy="578.088"/>
    <radialGradient id="d" cx="147.694" cy="473.455" r="65" xlink:href="#b" gradientUnits="userSpaceOnUse" gradientTransform="matrix(.17394 .86872 -3.5818 .71718 1648.348 -458.493)" fx="147.694" fy="473.455"/>
  </defs>
  <g transform="scale(1.35) translate(250,0)">
    <path fill="url(#c)" d="M65.03 0C37.888 0 29.95.028 28.407.156c-5.57.463-9.036 1.34-12.812 3.22-2.91 1.445-5.205 3.12-7.47 5.468C4 13.126 1.5 18.394.595 24.656c-.44 3.04-.568 3.66-.594 19.188-.01 5.176 0 11.988 0 21.125 0 27.12.03 35.05.16 36.59.45 5.42 1.3 8.83 3.1 12.56 3.44 7.14 10.01 12.5 17.75 14.5 2.68.69 5.64 1.07 9.44 1.25 1.61.07 18.02.12 34.44.12 16.42 0 32.84-.02 34.41-.1 4.4-.207 6.955-.55 9.78-1.28 7.79-2.01 14.24-7.29 17.75-14.53 1.765-3.64 2.66-7.18 3.065-12.317.088-1.12.125-18.977.125-36.81 0-17.836-.04-35.66-.128-36.78-.41-5.22-1.305-8.73-3.127-12.44-1.495-3.037-3.155-5.305-5.565-7.624C116.9 4 111.64 1.5 105.372.596 102.335.157 101.73.027 86.19 0H65.03z" transform="translate(1.004 1)"/>
    <path fill="url(#d)" d="M65.03 0C37.888 0 29.95.028 28.407.156c-5.57.463-9.036 1.34-12.812 3.22-2.91 1.445-5.205 3.12-7.47 5.468C4 13.126 1.5 18.394.595 24.656c-.44 3.04-.568 3.66-.594 19.188-.01 5.176 0 11.988 0 21.125 0 27.12.03 35.05.16 36.59.45 5.42 1.3 8.83 3.1 12.56 3.44 7.14 10.01 12.5 17.75 14.5 2.68.69 5.64 1.07 9.44 1.25 1.61.07 18.02.12 34.44.12 16.42 0 32.84-.02 34.41-.1 4.4-.207 6.955-.55 9.78-1.28 7.79-2.01 14.24-7.29 17.75-14.53 1.765-3.64 2.66-7.18 3.065-12.317.088-1.12.125-18.977.125-36.81 0-17.836-.04-35.66-.128-36.78-.41-5.22-1.305-8.73-3.127-12.44-1.495-3.037-3.155-5.305-5.565-7.624C116.9 4 111.64 1.5 105.372.596 102.335.157 101.73.027 86.19 0H65.03z" transform="translate(1.004 1)"/>
    <path fill="#fff" d="M66.004 18c-13.036 0-14.672.057-19.792.29-5.11.234-8.598 1.043-11.65 2.23-3.157 1.226-5.835 2.866-8.503 5.535-2.67 2.668-4.31 5.346-5.54 8.502-1.19 3.053-2 6.542-2.23 11.65C18.06 51.327 18 52.964 18 66s.058 14.667.29 19.787c.235 5.11 1.044 8.598 2.23 11.65 1.227 3.157 2.867 5.835 5.536 8.503 2.667 2.67 5.345 4.314 8.5 5.54 3.054 1.187 6.543 1.996 11.652 2.23 5.12.233 6.755.29 19.79.29 13.037 0 14.668-.057 19.788-.29 5.11-.234 8.602-1.043 11.656-2.23 3.156-1.226 5.83-2.87 8.497-5.54 2.67-2.668 4.31-5.346 5.54-8.502 1.18-3.053 1.99-6.542 2.23-11.65.23-5.12.29-6.752.29-19.788 0-13.036-.06-14.672-.29-19.792-.24-5.11-1.05-8.598-2.23-11.65-1.23-3.157-2.87-5.835-5.54-8.503-2.67-2.67-5.34-4.31-8.5-5.535-3.06-1.187-6.55-1.996-11.66-2.23-5.12-.233-6.75-.29-19.79-.29zm-4.306 8.65c1.278-.002 2.704 0 4.306 0 12.816 0 14.335.046 19.396.276 4.68.214 7.22.996 8.912 1.653 2.24.87 3.837 1.91 5.516 3.59 1.68 1.68 2.72 3.28 3.592 5.52.657 1.69 1.44 4.23 1.653 8.91.23 5.06.28 6.58.28 19.39s-.05 14.33-.28 19.39c-.214 4.68-.996 7.22-1.653 8.91-.87 2.24-1.912 3.835-3.592 5.514-1.68 1.68-3.275 2.72-5.516 3.59-1.69.66-4.232 1.44-8.912 1.654-5.06.23-6.58.28-19.396.28-12.817 0-14.336-.05-19.396-.28-4.68-.216-7.22-.998-8.913-1.655-2.24-.87-3.84-1.91-5.52-3.59-1.68-1.68-2.72-3.276-3.592-5.517-.657-1.69-1.44-4.23-1.653-8.91-.23-5.06-.276-6.58-.276-19.398s.046-14.33.276-19.39c.214-4.68.996-7.22 1.653-8.912.87-2.24 1.912-3.84 3.592-5.52 1.68-1.68 3.28-2.72 5.52-3.592 1.692-.66 4.233-1.44 8.913-1.655 4.428-.2 6.144-.26 15.09-.27zm29.928 7.97c-3.18 0-5.76 2.577-5.76 5.758 0 3.18 2.58 5.76 5.76 5.76 3.18 0 5.76-2.58 5.76-5.76 0-3.18-2.58-5.76-5.76-5.76zm-25.622 6.73c-13.613 0-24.65 11.037-24.65 24.65 0 13.613 11.037 24.645 24.65 24.645C79.617 90.645 90.65 79.613 90.65 66S79.616 41.35 66.003 41.35zm0 8.65c8.836 0 16 7.163 16 16 0 8.836-7.164 16-16 16-8.837 0-16-7.164-16-16 0-8.837 7.163-16 16-16z"/>
  </g>
</svg>
