<?xml version="1.0" encoding="UTF-8" standalone="no"?>
<!DOCTYPE svg PUBLIC "-//W3C//DTD SVG 1.1//EN"
 "http://www.w3.org/Graphics/SVG/1.1/DTD/svg11.dtd">
<!-- Generated by graphviz version 2.38.0 (20140413.2041)
 -->
<!-- Title: identity_crisis Pages: 1 -->
<svg width="347pt" height="183pt"
 viewBox="0.00 0.00 347.00 183.00" xmlns="http://www.w3.org/2000/svg" xmlns:xlink="http://www.w3.org/1999/xlink">
<g id="graph0" class="graph" transform="scale(1 1) rotate(0) translate(4 179)">
<title>identity_crisis</title>
<polygon fill="white" stroke="none" points="-4,4 -4,-179 343,-179 343,4 -4,4"/>
<g id="clust1" class="cluster"><title>cluster_ns1</title>
<polygon fill="none" stroke="black" points="8,-8 8,-167 181,-167 181,-8 8,-8"/>
<text text-anchor="start" x="85" y="-151.8" font-family="Times,serif" font-size="14.00">ns1</text>
</g>
<g id="clust2" class="cluster"><title>cluster_ns2</title>
<polygon fill="none" stroke="black" points="189,-8 189,-167 331,-167 331,-8 189,-8"/>
<text text-anchor="start" x="250.5" y="-151.8" font-family="Times,serif" font-size="14.00">ns2</text>
</g>
<!-- c9h8o4 -->
<g id="node1" class="node"><title>c9h8o4</title>
<ellipse fill="lightblue" stroke="lightblue" cx="50" cy="-34" rx="34.054" ry="18"/>
<text text-anchor="start" x="29.5" y="-32.2" font-family="Times,serif" font-size="11.00">C</text>
<text text-anchor="start" x="37.5" y="-32.2" font-family="Times,serif" baseline-shift="sub" font-size="11.00">9</text>
<text text-anchor="start" x="42.5" y="-32.2" font-family="Times,serif" font-size="11.00">H</text>
<text text-anchor="start" x="51.5" y="-32.2" font-family="Times,serif" baseline-shift="sub" font-size="11.00">8</text>
<text text-anchor="start" x="56.5" y="-32.2" font-family="Times,serif" font-size="11.00">O</text>
<text text-anchor="start" x="65.5" y="-32.2" font-family="Times,serif" baseline-shift="sub" font-size="11.00">4</text>
</g>
<!-- ns1 -->
<g id="node2" class="node"><title>ns1</title>
<ellipse fill="lightblue" stroke="lightblue" cx="88" cy="-118" rx="40.7822" ry="18"/>
<text text-anchor="start" x="62" y="-115.2" font-family="Times,serif" font-size="11.00">ns1:Aspirin</text>
</g>
<!-- ns1&#45;&gt;c9h8o4 -->
<g id="edge1" class="edge"><title>ns1&#45;&gt;c9h8o4</title>
<path fill="none" stroke="black" d="M75.7996,-100.457C71.9914,-94.7967 68.0056,-88.2999 65,-82 61.9988,-75.7093 59.3899,-68.6689 57.2272,-61.9911"/>
<polygon fill="black" stroke="black" points="60.4397,-60.5207 54.2037,-51.9555 53.7373,-62.5401 60.4397,-60.5207"/>
<text text-anchor="start" x="65" y="-73.2" font-family="Times,serif" font-size="11.00">compound</text>
</g>
<!-- headache -->
<g id="node3" class="node"><title>headache</title>
<ellipse fill="lightblue" stroke="lightblue" cx="138" cy="-34" rx="35.4579" ry="18"/>
<text text-anchor="middle" x="138" y="-31.2" font-family="Times,serif" font-size="11.00">headache</text>
</g>
<!-- ns1&#45;&gt;headache -->
<g id="edge2" class="edge"><title>ns1&#45;&gt;headache</title>
<path fill="none" stroke="black" d="M99.203,-100.396C103.022,-94.6211 107.267,-88.0695 111,-82 115.203,-75.1667 119.601,-67.6725 123.597,-60.7153"/>
<polygon fill="black" stroke="black" points="126.839,-62.0958 128.743,-51.6735 120.755,-58.6334 126.839,-62.0958"/>
<text text-anchor="start" x="118" y="-73.2" font-family="Times,serif" font-size="11.00">cures</text>
</g>
<!-- ns2 -->
<g id="node4" class="node"><title>ns2</title>
<ellipse fill="orange" stroke="orange" cx="258" cy="-118" rx="40.7822" ry="18"/>
<text text-anchor="start" x="232" y="-115.2" font-family="Times,serif" font-size="11.00">ns2:Aspirin</text>
</g>
<!-- binc -->
<g id="node5" class="node"><title>binc</title>
<ellipse fill="orange" stroke="orange" cx="224" cy="-34" rx="27" ry="18"/>
<text text-anchor="start" x="210" y="-31.2" font-family="Times,serif" font-size="11.00">B Inc.</text>
</g>
<!-- ns2&#45;&gt;binc -->
<g id="edge3" class="edge"><title>ns2&#45;&gt;binc</title>
<path fill="none" stroke="black" d="M246.787,-100.401C243.305,-94.737 239.681,-88.2521 237,-82 234.285,-75.6684 231.982,-68.6131 230.104,-61.9339"/>
<polygon fill="black" stroke="black" points="233.402,-60.7074 227.504,-51.9058 226.626,-62.4641 233.402,-60.7074"/>
<text text-anchor="start" x="237" y="-73.2" font-family="Times,serif" font-size="11.00">sold by</text>
</g>
<!-- bprice -->
<g id="node6" class="node"><title>bprice</title>
<ellipse fill="orange" stroke="orange" cx="296" cy="-34" rx="27" ry="18"/>
<text text-anchor="start" x="284.5" y="-31.2" font-family="Times,serif" font-size="11.00">€10,&#45;</text>
</g>
<!-- ns2&#45;&gt;bprice -->
<g id="edge4" class="edge"><title>ns2&#45;&gt;bprice</title>
<path fill="none" stroke="black" d="M265.874,-100.01C271.14,-88.6454 278.167,-73.4816 284.11,-60.6578"/>
<polygon fill="black" stroke="black" points="287.367,-61.9539 288.396,-51.4091 281.016,-59.0106 287.367,-61.9539"/>
<text text-anchor="start" x="279" y="-73.2" font-family="Times,serif" font-size="11.00">price</text>
</g>
</g>
</svg>
