<?xml version="1.0" encoding="UTF-8" standalone="no"?>
<!DOCTYPE svg PUBLIC "-//W3C//DTD SVG 1.1//EN"
 "http://www.w3.org/Graphics/SVG/1.1/DTD/svg11.dtd">
<!-- Generated by graphviz version 2.38.0 (20140413.2041)
 -->
<!-- Title: identity_crisis4 Pages: 1 -->
<svg width="580pt" height="183pt"
 viewBox="0.00 0.00 580.00 183.00" xmlns="http://www.w3.org/2000/svg" xmlns:xlink="http://www.w3.org/1999/xlink">
<g id="graph0" class="graph" transform="scale(1 1) rotate(0) translate(4 179)">
<title>identity_crisis4</title>
<polygon fill="white" stroke="none" points="-4,4 -4,-179 576,-179 576,4 -4,4"/>
<g id="clust1" class="cluster"><title>cluster_ns1</title>
<polygon fill="none" stroke="black" points="8,-8 8,-167 326,-167 326,-8 8,-8"/>
<text text-anchor="start" x="157.5" y="-151.8" font-family="Times,serif" font-size="14.00">ns1</text>
</g>
<g id="clust2" class="cluster"><title>cluster_ns2</title>
<polygon fill="none" stroke="black" points="422,-8 422,-167 564,-167 564,-8 422,-8"/>
<text text-anchor="start" x="483.5" y="-151.8" font-family="Times,serif" font-size="14.00">ns2</text>
</g>
<!-- c9h8o4 -->
<g id="node1" class="node"><title>c9h8o4</title>
<ellipse fill="lightblue" stroke="lightblue" cx="50" cy="-34" rx="34.054" ry="18"/>
<text text-anchor="start" x="29.5" y="-32.2" font-family="Times,serif" font-size="11.00">C</text>
<text text-anchor="start" x="37.5" y="-32.2" font-family="Times,serif" baseline-shift="sub" font-size="11.00">9</text>
<text text-anchor="start" x="42.5" y="-32.2" font-family="Times,serif" font-size="11.00">H</text>
<text text-anchor="start" x="51.5" y="-32.2" font-family="Times,serif" baseline-shift="sub" font-size="11.00">8</text>
<text text-anchor="start" x="56.5" y="-32.2" font-family="Times,serif" font-size="11.00">O</text>
<text text-anchor="start" x="65.5" y="-32.2" font-family="Times,serif" baseline-shift="sub" font-size="11.00">4</text>
</g>
<!-- ns1 -->
<g id="node2" class="node"><title>ns1</title>
<ellipse fill="lightblue" stroke="lightblue" cx="159" cy="-118" rx="40.7822" ry="18"/>
<text text-anchor="start" x="133" y="-115.2" font-family="Times,serif" font-size="11.00">ns1:Aspirin</text>
</g>
<!-- ns1&#45;&gt;c9h8o4 -->
<g id="edge1" class="edge"><title>ns1&#45;&gt;c9h8o4</title>
<path fill="none" stroke="black" d="M120.093,-112.118C99.7579,-107.585 76.0404,-98.8458 61,-82 56.1251,-76.54 53.2962,-69.3345 51.6847,-62.2103"/>
<polygon fill="black" stroke="black" points="55.0982,-61.384 50.0981,-52.0433 48.1819,-62.4634 55.0982,-61.384"/>
<text text-anchor="start" x="61" y="-73.2" font-family="Times,serif" font-size="11.00">compound</text>
</g>
<!-- headache -->
<g id="node3" class="node"><title>headache</title>
<ellipse fill="lightblue" stroke="lightblue" cx="138" cy="-34" rx="35.4579" ry="18"/>
<text text-anchor="middle" x="138" y="-31.2" font-family="Times,serif" font-size="11.00">headache</text>
</g>
<!-- ns1&#45;&gt;headache -->
<g id="edge2" class="edge"><title>ns1&#45;&gt;headache</title>
<path fill="none" stroke="black" d="M132.998,-103.978C124.736,-98.4212 116.565,-91.0918 112,-82 108.09,-74.2134 110.498,-65.8497 115.133,-58.3674"/>
<polygon fill="black" stroke="black" points="118.151,-60.1761 121.351,-50.0761 112.551,-55.976 118.151,-60.1761"/>
<text text-anchor="start" x="112" y="-73.2" font-family="Times,serif" font-size="11.00">cures</text>
</g>
<!-- ainc -->
<g id="node4" class="node"><title>ainc</title>
<ellipse fill="lightblue" stroke="lightblue" cx="219" cy="-34" rx="27.1205" ry="18"/>
<text text-anchor="start" x="204.5" y="-31.2" font-family="Times,serif" font-size="11.00">A Inc.</text>
</g>
<!-- ns1&#45;&gt;ainc -->
<g id="edge3" class="edge"><title>ns1&#45;&gt;ainc</title>
<path fill="none" stroke="red" d="M155.501,-99.8201C154.493,-90.4059 154.816,-78.8814 160,-70 163.478,-64.0406 175.896,-56.3053 188.447,-49.6227"/>
<polygon fill="red" stroke="red" points="190.187,-52.664 197.485,-44.9833 186.99,-46.4367 190.187,-52.664"/>
<text text-anchor="start" x="160" y="-73.2" font-family="Times,serif" font-size="11.00">sold by</text>
</g>
<!-- aprice -->
<g id="node5" class="node"><title>aprice</title>
<ellipse fill="lightblue" stroke="lightblue" cx="291" cy="-34" rx="27" ry="18"/>
<text text-anchor="start" x="282" y="-31.2" font-family="Times,serif" font-size="11.00">€5,&#45;</text>
</g>
<!-- ns1&#45;&gt;aprice -->
<g id="edge4" class="edge"><title>ns1&#45;&gt;aprice</title>
<path fill="none" stroke="red" d="M175.218,-101.312C185.927,-91.4959 200.595,-79.0424 215,-70 231.511,-59.6356 237.296,-60.1626 255,-52 256.789,-51.1752 258.626,-50.3234 260.477,-49.4607"/>
<polygon fill="red" stroke="red" points="262.141,-52.5464 269.71,-45.1326 259.17,-46.2083 262.141,-52.5464"/>
<text text-anchor="start" x="215" y="-73.2" font-family="Times,serif" font-size="11.00">price</text>
</g>
<!-- ns2 -->
<g id="node6" class="node"><title>ns2</title>
<ellipse fill="orange" stroke="orange" cx="471" cy="-118" rx="40.7822" ry="18"/>
<text text-anchor="start" x="445" y="-115.2" font-family="Times,serif" font-size="11.00">ns2:Aspirin</text>
</g>
<!-- ns1&#45;&gt;ns2 -->
<g id="edge7" class="edge"><title>ns1&#45;&gt;ns2</title>
<path fill="none" stroke="black" d="M210.346,-118C268.266,-118 361.909,-118 419.778,-118"/>
<polygon fill="black" stroke="black" points="210.109,-114.5 200.109,-118 210.109,-121.5 210.109,-114.5"/>
<polygon fill="black" stroke="black" points="419.8,-121.5 429.8,-118 419.8,-114.5 419.8,-121.5"/>
<text text-anchor="start" x="287" y="-124.2" font-family="Times,serif" font-size="11.00">owl:sameAs</text>
</g>
<!-- ns2&#45;&gt;c9h8o4 -->
<g id="edge8" class="edge"><title>ns2&#45;&gt;c9h8o4</title>
<path fill="none" stroke="black" stroke-dasharray="1,5" d="M431.786,-112.489C379.037,-106.096 288.237,-93.8548 257,-82 247.662,-78.4562 247.403,-73.3668 238,-70 177.277,-48.2577 156.548,-67.7398 94,-52 91.1708,-51.288 88.2769,-50.445 85.3912,-49.5212"/>
<polygon fill="black" stroke="black" points="86.3118,-46.1355 75.7169,-46.1421 84.0035,-52.7439 86.3118,-46.1355"/>
<text text-anchor="start" x="257" y="-73.2" font-family="Times,serif" font-size="11.00">compound</text>
</g>
<!-- ns2&#45;&gt;headache -->
<g id="edge9" class="edge"><title>ns2&#45;&gt;headache</title>
<path fill="none" stroke="black" stroke-dasharray="1,5" d="M432.981,-111.324C403.088,-106.039 360.823,-96.7264 326,-82 316.801,-78.1099 316.369,-73.4598 307,-70 254.759,-50.7092 236.92,-65.9221 183,-52 180.195,-51.2758 177.324,-50.4357 174.456,-49.5245"/>
<polygon fill="black" stroke="black" points="175.415,-46.1531 164.82,-46.2171 173.143,-52.774 175.415,-46.1531"/>
<text text-anchor="start" x="326" y="-73.2" font-family="Times,serif" font-size="11.00">cures</text>
</g>
<!-- ns2&#45;&gt;ainc -->
<g id="edge10" class="edge"><title>ns2&#45;&gt;ainc</title>
<path fill="none" stroke="red" stroke-dasharray="1,5" d="M437.94,-107.05C418.836,-100.817 394.586,-92.0665 374,-82 365.028,-77.6126 364.309,-73.6182 355,-70 312.909,-53.6403 298.011,-65.7604 255,-52 253.074,-51.384 251.119,-50.6868 249.165,-49.935"/>
<polygon fill="red" stroke="red" points="250.135,-46.5436 239.563,-45.8445 247.391,-52.9837 250.135,-46.5436"/>
<text text-anchor="start" x="374" y="-73.2" font-family="Times,serif" font-size="11.00">sold by</text>
</g>
<!-- ns2&#45;&gt;aprice -->
<g id="edge11" class="edge"><title>ns2&#45;&gt;aprice</title>
<path fill="none" stroke="red" stroke-dasharray="1,5" d="M454.29,-101.365C442.642,-91.1914 426.319,-78.3157 410,-70 383.474,-56.4831 350.892,-47.358 326.532,-41.8233"/>
<polygon fill="red" stroke="red" points="327.153,-38.3765 316.637,-39.6688 325.663,-45.2163 327.153,-38.3765"/>
<text text-anchor="start" x="429" y="-73.2" font-family="Times,serif" font-size="11.00">price</text>
</g>
<!-- binc -->
<g id="node7" class="node"><title>binc</title>
<ellipse fill="orange" stroke="orange" cx="457" cy="-34" rx="27" ry="18"/>
<text text-anchor="start" x="443" y="-31.2" font-family="Times,serif" font-size="11.00">B Inc.</text>
</g>
<!-- ns2&#45;&gt;binc -->
<g id="edge5" class="edge"><title>ns2&#45;&gt;binc</title>
<path fill="none" stroke="black" d="M468.099,-100.01C466.222,-89.0148 463.738,-74.4635 461.595,-61.9156"/>
<polygon fill="black" stroke="black" points="465.03,-61.237 459.897,-51.9687 458.13,-62.4151 465.03,-61.237"/>
<text text-anchor="start" x="464" y="-73.2" font-family="Times,serif" font-size="11.00">sold by</text>
</g>
<!-- bprice -->
<g id="node8" class="node"><title>bprice</title>
<ellipse fill="orange" stroke="orange" cx="529" cy="-34" rx="27" ry="18"/>
<text text-anchor="start" x="517.5" y="-31.2" font-family="Times,serif" font-size="11.00">€10,&#45;</text>
</g>
<!-- ns2&#45;&gt;bprice -->
<g id="edge6" class="edge"><title>ns2&#45;&gt;bprice</title>
<path fill="none" stroke="black" d="M485.057,-100.992C489.968,-95.1546 495.4,-88.4115 500,-82 505.031,-74.9888 510.108,-67.0984 514.578,-59.8134"/>
<polygon fill="black" stroke="black" points="517.711,-61.3949 519.866,-51.0214 511.713,-57.7872 517.711,-61.3949"/>
<text text-anchor="start" x="507" y="-73.2" font-family="Times,serif" font-size="11.00">price</text>
</g>
</g>
</svg>
