<?xml version="1.0" encoding="UTF-8" standalone="no"?>
<!DOCTYPE svg PUBLIC "-//W3C//DTD SVG 1.1//EN"
 "http://www.w3.org/Graphics/SVG/1.1/DTD/svg11.dtd">
<!-- Generated by graphviz version 2.38.0 (20140413.2041)
 -->
<!-- Title: identity_crisis Pages: 1 -->
<svg width="347pt" height="288pt"
 viewBox="0.00 0.00 347.00 288.00" xmlns="http://www.w3.org/2000/svg" xmlns:xlink="http://www.w3.org/1999/xlink">
<g id="graph0" class="graph" transform="scale(1 1) rotate(0) translate(4 284)">
<title>identity_crisis</title>
<polygon fill="white" stroke="none" points="-4,4 -4,-284 343,-284 343,4 -4,4"/>
<g id="clust1" class="cluster"><title>cluster_ns1</title>
<polygon fill="none" stroke="black" points="8,-92 8,-272 181,-272 181,-92 8,-92"/>
<text text-anchor="start" x="85" y="-256.8" font-family="Times,serif" font-size="14.00">ns1</text>
</g>
<g id="clust2" class="cluster"><title>cluster_ns2</title>
<polygon fill="none" stroke="black" points="189,-8 189,-167 331,-167 331,-8 189,-8"/>
<text text-anchor="start" x="250.5" y="-151.8" font-family="Times,serif" font-size="14.00">ns2</text>
</g>
<!-- c9h8o4 -->
<g id="node1" class="node"><title>c9h8o4</title>
<ellipse fill="lightblue" stroke="lightblue" cx="50" cy="-118" rx="34.054" ry="18"/>
<text text-anchor="start" x="29.5" y="-116.2" font-family="Times,serif" font-size="11.00">C</text>
<text text-anchor="start" x="37.5" y="-116.2" font-family="Times,serif" baseline-shift="sub" font-size="11.00">9</text>
<text text-anchor="start" x="42.5" y="-116.2" font-family="Times,serif" font-size="11.00">H</text>
<text text-anchor="start" x="51.5" y="-116.2" font-family="Times,serif" baseline-shift="sub" font-size="11.00">8</text>
<text text-anchor="start" x="56.5" y="-116.2" font-family="Times,serif" font-size="11.00">O</text>
<text text-anchor="start" x="65.5" y="-116.2" font-family="Times,serif" baseline-shift="sub" font-size="11.00">4</text>
</g>
<!-- ns1 -->
<g id="node2" class="node"><title>ns1</title>
<ellipse fill="lightblue" stroke="lightblue" cx="132" cy="-223" rx="40.7822" ry="18"/>
<text text-anchor="start" x="106" y="-220.2" font-family="Times,serif" font-size="11.00">ns1:Aspirin</text>
</g>
<!-- ns1&#45;&gt;c9h8o4 -->
<g id="edge1" class="edge"><title>ns1&#45;&gt;c9h8o4</title>
<path fill="none" stroke="black" d="M111.492,-207.254C104.206,-201.436 96.2657,-194.38 90,-187 79.1579,-174.229 69.5451,-158.139 62.4619,-144.816"/>
<polygon fill="black" stroke="black" points="65.4555,-142.984 57.7699,-135.692 59.2303,-146.185 65.4555,-142.984"/>
<text text-anchor="start" x="90" y="-178.2" font-family="Times,serif" font-size="11.00">chemical</text>
</g>
<!-- headache -->
<g id="node3" class="node"><title>headache</title>
<ellipse fill="lightblue" stroke="lightblue" cx="138" cy="-118" rx="35.4579" ry="18"/>
<text text-anchor="middle" x="138" y="-115.2" font-family="Times,serif" font-size="11.00">headache</text>
</g>
<!-- ns1&#45;&gt;headache -->
<g id="edge2" class="edge"><title>ns1&#45;&gt;headache</title>
<path fill="none" stroke="black" d="M132.991,-204.992C133.92,-189.038 135.325,-164.913 136.411,-146.272"/>
<polygon fill="black" stroke="black" points="139.92,-146.22 137.008,-136.034 132.932,-145.813 139.92,-146.22"/>
<text text-anchor="start" x="135" y="-178.2" font-family="Times,serif" font-size="11.00">cures</text>
</g>
<!-- ns2 -->
<g id="node4" class="node"><title>ns2</title>
<ellipse fill="orange" stroke="orange" cx="238" cy="-118" rx="40.7822" ry="18"/>
<text text-anchor="start" x="212" y="-115.2" font-family="Times,serif" font-size="11.00">ns2:Aspirin</text>
</g>
<!-- ns1&#45;&gt;ns2 -->
<g id="edge5" class="edge"><title>ns1&#45;&gt;ns2</title>
<path fill="none" stroke="red" d="M155.362,-199.3C172.816,-182.339 196.591,-159.237 214.159,-142.166"/>
<polygon fill="red" stroke="red" points="152.832,-196.877 148.099,-206.357 157.71,-201.898 152.832,-196.877"/>
<polygon fill="red" stroke="red" points="217.017,-144.27 221.749,-134.791 212.138,-139.249 217.017,-144.27"/>
<text text-anchor="start" x="179" y="-178.2" font-family="Times,serif" font-size="11.00">owl:sameAs</text>
</g>
<!-- binc -->
<g id="node5" class="node"><title>binc</title>
<ellipse fill="orange" stroke="orange" cx="224" cy="-34" rx="27" ry="18"/>
<text text-anchor="start" x="210" y="-31.2" font-family="Times,serif" font-size="11.00">B Inc.</text>
</g>
<!-- ns2&#45;&gt;binc -->
<g id="edge3" class="edge"><title>ns2&#45;&gt;binc</title>
<path fill="none" stroke="black" d="M235.099,-100.01C233.222,-89.0148 230.738,-74.4635 228.595,-61.9156"/>
<polygon fill="black" stroke="black" points="232.03,-61.237 226.897,-51.9687 225.13,-62.4151 232.03,-61.237"/>
<text text-anchor="start" x="232" y="-73.2" font-family="Times,serif" font-size="11.00">sold by</text>
</g>
<!-- bprice -->
<g id="node6" class="node"><title>bprice</title>
<ellipse fill="orange" stroke="orange" cx="296" cy="-34" rx="27" ry="18"/>
<text text-anchor="start" x="284.5" y="-31.2" font-family="Times,serif" font-size="11.00">€10,&#45;</text>
</g>
<!-- ns2&#45;&gt;bprice -->
<g id="edge4" class="edge"><title>ns2&#45;&gt;bprice</title>
<path fill="none" stroke="black" d="M252.642,-101.09C257.732,-95.2622 263.331,-88.4998 268,-82 272.987,-75.0575 277.929,-67.1875 282.24,-59.9001"/>
<polygon fill="black" stroke="black" points="285.354,-61.5056 287.32,-51.0947 279.291,-58.0076 285.354,-61.5056"/>
<text text-anchor="start" x="275" y="-73.2" font-family="Times,serif" font-size="11.00">price</text>
</g>
</g>
</svg>
