<?xml version="1.0" encoding="UTF-8" standalone="no"?>
<!DOCTYPE svg PUBLIC "-//W3C//DTD SVG 1.1//EN"
 "http://www.w3.org/Graphics/SVG/1.1/DTD/svg11.dtd">
<!-- Generated by graphviz version 2.38.0 (20140413.2041)
 -->
<!-- Title: identity2 Pages: 1 -->
<svg width="493pt" height="326pt"
 viewBox="0.00 0.00 492.88 326.00" xmlns="http://www.w3.org/2000/svg" xmlns:xlink="http://www.w3.org/1999/xlink">
<g id="graph0" class="graph" transform="scale(1 1) rotate(0) translate(4 322)">
<title>identity2</title>
<polygon fill="white" stroke="none" points="-4,4 -4,-322 488.88,-322 488.88,4 -4,4"/>
<g id="clust1" class="cluster"><title>cluster1</title>
<polygon fill="none" stroke="black" points="8,-181 8,-310 281.969,-310 281.969,-181 8,-181"/>
<text text-anchor="start" x="135.485" y="-294.8" font-family="Times,serif" font-size="14.00">ns1</text>
</g>
<g id="clust2" class="cluster"><title>cluster2</title>
<polygon fill="none" stroke="black" points="187.795,-44 187.795,-173 476.88,-173 476.88,-44 187.795,-44"/>
<text text-anchor="start" x="322.838" y="-157.8" font-family="Times,serif" font-size="14.00">ns2</text>
</g>
<!-- c9h8o4 -->
<g id="node1" class="node"><title>c9h8o4</title>
<ellipse fill="lightblue" stroke="lightblue" cx="239.693" cy="-207" rx="34.054" ry="18"/>
<text text-anchor="start" x="219.193" y="-205.2" font-family="Times,serif" font-size="11.00">C</text>
<text text-anchor="start" x="227.193" y="-205.2" font-family="Times,serif" baseline-shift="sub" font-size="11.00">9</text>
<text text-anchor="start" x="232.193" y="-205.2" font-family="Times,serif" font-size="11.00">H</text>
<text text-anchor="start" x="241.193" y="-205.2" font-family="Times,serif" baseline-shift="sub" font-size="11.00">8</text>
<text text-anchor="start" x="246.193" y="-205.2" font-family="Times,serif" font-size="11.00">O</text>
<text text-anchor="start" x="255.193" y="-205.2" font-family="Times,serif" baseline-shift="sub" font-size="11.00">4</text>
</g>
<!-- ns1 -->
<g id="node2" class="node"><title>ns1</title>
<ellipse fill="lightblue" stroke="lightblue" cx="59.8977" cy="-261" rx="40.7822" ry="18"/>
<text text-anchor="start" x="33.8977" y="-258.2" font-family="Times,serif" font-size="11.00">ns1:Aspirin</text>
</g>
<!-- ns1&#45;&gt;c9h8o4 -->
<g id="edge1" class="edge"><title>ns1&#45;&gt;c9h8o4</title>
<path fill="none" stroke="black" d="M93.9229,-250.97C123.917,-241.86 168.182,-228.416 199.861,-218.794"/>
<polygon fill="black" stroke="black" points="201.119,-222.07 209.67,-215.815 199.085,-215.372 201.119,-222.07"/>
<text text-anchor="start" x="129.295" y="-244.2" font-family="Times,serif" font-size="11.00">chemical</text>
</g>
<!-- ainc -->
<g id="node3" class="node"><title>ainc</title>
<ellipse fill="lightblue" stroke="lightblue" cx="239.693" cy="-261" rx="27.1205" ry="18"/>
<text text-anchor="start" x="225.193" y="-258.2" font-family="Times,serif" font-size="11.00">A Inc.</text>
</g>
<!-- ns1&#45;&gt;ainc -->
<g id="edge2" class="edge"><title>ns1&#45;&gt;ainc</title>
<path fill="none" stroke="black" d="M100.798,-261C131.163,-261 172.618,-261 202.127,-261"/>
<polygon fill="black" stroke="black" points="202.416,-264.5 212.416,-261 202.416,-257.5 202.416,-264.5"/>
<text text-anchor="start" x="133.795" y="-264.2" font-family="Times,serif" font-size="11.00">sold by</text>
</g>
<!-- ns2 -->
<g id="node5" class="node"><title>ns2</title>
<ellipse fill="orange" stroke="orange" cx="239.693" cy="-124" rx="40.7822" ry="18"/>
<text text-anchor="start" x="213.693" y="-121.2" font-family="Times,serif" font-size="11.00">ns2:Aspirin</text>
</g>
<!-- ns1&#45;&gt;ns2 -->
<g id="edge5" class="edge"><title>ns1&#45;&gt;ns2</title>
<path fill="none" stroke="black" d="M94.848,-241.214C97.9823,-238.924 101.019,-236.506 103.795,-234 113.431,-225.303 112.506,-220.067 121.795,-211 148.078,-185.347 182.143,-160.812 206.713,-144.375"/>
<polygon fill="black" stroke="black" points="92.7256,-238.425 86.4357,-246.951 96.6695,-244.208 92.7256,-238.425"/>
<polygon fill="black" stroke="black" points="208.89,-147.132 215.303,-138.699 205.031,-141.292 208.89,-147.132"/>
<text text-anchor="start" x="121.795" y="-214.2" font-family="Times,serif" font-size="11.00">owl:sameAs</text>
</g>
<!-- binc -->
<g id="node6" class="node"><title>binc</title>
<ellipse fill="orange" stroke="orange" cx="441.88" cy="-124" rx="27" ry="18"/>
<text text-anchor="start" x="427.88" y="-121.2" font-family="Times,serif" font-size="11.00">B Inc.</text>
</g>
<!-- ainc&#45;&gt;binc -->
<g id="edge6" class="edge"><title>ainc&#45;&gt;binc</title>
<path fill="none" stroke="black" d="M268.74,-243.621C273.714,-240.461 278.825,-237.163 283.591,-234 330.284,-203.005 383.514,-165.257 414.538,-143.008"/>
<polygon fill="black" stroke="black" points="266.636,-240.81 260.039,-249.101 270.366,-246.733 266.636,-240.81"/>
<polygon fill="black" stroke="black" points="416.596,-145.839 422.675,-137.162 412.512,-140.154 416.596,-145.839"/>
<text text-anchor="start" x="301.591" y="-223.2" font-family="Times,serif" font-size="11.00">owl:differentFrom</text>
</g>
<!-- nicotine1 -->
<g id="node4" class="node"><title>nicotine1</title>
<ellipse fill="lightblue" stroke="red" cx="59.8977" cy="-207" rx="43.7956" ry="18"/>
<text text-anchor="start" x="31.3977" y="-204.2" font-family="Times,serif" font-size="11.00">ns1:Nicotine</text>
</g>
<!-- c10h14n2 -->
<g id="node8" class="node"><title>c10h14n2</title>
<ellipse fill="lightgrey" stroke="red" cx="441.88" cy="-18" rx="40.0804" ry="18"/>
<text text-anchor="start" x="416.38" y="-16.2" font-family="Times,serif" font-size="11.00">C</text>
<text text-anchor="start" x="424.38" y="-16.2" font-family="Times,serif" baseline-shift="sub" font-size="11.00">10</text>
<text text-anchor="start" x="434.38" y="-16.2" font-family="Times,serif" font-size="11.00">H</text>
<text text-anchor="start" x="443.38" y="-16.2" font-family="Times,serif" baseline-shift="sub" font-size="11.00">14</text>
<text text-anchor="start" x="453.38" y="-16.2" font-family="Times,serif" font-size="11.00">N</text>
<text text-anchor="start" x="462.38" y="-16.2" font-family="Times,serif" baseline-shift="sub" font-size="11.00">2</text>
</g>
<!-- nicotine1&#45;&gt;c10h14n2 -->
<g id="edge7" class="edge"><title>nicotine1&#45;&gt;c10h14n2</title>
<path fill="none" stroke="red" d="M67.2766,-189.135C81.8391,-151.368 121.488,-63.9485 187.795,-28 253.029,7.36655 342.231,0.452459 395.458,-8.3686"/>
<polygon fill="red" stroke="red" points="395.151,-11.8682 405.605,-10.1463 396.359,-4.97319 395.151,-11.8682"/>
<text text-anchor="start" x="219.193" y="-31.2" font-family="Times,serif" font-size="11.00">chemical</text>
</g>
<!-- ns2&#45;&gt;c9h8o4 -->
<g id="edge3" class="edge"><title>ns2&#45;&gt;c9h8o4</title>
<path fill="none" stroke="black" d="M239.693,-142.01C239.693,-152.704 239.693,-166.501 239.693,-178.629"/>
<polygon fill="black" stroke="black" points="236.193,-178.739 239.693,-188.739 243.193,-178.739 236.193,-178.739"/>
<text text-anchor="start" x="210.193" y="-162.7" font-family="Times,serif" font-size="11.00">chemical</text>
</g>
<!-- ns2&#45;&gt;binc -->
<g id="edge4" class="edge"><title>ns2&#45;&gt;binc</title>
<path fill="none" stroke="black" d="M280.723,-124C316.811,-124 369.429,-124 404.383,-124"/>
<polygon fill="black" stroke="black" points="404.627,-127.5 414.627,-124 404.626,-120.5 404.627,-127.5"/>
<text text-anchor="start" x="326.591" y="-127.2" font-family="Times,serif" font-size="11.00">sold by</text>
</g>
<!-- nicotine2 -->
<g id="node7" class="node"><title>nicotine2</title>
<ellipse fill="orange" stroke="red" cx="239.693" cy="-70" rx="43.7956" ry="18"/>
<text text-anchor="start" x="211.193" y="-67.2" font-family="Times,serif" font-size="11.00">ns2:Nicotine</text>
</g>
<!-- nicotine2&#45;&gt;c10h14n2 -->
<g id="edge8" class="edge"><title>nicotine2&#45;&gt;c10h14n2</title>
<path fill="none" stroke="red" d="M277.77,-60.935C306.655,-53.8061 347.737,-43.5213 383.591,-34 388.034,-32.8201 392.664,-31.5668 397.282,-30.3012"/>
<polygon fill="red" stroke="red" points="398.587,-33.5717 407.294,-27.5348 396.723,-26.8245 398.587,-33.5717"/>
<text text-anchor="start" x="322.091" y="-58.2" font-family="Times,serif" font-size="11.00">chemical</text>
</g>
</g>
</svg>
