<?xml version="1.0" encoding="UTF-8" standalone="no"?>
<!DOCTYPE svg PUBLIC "-//W3C//DTD SVG 1.1//EN"
 "http://www.w3.org/Graphics/SVG/1.1/DTD/svg11.dtd">
<!-- Generated by graphviz version 2.38.0 (20140413.2041)
 -->
<!-- Title: identity_crisis4 Pages: 1 -->
<svg width="570pt" height="183pt"
 viewBox="0.00 0.00 570.00 183.00" xmlns="http://www.w3.org/2000/svg" xmlns:xlink="http://www.w3.org/1999/xlink">
<g id="graph0" class="graph" transform="scale(1 1) rotate(0) translate(4 179)">
<title>identity_crisis4</title>
<polygon fill="white" stroke="none" points="-4,4 -4,-179 566,-179 566,4 -4,4"/>
<g id="clust1" class="cluster"><title>cluster_ns1</title>
<polygon fill="none" stroke="black" points="8,-8 8,-167 326,-167 326,-8 8,-8"/>
<text text-anchor="start" x="157.5" y="-151.8" font-family="Times,serif" font-size="14.00">ns1</text>
</g>
<g id="clust2" class="cluster"><title>cluster_ns2</title>
<polygon fill="none" stroke="black" points="412,-8 412,-167 554,-167 554,-8 412,-8"/>
<text text-anchor="start" x="473.5" y="-151.8" font-family="Times,serif" font-size="14.00">ns2</text>
</g>
<!-- c9h8o4 -->
<g id="node1" class="node"><title>c9h8o4</title>
<ellipse fill="lightblue" stroke="lightblue" cx="50" cy="-34" rx="34.054" ry="18"/>
<text text-anchor="start" x="29.5" y="-32.2" font-family="Times,serif" font-size="11.00">C</text>
<text text-anchor="start" x="37.5" y="-32.2" font-family="Times,serif" baseline-shift="sub" font-size="11.00">9</text>
<text text-anchor="start" x="42.5" y="-32.2" font-family="Times,serif" font-size="11.00">H</text>
<text text-anchor="start" x="51.5" y="-32.2" font-family="Times,serif" baseline-shift="sub" font-size="11.00">8</text>
<text text-anchor="start" x="56.5" y="-32.2" font-family="Times,serif" font-size="11.00">O</text>
<text text-anchor="start" x="65.5" y="-32.2" font-family="Times,serif" baseline-shift="sub" font-size="11.00">4</text>
</g>
<!-- ns1 -->
<g id="node2" class="node"><title>ns1</title>
<ellipse fill="lightblue" stroke="lightblue" cx="154" cy="-118" rx="40.7822" ry="18"/>
<text text-anchor="start" x="128" y="-115.2" font-family="Times,serif" font-size="11.00">ns1:Aspirin</text>
</g>
<!-- ns1&#45;&gt;c9h8o4 -->
<g id="edge1" class="edge"><title>ns1&#45;&gt;c9h8o4</title>
<path fill="none" stroke="black" d="M115.645,-111.272C96.656,-106.508 74.8838,-97.8178 61,-82 56.2458,-76.5835 53.4444,-69.5021 51.8204,-62.4857"/>
<polygon fill="black" stroke="black" points="55.2492,-61.7642 50.193,-52.4537 48.3395,-62.8851 55.2492,-61.7642"/>
<text text-anchor="start" x="61" y="-73.2" font-family="Times,serif" font-size="11.00">chemical</text>
</g>
<!-- headache -->
<g id="node3" class="node"><title>headache</title>
<ellipse fill="lightblue" stroke="lightblue" cx="138" cy="-34" rx="35.4579" ry="18"/>
<text text-anchor="middle" x="138" y="-31.2" font-family="Times,serif" font-size="11.00">headache</text>
</g>
<!-- ns1&#45;&gt;headache -->
<g id="edge2" class="edge"><title>ns1&#45;&gt;headache</title>
<path fill="none" stroke="black" d="M127.998,-103.978C119.736,-98.4212 111.565,-91.0918 107,-82 102.748,-73.5322 106.161,-64.7381 112.044,-57.0791"/>
<polygon fill="black" stroke="black" points="115.001,-59.0309 119.151,-49.2828 109.828,-54.3151 115.001,-59.0309"/>
<text text-anchor="start" x="107" y="-73.2" font-family="Times,serif" font-size="11.00">cures</text>
</g>
<!-- ainc -->
<g id="node4" class="node"><title>ainc</title>
<ellipse fill="lightblue" stroke="lightblue" cx="219" cy="-34" rx="27.1205" ry="18"/>
<text text-anchor="start" x="204.5" y="-31.2" font-family="Times,serif" font-size="11.00">A Inc.</text>
</g>
<!-- ns1&#45;&gt;ainc -->
<g id="edge3" class="edge"><title>ns1&#45;&gt;ainc</title>
<path fill="none" stroke="red" d="M150.382,-99.7489C149.336,-90.3124 149.662,-78.7894 155,-70 157.116,-66.5164 173.288,-57.6857 188.844,-49.7666"/>
<polygon fill="red" stroke="red" points="190.457,-52.8733 197.821,-45.2566 187.314,-46.6183 190.457,-52.8733"/>
<text text-anchor="start" x="155" y="-73.2" font-family="Times,serif" font-size="11.00">sold by</text>
</g>
<!-- aprice -->
<g id="node5" class="node"><title>aprice</title>
<ellipse fill="lightblue" stroke="lightblue" cx="291" cy="-34" rx="27" ry="18"/>
<text text-anchor="start" x="282" y="-31.2" font-family="Times,serif" font-size="11.00">€5,&#45;</text>
</g>
<!-- ns1&#45;&gt;aprice -->
<g id="edge4" class="edge"><title>ns1&#45;&gt;aprice</title>
<path fill="none" stroke="red" d="M170.09,-101.103C180.747,-91.2033 195.407,-78.7353 210,-70 228.483,-58.9367 235.252,-60.603 255,-52 256.806,-51.2133 258.656,-50.391 260.518,-49.5509"/>
<polygon fill="red" stroke="red" points="262.161,-52.6477 269.777,-45.2832 259.23,-46.2904 262.161,-52.6477"/>
<text text-anchor="start" x="210" y="-73.2" font-family="Times,serif" font-size="11.00">price</text>
</g>
<!-- ns2 -->
<g id="node6" class="node"><title>ns2</title>
<ellipse fill="orange" stroke="orange" cx="461" cy="-118" rx="40.7822" ry="18"/>
<text text-anchor="start" x="435" y="-115.2" font-family="Times,serif" font-size="11.00">ns2:Aspirin</text>
</g>
<!-- ns1&#45;&gt;ns2 -->
<g id="edge7" class="edge"><title>ns1&#45;&gt;ns2</title>
<path fill="none" stroke="black" d="M205.127,-118C261.788,-118 352.648,-118 409.47,-118"/>
<polygon fill="black" stroke="black" points="205.085,-114.5 195.085,-118 205.085,-121.5 205.085,-114.5"/>
<polygon fill="black" stroke="black" points="409.668,-121.5 419.668,-118 409.668,-114.5 409.668,-121.5"/>
<text text-anchor="start" x="279.5" y="-124.2" font-family="Times,serif" font-size="11.00">owl:sameAs</text>
</g>
<!-- ns2&#45;&gt;c9h8o4 -->
<g id="edge8" class="edge"><title>ns2&#45;&gt;c9h8o4</title>
<path fill="none" stroke="black" stroke-dasharray="1,5" d="M421.827,-112.32C370.187,-105.828 282.333,-93.5776 252,-82 242.669,-78.4385 242.396,-73.3876 233,-70 174.399,-48.8711 154.376,-67.3355 94,-52 91.1724,-51.2818 88.2797,-50.4343 85.3947,-49.5073"/>
<polygon fill="black" stroke="black" points="86.3168,-46.1219 75.722,-46.1223 84.0046,-52.729 86.3168,-46.1219"/>
<text text-anchor="start" x="252" y="-73.2" font-family="Times,serif" font-size="11.00">chemical</text>
</g>
<!-- ns2&#45;&gt;headache -->
<g id="edge9" class="edge"><title>ns2&#45;&gt;headache</title>
<path fill="none" stroke="black" stroke-dasharray="1,5" d="M422.981,-111.324C393.088,-106.039 350.823,-96.7264 316,-82 306.801,-78.1099 306.348,-73.518 297,-70 248.993,-51.9323 232.585,-65.1324 183,-52 180.2,-51.2583 177.332,-50.4055 174.467,-49.4854"/>
<polygon fill="black" stroke="black" points="175.43,-46.1152 164.835,-46.1607 173.146,-52.7321 175.43,-46.1152"/>
<text text-anchor="start" x="316" y="-73.2" font-family="Times,serif" font-size="11.00">cures</text>
</g>
<!-- ns2&#45;&gt;ainc -->
<g id="edge10" class="edge"><title>ns2&#45;&gt;ainc</title>
<path fill="none" stroke="red" stroke-dasharray="1,5" d="M427.94,-107.05C408.836,-100.817 384.586,-92.0665 364,-82 355.028,-77.6126 354.274,-73.7079 345,-70 307.123,-54.8559 293.73,-64.8043 255,-52 253.08,-51.3654 251.13,-50.6539 249.18,-49.8913"/>
<polygon fill="red" stroke="red" points="250.156,-46.5016 239.586,-45.7727 247.395,-52.9339 250.156,-46.5016"/>
<text text-anchor="start" x="364" y="-73.2" font-family="Times,serif" font-size="11.00">sold by</text>
</g>
<!-- ns2&#45;&gt;aprice -->
<g id="edge11" class="edge"><title>ns2&#45;&gt;aprice</title>
<path fill="none" stroke="red" stroke-dasharray="1,5" d="M444.223,-101.495C432.545,-91.3778 416.215,-78.5162 400,-70 376.607,-57.7141 348.114,-48.7496 326.128,-42.9702"/>
<polygon fill="red" stroke="red" points="326.77,-39.5225 316.217,-40.4634 325.054,-46.3088 326.77,-39.5225"/>
<text text-anchor="start" x="418" y="-73.2" font-family="Times,serif" font-size="11.00">price</text>
</g>
<!-- binc -->
<g id="node7" class="node"><title>binc</title>
<ellipse fill="orange" stroke="orange" cx="447" cy="-34" rx="27" ry="18"/>
<text text-anchor="start" x="433" y="-31.2" font-family="Times,serif" font-size="11.00">B Inc.</text>
</g>
<!-- ns2&#45;&gt;binc -->
<g id="edge5" class="edge"><title>ns2&#45;&gt;binc</title>
<path fill="none" stroke="black" d="M458.099,-100.01C456.222,-89.0148 453.738,-74.4635 451.595,-61.9156"/>
<polygon fill="black" stroke="black" points="455.03,-61.237 449.897,-51.9687 448.13,-62.4151 455.03,-61.237"/>
<text text-anchor="start" x="454" y="-73.2" font-family="Times,serif" font-size="11.00">sold by</text>
</g>
<!-- bprice -->
<g id="node8" class="node"><title>bprice</title>
<ellipse fill="orange" stroke="orange" cx="519" cy="-34" rx="27" ry="18"/>
<text text-anchor="start" x="507.5" y="-31.2" font-family="Times,serif" font-size="11.00">€10,&#45;</text>
</g>
<!-- ns2&#45;&gt;bprice -->
<g id="edge6" class="edge"><title>ns2&#45;&gt;bprice</title>
<path fill="none" stroke="black" d="M475.057,-100.992C479.968,-95.1546 485.4,-88.4115 490,-82 495.031,-74.9888 500.108,-67.0984 504.578,-59.8134"/>
<polygon fill="black" stroke="black" points="507.711,-61.3949 509.866,-51.0214 501.713,-57.7872 507.711,-61.3949"/>
<text text-anchor="start" x="497" y="-73.2" font-family="Times,serif" font-size="11.00">price</text>
</g>
</g>
</svg>
