<?xml version="1.0" encoding="UTF-8" standalone="no"?>
<!DOCTYPE svg PUBLIC "-//W3C//DTD SVG 1.1//EN"
 "http://www.w3.org/Graphics/SVG/1.1/DTD/svg11.dtd">
<!-- Generated by graphviz version 2.38.0 (20140413.2041)
 -->
<!-- Title: identity_crisis3 Pages: 1 -->
<svg width="382pt" height="183pt"
 viewBox="0.00 0.00 382.00 183.00" xmlns="http://www.w3.org/2000/svg" xmlns:xlink="http://www.w3.org/1999/xlink">
<g id="graph0" class="graph" transform="scale(1 1) rotate(0) translate(4 179)">
<title>identity_crisis3</title>
<polygon fill="white" stroke="none" points="-4,4 -4,-179 378,-179 378,4 -4,4"/>
<g id="clust1" class="cluster"><title>cluster_ns1</title>
<polygon fill="none" stroke="black" points="8,-8 8,-167 181,-167 181,-8 8,-8"/>
<text text-anchor="start" x="85" y="-151.8" font-family="Times,serif" font-size="14.00">ns1</text>
</g>
<g id="clust2" class="cluster"><title>cluster_ns2</title>
<polygon fill="none" stroke="black" points="224,-8 224,-167 366,-167 366,-8 224,-8"/>
<text text-anchor="start" x="285.5" y="-151.8" font-family="Times,serif" font-size="14.00">ns2</text>
</g>
<!-- c9h8o4 -->
<g id="node1" class="node"><title>c9h8o4</title>
<ellipse fill="lightblue" stroke="lightblue" cx="50" cy="-34" rx="34.054" ry="18"/>
<text text-anchor="start" x="29.5" y="-32.2" font-family="Times,serif" font-size="11.00">C</text>
<text text-anchor="start" x="37.5" y="-32.2" font-family="Times,serif" baseline-shift="sub" font-size="11.00">9</text>
<text text-anchor="start" x="42.5" y="-32.2" font-family="Times,serif" font-size="11.00">H</text>
<text text-anchor="start" x="51.5" y="-32.2" font-family="Times,serif" baseline-shift="sub" font-size="11.00">8</text>
<text text-anchor="start" x="56.5" y="-32.2" font-family="Times,serif" font-size="11.00">O</text>
<text text-anchor="start" x="65.5" y="-32.2" font-family="Times,serif" baseline-shift="sub" font-size="11.00">4</text>
</g>
<!-- ns1 -->
<g id="node2" class="node"><title>ns1</title>
<ellipse fill="lightblue" stroke="lightblue" cx="111" cy="-118" rx="40.7822" ry="18"/>
<text text-anchor="start" x="85" y="-115.2" font-family="Times,serif" font-size="11.00">ns1:Aspirin</text>
</g>
<!-- ns1&#45;&gt;c9h8o4 -->
<g id="edge1" class="edge"><title>ns1&#45;&gt;c9h8o4</title>
<path fill="none" stroke="black" d="M84.4482,-104.126C75.4227,-98.5105 66.0894,-91.1048 60,-82 56.1651,-76.2661 53.7642,-69.3329 52.2711,-62.5733"/>
<polygon fill="black" stroke="black" points="55.6586,-61.5986 50.5964,-52.2914 48.7496,-62.724 55.6586,-61.5986"/>
<text text-anchor="start" x="60" y="-73.2" font-family="Times,serif" font-size="11.00">compound</text>
</g>
<!-- headache -->
<g id="node3" class="node"><title>headache</title>
<ellipse fill="lightblue" stroke="lightblue" cx="138" cy="-34" rx="35.4579" ry="18"/>
<text text-anchor="middle" x="138" y="-31.2" font-family="Times,serif" font-size="11.00">headache</text>
</g>
<!-- ns1&#45;&gt;headache -->
<g id="edge2" class="edge"><title>ns1&#45;&gt;headache</title>
<path fill="none" stroke="black" d="M108.882,-99.5914C108.394,-90.5353 108.773,-79.4195 112,-70 113.315,-66.1622 115.219,-62.3974 117.407,-58.8431"/>
<polygon fill="black" stroke="black" points="120.371,-60.7133 123.261,-50.5202 114.645,-56.6863 120.371,-60.7133"/>
<text text-anchor="start" x="112" y="-73.2" font-family="Times,serif" font-size="11.00">cures</text>
</g>
<!-- ns2 -->
<g id="node4" class="node"><title>ns2</title>
<ellipse fill="orange" stroke="orange" cx="273" cy="-118" rx="40.7822" ry="18"/>
<text text-anchor="start" x="247" y="-115.2" font-family="Times,serif" font-size="11.00">ns2:Aspirin</text>
</g>
<!-- ns1&#45;&gt;ns2 -->
<g id="edge5" class="edge"><title>ns1&#45;&gt;ns2</title>
<path fill="none" stroke="black" d="M162.357,-118C181.34,-118 202.844,-118 221.812,-118"/>
<polygon fill="black" stroke="black" points="162.299,-114.5 152.299,-118 162.299,-121.5 162.299,-114.5"/>
<polygon fill="black" stroke="black" points="222.058,-121.5 232.058,-118 222.058,-114.5 222.058,-121.5"/>
<text text-anchor="start" x="164" y="-124.2" font-family="Times,serif" font-size="11.00">owl:sameAs</text>
</g>
<!-- ns2&#45;&gt;c9h8o4 -->
<g id="edge6" class="edge"><title>ns2&#45;&gt;c9h8o4</title>
<path fill="none" stroke="red" stroke-dasharray="1,5" d="M237.278,-109.01C213.626,-103.073 182.246,-93.9415 156,-82 146.909,-77.8637 145.892,-74.5491 137,-70 132.076,-67.4808 107.865,-57.7741 86.231,-49.2202"/>
<polygon fill="red" stroke="red" points="87.4534,-45.94 76.8667,-45.5256 84.8843,-52.4515 87.4534,-45.94"/>
<text text-anchor="start" x="156" y="-73.2" font-family="Times,serif" font-size="11.00">compound</text>
</g>
<!-- ns2&#45;&gt;headache -->
<g id="edge7" class="edge"><title>ns2&#45;&gt;headache</title>
<path fill="none" stroke="red" stroke-dasharray="1,5" d="M253.248,-102.074C240.152,-92.4478 222.417,-79.92 206,-70 195.169,-63.4552 182.977,-56.9322 171.938,-51.322"/>
<polygon fill="red" stroke="red" points="173.502,-48.1907 162.993,-46.8437 170.368,-54.4501 173.502,-48.1907"/>
<text text-anchor="start" x="224" y="-73.2" font-family="Times,serif" font-size="11.00">cures</text>
</g>
<!-- binc -->
<g id="node5" class="node"><title>binc</title>
<ellipse fill="orange" stroke="orange" cx="259" cy="-34" rx="27" ry="18"/>
<text text-anchor="start" x="245" y="-31.2" font-family="Times,serif" font-size="11.00">B Inc.</text>
</g>
<!-- ns2&#45;&gt;binc -->
<g id="edge3" class="edge"><title>ns2&#45;&gt;binc</title>
<path fill="none" stroke="black" d="M270.099,-100.01C268.222,-89.0148 265.738,-74.4635 263.595,-61.9156"/>
<polygon fill="black" stroke="black" points="267.03,-61.237 261.897,-51.9687 260.13,-62.4151 267.03,-61.237"/>
<text text-anchor="start" x="267" y="-73.2" font-family="Times,serif" font-size="11.00">sold by</text>
</g>
<!-- bprice -->
<g id="node6" class="node"><title>bprice</title>
<ellipse fill="orange" stroke="orange" cx="331" cy="-34" rx="27" ry="18"/>
<text text-anchor="start" x="319.5" y="-31.2" font-family="Times,serif" font-size="11.00">€10,&#45;</text>
</g>
<!-- ns2&#45;&gt;bprice -->
<g id="edge4" class="edge"><title>ns2&#45;&gt;bprice</title>
<path fill="none" stroke="black" d="M287.642,-101.09C292.732,-95.2622 298.331,-88.4998 303,-82 307.987,-75.0575 312.929,-67.1875 317.24,-59.9001"/>
<polygon fill="black" stroke="black" points="320.354,-61.5056 322.32,-51.0947 314.291,-58.0076 320.354,-61.5056"/>
<text text-anchor="start" x="310" y="-73.2" font-family="Times,serif" font-size="11.00">price</text>
</g>
</g>
</svg>
