<?xml version="1.0" encoding="UTF-8" standalone="no"?>
<!DOCTYPE svg PUBLIC "-//W3C//DTD SVG 1.1//EN"
 "http://www.w3.org/Graphics/SVG/1.1/DTD/svg11.dtd">
<!-- Generated by graphviz version 2.38.0 (20140413.2041)
 -->
<!-- Title: example Pages: 1 -->
<svg width="576pt" height="260pt"
 viewBox="0.00 0.00 575.79 260.00" xmlns="http://www.w3.org/2000/svg" xmlns:xlink="http://www.w3.org/1999/xlink">
<g id="graph0" class="graph" transform="scale(1 1) rotate(0) translate(4 256)">
<title>example</title>
<polygon fill="white" stroke="none" points="-4,4 -4,-256 571.794,-256 571.794,4 -4,4"/>
<!-- xyz -->
<g id="node1" class="node"><title>xyz</title>
<ellipse fill="none" stroke="red" cx="229.794" cy="-234" rx="112.38" ry="18"/>
<text text-anchor="start" x="151.294" y="-230.3" font-family="Times,serif" font-size="14.00">{cures,chemical,sold by} ⊥</text>
</g>
<!-- xy -->
<g id="node2" class="node"><title>xy</title>
<ellipse fill="none" stroke="black" cx="72.7935" cy="-162" rx="72.5877" ry="18"/>
<text text-anchor="middle" x="72.7935" y="-158.3" font-family="Times,serif" font-size="14.00">{cures,chemical}</text>
</g>
<!-- xyz&#45;&gt;xy -->
<g id="edge1" class="edge"><title>xyz&#45;&gt;xy</title>
<path fill="none" stroke="black" d="M193.775,-216.941C167.521,-205.235 132.195,-189.485 106.497,-178.027"/>
</g>
<!-- xz -->
<g id="node3" class="node"><title>xz</title>
<ellipse fill="none" stroke="black" cx="229.794" cy="-162" rx="66.0889" ry="18"/>
<text text-anchor="middle" x="229.794" y="-158.3" font-family="Times,serif" font-size="14.00">{cures,sold by}</text>
</g>
<!-- xyz&#45;&gt;xz -->
<g id="edge2" class="edge"><title>xyz&#45;&gt;xz</title>
<path fill="none" stroke="black" d="M229.794,-215.697C229.794,-204.846 229.794,-190.917 229.794,-180.104"/>
</g>
<!-- yz -->
<g id="node4" class="node"><title>yz</title>
<ellipse fill="none" stroke="red" cx="404.794" cy="-162" rx="90.9839" ry="18"/>
<text text-anchor="start" x="342.794" y="-158.3" font-family="Times,serif" font-size="14.00">{chemical,sold by} ⊥</text>
</g>
<!-- xyz&#45;&gt;yz -->
<g id="edge3" class="edge"><title>xyz&#45;&gt;yz</title>
<path fill="none" stroke="black" d="M269.504,-217.116C298.547,-205.499 337.723,-189.828 366.443,-178.34"/>
</g>
<!-- x -->
<g id="node5" class="node"><title>x</title>
<ellipse fill="none" stroke="black" cx="126.794" cy="-90" rx="38.1938" ry="18"/>
<text text-anchor="middle" x="126.794" y="-86.3" font-family="Times,serif" font-size="14.00">{cures}</text>
</g>
<!-- xy&#45;&gt;x -->
<g id="edge4" class="edge"><title>xy&#45;&gt;x</title>
<path fill="none" stroke="black" d="M85.8654,-144.055C94.4804,-132.887 105.701,-118.343 114.214,-107.307"/>
</g>
<!-- y -->
<g id="node6" class="node"><title>y</title>
<ellipse fill="none" stroke="black" cx="234.794" cy="-90" rx="51.9908" ry="18"/>
<text text-anchor="middle" x="234.794" y="-86.3" font-family="Times,serif" font-size="14.00">{chemical}</text>
</g>
<!-- xy&#45;&gt;y -->
<g id="edge5" class="edge"><title>xy&#45;&gt;y</title>
<path fill="none" stroke="black" d="M107.547,-145.983C136.089,-133.65 176.152,-116.339 203.658,-104.454"/>
</g>
<!-- xz&#45;&gt;x -->
<g id="edge6" class="edge"><title>xz&#45;&gt;x</title>
<path fill="none" stroke="black" d="M206.421,-145.116C188.734,-133.095 164.661,-116.735 147.627,-105.159"/>
</g>
<!-- z -->
<g id="node7" class="node"><title>z</title>
<ellipse fill="none" stroke="black" cx="349.794" cy="-90" rx="45.4919" ry="18"/>
<text text-anchor="middle" x="349.794" y="-86.3" font-family="Times,serif" font-size="14.00">{sold by}</text>
</g>
<!-- xz&#45;&gt;z -->
<g id="edge7" class="edge"><title>xz&#45;&gt;z</title>
<path fill="none" stroke="black" d="M256.425,-145.465C277.002,-133.462 305.256,-116.98 325.279,-105.3"/>
</g>
<!-- yz&#45;&gt;y -->
<g id="edge8" class="edge"><title>yz&#45;&gt;y</title>
<path fill="none" stroke="black" d="M367.065,-145.465C337.035,-133.099 295.461,-115.981 266.985,-104.255"/>
</g>
<!-- yz&#45;&gt;z -->
<g id="edge9" class="edge"><title>yz&#45;&gt;z</title>
<path fill="none" stroke="black" d="M391.48,-144.055C382.705,-132.887 371.277,-118.343 362.606,-107.307"/>
</g>
<!-- zero -->
<g id="node8" class="node"><title>zero</title>
<ellipse fill="none" stroke="black" cx="234.794" cy="-18" rx="27" ry="18"/>
<text text-anchor="middle" x="234.794" y="-14.3" font-family="Times,serif" font-size="14.00">∅</text>
</g>
<!-- x&#45;&gt;zero -->
<g id="edge10" class="edge"><title>x&#45;&gt;zero</title>
<path fill="none" stroke="black" d="M148.389,-75.0027C168.211,-62.1555 197.275,-43.3173 216.117,-31.105"/>
</g>
<!-- y&#45;&gt;zero -->
<g id="edge11" class="edge"><title>y&#45;&gt;zero</title>
<path fill="none" stroke="black" d="M234.794,-71.6966C234.794,-60.8463 234.794,-46.9167 234.794,-36.1043"/>
</g>
<!-- z&#45;&gt;zero -->
<g id="edge12" class="edge"><title>z&#45;&gt;zero</title>
<path fill="none" stroke="black" d="M325.965,-74.496C304.65,-61.5211 273.802,-42.7441 254.022,-30.7041"/>
</g>
<!-- r1 -->
<g id="node9" class="node"><title>r1</title>
</g>
<!-- r2 -->
<g id="node10" class="node"><title>r2</title>
</g>
<!-- r3 -->
<g id="node11" class="node"><title>r3</title>
</g>
<!-- r4 -->
<g id="node12" class="node"><title>r4</title>
</g>
</g>
</svg>
