<?xml version="1.0" encoding="utf-8"?>
<!DOCTYPE svg PUBLIC "-//W3C//DTD SVG 1.0//EN" "http://www.w3.org/TR/2001/REC-SVG-20010904/DTD/svg10.dtd">
<svg version="1.0" xmlns="http://www.w3.org/2000/svg" xmlns:xlink="http://www.w3.org/1999/xlink" x="0px" y="0px"
	 width="70.9px" height="34px" viewBox="0 0 70.9 34" enable-background="new 0 0 70.9 34" xml:space="preserve">
<line fill="none" stroke="#808080" stroke-miterlimit="10" stroke-dasharray="1,1" x1="36.4" y1="16.3" x2="43.5" y2="5.9"/>
<line fill="none" stroke="#808080" stroke-miterlimit="10" stroke-dasharray="1,1" x1="36.9" y1="18.7" x2="43.1" y2="28.3"/>
<line fill="none" stroke="#808080" stroke-miterlimit="10" stroke-dasharray="1,1" x1="36.1" y1="18.9" x2="9.1" y2="7.2"/>
<line fill="none" stroke="#808080" stroke-miterlimit="10" stroke-dasharray="1,1" x1="34.1" y1="17.4" x2="7.1" y2="16.3"/>
<rect x="16.7" y="7.1" fill="#33A237" width="1.9" height="3.3"/>
<rect x="48.2" y="18.2" fill="#33A237" width="1.9" height="1.8"/>
<rect x="33.8" y="5" fill="#33A237" width="1.9" height="3.1"/>
<rect x="69" y="4.3" fill="#33A237" width="1.9" height="4.8"/>
<rect x="15.5" y="24.6" fill="#33A237" width="1.9" height="4.6"/>
<rect x="33.4" y="29.7" fill="#33A237" width="1.9" height="2.9"/>
<rect x="68.4" y="25.7" fill="#33A237" width="1.9" height="4.4"/>
<line fill="none" stroke="#808080" stroke-miterlimit="10" stroke-dasharray="1,1" x1="34.5" y1="17.6" x2="61.5" y2="5.9"/>
<line fill="none" stroke="#808080" stroke-miterlimit="10" stroke-dasharray="1,1" x1="32.9" y1="16" x2="26.5" y2="5.1"/>
<line fill="none" stroke="#808080" stroke-miterlimit="10" stroke-dasharray="1,1" x1="35" y1="14.1" x2="8" y2="25.8"/>
<line fill="none" stroke="#808080" stroke-miterlimit="10" stroke-dasharray="1,1" x1="32" y1="18.9" x2="25.2" y2="28.1"/>
<line fill="none" stroke="#808080" stroke-miterlimit="10" stroke-dasharray="1,1" x1="33.9" y1="15.3" x2="60.9" y2="27"/>
<path fill="#8BC2EB" d="M44.8,12.5h-22c-1.1,0-2,0.9-2,2v4.1c0,1.1,0.9,2,2,2h21.9c1.1,0,2-0.9,2-2v-4.1C46.8,13.4,45.9,12.5,44.8,12.5z"/>
<rect x="48.3" y="13.7" fill="none" stroke="#000000" stroke-width="0.398" stroke-miterlimit="10" width="1.8" height="6.3"/>
<path fill="#F2C80A" d="M65.6,2.8h-8.1c-1.1,0-2,0.9-2,2v2.1c0,1.1,0.9,2,2,2h8.1c1.1,0,2-0.9,2-2V4.8C67.6,3.7,66.7,2.8,65.6,2.8z" />
<text transform="matrix(1 0 0 1 57.4607 6.9648)" font-family="'Arial-BoldMT'" font-size="2.9259">client</text>
<rect x="69" y="3" fill="none" stroke="#000000" stroke-width="0.398" stroke-miterlimit="10" width="1.8" height="6.3"/>
<path fill="#F2C80A" d="M30.4,1.7h-8.1c-1.1,0-2,0.9-2,2v2.1c0,1.1,0.9,2,2,2h8.1c1.1,0,2-0.9,2-2V3.7C32.5,2.6,31.5,1.7,30.4,1.7z" />
<text transform="matrix(1 0 0 1 22.2937 5.8184)" font-family="'Arial-BoldMT'" font-size="2.9259">client</text>
<text transform="matrix(1 0 0 1 25.9534 17.5996)" font-family="'Arial-BoldMT'" font-size="2.9259">LDF server</text>
<rect x="33.9" y="1.8" fill="none" stroke="#000000" stroke-width="0.398" stroke-miterlimit="10" width="1.8" height="6.3"/>
<rect x="50.8" y="4.6" fill="#33A237" width="1.9" height="3.1"/>
<path fill="#F2C80A" d="M47.4,1.3h-8.1c-1.1,0-2,0.9-2,2v2.1c0,1.1,0.9,2,2,2h8.1c1.1,0,2-0.9,2-2V3.3C49.5,2.2,48.5,1.3,47.4,1.3z" />
<text transform="matrix(1 0 0 1 39.3328 5.4678)" font-family="'Arial-BoldMT'" font-size="2.9259">client</text>
<rect x="50.9" y="1.4" fill="none" stroke="#000000" stroke-width="0.398" stroke-miterlimit="10" width="1.8" height="6.3"/>
<path fill="#F2C80A" d="M13.2,4.1H5.1c-1.1,0-2,0.9-2,2v2.1c0,1.1,0.9,2,2,2h8.1c1.1,0,2-0.9,2-2V6.1C15.2,5,14.3,4.1,13.2,4.1z"/>
<text transform="matrix(1 0 0 1 5.03 8.2207)" font-family="'Arial-BoldMT'" font-size="2.9259">client</text>
<rect x="16.7" y="4.3" fill="none" stroke="#000000" stroke-width="0.398" stroke-miterlimit="10" width="1.8" height="6.3"/>
<rect x="14.7" y="15.8" fill="#33A237" width="1.9" height="3.8"/>
<path fill="#F2C80A" d="M11.2,13.2H3.1c-1.1,0-2,0.9-2,2v2.1c0,1.1,0.9,2,2,2h8.1c1.1,0,2-0.9,2-2v-2.1C13.2,14.1,12.3,13.2,11.2,13.2z"/>
<text transform="matrix(1 0 0 1 3.071 17.3447)" font-family="'Arial-BoldMT'" font-size="2.9259">client</text>
<rect x="14.7" y="13.4" fill="none" stroke="#000000" stroke-width="0.398" stroke-miterlimit="10" width="1.8" height="6.3"/>
<path fill="#F2C80A" d="M12.1,22.7H4c-1.1,0-2,0.9-2,2v2.1c0,1.1,0.9,2,2,2h8.1c1.1,0,2-0.9,2-2v-2.1C14.1,23.6,13.2,22.7,12.1,22.7z"/>
<text transform="matrix(1 0 0 1 3.9304 26.8301)" font-family="'Arial-BoldMT'" font-size="2.9259">client</text>
<rect x="15.6" y="22.9" fill="none" stroke="#000000" stroke-width="0.398" stroke-miterlimit="10" width="1.8" height="6.3"/>
<path fill="#F2C80A" d="M30,26.2h-8.1c-1.1,0-2,0.9-2,2v2.1c0,1.1,0.9,2,2,2H30c1.1,0,2-0.9,2-2v-2.1C32.1,27.1,31.1,26.2,30,26.2z" />
<text transform="matrix(1 0 0 1 21.8953 30.3516)" font-family="'Arial-BoldMT'" font-size="2.9259">client</text>
<rect x="33.5" y="26.4" fill="none" stroke="#000000" stroke-width="0.398" stroke-miterlimit="10" width="1.8" height="6.3"/>
<rect x="50.8" y="29.7" fill="#33A237" width="1.9" height="2.9"/>
<path fill="#F2C80A" d="M47.4,26.2h-8.1c-1.1,0-2,0.9-2,2v2.1c0,1.1,0.9,2,2,2h8.1c1.1,0,2-0.9,2-2v-2.1C49.5,27.1,48.5,26.2,47.4,26.2z"/>
<text transform="matrix(1 0 0 1 39.3328 30.3516)" font-family="'Arial-BoldMT'" font-size="2.9259">client</text>
<rect x="50.9" y="26.4" fill="none" stroke="#000000" stroke-width="0.398" stroke-miterlimit="10" width="1.8" height="6.3"/>
<path fill="#F2C80A" d="M65,23.9h-8.1c-1.1,0-2,0.9-2,2V28c0,1.1,0.9,2,2,2H65c1.1,0,2-0.9,2-2v-2.1C67,24.8,66.1,23.9,65,23.9z"/>
<text transform="matrix(1 0 0 1 56.822 27.9814)" font-family="'Arial-BoldMT'" font-size="2.9259">client</text>
<rect x="68.4" y="24.1" fill="none" stroke="#000000" stroke-width="0.398" stroke-miterlimit="10" width="1.8" height="6.3"/>
<text transform="matrix(1 0 0 1 57.2625 15.7998)" font-family="'Arial-BoldItalicMT'" font-size="2.9259">high </text>
<text transform="matrix(1 0 0 1 52.863 19.2998)" font-family="'Arial-BoldItalicMT'" font-size="2.9259">availability</text>
</svg>
