<?xml version="1.0" encoding="UTF-8" standalone="no"?>
<svg
   xmlns:sketch="http://www.bohemiancoding.com/sketch/ns"
   xmlns:dc="http://purl.org/dc/elements/1.1/"
   xmlns:cc="http://creativecommons.org/ns#"
   xmlns:rdf="http://www.w3.org/1999/02/22-rdf-syntax-ns#"
   xmlns:svg="http://www.w3.org/2000/svg"
   xmlns="http://www.w3.org/2000/svg"
   xmlns:sodipodi="http://sodipodi.sourceforge.net/DTD/sodipodi-0.dtd"
   xmlns:inkscape="http://www.inkscape.org/namespaces/inkscape"
   viewBox="0 0 158.7459 44.620464"
   version="1.1"
   x="0px"
   y="0px"
   id="svg2"
   inkscape:version="0.48.4 r9939"
   width="100%"
   height="100%"
   sodipodi:docname="lodLab.svg">
  <metadata
     id="metadata24">
    <rdf:RDF>
      <cc:Work
         rdf:about="">
        <dc:format>image/svg+xml</dc:format>
        <dc:type
           rdf:resource="http://purl.org/dc/dcmitype/StillImage" />
        <dc:title>school-learn-study-subject-chemistry</dc:title>
      </cc:Work>
    </rdf:RDF>
  </metadata>
  <defs
     id="defs22" />
  <sodipodi:namedview
     pagecolor="#ffffff"
     bordercolor="#666666"
     borderopacity="1"
     objecttolerance="10"
     gridtolerance="10"
     guidetolerance="10"
     inkscape:pageopacity="0"
     inkscape:pageshadow="2"
     inkscape:window-width="1855"
     inkscape:window-height="1056"
     id="namedview20"
     showgrid="false"
     inkscape:zoom="3.4961536"
     inkscape:cx="124.80594"
     inkscape:cy="-46.625292"
     inkscape:window-x="65"
     inkscape:window-y="24"
     inkscape:window-maximized="1"
     inkscape:current-layer="svg2"
     fit-margin-top="0"
     fit-margin-left="0"
     fit-margin-right="0"
     fit-margin-bottom="0" />
  <title
     id="title4">school-learn-study-subject-chemistry</title>
  <desc
     id="desc6">Created with Sketch.</desc>
  <rect
     style="fill:#93b2c7;fill-opacity:1;stroke:none"
     id="rect3045"
     width="158.7459"
     height="44.620464"
     x="0"
     y="0" />
  <g
     sketch:type="MSPage"
     id="g8"
     style="fill:#ed583a;stroke:none"
     transform="matrix(0.55211555,0,0,0.55211555,113.61205,-2.3891602)">
    <g
       sketch:type="MSLayerGroup"
       id="g10"
       style="fill:#ed583a">
      <g
         transform="matrix(0.70710678,0.70710678,-0.70710678,0.70710678,56.460155,12.119535)"
         sketch:type="MSShapeGroup"
         id="g12"
         style="fill:#ed583a">
        <path
           d="m 23.582222,18.1125 0,-10.3436304 c 0,-1.6901142 0.696561,-3.6967379 1.752631,-5.2075812 L 6.1136455,2.6101835 C 7.1481988,4.111151 7.832222,6.0895507 7.832222,7.7688696 l 0,43.9563994 c 0,4.297678 3.534429,7.787231 7.875,7.787231 0.0071,0 0.01426,-9e-6 0.02139,-2.8e-5 C 11.397824,59.50103 7.875,56.015885 7.875,51.725269 l 0,-16.558104 L 22.552029,20.7 l -4.177029,0 0,-2.5875 5.207222,0 0,0 z M 0,0 31.415886,0 28.832222,2.5875 28.072958,3.3359175 C 27.027535,4.3664062 26.207222,6.336315 26.207222,7.7688696 l 0,43.9563994 c 0,5.716319 -4.70101,10.374731 -10.5,10.374731 -5.7871901,0 -10.5,-4.644925 -10.5,-10.374731 l 0,-43.9563994 c 0,-1.4567712 -0.8353184,-3.4172549 -1.8657359,-4.4329521 L 2.582222,2.5875 0,0 z m 18.375,25.875 0,2.5875 5.25,0 0,-2.5875 -5.25,0 z m 0,7.7625 0,2.5875 5.25,0 0,-2.5875 -5.25,0 z m 0,7.7625 0,2.5875 5.25,0 0,-2.5875 -5.25,0 z M 16.518845,15.915085 c 1.449747,0 2.625,-1.158463 2.625,-2.5875 0,-1.429036 -1.175253,-2.5875 -2.625,-2.5875 -1.449748,0 -2.625,1.158464 -2.625,2.5875 0,1.429037 1.175252,2.5875 2.625,2.5875 z m -5.25,10.533888 c 1.449747,0 2.625,-1.158463 2.625,-2.5875 0,-1.429036 -1.175253,-2.5875 -2.625,-2.5875 -1.4497478,0 -2.6250003,1.158464 -2.6250003,2.5875 0,1.429037 1.1752525,2.5875 2.6250003,2.5875 z M 18.375,54.3375 c 1.449747,0 2.625,-1.158463 2.625,-2.5875 0,-1.429037 -1.175253,-2.5875 -2.625,-2.5875 -1.449748,0 -2.625,1.158463 -2.625,2.5875 0,1.429037 1.175252,2.5875 2.625,2.5875 z m -5.25,-7.7625 c 1.449748,0 2.625,-1.158463 2.625,-2.5875 0,-1.429037 -1.175252,-2.5875 -2.625,-2.5875 -1.449748,0 -2.625,1.158463 -2.625,2.5875 0,1.429037 1.175252,2.5875 2.625,2.5875 z"
           id="path14"
           inkscape:connector-curvature="0"
           style="fill:#ed583a" />
      </g>
    </g>
  </g>
  <text
     xml:space="preserve"
     style="font-size:40px;font-style:normal;font-variant:normal;font-weight:normal;font-stretch:normal;line-height:125%;letter-spacing:0px;word-spacing:0px;fill:#f5f5f5;fill-opacity:1;stroke:none;font-family:Theorem NBP;-inkscape-font-specification:Theorem NBP"
     x="2.000001"
     y="32.607265"
     id="text3041"
     sodipodi:linespacing="125%"><tspan
       sodipodi:role="line"
       id="tspan3043"
       x="2.000001"
       y="32.607265"
       style="font-size:32px;font-style:normal;font-variant:normal;font-weight:normal;font-stretch:normal;fill:#f5f5f5;font-family:Droid Sans;-inkscape-font-specification:Droid Sans">LOD Lab</tspan></text>
</svg>
