<?xml version="1.0" encoding="UTF-8"?>
<!DOCTYPE svg PUBLIC "-//W3C//DTD SVG 1.0//EN" "http://www.w3.org/TR/2001/REC-SVG-20010904/DTD/svg10.dtd">
<svg version="1.0" xmlns="http://www.w3.org/2000/svg" width="70.9px" height="34px">
<rect x="14.4" y="7.1" fill="#33A237" width="1.9" height="1"/>
<rect x="41.1" y="7.1" fill="#33A237" width="1.9" height="1"/>
<rect x="68.3" y="7.1" fill="#33A237" width="1.9" height="1"/>
<rect x="14.3" y="30.7" fill="#33A237" width="1.9" height="1"/>
<rect x="41.1" y="30.5" fill="#33A237" width="1.9" height="1"/>
<line fill="none" stroke="#808080" stroke-width="0.5" stroke-dasharray="1,1" x1="33.8" y1="16.6" x2="60.8" y2="4.9"/>
<line fill="none" stroke="#808080" stroke-width="0.5" stroke-dasharray="1,1" x1="33.8" y1="16.6" x2="33.8" y2="4"/>
<line fill="none" stroke="#808080" stroke-width="0.5" stroke-dasharray="1,1" x1="33.8" y1="16.6" x2="6.8" y2="4.9"/>
<line fill="none" stroke="#808080" stroke-width="0.5" stroke-dasharray="1,1" x1="33.8" y1="16.6" x2="6.8" y2="28.3"/>
<line fill="none" stroke="#808080" stroke-width="0.5" stroke-dasharray="1,1" x1="33.8" y1="16.6" x2="33.8" y2="28.1"/>
<path fill="#8BC2EB" d="M44.8,12.5h-22c-1.1,0-2,0.9-2,2v4.1c0,1.1,0.9,2,2,2h21.9c1.1,0,2-0.9,2-2v-4.1C46.8,13.4,45.9,12.5,44.8,12.5z"/>
<rect x="48.3" y="14.4" fill="#B51918" width="1.8" height="5.6"/>
<rect x="48.3" y="13.7" fill="none" stroke="#000000" stroke-width="0.4" width="1.8" height="6.3"/>
<path fill="#F2C80A" d="M64.9,1.8h-8.1c-1.1,0-2,0.9-2,2v2.1c0,1.1,0.9,2,2,2h8.1c1.1,0,2-0.9,2-2V3.8C66.9,2.7,66,1.8,64.9,1.8z"/>
<text x="56.7224" y="5.9453" font-family="'Arial-BoldMT'" font-size="3">client</text>
<rect x="68.3" y="2" fill="none" stroke="#000000" stroke-width="0.4" width="1.8" height="6.3"/>
<path fill="#F2C80A" d="M37.7,1.7h-8.1c-1.1,0-2,0.9-2,2v2.1c0,1.1,0.9,2,2,2h8.1c1.1,0,2-0.9,2-2V3.7C39.8,2.6,38.8,1.7,37.7,1.7z"/>
<text x="29.5945" y="5.8184" font-family="'Arial-BoldMT'" font-size="3">client</text>
<text x="22.9041" y="17.6934" font-family="'Arial-BoldMT'" font-size="3">SPARQL server</text>
<text x="58.4128" y="15.7998" font-family="'Arial-BoldItalicMT'" font-size="3">low </text>
<text x="53.4128" y="19.2998" font-family="'Arial-BoldItalicMT'" font-size="3">availability</text>
<rect x="41.2" y="1.8" fill="none" stroke="#000000" stroke-width="0.4" width="1.8" height="6.3"/>
<path fill="#F2C80A" d="M10.9,1.8H2.8c-1.1,0-2,0.9-2,2v2.1c0,1.1,0.9,2,2,2h8.1c1.1,0,2-0.9,2-2V3.8C12.9,2.7,12,1.8,10.9,1.8z"/>
<text x="2.7585" y="5.9453" font-family="'Arial-BoldMT'" font-size="3">client</text>
<rect x="14.4" y="2" fill="none" stroke="#000000" stroke-width="0.4" width="1.8" height="6.3"/>
<path fill="#F2C80A" d="M10.9,25.2H2.8c-1.1,0-2,0.9-2,2v2.1c0,1.1,0.9,2,2,2h8.1c1.1,0,2-0.9,2-2v-2.1C12.9,26.1,12,25.2,10.9,25.2z"/>
<text x="2.7585" y="29.3301" font-family="'Arial-BoldMT'" font-size="3">client</text>
<rect x="14.4" y="25.4" fill="none" stroke="#000000" stroke-width="0.4" width="1.8" height="6.3"/>
<path fill="#F2C80A" d="M37.7,25h-8.1c-1.1,0-2,0.9-2,2v2.1c0,1.1,0.9,2,2,2h8.1c1.1,0,2-0.9,2-2V27C39.8,25.9,38.8,25,37.7,25z"/>
<text x="29.5945" y="29.2012" font-family="'Arial-BoldMT'" font-size="3">client</text>
<rect x="41.2" y="25.2" fill="none" stroke="#000000" stroke-width="0.4" width="1.8" height="6.3"/>
</svg>